/* XPM */
static const char *goku[] = {
/* columns rows colors chars-per-pixel */
"64 64 248 2 ",
"   c #1B0F0F",
".  c #170F0F",
"X  c #14110F",
"o  c #1B100F",
"O  c #120F11",
"+  c #190F10",
"@  c #0F1012",
"#  c #0F101B",
"$  c #111010",
"%  c #1B1210",
"&  c #11111B",
"*  c #1D1913",
"=  c #0F0F17",
"-  c #23110E",
";  c #2B120E",
":  c #37140E",
">  c #271814",
",  c #351814",
"<  c #342716",
"1  c #0F1123",
"2  c #0E122C",
"3  c #161323",
"4  c #0D1437",
"5  c #101936",
"6  c #322925",
"7  c #211E27",
"8  c #47160E",
"9  c #55170E",
"0  c #4A1912",
"q  c #581D13",
"w  c #661C12",
"e  c #751B11",
"r  c #462B0E",
"t  c #4D340D",
"y  c #543A0E",
"u  c #482716",
"i  c #562717",
"p  c #4C3714",
"a  c #553A15",
"s  c #532C0F",
"d  c #672718",
"f  c #6E3516",
"g  c #472C23",
"h  c #51362C",
"j  c #773A2A",
"k  c #6D3529",
"l  c #57420E",
"z  c #564214",
"x  c #4F421D",
"c  c #75570D",
"v  c #694C13",
"b  c #544834",
"n  c #7A4739",
"m  c #6B4D35",
"M  c #746A35",
"N  c #0B1A47",
"B  c #0A1E54",
"V  c #0F2554",
"C  c #2B3451",
"Z  c #0A2764",
"A  c #0C3377",
"S  c #584E44",
"D  c #66574A",
"F  c #71574A",
"G  c #776754",
"H  c #61626B",
"J  c #2B5174",
"K  c #951E10",
"L  c #8E2819",
"P  c #B82414",
"I  c #B22715",
"U  c #8C3926",
"Y  c #B03627",
"T  c #AB1E0F",
"R  c #D92715",
"E  c #CB2817",
"W  c #E92613",
"Q  c #F52510",
"!  c #CF3724",
"~  c #8C670E",
"^  c #8B6514",
"/  c #8B4B34",
"(  c #B44832",
")  c #8D6F3B",
"_  c #976623",
"`  c #D04833",
"'  c #975846",
"]  c #865544",
"[  c #A95947",
"{  c #946954",
"}  c #A9654B",
"|  c #A96A55",
" . c #B66B54",
".. c #AA735E",
"X. c #B9755C",
"o. c #B06B4E",
"O. c #8F7469",
"+. c #B67A64",
"@. c #C95A48",
"#. c #C6765C",
"$. c #CC6D54",
"%. c #C97C64",
"&. c #D27168",
"*. c #ED747A",
"=. c #9E853D",
"-. c #989247",
";. c #958572",
":. c #BB856C",
">. c #AD8F75",
",. c #B1A34E",
"<. c #C8866B",
"1. c #D6876A",
"2. c #C98A73",
"3. c #D68D71",
"4. c #D79679",
"5. c #C79579",
"6. c #E79879",
"7. c #EB9575",
"8. c #F3A47E",
"9. c #EDA07F",
"0. c #CCA27F",
"q. c #C8CD4A",
"w. c #CBCD55",
"e. c #CECC61",
"r. c #0C3B86",
"t. c #0D4795",
"y. c #11468F",
"u. c #0B57B7",
"i. c #0B4EA8",
"p. c #1663B5",
"a. c #2C6CB6",
"s. c #375F95",
"d. c #446D96",
"f. c #5B7296",
"g. c #0B67C8",
"h. c #0A6DD3",
"j. c #0A74DA",
"k. c #177AD7",
"l. c #1770CA",
"z. c #2E79C9",
"x. c #0477E5",
"c. c #0479E6",
"v. c #0377E8",
"b. c #027CEB",
"n. c #0D7DE6",
"m. c #037FF0",
"M. c #117EE7",
"N. c #F77783",
"B. c #F57881",
"V. c #6E8EB8",
"C. c #5B83AD",
"Z. c #0282EE",
"A. c #0987ED",
"S. c #1786E7",
"D. c #0284F2",
"F. c #028BF3",
"G. c #0A8AF1",
"H. c #0493F2",
"J. c #0A9BF2",
"K. c #0897F2",
"L. c #1495F1",
"P. c #0EA1F2",
"I. c #1BA9F1",
"U. c #16A6F1",
"Y. c #24ADF1",
"T. c #2BB2F1",
"R. c #36B8F0",
"E. c #30AFEE",
"W. c #2F8CCC",
"Q. c #42BEF0",
"!. c #588AC4",
"~. c #4BC3EF",
"^. c #3183BA",
"/. c #968D8A",
"(. c #A79998",
"). c #A89484",
"_. c #B9AA97",
"`. c #B7A98F",
"'. c #8B97AE",
"]. c #B899AA",
"[. c #B79AAE",
"{. c #B8AAAA",
"}. c #BCABB2",
"|. c #B4AEAF",
" X c #98A7BC",
".X c #D99D82",
"XX c #C99B83",
"oX c #E89D82",
"OX c #D9A887",
"+X c #C6B599",
"@X c #D5B897",
"#X c #CEAA8E",
"$X c #EDA384",
"%X c #E8A889",
"&X c #F2A483",
"*X c #F1AA8C",
"=X c #F2A787",
"-X c #EDB798",
";X c #F0B998",
":X c #EFAE90",
">X c #C6BAA6",
",X c #C5A8B9",
"<X c #C4B7BB",
"1X c #CDB4B0",
"2X c #D1A7AC",
"3X c #D7C7A7",
"4X c #D6CAB5",
"5X c #D5CAB3",
"6X c #EDCCAC",
"7X c #E9C6A5",
"8X c #EAD2AC",
"9X c #E5CDB3",
"0X c #EBDCBB",
"qX c #E9D8B7",
"wX c #F1CAA6",
"eX c #EBE2BE",
"rX c #ECE1B4",
"tX c #ECC39F",
"yX c #A7B4C8",
"uX c #CFACC2",
"iX c #C9BBC1",
"pX c #D6B5C9",
"aX c #D6B1C9",
"sX c #EBBFE3",
"dX c #E5BFD7",
"fX c #CCC2C5",
"gX c #CCC6C9",
"hX c #D5C8CB",
"jX c #D6CDD2",
"kX c #DCD4D7",
"lX c #D3D2CF",
"zX c #E6DBC5",
"xX c #E8C7DC",
"cX c #E4D7DB",
"vX c #EAE3C3",
"bX c #EAE4CA",
"nX c #E6E6DE",
"mX c #E9E5DC",
"MX c #EAE4D6",
"NX c #EBC4E2",
"BX c #EADDE4",
"VX c #E7D9E1",
"CX c #E6E6E3",
"ZX c #EAE2E5",
"AX c #E7E7E9",
"SX c #E9E5E9",
"DX c #D4D8E3",
"FX c #BCC0CC",
/* pixels */
"x.x.x.j.t.4 & $ $ $ $ $ @ @ @ @ @ @ O O O O O O O $ $ $ $ o :.u o F =X| o X $ $ $ , 4.7.4., $ @ @ @ @ @ @ @ @ @ @ @ X b }.$ $ $ ",
"x.x.x.t.2 # $ $ $ $ $ $ @ @ @ @ @ @ O O O O O O O O $ $ $ g 6.: - 2.&Xj o X $ $ X | 8.1.oXh $ @ @ @ @ @ @ @ @ @ @ $ $ 3X4X% $ $ ",
"x.x.i.4 # @ $ $ $ $ $ $ $ $ $ $ $ @ $ $ $ $ $ $ $ $ $ $ $ ..<.; h &X&Xi o X $ O g $X8.1.8.n X $ $ O $ $ $ $ $ $ $ $ D vX+X% $ $ ",
"x.u.N 1 @ @ @ $ $ $ $ $ $ $ $ $ $ $ $ $ $ $ $ $ $ $ $ $ > %X{ - { 8.4.: X X X - :.&X8.1.&X' o $ $ $ $ $ $ $ $ $ $ $ 3XeX>.o $ $ ",
"j.Z # $ @ @ @ $ $ $ $ $ $ $ $ $ $ $ $ $ $ $ $ $ $ $ $ $ D ] : - 2.8.%.; X X X m &X8.&X1.&X} o $ $ $ $ $ $ $ $ $ $ S vX0X{ - $ & ",
"r.1 # @ @ @ @ $ $ $ $ $ $ $ $ $ $ $ $ $ $ $ $ $ $ $ $ $ F ; o o ..&X| ; X X ; 3.&X&X3.k 2.| o O $ $ $ $ $ $ $ $ X ).vX6Xj % $ 7 ",
"4 & # @ @ @ @ $ $ $ $ $ $ $ $ $ $ $ $ $ $ $ $ $ $ $ $ $ > o   o n :X{ - X % ] &X&X6.d ; i ..- O $ $ $ $ $ $ $ $ $ 3XvX7X0 $ $ $ ",
"2 1 # # & $ $ $ $ $ $ $ $ $ $ $ $ $ $ $ $ $ $ $ $ $ $ O   o   : h 6XF - o : 4.&X&X[ : ; ; F - $ $ $ $ $ $ $ $ $ % 9XqX.X: X X $ ",
"r.y.y.A B 2 # $ $ $ $ $ $ $ $ $ $ $ $ $ $ $ $ $ $ $ $ X o 6 - :.i 0Xm o o ] &X&X6.q ; ; - : o $ $ $ $ $ O $ $ $ % XX;X..; X X X ",
"x.x.x.x.j.i.Z 2 $ $ $ $ $ $ $ $ $ $ $ $ $ $ $ $ $ $ $ 7 - ..u :X{ 9Xg o , 4.&X8.} q n u ; > % O X X o % > $ $ $ h XX$X/ - + X X ",
"x.x.x.c.c.c.j.i.B # $ $ X $ X $ $ $ $ $ $ $ $ $ $ $ $ > h 2.j :X`.3Xu - n *X*X&Xf +.<...; - o   % h O.<X{.> $ $ G 6X*Xj - $ $ H ",
"v.v.v.c.c.c.c.c.h.r.4 & $ X X $ $ $ $ $ $ $ $ $ $ $ $ - ..5.' ;X9X`.: ; 2.:XwX4.j :X%.4.0 ;   b <XMXMXbXbXh   % >.0X-Xi - $ 6 zX",
"v.v.v.c.c.v.c.c.c.c.u.B # $ $ $ $ $ $ $ $ $ $ $ $ $ $ h %X#X| 6XbX`.: h *XwXeX>.`.XX6.&X} h o _.bXbXbXvXvXO.- % `.vX-X8 o o `.bX",
"v.v.v.c.c.c.c.c.c.c.c.h.A 1 $ $ $ $ $ $ $ $ $ $ X $ $ g :X).X.8XbX3X: | :X0XbX;.zX#X-X*X*Xn < 0XvXbX6X6X7X_.> o +XeXOX8 - < 0XbX",
"v.v.c.c.c.j.j.h.g.g.h.j.j.r.# $ $ $ $ $ $ $ $ $ X $ S ; 4.`.<.qXvX>X8 .XwXeX0X_.eX+X6X*X*Xk b eX9X6X*X*X4.zXg > +X0X4.8 - ;.0XqX",
"v.c.c.j.u.t.i.i.u.u.u.u.i.u.5 $ $ $ $ $ $ $ $ $ $ $ _.D { 3X4.rXvX+Xk :X0XvXzXzX3X9X0X*X&Xq O.qX4.:X&X$X3.vXG , +X0X2.8 b 0X7X7X",
"v.c.c.h.g.j.j.x.x.j.x.x.j.l.V $ $ $ $ $ $ $ $ X $ $ ;.0X>.qXOXrXvX+X' 7XvXvXbXvX+XeX0X*X3./ #X6X1.4.*X%.$X8X`.F >X6X<.8 _.eX7X.X",
"v.v.v.x.x.c.c.x.c.c.x.h.t.N # $ $ $ $ $ $ $ $ X $ % S eX0XOX$.1.%X@X<.8XvXvXvXeXXX7X-X&X .2.@X7Xo.w d X.&X;X9X>.0X-XX.i vXeX-X' ",
"v.v.v.v.x.x.x.x.c.x.u.B 2 $ $ $ $ $ $ $ $ $ $ $ G /.< 7X .E R R R E 1.eXeXvXeX<.I E E ! Y 1.6X-XU k 8 %.8.*XqX+XvX-XX.{ eX0X%Xq ",
"v.v.x.x.x.v.x.c.h.t.4 # # $ @ $ $ $ $ $ $ $ $ $ 5XbXG U P K e e T W ` 0XeXeX4.R P P E R R ` wX4.[ -Xi | 8.&X-X@XbXtX .>.vX6X| ; ",
"v.v.x.x.x.c.c.h.A 2 & $ $ $ $ $ $ $ $ $ $ $ $ 7 eXeX#XP U -.b - : K W 7XeX8X! P 9 : : 9 K E 7.X.$X*Xj / 8.&X$X@XbX-XX.XX0X-Xk o ",
"v.v.x.x.x.x.h.Z 2 & $ $ $ $ $ $ $ $ $ $ $ $ $ 6 3X@X1.T ,.w.-.o o 8 R &.6X4.W e M -.< o ; K ` #.&X=Xn i $X8.&X@XvX-X<.#XtX4.8 % ",
"v.v.x.x.x.h.Z 2 # O $ X $ $ $ $ $ $ $ $ $ $ $ b XX$.R U w.q.-.o X - T W W W W ) w.w.b o o 0 R ! 6.$Xn : <.6.6.OX0X:XXX@X%Xo.; $ ",
"v.v.v.v.j.A 4 1 & $ $ $ $ $ $ $ $ $ $ $ $ $ X S 4.` Q } q.q.=.X X   e Q Q Q E ,.q.w.b X o ; E R %.1./ : / <.8.4.8X=X@XvX-Xj - * ",
"v.v.v.x.r.4 1 & & $ @ $ $ $ $ $ $ $ $ $ $ $ $ S 4.! W =.q.q.M X X o w Q Q Q I w.q.w.< X % - T R 7.1.n ; X.&X8.6.3.3.qXvX;X0 o $ ",
"x.v.x.u.A Z B N 4 1 # $ $ $ X $ $ $ $ $ $ $ $ D :X! W =.q.q.x X $ $ 9 Q R W Y w.q.,.* $ X - T R 6.1.n ; | 8.&X&X8.3.eXvXOX8     ",
"x.v.v.x.j.j.j.h.g.t.Z 4 1 $ $ $ $ $ $ $ $ $ X D %X! W =.q.q.< X $ $ 0 ! 7.` ( q.q.M $ X X o K @.1.3.j ; } 8.8.&X8.1.0X0X4.8 - > ",
"x.v.v.v.c.c.c.c.b.b.c.g.y.N 1 $ $ $ $ $ $ $ X D 4.1.E ) q.,.* X $ $ 9 @.8.$.( w.w.6 $ X X o K 2.#.&Xk ; +.6.8.8.8.6.@X6X4.9 > D ",
"x.v.v.v.v.v.v.c.b.b.b.b.b.h.r.4 $ $ $ $ X X X D OX3.` / w.) $ $ $ X w &.8.7.L e.-.* $ X X - Y wX4.=Xd : 3.8.1.8.8.8.4.;X4.n 4X>X",
"x.v.v.v.v.v.v.c.c.b.b.b.Z.Z.A.g.Z 1 $ $ X X X D OX1.@.w M < $ $ X . L 7.=X*XL m > X $ X $ 8 ` =X%X=Xq : 4.&X6.1.&X8.9.oX4.4XbX4X",
"v.v.v.c.v.v.v.c.c.b.b.b.b.Z.D.D.A.t.4 $ O X X S tX%.$.w - $ X X o ; ( &X%X;X( 8 o X X X % e @.&X%X3.9 ;.@X.X&X6.7.&X&X&XOXvXbX6X",
"v.v.v.c.v.v.v.c.c.b.b.D.b.Z.D.D.F.A.u.N @ X X h qX4.&XU - X X X o w &.6.#XtX#.e ; o o X ; Y %.8.$X:.{ vXbX9X6.&X1.8.8.&XOXvX0X-X",
"v.v.v.v.v.v.v.v.c.c.b.b.Z.D.D.D.Z.A.A.p.1 X $ > qX2.#.[ 0 ; o   : / &X} 3X;X&XY w ; - - w @.#.&X6.7X5X0XbXvX4.&X1.8.8.&XOX0X;X:X",
"v.v.v.v.c.c.v.v.c.b.b.b.Z.D.D.n.g.i.r.V & $ X o _.#X#.6.f d 9 9 U OX-Xj 0X;X&X&.Y K e e L  .%.&X6.8XqX9XbXvXOX6.1.8.8.&X%X;X:X:X",
"v.c.c.c.c.b.c.c.c.b.b.Z.Z.D.i.Z N 4 2 1 $ $ X $ D eX:.1.5.:.[ +.7XeXqX{ @X:X=X2.#.Y Y @.%.%.1.&X8.;X7X3XvXvX-X3.1.8.8.&X&X*X*X<.",
"c.c.c.c.b.b.c.c.c.b.b.Z.D.D.g.t.Z N 2 & = $ X $ > 3X3XX.:.eXvXvXvXvXvXvX#X%X5.qX5.=X&X&X1.X.[ 1.&X&X=X%X-XtX*X1.6.7.8.&X&X&X$X#X",
"b.b.Z.b.b.b.b.b.b.b.Z.D.D.D.D.A.G.k.t.N 1 # $ O X G vXeX>.eXvXbXzX`._._.`.+XbXMXXX&X&X&X[  .3.} <.&X&X&X&X&X=X1.&X1.&X&X&X&X%.zX",
"b.D.D.D.D.b.b.b.b.b.Z.D.D.D.F.H.H.H.G.n.t.N 1 $ $ > >XvX+XvXbXbX>XzXMXMXMXMXnXzX' &X8.&X#.&X$Xd 8 <.&X&X&X&X&X1.-X3.&X&X&X&X} #X",
"D.F.F.D.D.Z.b.b.b.b.Z.D.F.H.J.P.J.F.F.F.G.j.t.N 1 % h 9X+XvXbXbX+X+XMXMXzX9X#X[ ( &X&X&X<.&X/ : - i $X&X&X&X&X3.0XOX&X&X&X&X_ ,.",
"H.F.F.F.D.Z.b.b.b.b.D.D.F.J.U.U.J.F.F.F.F.F.G.k.y.N 3 h m 0XbXbX>X[ &.&.&.&.B.@.@.&X&X4.3.<.0 - o - | 8.8.8.6.OXvX7X%.&X&X1.^ ^ ",
"P.J.H.F.D.Z.b.b.Z.D.D.D.F.U.I.I.J.F.F.D.D.F.F.F.G.k.t.V 7 5XbXbX4X[ N.N.N.N.N.&.$.&X&X%.%.d ; %     , 6.8.8.&X;XvX6X6.3.&X[ ^ ~ ",
"I.U.H.F.D.Z.b.Z.D.D.D.F.F.U.I.I.J.F.D.D.D.D.F.F.F.H.L.k.A {.bXbXbX#.N.N.N.N.N.&.6.&X&Xo.0 : o   o   o k 3.$X&X;XvX6X&X&X&X/ ^ ~ ",
"T.Y.P.H.F.D.Z.D.D.D.F.H.H.J.U.U.H.F.D.D.D.D.F.F.F.F.G.G.S.V.bXbXbXXX*.N.N.N.N.&.:X&X=Xn 3 3 & O $ O $ - : i 3.;XeX7X&X&X6.d ^ ~ ",
"R.R.I.J.H.F.Z.D.D.F.F.J.J.H.J.J.H.D.D.D.D.D.F.F.F.F.G.S.a.d.>XvXbX9X&.N.N.N.*.OX:X&XoXs.a.J H C C V 4 2 & % ' :XwX:X&X&X .d ~ ~ ",
"Q.R.T.U.J.F.F.F.F.F.H.P.P.H.H.H.F.D.D.D.D.D.D.D.G.S.z.y.FX'.D 0XbXbX#X#.&.%.#X0X*X&X' a.a.lXfX{.V.a.z.p.r.N , 4.=X=X&X$Xj s ^ ~ ",
"~.Q.T.U.J.F.F.F.F.F.F.J.P.H.H.F.D.D.D.D.D.D.D.j.a.V.f.gX(.ZX_.`.bXbXbX0X9XvXbX0X*X1.| z.V.cXO.{.kXyXa.S.A.k.C } &X8.&Xo.f s c c ",
"~.Q.T.I.K.F.F.H.F.F.F.F.H.F.F.D.D.D.D.D.D.D.A.V.AX<XjXZXkX{.>X3X+XbXbXbX0X0XbXqXoX#.2.z.'.(.cX{.(.}.FXl.D.A.C a o.6.X.f s y l l ",
"~.Q.T.I.H.H.J.J.H.F.F.F.F.F.D.D.D.D.D.D.D.D.k.DXlX<XZXBXkX}.>XvX>.3XvX0X:.9XvXwX%.&X2.J /.{.ZXZX}.fXfXd.G.S.f.r y f y a r z l y ",
"~.R.T.U.J.U.I.I.J.F.F.F.D.D.D.D.D.D.D.D.D.D.z.VX}.BXcX/./.{.(.5X6X..0XvX6X0XzX<.1.oX+.<XZX}.cXZX<XBX{.'.S.l.}.p r t p r r l l y ",
"~.R.T.U.U.Y.R.T.U.H.F.D.D.D.D.D.D.D.D.D.D.A.V.}.VXBX}.<XcXZXZX{.6X2.{ vXvXbX@XU $X>.O.cXZXcX<XZXjXiXjX/.S.z.MXD r r < r y l l a ",
"~.R.T.U.I.R.R.R.U.K.F.D.D.D.D.D.D.D.D.D.G.S.'.jXZXiXVX<XZXZXBX_.#X:Xk >.0X5Xn ] ..cXcX(.ZXZX<XZXZX].hXf.k.!.nX;.x y y l l l y F ",
"R.R.Y.I.T.R.R.R.I.K.F.D.D.D.D.D.D.D.D.F.I.W.|.ZXcXjXcXfXZXZX{.{.>.2.X.i m m { hX>XZXZXkXiXZXkXgXZX}.].(.z.'.MXgXx z l l l y z /.",
"R.Y.U.U.T.R.R.T.U.H.D.D.D.D.D.D.D.D.D.L.R.^.jXZXZXZXiXVXcXBX{.cX;._.O.i h 4XlXjXlXkXZXZX}.VXZX<XZXfX].uXs.|.nXCX/.p y y t p >.{.",
"T.U.J.U.U.I.Y.U.J.F.D.D.D.n.k.M.D.D.D.Y.~.C.VXVXZXZXiXVXiXZXZX<X{.hXzX(.zXCXVXgXZX<XZXZX<XxXBXfXcXBX].,Xg 4XCXCXnXG p p x ).gXgX",
"Y.J.H.H.H.K.J.J.H.F.D.D.b.f. XC.a.M.Z.E.d.b ZXfXSXhXkXhXjXZXZX}.fX<XmXhXkXZXZXfXZX<XZXZXfXaXNXcX,XBX}.].g zXCXCXCXnX{.(.lXCXgXhX",
"J.H.H.F.F.F.F.F.F.D.D.D.l.lXCXCXyXd.l.J b m mX<XSXfXBX,XZXSXjX{.ZX<XBXkXhXZXZXiXZXfXkXZXfXaXNXVX}.xX}.uXb bXCXCXCXAXAXAXCXCXgXgX",
"A.Z.A.Z.D.A.A.D.D.D.D.D.!.nXnXCXCXkXH b s m cXfXkXhXVX}.ZXSXiX<XZXiXfXcXhXZXBX<XZXZX<XBXiXaXsXNX[.xX,XpXb bXCXCXCXAXAXAXAXgXkXgX",
"Z.Z.Z.Z.Z.Z.Z.Z.D.D.D.b. XnXnXCXCXCX;.r a { 4XcXiXBXfXhXBXVXiX<XBXiX}.hXjXBXNXuXVXZX<XcXfXaXsXNX[.NX[.uXm bXCXCXAXAXAXAXAXfXlXVX",
"Z.Z.Z.Z.Z.Z.Z.Z.D.D.D.k.gXnXnXCXCXCXG v c ) >XcXiXBX<XBXVX,XjXhXjXhX}.fXcXBXNX,XcXSX<XxXpXuXsXNX[.sX[.[.g zXnXCXAXAXAXAXlXkXgXAX",
"b.b.Z.Z.b.b.Z.Z.D.n.a.d.CXnXnXCXCXnXm c c v >XcXiXBX<XBXcX,X<XVX<XVX}.}.BXVXNX,XxXZX<XxXpXuXsXsX[.xX]./.a >.MXCXSXAXAXAXiXAXgXAX",
"b.b.b.Z.b.b.Z.Z.b.f.lX{.CXCXCXCXCXlXv c a s ).cX<XkXiXBXxX,X}.BX,XBX}.(.BXNXNX,XxXVX,XNXuXuXsXaXuX,X1Xm y z G _.SXAXAXlXlXCXlXAX",
"b.b.b.Z.b.Z.D.D.h.DXnX5XnXCXCXCXCX>Xv t y v ;.hX,X<XcXBX,XjX,XVX,XVX{.].BXNXsX,XxXhXaXNXuX,XsX[.dX].(.a y l z ;.CXCXAXfXAXlXSXAX",
"c.b.m.D.m.D.D.D.z.CXlXkXnXCXnXCXCX_.t v c c ) >X}.,XBXVX,XcXiXNX{.hX].hXVXNXsX,XxX<XxXNXaX,XsX[.xX].h s y y l ).CXCXAXAXAXAXAXAX",
"b.b.b.m.m.D.D.M.C.CXlXnXCXCXCXCXCX).v c c c l G <X(.BXcX,X,XcXxX[.<X[.xXNXNXsX,XxX,XpXaXdX[.NX].xXD p r < r p >XCXCXAXAXAXAXAXAX"
};
