/* XPM */
static const char *luffy[] = {
/* columns rows colors chars-per-pixel */
"64 64 252 2 ",
"   c #040104",
".  c #0B0405",
"X  c #0C080A",
"o  c #120B0A",
"O  c #180C09",
"+  c #1D110D",
"@  c #181516",
"#  c #110E10",
"$  c #26160D",
"%  c #281A16",
"&  c #331D16",
"*  c #2C130C",
"=  c #372418",
"-  c #2C211E",
";  c #1F1B23",
":  c #241D24",
">  c #291E26",
",  c #291E28",
"<  c #2B222A",
"1  c #292226",
"2  c #33252D",
"3  c #392928",
"4  c #3A2A32",
"5  c #393436",
"6  c #5D121A",
"7  c #5B1417",
"8  c #511611",
"9  c #661418",
"0  c #771816",
"q  c #56391A",
"w  c #4C2E18",
"e  c #6F3019",
"r  c #442C28",
"t  c #4C352A",
"y  c #553A2B",
"u  c #4A3735",
"i  c #533C34",
"p  c #553D39",
"a  c #4C2B2D",
"s  c #74332B",
"d  c #571F20",
"f  c #67441C",
"g  c #76491A",
"h  c #7C521D",
"j  c #564239",
"k  c #5B433A",
"l  c #594337",
"z  c #584530",
"x  c #694729",
"c  c #734C23",
"v  c #7A5525",
"b  c #644635",
"n  c #62463A",
"m  c #65493B",
"M  c #694B3A",
"N  c #745439",
"B  c #714B37",
"V  c #373B45",
"C  c #4C3D41",
"Z  c #384352",
"A  c #2D5673",
"S  c #584844",
"D  c #4A4E59",
"F  c #464A55",
"G  c #4D515D",
"H  c #4E494A",
"J  c #644B43",
"K  c #684E44",
"L  c #6B5147",
"P  c #775848",
"I  c #685A56",
"U  c #7A6152",
"Y  c #4E5261",
"T  c #4D5767",
"R  c #726B69",
"E  c #8E1A17",
"W  c #B81404",
"Q  c #A31E1E",
"!  c #AB1E1F",
"~  c #A71508",
"^  c #9B251D",
"/  c #8A2D17",
"(  c #A4231D",
")  c #A43414",
"_  c #991E21",
"`  c #AD1F21",
"'  c #A51F20",
"]  c #B11F22",
"[  c #9C2822",
"{  c #913529",
"}  c #A52222",
"|  c #AC2122",
" . c #A72E27",
".. c #B22023",
"X. c #AB362E",
"o. c #C81302",
"O. c #D51902",
"+. c #C30F01",
"@. c #E11E02",
"#. c #CF2A08",
"$. c #E82502",
"%. c #F53503",
"&. c #EC3204",
"*. c #8B5D19",
"=. c #984E1D",
"-. c #8E611B",
";. c #93641A",
":. c #9C6B1B",
">. c #956417",
",. c #9F701E",
"<. c #A36F1B",
"1. c #A56F17",
"2. c #A4701B",
"3. c #A87319",
"4. c #B47C1D",
"5. c #855B25",
"6. c #8B4B37",
"7. c #AC4D3A",
"8. c #8A6226",
"9. c #9C6C23",
"0. c #966928",
"q. c #976F31",
"w. c #A27121",
"e. c #A57828",
"r. c #A7772E",
"t. c #AC4A19",
"y. c #D55516",
"u. c #F55108",
"i. c #F06D10",
"p. c #DB6018",
"a. c #915B46",
"s. c #B85845",
"d. c #AE5740",
"f. c #846859",
"g. c #946E50",
"h. c #A86A4B",
"j. c #B8684B",
"k. c #A97559",
"l. c #B97855",
"z. c #AE734D",
"x. c #8B786C",
"c. c #AC7D61",
"v. c #C37955",
"b. c #C47959",
"n. c #C16650",
"m. c #CA7C61",
"M. c #C05D4C",
"N. c #B78527",
"B. c #B58834",
"V. c #BB831E",
"C. c #F8900C",
"Z. c #C9932B",
"A. c #CA9638",
"S. c #D39D37",
"D. c #C9922B",
"F. c #D9A33B",
"G. c #CEA122",
"H. c #E3AB3D",
"J. c #FBA80C",
"K. c #FAC219",
"L. c #B4844D",
"P. c #8F847E",
"I. c #A98369",
"U. c #B78868",
"Y. c #B38D76",
"T. c #BA957D",
"R. c #AA8773",
"E. c #C78955",
"W. c #E6AF43",
"Q. c #D6986B",
"!. c #C99A79",
"~. c #D79A73",
"^. c #CD8D68",
"/. c #E39C79",
"(. c #DCA275",
"). c #DAA47A",
"_. c #CEA07B",
"`. c #E5A97B",
"'. c #EBB07E",
"]. c #DFAB4A",
"[. c #115E99",
"{. c #0D5D9A",
"}. c #16639D",
"|. c #296C9C",
" X c #387098",
".X c #0A5FA2",
"XX c #0661A7",
"oX c #0A61A3",
"OX c #0562A9",
"+X c #1567A6",
"@X c #256EA5",
"#X c #3779A9",
"$X c #2B75AC",
"%X c #255E89",
"&X c #467390",
"*X c #457DA7",
"=X c #657C8D",
"-X c #3C82B3",
";X c #748590",
":X c #4F89B2",
">X c #6A93AD",
",X c #6697B9",
"<X c #7797B7",
"1X c #779AAD",
"2X c #79A2B9",
"3X c #709EC3",
"4X c #7EABC7",
"5X c #6EA1C1",
"6X c #8C8F93",
"7X c #928D8A",
"8X c #B49A8C",
"9X c #84A4B9",
"0X c #A9A7BD",
"qX c #A7A7BB",
"wX c #B8ADA0",
"eX c #9C9FA9",
"rX c #C19A80",
"tX c #DBAB85",
"yX c #D4AC8D",
"uX c #E7AD83",
"iX c #EDB283",
"pX c #E6B28A",
"aX c #FBBC87",
"sX c #F4BA8B",
"dX c #FDBD8B",
"fX c #F3B586",
"gX c #F7BD91",
"hX c #EDBA93",
"jX c #D0B9A4",
"kX c #F9C090",
"lX c #D2C5B9",
"zX c #8FB2CA",
"xX c #A6ADC5",
"cX c #98C2D8",
"vX c #A9C9DA",
"bX c #B0C8D3",
"nX c #B9D6E4",
"mX c #ACD1E1",
"MX c #DADBDA",
"NX c #CECFCF",
"BX c #E2DBD3",
"VX c #C5DBE5",
"CX c #D4DFE3",
"ZX c #D8E5E9",
"AX c #D1E8F1",
"SX c #E7E7E4",
"DX c #E8F5F7",
"FX c #F4FCFB",
"GX c #FCFEFD",
"HX c #F7F7F4",
"JX c #F0EFE9",
"KX c #E5E2DC",
/* pixels */
"bX1XGXbX9XGXGXGXGXGXGXGX6XY Y Y Y G G D F F Z V < @ @ @ 1 1 1 & % & r r r u p C p 4 2 < < 1 : 4 S S n k l k l r r i j m y u r & ",
"bX1XGXbX9XGXGXGXGXGXGXGX6XY Y Y Y G D D F F Z V < o @ % = f 0.B.A.S.S.A.B.r.5.y t 3 1 < 1 1 : 1 S J J k l k i t i i p l j i i 3 ",
"bX1XFXbX9XGXGXGXGXGXGXGX6XY G Y G G D D D F V V < @ = q.E.S.Z.Z.Z.Z.Z.Z.S.F.H.S.r.f & 1 : : > % u J J k l p y i i k k l i p j r ",
":X%XA A  XDXGXGXGXGXGXGX6XG Y G G D D D F Z V 5 2 q r.N.B.N.A.B.F.F.W.H.W.H.S.D.A.A.r.w % : : @ 4 J J m l i t i t k k k t i k r ",
"A H H H A ZXGXGXGXGXGXGX6XG Y G D D D D F Z 5 y q.F.F.N.e.<.9.9.9.9.2.2.3.4.N.D.F.F.S.N.g w % % j J M b b l l n k n n k i p J u ",
"A j j j Z ZXGXGXGXGXGXGX6XG G G G G D F F j B.W.F.V.2.9.c w $ $ $ & $ = w f 8.w.:.<.N.A.W.F.9.w M J M b b b l k n n n n J p J p ",
"=Xx.P.7X;XMXGXGXGXGXGXGX6XG G D D D D H g.].Z.4.2.8.w o . j .   t k.% . % . . & c 9.<.1.3.D.H.S.v N K M b b b k n m n p K i S S ",
"NXMXMXNXNXNXMXGXGXGXGXGX6XG G G D G H L.F.4.1.9.w .     r a.. + k.v.h.o l $       % v :.2.2.1.4.A.5.x M m b b b m m l y J i j p ",
"NXMXMXMXMXMXNXGXGXHXSXNXR G G D D S L.N.:.2.8.$       O k.y . a.b.b.b.r r P .       . q 9.2.2.<.2.w.h f b b b b m m m l l i u u ",
"P.7X7XP.x.R I I J S j j C G D D S L.4.1.<.5.O         P l.$ t l.v.v.v.6.% c.=           w 9.2.2.<.;.9.g x b m m b M L K k j u a ",
"j j j j l j j j j l l u H G D S E.3.*.:.5.+         & l.h.$ !.`.iXiXiXuX% ).k..           w w.2.:.>.-.0.g x m m b M L L K J u a ",
"j j j j j j j j j l j u D G H L.4.1.<.v O         . g.`.g.f.dXdXdXdXdXdXt pXgXr             x 2.<.:.:.:.<.g x M b M P U P J p u ",
"j j j j j j j j j j j i H H z.3.2.w.c O           t gXkXP pXdXdXdXdXdXdXa.!.sXU..           X 8.1.2.2.2.<.:.f M b M P P b J u u ",
"j j j j j j j j j j j f.I P w.2.9.w .           . Y.dXdXg.dXdXdXdXdXdXdXU.U.sXgX=             = w.2.2.<.2.2.h B b M P M y K u 4 ",
"j j j j j j j j j j l R.b 0.8.f $               3 sXdXdX^.dXdXdXdXdXdXdX).U.dXdXg.            . c 2.2.<.2.<.9.c b M L M M L S 4 ",
"j j j j j j j j j i x.x.8.*.f q q %             g.dXdXdXsXdXdXdXdXdXdXdXsXU.sXdXtXo             % 9.2.<.>.;.-.h x M P P P L S 2 ",
"j j j j j j j j i U R.N -.;.:.<.0.O           . yXdXdXdXdXdXdXdXdXdXdXdXdX(.dXdXdXt   -   o %   . v 2.<.;.-.;.9.f B P U P K J 2 ",
"j j j j j j j j u I H N 9.:.:.:.w         o 1 3 kXdXdXdXdXdXdXdXdXdXdXdXdXdXdXdXdXg.  f.o o f.    = w.1.2.2.2.2.;.x P f.P J J u ",
"L U U f.f.f.f.f.H G S 9.:.:.w.f .         i 3 P dXdXdXdXdXdXdXdXdXdXdXdXdXdXdXdXdX!.. Y.i o yXO   . 0.2.2.2.2.2.2.g P U L p C 4 ",
"R.R.I.I.R.R.T.8XI D N 2.2.9.q O %         f.3 I.dXdXdXdXdXdXdXdXdXdXdXdXdXdXdXdXdXsX$ yXc.O hXt     x 2.2.2.2.2.1.-.N P n u u 4 ",
"Y.Y.Y.Y.Y.Y.T.8XI H 8.2.:.g c 0.w         Y.r tXsXsXsXdXdXdXdXdXdXdXdXdXdXdXdXsX`.`.y hXtX= gXK     = w.2.2.2.2.2.:.B L J u 4 2 ",
"8X8X!.T.T.T.T.!.U H 0.>.;.*.>.9.$     X o rXt R.U.!.).(.(.'.dXdXdXdXdXdXdXuX`.`.sXgXI.I.U.m tXP     O 0.:.:.>.>.>.<.c K i r 2 4 ",
"8XwXjXlXlXlXlXlXwXx.9.<.2.2.1.0.. X H j e.G.Z.V.>.e c a.I.tX`.dXdXdXdXdX`.fXtXg.M q g :.4.N.N.e.= 1 5 c -.-.-.>.2.2.c n r 3 2 4 ",
"9X<X>X>X>X>X<X4XzXeX9.2.2.<.:.5.. # V N K.J.C.i.u.u.u.p.t.e P _.dXdXdXgXI.y w t.p.u.u.u.i.C.J.K.N.: 5 t w.2.2.2.2.2.c i u 2 < , ",
",X2XzXzXzXzX9X>X:XT 8.;.;.>.:.5.    # z J.i.u.%.%.%.%.%.u.p.e 3 k K k 3 + =.i.u.%.%.%.%.%.u.i.C.2.1 X + 0.>.>.;.:.<.f 3 4 < > : ",
" X&X&X&X&X&X&X;X1X;X-.;.>.<.2.v       % i.u.&.$.@.@.$.$.&.u.y.$ 5 @ # 1 = p.u.&.$.@.@.$.$.&.u.i.g X - $ v 2.2.2.2.2.q > , : : : ",
"ZXZXZXZXZXMXMXMXbX7X9.2.<.1.<.g o     . =.&.$.O.O.O.O.O.@.&.y.+ % 3 - @ & p.&.@.O.o.O.O.O.$.%.y.* o = 8.h 2.2.2.2.2.w : : : : : ",
"GXGXGXGXGXGXHXHXGXJXq.2.2.2.2.c $ o     * ) O.O.o.+.+.o.O.#.) O rXpXkXk.O t.#.O.o.+.+.+.o.O.#.7 + N = 9.:.:.2.2.2.9.= : : 1 : ; ",
"GXGXGXGXSXKXMXMXHXGX8X0.>.<.2.v O x .   3 & 0 W W W W W +.#.0 i gX`.aXsX= e #.o.W W W W W ~ 8 @ + q.*.<.;.-.;.;.:.v 1 : : < : ; ",
"SXSXSXKXMXMXSXGXGXGXJXq.-.>.,.f 5.0.= o 3 T.I.6.0 E ~ ~ W ^ a.tXfX'.dXdXuXx / ~ ~ ~ E E 6.k.3 . t 0.<.2.2.:.;.:.,.w < : ; < : : ",
"JXSXMXSXHXGXGXGXGXGXGXlX0.<.2.9.9.Q.sX!.a.tXdXsXpX^.l.h.z.^.sXdX(.dXdXdXdXiXk.a.a.h.U.pXgXdXP rXpXL.<.<.<.:.2.2.h & < , : < > : ",
"HXGXGXGXGXGXGXGXGXGXGXGXT.9.>.;.9.`.z.h.~.dXdXdXdXdXdXdXdXdXdXdX~.sXsXdXdXaX`.).^.`.^.).iXiX(.z.~.sX9.1.<.:.>.8.= > > > : , , > ",
"GXGXGXGXGXGXGXGXGXGXGXGXHXg.;.*.9.(.^.l.h.dXdXdXdXdXdXdXdXdXdXdXdXiXsXdXdXdXdXdX`.dX`.fXdX).E.z.`.dXq.1.<.2.8.r < : : : : , , > ",
"GXGXGXGXGXGXGXGXGXGXGXGXGXSXg.w.<.Q.Q.l.h.uXdXdXdXdXdXdXdXdXdXdXdXdXdXdXdXdXdXdXdXdXdXdXdX).l.l.aX(.9.2.w.5.m 2 < : : : : : : : ",
"GXGXGXGXGXGXGXGXGXGXGXGXGXGXKXg.w.L.sXl.l.^.dXdXdXdXdXdXdXdXdXsX`.`.aXdXdXdXdXdXdXdXdXdXsXz.l.^.sXr.9.9.v n J 4 2 : : : : : : : ",
"GXGXGXGXGXGXGXGXGXGXGXGXGXGXGXJXR.0.z.`.~.~.sXdXdXdXdXdXdXdXdXfX).sXaXdXdXdXdXdXdXdXdXdXiX~.uXsXL.5.v N L S S 4 2 : : , , : : : ",
"GXGXGXGXGXGXFXVXzX,X,X4XVXFXGXGXHXjXq.0.r.L.`.dXdXdXdXdXdXdXdXdX(.iXdXdXdXdXdXdXdXdXdXdX(.!.k.B d N P L J p u 2 2 > > < , > : : ",
"GXGXGXGXGXVX:X.XXXOXOXXXoX:XVXGXGXGXJXwXg.q.L.dXdXdXdXdXdXdXdXdX(.(.iXdXdXdXdXdXdXdXdX'.6.8 7 6 6 B L K k u 4 2 < : , < < , : : ",
"GXGXGXGXvX}.OXOXXXXXXXXXOXXX+XvXGXGXGXGXGXKXlXjXsXdXdXdXdXdXdXdXdXdXdXdXdXdXdXdXdXdX~.l.s 7 9 6 6 s y k p r 4 2 < , > < > : > : ",
"GXGXGXnX}.XX+X:XzXmXnXvXzX#X.X+XnXGXGXGXGXGXGXHXyX(.sXdXdXdXdXdXdXdXdXdXdXdXdXdX).L.l.{ 7 6 9 9 6 6 9 a a 3 4 5 2 , , > , : : : ",
"FXGXDX|.XX:XAXGXGXGXGXGXGXFXvX@X@XDXGXGXGXGXGXBXhX7.{ a.^.uXgXdXdXdXdXgXgX_.U.l.l.b.6.7 6 6 6 6 9 E } _ _ E d 5 < : > > : : : : ",
"cXFX4X.X,XDXGXGXGXGXGXGXGXGXGXZX#X4XGXGXGXGXHXpXQ.} ' 0 6 7 d y n m l 3 $ r k.v.v.6.7 6 6 6 6 0 [ | ] ] | ] [ d < : : > > : : : ",
"-XAX}.-XDXGXGXGXGXGXGXGXGXGXGXGXVX XDXGXGXGXlXgXs.| Q _ 9 6 6 &       + P l.v.v.h.7 6 6 6 9 _ | ] ] ] ......| s > : : , , , , , ",
"oX4X}.nXGXGXGXGXGXGXGXGXGXGXGXGXGX2XvXGXGXHXyXaX[ ` Q | E 6 s a.. . y k.v.v.v.l.e 7 6 9 E } ` ] ] ....| ` ] ' ~.l : : < , < < , ",
"@X+X:XFXGXGXGXGXGXFXDXFXGXGXGXGXGXZX9XGXGXBXsX`.} ' ' ] } 0 6.l.x h.b.v.v.b.v.6.7 9 E [ Q | | ] ....] ! | ]  .sX!.- < < > , < , ",
",XXXzXGXGXGXGXGXZX X>XVXGXGXGXGXGXGXzXFXGXlXdX^.} ] ] ] ] _ a.z.z.v.v.v.v.v.j.9 0 } | Q X.^.} ..] ] ! ' ....n.dXsXN 2 < : > < : ",
"4XXXvXAXAXAXAXAX:X,XFXGXGXGXGXGXGXGXbXGXGXjXsXE.| ........( b.l.z.l.v.v.l.z.{ _ ` ] Q | b.`.( ..] | Q | ` | ~.dXaX).3 2 > > : , ",
"{.XXoX[.[.[.{.[.XXzXGXGXGXGXGXGXGXGXCXGXGXyXsXv.| ` ..] ] X.iXb.z.v.v.j.^./.[ ] | ` | ` m.sXX.| ` ` | ] ]  .sXdXaXsXP 2 2 , > , ",
"mX#XnXVXVXVXnXnX:X,XGXGXGXGXGXGXGXGXHXGXHXyXdXn.| Q ..] ] s.gX`.v.v.E.'.sXj.| ] ..` ] ` s.dXsXn. .} | ! ' M.sXfXsXaX!.r 2 , , , ",
"FXxXGXGXGXGXGXGXVX X2XCXGXGXGXGXGXGXGXGXJXpXdXj.| Q ..] ..M.dXdX~.Q.aXdXfX[ ......] ..] | ^.dXdXfXQ.v.s.s.^.`.iX(.iXsXb < < > , ",
"GXDXGXGXGXGXGXGXGXDXZXFXGXGXGXGXGXGXGXGXSXpXdXj.| Q ......n.dXdXdXdXdXdXE.( ..............} ^.dXdXdXdXdXdXdXdXdXdX`.fXI.1 < < > ",
"GXGXGXGXGXGXGXGXGXGXGXGXGXGXGXGXGXGXGXGXKXhXdXj.| Q | ....M.dXdXdXdXdXdX7.| ] ............] } ~.dXdXdXdXdXdXdXdXdXdX(.pXr < < > ",
"FXFXFXFXGXFXFXFXFXFXGXFXGXFXFXFXFXGXGXGXBXgXdXj.| Q ......s.dXdXdXdXdX`.^ ] ..............] ] 7.dXdXdXdXdXdXdXdXdXdXsX(.a.2 < : ",
"@X|.@X4XzX|.vX:X@X5XFX1XnX|.@X|. XDXGXGXNXkXdXj.| Q ......7.dXdXdXdXdXl.( ] ] ............] ] s.dXdXdXdXdXdXdXdXdXdXdX`.U.3 < < ",
"#XmX+X-X4XoXcX*X+X@XDX>XmX{.#XvXvXFXGXGXlXsXdXj.| Q ..] ] } sXdXdXdXsX7.] ] ] ............] ( /.dXdXdXdXdXdXdXdXkXdXdXsX~.i 2 < ",
"-XAX@X#X4XoXcX*X:XoXmX>XvX{.:XDXDXGXGXGXlXdXdXQ.} Q ..] ] ` /.dXdXdX/.^ ] ] ] ] ........] ] s.dXdXdXdXdX'.dXfXiXsX'.dXaX`.g.4 2 ",
"XX}.XX:X4XoXcX*XcX.X3X>XmX[.XX}.:XFXGXGXjXdXdXsXj.^ | ......n.dXdXsX7.| ] ] ............] } /.dXfX'.sX(.fXdX(.dX(.(.sXdXsXU.3 2 ",
"$X:XXXzXzXoXzX*XAX}.@X:XmX[.$XzXbXGXJXNXrXdXaXdXsX7.| ....]  .sXdX^.[ ] ] ] ............] 7.gXdX(.dXsXfXdXiXuXiX`.aXdXdXdX).t 4 ",
"#X3X.X:X:XXX3X XxX*XXX@XzX[.-XAXVXxXqXqXtXdXdXdXsXv.| ....] | m.`.7.| ................] ` b.dX'.iXdX).sXiX).sX(.dXdXdXdXdXsXM 4 ",
"#XzX}.@X:X.X,X XxX<XXXoX3X[.oX|.|.xX0XeXhXdXdXdXdXj.......] ]  .b. .| ................] | uXsX~.dXiXuX'.~.(.).dXdXdXdXdXdXsXg.4 ",
"9XxX<X<X9X<XzX9XxXxX<X<XzX<X<X<X<XxX0X8XgXdXdXdXdX7.........] ]  .} ] ] ................ .sX`.iXsXj.d.~.sXsX`.dXdXdXdXdXdXaX).3 ",
"0X0X0X0X0X0XxX0X0XxX0X0XxX0X0X0X0X0X0X8XsXdXdXaXdX{ | ] ......] Q | ] ................] X.gX(.dX`.^ } /.dXdX(.sXdXdXdXdXdXdXsXy ",
"0X0X0X0X0X0X0X0X0X0X0X0X0X0X0X0X0X0XqXyXdXdXaXaXaX[ ..] ] ....] Q ' ] ................| X.sX`.sXd.| | /.dXaX).sXdXdXdXdXaXaXdXa.",
"0X0X0X0X0X0X0X0X0X0XxX0X0X0X0X0X0X0XeXsXdXaXaXaX'.^ ] ] ] ] ] ] Q ' ` ] ] ] ] ] ] ] ] ] } m.sX`.^ | } a.sXaXfX`.dXaXdXdXaXaXaXU."
};
