/* XPM */
static const char *naruto[] = {
/* columns rows colors chars-per-pixel */
"64 64 237 2 ",
"   c #091A33",
".  c #091E3B",
"X  c #0E192B",
"o  c #192639",
"O  c #1E2931",
"+  c #263336",
"@  c #38363B",
"#  c #282F32",
"$  c #493735",
"%  c #35412D",
"&  c #544D33",
"*  c #6C5137",
"=  c #756439",
"-  c #71763B",
";  c #5D6533",
":  c #162B49",
">  c #1A3149",
",  c #122E54",
"<  c #152F54",
"1  c #153155",
"2  c #15345C",
"3  c #1A3457",
"4  c #0D2749",
"5  c #283548",
"6  c #383749",
"7  c #3E3655",
"8  c #383857",
"9  c #28334C",
"0  c #153663",
"q  c #143966",
"w  c #153968",
"e  c #473A48",
"r  c #413556",
"t  c #443A56",
"y  c #4A3C54",
"u  c #413759",
"i  c #443A5B",
"p  c #4A3D5B",
"a  c #503D42",
"s  c #4C3E62",
"d  c #413B63",
"f  c #4F3F70",
"g  c #374357",
"h  c #3A4964",
"j  c #474349",
"k  c #584745",
"l  c #4C415D",
"z  c #484956",
"x  c #4E515B",
"c  c #58555E",
"v  c #584F53",
"b  c #7A5647",
"n  c #6A584F",
"m  c #7B6447",
"M  c #7A6858",
"N  c #736C53",
"B  c #4E4163",
"V  c #4A436B",
"C  c #514265",
"Z  c #51426B",
"A  c #4A5365",
"S  c #585A65",
"D  c #4D4374",
"F  c #4C447C",
"G  c #514373",
"H  c #534A7A",
"J  c #524778",
"K  c #555D71",
"L  c #645A71",
"P  c #5E616B",
"I  c #5A6172",
"U  c #63646C",
"Y  c #766966",
"T  c #6B6D75",
"R  c #6A6C7A",
"E  c #676575",
"W  c #716977",
"Q  c #6E717A",
"!  c #72747D",
"~  c #797978",
"^  c #78716E",
"/  c #8F723C",
"(  c #83584C",
")  c #875A52",
"_  c #886747",
"`  c #896554",
"'  c #966A59",
"]  c #997759",
"[  c #92744B",
"{  c #A66849",
"}  c #A26C54",
"|  c #AD7459",
" . c #857568",
".. c #997667",
"X. c #857C79",
"o. c #997D70",
"O. c #8E6D63",
"+. c #A67B6A",
"@. c #A67B70",
"#. c #D27F55",
"$. c #7B803D",
"%. c #7F827E",
"&. c #8B8D3E",
"*. c #BE9C3F",
"=. c #918C48",
"-. c #A9864C",
";. c #BC9749",
":. c #AA8B54",
">. c #B99653",
",. c #AE904E",
"<. c #AFAF4E",
"1. c #83837E",
"2. c #8C8274",
"3. c #998576",
"4. c #AD8373",
"5. c #A78779",
"6. c #B48D7C",
"7. c #B58978",
"8. c #B8927C",
"9. c #AB8B71",
"0. c #9EA049",
"q. c #C29646",
"w. c #C3964A",
"e. c #C29B45",
"r. c #D98359",
"t. c #E6834F",
"y. c #E9834E",
"u. c #E68452",
"i. c #E88351",
"p. c #E2875C",
"a. c #C5A844",
"s. c #CCB847",
"d. c #D2B74E",
"f. c #C2937F",
"g. c #BEC052",
"h. c #D5CB4C",
"j. c #DBDA46",
"k. c #DDDB4A",
"l. c #D9D44C",
"z. c #C6C757",
"x. c #D7CC52",
"c. c #D8D654",
"v. c #CFD056",
"b. c #E0DA4C",
"n. c #E0D352",
"m. c #4C4581",
"M. c #504581",
"N. c #676B81",
"B. c #756C84",
"V. c #7C7D83",
"C. c #787585",
"Z. c #7B7891",
"A. c #847C8E",
"S. c #7E818D",
"D. c #7D85A5",
"F. c #848582",
"G. c #8A8684",
"H. c #8A8985",
"J. c #83848C",
"K. c #8C8A8B",
"L. c #898788",
"P. c #928E87",
"I. c #8A8A95",
"U. c #8C859C",
"Y. c #8A8A99",
"T. c #858796",
"R. c #989898",
"E. c #928E98",
"W. c #A58C83",
"Q. c #BC9282",
"!. c #B59487",
"~. c #AD9589",
"^. c #AAA399",
"/. c #B6A197",
"(. c #8889A1",
"). c #999CA4",
"_. c #8F8CA6",
"`. c #9EA1AA",
"'. c #AAAAA9",
"]. c #B9B4A9",
"[. c #A9ACB6",
"{. c #ADB1BB",
"}. c #B4B4B3",
"|. c #B3B5BE",
" X c #BCBCBB",
".X c #B7B8B9",
"XX c #B4ADA6",
"oX c #C59C8B",
"OX c #C79787",
"+X c #C69F92",
"@X c #C38F80",
"#X c #CCA18D",
"$X c #CDA393",
"%X c #C8A496",
"&X c #D3A693",
"*X c #D5A995",
"=X c #D5AB9A",
"-X c #DAAD9B",
";X c #D8AA98",
":X c #DDB09E",
">X c #DFB797",
",X c #D0A28F",
"<X c #E5B59F",
"1X c #C3BAA9",
"2X c #DDB2A1",
"3X c #D7B3A4",
"4X c #D1B1A5",
"5X c #E5B6A3",
"6X c #EAB7A2",
"7X c #E6B8A4",
"8X c #E9B8A4",
"9X c #E5B9A8",
"0X c #E8B9A8",
"qX c #E7B7A8",
"wX c #CECAB6",
"eX c #CAC4B8",
"rX c #D1C9B6",
"tX c #CDC4AD",
"yX c #B3B6C1",
"uX c #B7BAC2",
"iX c #949DC7",
"pX c #BEC0C7",
"aX c #CCCDCB",
"sX c #C4C4C5",
"dX c #D8D5CB",
"fX c #D4D4D4",
"gX c #DBDCDB",
"hX c #D8D8D7",
"jX c #CACED3",
"kX c #E6E2DA",
"lX c #DFE0E0",
"zX c #ECEDEC",
"xX c #E6E6E5",
"cX c #F0EDE7",
"vX c #F1F1EE",
"bX c #F4F4F3",
"nX c #EFF0EF",
/* pixels */
"M.m.F D U.H F B m v.j.j.k.k.k.k.k.k.k.k.k.k.k.k.k.k.k.k.k.k.k.k.k.k.k.k.k.k.k.k.k.k.k.k.k.k.k.k.k.k.k.k.k.k.k.k.k.k.b.b.j.v.N S.",
"F m.F G E.H m.F B ; v.j.k.k.k.k.k.k.k.k.k.k.k.k.k.k.k.k.k.k.k.k.k.k.k.k.k.k.k.k.k.k.k.k.k.k.k.k.k.k.k.k.k.k.k.k.k.k.k.k.v.[ T.D.",
"F m.F J _.H F F F W &.l.j.k.k.k.k.k.k.k.k.k.k.k.k.k.k.k.k.k.k.k.k.k.k.k.k.k.k.k.k.k.k.k.k.k.k.k.k.k.k.k.k.k.k.k.k.k.j.c.=.J.D._.",
"F m.F H U.J m.F V S [ x.k.k.k.k.k.k.k.k.k.k.k.k.k.k.k.k.k.k.k.k.k.k.k.k.k.k.k.k.k.k.k.k.k.k.k.k.k.k.k.k.k.k.k.k.k.k.k.v.=.^ D.iX",
"F F F J U.D F t = <.c.k.j.k.k.k.k.k.k.k.k.k.k.k.k.k.k.k.k.b.k.k.k.k.k.k.k.k.k.k.k.k.k.k.k.k.k.k.k.k.k.k.k.k.k.k.k.k.j.k.c.z.3.V.",
"F F F D U.l n <.c.j.k.j.k.k.k.k.k.k.k.k.k.k.k.k.k.k.k.k.k.k.k.k.k.j.k.k.k.k.k.k.k.k.k.k.k.k.k.k.k.k.k.k.k.k.b.l.s.h.h.l.k.j.c.v.",
"F F F B N 0.v.j.j.k.b.k.k.k.k.j.j.k.k.k.j.k.j.j.j.j.k.j.j.j.j.k.j.j.j.k.k.j.j.j.j.k.k.k.k.k.j.j.k.j.k.b.k.k.k.l.a.;.e.e.a.a.s.s.",
"F F d k >.a.a.a.a.a.a.a.s.s.h.h.h.l.k.j.j.k.j.k.k.k.k.c.v.z.<.0.=.&.$.- - - &.=.&.<.<.z.v.c.k.j.j.j.j.k.k.k.j.c.x.e.w.w.w.w.w.w.",
"F F D y m / >.w.w.w.w.w.w.q.e.*.a.h.j.j.j.c.c.g.0.$.; & # # O O o 5 5 5 5 6 8 5 o O + # @ & - 0.z.c.j.j.j.k.k.k.k.d.w.w.w.q.w.w.",
"F F m.H U.l k m -.w.w.w.w.q.e.s.l.k.c.v.0.; % + > > > g A N.Y.|.jXjXsX|.{.|.{.[.).S.N.K h 3 > o # & =.z.c.k.j.k.k.n.a.w.w.w.,.[ ",
"F F F H (.H F B a * -.w.q.a.x.l.l.z.- + > 3 1 3 N.[.fXzXbXbXzXfXpX|.yX|.|.|.|.yXyXyXyXyXyX[.Z.8 > 1 > + ; <.h.l.x.h.d.w.>.= Y V.",
"F F F H (.J F F D S _ w.q.e.a.>.= # 1 2 1 h _.{.jXbXbXbXbXlXuXyXuXuX`.C.Q E.T.V.yXyXyXyXyXyXJ.U U A 1 2 3 + & =.;.;.e.w.w.m T.(.",
"F F F H _.H F F D k ,.q.q.>.[ @ > 0 q 2 g T T `.sXbXbXbXbXjXyXyXyX).z V.I.U R [.yXyXyXyXyX|.C.x z C.A 2 q q 3 + * >.q.w.w.:.Y (.",
"F F F H _.H F F p [ w.q.>.n 5 2 q q q 1 A ^ C.[.uXbXbXbXbXuX|.yXyXS ).V.S T |.yXyXyXyXyXyXuXJ.U E ! K , q q w q > & ;.w.w.w.[ V.",
"F F F H _.H F s m w.w.w.= > q w w w w 1 S T [.yXuXnXbXbXxX|.yXuXI.6 [.T yXJ.I.yX|.yXyXyXyXyXJ.! T U I , w w w w q # ,.w.w.w.>.M ",
"F F F J U.H D k >.q.w.>.@ q w w w w w 1 x j J.|.|.xXbXbXhXyXyX).x c ).P S.I.J.uXyXyXyXyXyXyXJ.! S z K , w w w w q 5 -.w.w.w.w.-.",
"F F F H U.G e ] ;.q.;.:.+ 0 q w w w w 2 A S I.|.|.lXbXbXsXyX{.z R.).x J.! S ).yXyXyXyXyXyXyXI.C.T P I , w w q q q > * = / -.,.>.",
"D D F J U.y m -.[ _ _ k : 0 q w w q q 2 A Q I.yX|.fXbXxX|.yX[.T C.! P U U R.yXyX|.yXyXyXyX|.I.R E Q I , w w q q q : Z.T.F.^ Y M ",
"D D F G U.e e e y W A.V : 0 q q q q q 2 g T z '.|.pXzXaX|.yXyXyX|.|.|.|.|.|.uXyXyXyXyXyXyXyXI.x z E K , q q q q 2 o Z.(.Y.(.Y.Y.",
"D D D H U.G D F D B.Z.D > 4 2 0 q q q 0 9 R z R.|.|.uX|.{.{.{.{.[.{.{.[.|.|.|.yXyXyXyXyX|.|.J.U S Q A 2 q q 0 , . o T.Y.Y.Y.Y.Y.",
"G G D L Z.D G G Z B.Z.D 8   4 2 q q q q < P S T Q R E P S S S S S S P E Q ! R T R ! V.I.).E.! ! ! ! g 0 q q , .   5 Y.Y.Y.Y.I.Y.",
"D D D R C.D F G Z B.A.D d   . 0 q q q q 2 9 g 6 8 5 5 5 + o o o o o o o o o o o o o o > 5 5 5 6 g g < q q q ,     z Y.I.I.I.Y.Y.",
"G G G B.R f G G Z W A.G B   4 q q q q q q 0 2 1 < : o o X # 6 @ e j j e e 6 @ # o o X o : : < 1 1 2 0 q q q 1     A Y.I.I.I.Y.I.",
"Z Z f B.E G G Z Z L U.G 8   2 q q q 0 2 : o o 6 v Y M b b ..$X=X-X-X5X5X:X-X:X=X%Xo.& k v c e + o 4 < 0 q q 2 .   6 I.I.Y.Y.Y.I.",
"Z Z Z C.L f G Z Z Z Z.Z 9   , 2 , 4 o 6 Y 3.!.=X-X2X2X:Xf.` b &XqXqX8X8X6X6XqXqX4.b 9.-X5X:X=X+X~. .j + o 4 <     O J.I.I.I.I.I.",
"Z Z Z C.L Z Z Z Z Z G G 8 X   X O Y ~.=X-X5X6XqX5X7XqXqXqX9X!.` 6.qX8X8X8X6XqX..' =X7XqX7X5XqXqX0X5X-X%XW.c O X X + I.I.K.K.K.I.",
"C C C C.E Z Z Z Z Z Z Z y j # [ ' 2XqX6X6X8XqX8X7X5X$XQ.8.oX2X7X#X5X8X8X8X6X5X-X5X$X8.Q.&XqXqX0X0X8XqXqX8X=X=.& v x I.K.K.K.K.K.",
"C C B C.E Z Z C Z Z Z B n 2X6.=.9.7X8X7X-XQ.!.!.~. .n /.~.O.b 4.7XqX8X8X8X6X6X$X..5.5.W.5.3./.+X&X:X7XqXqX<X:.8.4X^ I.K.K.K.K.K.",
"C C C C.R Z Z C C C C p  .oXOX] 9.5X5X5XQ...~././.W.3./.~.W.` ` =XqX8X8X8X8X7X5.o./.XX1X^. .eX1X~.O.` $XqX5X' @.o.X.K.K.K.K.K.K.",
"B C B C.E Z Z C B C B y ..' ..#X' 5X6X6X7X7X7X7X7XoX6.6.5.4...6.0X8X6X8X8X8XqX$X` @.5.6.%X%X=X=X2X2X5X7XqX5XOX....W.F.K.K.K.K.K.",
"B C B B.L s s s B B B y ` 7.4.oX*X8X8X8X5X6X6X7X7X<X5X#X4.Q.=X7XqX8X8X8X8X6X6X5X*X6.=X#X8.#X8X8X7X8X8X8X8X8XoX7.' !.~ H.H.H.G.G.",
"B B p W L s B s B s B y 5.OX@X7.qX8X8X8X5X6X8X8X8X8XqX7XqXqX8X8X6X6X8X8X6X6X8X8X8X6X6X8XqX8X6X8XqX8X8X6X7X8XOX4.7.oX^ G.G.G.G.G.",
"B B p E E s B B s s s e %X&XOX7.qX6X8X6X6X6X8X8X8X7X7X7X8X8X8X8X8X6X6X6X6X6X6X8X8X6X8X8X8XqXqXqX8X6X8X6X6X8X7X..&X%X~ G.G.G.G.G.",
"s s s S E s l p p s s e !.;X7.Q.6X6X6X6X5XqXqXqXqXqX5X5X8X8X8X8X8X8X6X6X6X6X6X8X8X8X8X8X8X6X6X8X6X6X5X6X6X8X0X4.-X3.X.G.G.G.G.G.",
"l p p l C s l s s s s p n =X7.6.7X6X6XqXqX0XqX&XoXqX5X6X8X8X8X8X8X8X6X8X8X8X8X8X8X8X8X8X5XoXOX&X5X7X7XqX6X5X5X+.%XY L.G.G.G.G.G.",
"s s s p s s s s s s s s e O.$X` &X6XqXqX2XQ.4.OX5XqX5X8X8X6X6X6X8X8X6X8X6X8X8X6X6X6X8X8X8X-X#XQ.+.4.oX5X7X<X8.!.Y G.L.G.G.G.G.G.",
"p p p s s s s B l l l l l e o.*X+.5X:X6.6.:X9X9XoX4.&X8XqX6X6X6XqX&X4.,X7.7.8X8X6X6X8X8X8X&X#XqX0XqX&XQ.2X6.-X5. .J.L.G.G.G.G.F.",
"p p p l l l l l p l p p p l e oX5X*XoX5X0X7XoX4.oX7X5X8X8X8X6X6XqX<XoXoX,X-X8X8X6X6X6X8X6X5XOX+.OX0X0X0X-X7.0XY G.L.G.F.G.G.G.F.",
"p p p p p p p p p p p y p s p k =X6.-X7X:X4.oX7X7XQ.7.8X7X8X6X6X8XqX8XqX6X6X8X6X8X6X6X6X5X5X0X0X#X4.*XqX5.o. .~ J.L.F.G.F.F.G.F.",
"p p p p p p p p p p p y p p s y a $ !.&X7.:X7XqX4.OXqXqX6X6X6X8X6X6X6X6X6X6X6X6X6X8XqX7X5X6.8.5X0X7X&X0XM X.A.J.F.F.F.F.F.F.F.F.",
"p p p p p p p p p p p y p p p i p p M $X0X7X5X+.&X0XqX6X6X6X6X6X6X6X6X6X6X6X6X6X6X6X6X8XqXqX*X4.#X5XqX3XN L.J.L.F.F.F.F.F.F.F.1.",
"p p p p p p p p p p y y p p p p i i a 2XqXqX+.&XqXqX8X8X6X6XqX0XqXqX8XqX6XqX8X6X6X6X8XqX6XqXqX7X@X8.5X3.^ F.F.1.1.1.F.F.F.1.1.1.",
"p p p p p p p p p i i y p p p p p p e !.qXQ.#X5X8X8X8X8X8XqXqXqXqXqXqX8X5XqX5X5X8X6XqXqX8X8X6X6XqX*X!.n 1.1.F.1.1.1.F.F.1.1.1.1.",
"i i i p p p p p i i i p p p p p p i t n :X&X7XqX8X8X7X7X<X5X5X-X-X;X-X-X=X*X&X*X*X*X=X=X2X5X5X8XqX5X..^ F.F.F.F.1.1.1.1.1.1.1.1.",
"u i u i i i i i i i i y p p p y i i i 6 5.<X5XqXOX' b * * b b ( ) ) ) ( ( ( ( ( b ( ( ( ( ( ..*X<XoX& V.S.F.F.F.%.1.1.1.1.1.1.1.",
"u i u u i i i i i i i t t t t t i i i t $ oX8X5X:X-X=X$X$X$X+X+X+X$X&X&X&X&X-X-X-X:X5X5X5XqX7XqX*X_ n S.F.F.1.1.%.1.1.1.1.1.1.1.",
"u i u u i i i i i i i t t i i i i i i i @ ( #X<XqX8XqXqXqX8X7X7XqXqX0X0XqX8X6X6XqX8X8X<X6X5XqX&X_ :.m S.F.F.F.%.F.~ 1.F.1.1.1.1.",
"i i i i i u i i i i i i i u u u 7 7 6 6 $ ] [ 7.5XqX6X6X5X8XqX8X6X6X8X8X6X6X8XqXqX8X8X<X8X5X&X_ -.>.= ^ ~ T V.F.F.V.F.F.F.F.1.1.",
"i i i i u i i i i i i u u 7 7 6 ! '.sXXX1X[ >.[ ] &X5XqX6X6X6X6X6X6X6X6X6X6X8X8X6X8X8X5X:XQ.* -.>.= N dXkXaXR.F.~ T T V.F.F.F.1.",
"i i i i u u i i u u u u 6 U T aXdXdXwXwXtX* [ ,.] * +.;X5X6X<X6X6X6X6X6X6X6X6X6X6X5X5X&X+.' b -.-.5.2.wXwXrXdXkXkXxXaXK.T F.F.1.",
"u u u u u u i i u u r 6 U gXdXwXwXwXwXwXwX5._ * :.` @.' 7.;X5X6X6X6X6X6X6X6X8X5X5X-X6.' 4.OX` * _ 1X1XwXwXwXwXwXwXwX^.fX).V.A.1.",
"7 u r 7 u u u u 7 7 6 V.gXR.1.R.^.].wXwXwXwX .8.] ` OXOX@.' 4.&X<X<X<X6X6X6X5X-XOX' ' @XOXOXb W. .wXwXwXeX].P.R.F.R.~ K. X! V.~ ",
"7 7 7 7 u u u 7 7 7 6 .XvXaXfX.XsXH.1.P.^.].1XtX] [ OXOXOXOX4.` +.OX;X:X5X*X6.' ' 8.OXOXOXOXn tXeX1X].^.1.sXP.xX'.xX X X XQ ~ ~ ",
"7 r u r u u u 7 7 7 6 ).vX XzX'.bX'.bXR.hX~ 1.P. .& 4.oXOXOXOXOX7...' ' ' ' @.Q.@Xf.@XOX6.!.& R.~ '.P.aX'.zX.XbX}.xXaXfX XQ %.~ ",
"7 7 7 r r 7 7 7 7 7 7 ! bX XbX'.bX}.xX.XzX}.zXR.}.^ ^.Y W.` } } | | | } ..@.' { { { { ( ].kXR.bXfXgXaXfXsXxX XbX}.zXxXvXpXQ ~ ~ ",
"7 7 7 r r 7 7 r r 7 7 x bXgXbX XzX}.zX.XgXsXsXgX.XxXeXfXrX{ r.p.p.u.u.p.) ` r.u.u.t.u.| eXbX.XxXxXgXaXfX XzXaXbXsXbXbXbX'.! ~ ~ ",
"r r r r 7 7 7 7 7 7 7 t nXbXbXxXzX.XbXsXxXsXaXzXsXvX'.bX6.r.y.y.i.i.y.u...] p.y.i.y.i.r.~.bXsXxXgXgXaXlX XbXvXbXgXbXbXbXR.! ~ ~ ",
"r r r r 7 r 7 7 7 7 7 6 zXbXbXbXbXgXbXgXzXfXeXzX}.vX}.bX+.u.t.i.i.y.y.p...' u.y.i.y.i.r.5.vXfXzXnXbXxXzXgXbXbXbXbXbXbXbXR.! ~ ~ ",
"r r r u r r 7 7 7 7 7 z vXbXbXbXbXbXbXbXbXzX.XvX}.bXgXvX| i.y.t.i.i.i.r...' i.t.i.y.t.p...vXgXbXbXbXbXbXbXbXbXbXbXbXbXbX'.S S U ",
"r r 7 r r r r 7 7 7 7 S bXhXkXbXbXbXbXbXbXbXgXbXfXbXbXcX} t.y.u.i.i.i.r...' t.y.i.y.t.u.' cXvXbXbXbXbXbXbXbXbXbXbXbXbXbXsXz E S ",
"r r r r r r r 7 7 7 6 c aXaXfXgXbXbXbXbXbXbXbXbXbXbXbXxX{ i.i.i.i.u.i.r.o.} i.y.y.i.t.i.] cXbXbXbXbXbXbXbXbXbXbXbXbXgXfXhXS R R ",
"r r r r r r 7 6 6 z K U K.sXfX XbXbXbXbXbXbXbXbXbXbXbXkX{ i.i.i.i.u.i.#.o.} i.y.y.t.t.i.+.cXbXbXbXbXbXbXbXbXzXgXbXbXsX'.xXS N.N.",
"r r r r r 7 6 6 S R R R U R.fX XbXgXbXbXbXbXbXbXbXbXzXcX} u.i.i.i.u.y.#.o.' i.y.i.t.t.u.| cXbXbXbXbXbXbXbXbXgXfXzXbX'..XgXU N.R ",
"r r 7 7 7 5 5 E R R R R E z  X'.zX XbXfXbXxXlXzXxXbXfXcX| u.i.u.u.t.y.r.o.{ i.t.i.i.i.u.} xXbXbXbXbXbXbXxXbXaXfX}.bX}.sXF.U N.R "
};
