/* XPM */
static const char *saitama[] = {
/* columns rows colors chars-per-pixel */
"64 64 238 2 ",
"   c #060415",
".  c #080616",
"X  c #07041A",
"o  c #0A061C",
"O  c #0C081D",
"+  c #140B1D",
"@  c #0A0722",
"#  c #0D0924",
"$  c #0D092B",
"%  c #0A0728",
"&  c #110C26",
"*  c #140D2B",
"=  c #190E2C",
"-  c #190E26",
";  c #1C122C",
":  c #141028",
">  c #0E0A34",
",  c #0F0A38",
"<  c #150E32",
"1  c #130E3B",
"2  c #180F32",
"3  c #171033",
"4  c #191234",
"5  c #1C153B",
"6  c #1B143D",
"7  c #26152B",
"8  c #251938",
"9  c #321C34",
"0  c #37223A",
"q  c #292039",
"w  c #462336",
"e  c #532D3E",
"r  c #140E46",
"t  c #1C1543",
"y  c #1F1841",
"u  c #1D154C",
"i  c #18124B",
"p  c #1A1454",
"a  c #1A1457",
"s  c #221A44",
"d  c #251B4B",
"f  c #291D4D",
"g  c #201740",
"h  c #241A54",
"j  c #291E52",
"k  c #241B5B",
"l  c #261C57",
"z  c #392947",
"x  c #2C2255",
"c  c #2D235B",
"v  c #2E2B54",
"b  c #31255D",
"n  c #392D58",
"m  c #3B3456",
"M  c #332B4D",
"N  c #1E1768",
"B  c #1F1870",
"V  c #251C65",
"C  c #241D79",
"Z  c #2D2367",
"A  c #322663",
"S  c #342866",
"D  c #362A6A",
"F  c #392C6D",
"G  c #33276A",
"H  c #2C2376",
"J  c #3A2E73",
"K  c #342978",
"L  c #3C3076",
"P  c #3E327A",
"I  c #313065",
"U  c #442C48",
"Y  c #4B3957",
"T  c #573959",
"R  c #503347",
"E  c #623A58",
"W  c #433765",
"Q  c #41337D",
"!  c #423370",
"~  c #573E63",
"^  c #76485C",
"/  c #6C455A",
"(  c #4B4669",
")  c #534A69",
"_  c #564875",
"`  c #5A5677",
"'  c #68476A",
"]  c #784D65",
"[  c #665579",
"{  c #78557A",
"}  c #785270",
"|  c #86566A",
" . c #865A79",
".. c #925E73",
"X. c #824F63",
"o. c #99657A",
"O. c #8E657E",
"+. c #A26A7E",
"@. c #2C258A",
"#. c #2A2284",
"$. c #322A8D",
"%. c #392D84",
"&. c #3E3188",
"*. c #2E2790",
"=. c #322A93",
"-. c #342C99",
";. c #3C329A",
":. c #3B33A4",
">. c #251E82",
",. c #423584",
"<. c #46388A",
"1. c #493A8E",
"2. c #44368A",
"3. c #4B3C93",
"4. c #4C3D9A",
"5. c #443696",
"6. c #503F97",
"7. c #4B3DAB",
"8. c #473AA4",
"9. c #493FB0",
"0. c #4F409E",
"q. c #52429E",
"w. c #564496",
"e. c #564B87",
"r. c #6D568D",
"t. c #6A6589",
"y. c #776688",
"u. c #776E96",
"i. c #5444A4",
"p. c #5847A6",
"a. c #5343AC",
"s. c #5C4BAB",
"d. c #5A48A8",
"f. c #4D42B6",
"g. c #5343B2",
"h. c #5C4BB3",
"j. c #5B4BB9",
"k. c #4F40A8",
"l. c #604EAD",
"z. c #604DA3",
"x. c #6350AE",
"c. c #6B55A5",
"v. c #604FB4",
"b. c #6454B4",
"n. c #6A59B6",
"m. c #6453BA",
"M. c #6857BC",
"N. c #6C5BBA",
"B. c #6956B4",
"V. c #705EBB",
"C. c #775FA7",
"Z. c #7262BE",
"A. c #776CA8",
"S. c #594CC2",
"D. c #6D5BC1",
"F. c #6857C7",
"G. c #715FC3",
"H. c #7563C5",
"J. c #7867C8",
"K. c #7D6BCB",
"L. c #7665C7",
"P. c #895D84",
"I. c #89638A",
"U. c #92658E",
"Y. c #9B6A94",
"T. c #946C95",
"R. c #9A759C",
"E. c #8A739C",
"W. c #A76E82",
"Q. c #A97388",
"!. c #A5739B",
"~. c #B77D92",
"^. c #A87293",
"/. c #837BA6",
"(. c #9A79A1",
"). c #866EA4",
"_. c #A679A4",
"`. c #B37EA9",
"'. c #816ECE",
"]. c #8C7AD6",
"[. c #8775D3",
"{. c #917EDA",
"}. c #8370CF",
"|. c #9C829F",
" X c #BB8398",
".X c #8C85AA",
"XX c #9785A6",
"oX c #9B95B7",
"OX c #9487B2",
"+X c #A687AC",
"@X c #B783AA",
"#X c #A887B5",
"$X c #B788B4",
"%X c #A797B8",
"&X c #B091B6",
"*X c #C4889D",
"=X c #CB92A7",
"-X c #D496AA",
";X c #D699AE",
":X c #D092A6",
">X c #C38DBA",
",X c #C991BE",
"<X c #D99EB2",
"1X c #D59BB1",
"2X c #C88EA2",
"3X c #DBA2B6",
"4X c #DCA5B9",
"5X c #D6A0B5",
"6X c #9587DC",
"7X c #928FD0",
"8X c #B69AC6",
"9X c #B4ABCC",
"0X c #9C8DE1",
"qX c #9693E2",
"wX c #A193E6",
"eX c #A08FE6",
"rX c #BCBDE0",
"tX c #C898C5",
"yX c #D59CCB",
"uX c #D89FCD",
"iX c #D097C6",
"pX c #DA9FD1",
"aX c #D9A0CE",
"sX c #CBA9D5",
"dX c #DAA2D1",
"fX c #D9ACD8",
"gX c #DCB2DE",
"hX c #D4B3DD",
"jX c #C3B1D5",
"kX c #DEB5E1",
"lX c #C2BEE0",
"zX c #E1BBE5",
"xX c #E1B7E3",
"cX c #D4CDEB",
"vX c #DDCAE6",
"bX c #CDC7E7",
"nX c #E4C4EA",
"mX c #E4D1EB",
/* pixels */
"N.N.N.N.N.N.N.H.L.J.[.6X].6X6X6X6X0XwXK.H.H.H.Z.Z.Z.Z.Z.Z.Z.Z.Z.Z.Z.Z.Z.Z.Z.Z.Z.Z.Z.Z.Z.Z.Z.Z.Z.Z.Z.Z.V.V.N.N.N.N.N.N.N.N.N.M.b.",
"b.b.M.M.b.B.N.N.D.J.[.{.K.6X6X6X0X6XwXJ.Z.N.N.N.N.N.N.N.V.N.V.V.N.N.N.n.N.N.N.N.N.N.N.N.N.N.N.N.N.N.N.N.N.N.N.M.b.b.b.b.b.b.b.b.",
"h.b.b.m.m.b.m.M.N.J.}.K.L.6X6X6X0X6XwXH.N.n.B.b.b.B.B.n.n.n.n.n.B.B.b.b.b.b.b.b.b.b.b.b.b.b.b.b.b.b.b.b.b.b.b.b.b.b.b.v.s.s.s.s.",
"s.s.v.h.h.s.h.m.D.J.J.J.H.].6X6X6X6XwXV.b.b.x.x.x.x.x.b.B.B.B.B.x.x.l.l.l.l.l.x.x.x.b.b.b.b.b.b.b.b.b.b.l.s.s.s.s.s.s.s.s.s.s.p.",
"i.p.s.s.s.s.h.m.D.H.H.K.H.].{.{.6X].eXN.l.s.s.s.l.l.l.z.c.A.C.c.x.l.s.s.s.s.s.s.s.s.s.s.s.s.s.s.s.s.s.s.s.s.s.s.s.i.i.i.i.i.i.i.",
"i.i.s.a.i.i.d.h.m.D.G.K.K.}.[.].{.].eXb.s.s.p.p.p.d.z.A.sXnXnX8Xc.z.d.p.i.i.i.i.i.p.p.p.p.p.s.d.p.p.p.i.i.i.i.i.i.i.i.i.i.i.i.k.",
"4.4.i.i.0.q.i.a.h.M.D.'.L.K.[.].].].0Xs.i.i.i.i.i.w.).#X8XhXnXnXsXc.i.q.q.q.q.q.q.q.q.q.i.i.i.i.q.i.q.q.q.q.q.q.0.0.4.4.4.4.4.4.",
"3.3.4.8.4.4.k.a.h.m.D.J.m.L.K.[.].6X0Xs.q.4.4.4.w.).#X#XsXnXnXnXnX8Xw.6.3.3.4.3.3.4.4.4.4.4.4.4.4.4.4.4.4.4.3.3.3.3.3.3.3.3.3.1.",
"<.<.4.4.1.3.4.i.a.h.M.D.m.M.J.'.[.{.6Xi.3.3.3.3.r.OX#X8XsXnXnXnXnXnXC.1.<.1.1.1.1.1.1.1.3.3.3.3.3.3.3.3.3.1.1.1.1.1.1.<.<.<.2.2.",
",.,.5.5.,.2.4.7.k.h.h.m.M.M.G.J.'.}.{.q.1.<.<.<.).#X#X&XtXzXnXnXnXmX8X<.2.,.,.,.,.,.,.2.<.<.<.<.<.<.<.<.<.2.2.,.,.,.,.,.,.,.,.,.",
"P P 2.2.&.&.2.4.7.a.7.s.M.m.H.'.K.'.].3.2.,.,.e.XX#X#X8XkXnXnXnXnXmXvXe.,.Q Q Q Q Q Q ,.,.Q ,.,.,.,.,.,.,.,.,.Q Q Q P P P P P P ",
"J J &.&.L P &.5.8.8.4.i.m.m.L.[.'.'.}.1.Q Q Q r.+X#X#X&XgXzXzXzXzXnXmXu.Q L J L L L P P P P P P P Q P P P P L P L L L L L J J J ",
"F F P L F J L &.5.8.4.i.b.h.L.[.}.'.}.<.P J ! E.#X#X&XtXgXxXxXzXxXxXkX#X! F F F F F J J J J J J L J J J J J J J J J J J F F F F ",
"S D J J D D K %.2.4.5.i.v.h.H.}.J.K.'.,.J F ! &XtXsXsXtXtXxXxXxXxXxXkXtXW D D D D D D D F D F F F D F D F F D D D D D D D D D D ",
"A A D D S S D P &.5.5.4.h.a.D.K.H.J.K.P F F _ +X#X#X+X+X&XfXxXxXxXxXkXfXW S A A A S S S S S S S S S D S D S S S S S S S S S A A ",
"c b G S b S G K %.5.&.5.h.a.M.J.M.H.J.L S S r.+X#X+X_._.tXgXkXkXkXkXkXfX_ b b c c b A A A A b A A A S A S A A A A A A A c c c c ",
"c c S Z c c Z J K &.&.5.a.i.M.L.m.D.L.J b b I.#X_._.(.(.#XgXgXgXgXgXgXfX[ b c c c c c c c c c c c c c c c c c c c c c c c c c c ",
"x x c A c c A Z K %.%.&.k.8.m.H.m.M.H.D c c { T.R.R._._.$X&X+XtXgXfXtXtXy.x x x x x x x x x x x x c c c c x x x x x x x x x x x ",
"j j c A j j c Z K %.K %.8.8.j.D.v.M.G.G x x y._._.(.$XtX$XtXtXdXfX$X&XtXI.x f j f f x x x x x x x x x x x x x x x x x j j j j j ",
"d f l l j d l Z Z K K P 8.5.h.D.h.M.D.S j x { R.R._._._._._.+XfXfX+XXX+XT.f f d d d f f f f j j f j j j j j j j f f f f f f f f ",
"d s h l d d h k V G Z K 5.5.h.m.h.D.m.A f f ' T.R.R.$X+XcX9X9XfXtXlX9X%XT.f d s s s d d d d d d d f d d d d d d d d d d d d d d ",
"s s h d d s d l k Z Z K 5.&.a.h.a.G.m.k d d Y { U.R._.(.cXcX%XfX$XlXcX%XT.d s s s s s s s s s s s s d s d d s s s s s s s s s s ",
"s s s d s s s h k Z V H 5.&.g.m.h.D.m.l s M { ' I.I.{ P.(.%X$XfX$X+X+X$XT.s s s s 8 s s s s s s s s s s s s s s s s s s s s s s ",
"5 5 s s y 5 y d l V k Z &.%.a.v.h.D.j.h s n T { T.R._._.yXtXdXdX@XuXtXdXT.s 8 5 5 5 5 5 5 y 5 s y y s s s s s 5 y y 5 5 y g 5 5 ",
"5 5 s t 5 5 y u h V l Z P %.a.v.g.M.j.d y z T P.!._._._.uXdXdXaX@XdXdXdXU.8 8 5 5 5 5 5 5 5 5 5 5 5 5 5 5 5 5 5 5 5 5 5 5 5 5 5 ",
"4 4 t y 5 4 5 u h k h Z K K a.j.g.F.h.s 5 [ >X_.iX>X_.Y.@XaXaXaX@XdXdXuXI.8 5 4 5 4 5 5 5 5 5 5 5 5 5 5 5 5 5 5 5 5 5 5 5 5 5 5 ",
"4 4 y 5 5 4 6 t u k h V K H a.g.g.F.g.s 5 ~ I.' Y.Y.Y.Y.@XaXaXaX`.uXaXuXI.8 4 4 4 4 5 5 5 5 5 5 5 5 5 5 5 5 5 5 5 5 5 4 5 4 5 5 ",
"4 4 6 6 4 4 6 y u k h k K H a.g.g.G.7.t 5 U ' { Y.Y._.@XtXuXaXaX!.yXaXuXP.8 4 4 4 4 4 4 4 4 4 4 4 4 4 4 4 5 4 4 4 4 5 4 4 4 4 5 ",
"4 3 6 6 3 = 4 6 u h d k K H a.g.7.F.7.y 4 0 ' P.$X>X,X@X$XuXaXaX,XuXaXuX .8 4 4 4 4 4 4 4 4 4 4 4 4 4 4 4 4 4 4 4 4 4 4 4 4 3 3 ",
"< < 6 1 2 = 4 6 t h d k H H a.g.7.F.7.t 3 4 { ' `.!.Y.Y.!.iXaXaXuXaXaXyX{ 4 ; = = 3 3 3 3 3 < 3 4 4 4 4 4 4 3 3 < 3 3 3 < 3 3 < ",
"= = 6 3 < * < 6 t h u l H H 7.g.7.S.8.6 < < T P.U.Y.Y.Y.$XuXaXaXuXaXaXyX' ; = = = = = = = = = < = < < = < < < < = < < < < < < < ",
"* * 6 3 < * < 1 t p u h V H 7.g.8.j.8.6 = = 8 } } U.Y.Y.$XuXaX,X$XuXuXyXT ; * = * = * * = = = = = = = = = = = = = = = = = = < = ",
"* * 4 < * & = < 6 u t u h Z 7.g.7.S.5.6 = = * ; Y P.U.U.!.>XuX>X@XuXuXyXz = * * * * * * * * * * * = = = * * * * = * = = = = = = ",
"& * < < * & * < 1 t t t u V ;.7.8.S.;.< * * * * 0 { P.U.>XyXaXuXuXuXuX>X7 * * * * * * * * * * * * * * * * * * * * * * * * = * * ",
"* * < < & & * < 1 t < 6 p V 8.7.7.S.=.< * * * * ; { P.I.`.uXaXdXdXaXuXY.; * * * * * * * * * * * * * * = * * * * * * * * * * * * ",
"& # * * * & * < 1 1 * 1 u V $.8.;.S.=.< * * * & - ' P.U.`.aXaXdXdXaXyX' = * * * & & & & * * * * * * * * * * * * * * * * * * * * ",
"& & * $ # & & < < 1 * 1 u l H -.=.S.=.< & & & & - U P.U.,XuXdXdXdXaXiX0 = - & & & & & & & & & & & & & & & & & & & & * & & & & * ",
"# & * # # # * * * < * 6 p k ;.7.8.S.;.< & & # & & - { !.`.yXdXdXdXuXY.; - - & & # & & & & & # & & & & & & & & & & & & & # & & & ",
"# # * # # # < < * < $ 1 u V ;.8.g.f.;.< # & # & & - 9 P._.iXpXdXdXiXU = - & & & # # # # # # # & # & # # & # # # # # & & # # & & ",
"# # $ # # # * 1 < * $ r a V =.8.f.8.;.* # # # # # & 0 R P.`.uXdXuX{ 7 = - & & # # # # # # # # # # # # # # # # # # # # # # # & $ ",
"O O $ # O O # 1 r 1 < r k p C $.;.-.=.* # O # O # & 7 Y w T `.,XP.9 ; = - & # # # # # # # # # # # # # # # # # # # # # # # # # # ",
"O O # # O O # $ r u 1 r V p #.;.:.#.@.$ O O O O O # 9 T E E P.Y.$X0 7 ; - & & # # # # # # O O O O O # # # # # # # # # # # # # # ",
"O O # @ O X @ # > i p p V p #.8.9.@.@.$ O O O O O + 0 ' P.!.,XdXuXy.z q - & & # # O O O O O O O O O O O O O @ # # # # # # # # # ",
"X O # % o . O # > , p V V p H ;.8.@.@.$ O O O O O q z { `.uXdXdXaX%XOXoX; - & & O O O O O O O O O O O O O O O O @ # @ # # # # # ",
"X O @ @ X . X @ $ 1 1 V V a H ;.9.#.=.# O O O O + ) T _.iXdXdXdXdX#XbXoXt.m ) - O O O O o O O O O O O O O O O O O O O # # # # # ",
"X X @ O . . X @ $ > 1 i V a $.7.f.-.=.# O O O & ( Y Y !.tXdXdXdXdXI.bXoX.XOXrX8 & O O o X o X X X O O O O O O O O O O O @ @ # @ ",
". . @ X . . X @ % $ > r a p =.f.f.-.=.# O o ; M ( M z P.iXdXdXdXdX_.%X%Xm ( lXu.; O o X X X X X X O X O O O O O O O O O @ @ @ @ ",
". . O X X . X @ % $ > r p p $.:.:.-.$.@ X : ` t.t.m ) ' uXdXdXdXpXT.oXbXv e.t.rX` O o X O O X X X X X X O O O O O @ O O @ @ @ @ ",
". . X X . . X @ % , % 1 i r $.:.:.-.=.@ M t.) t.5 ( oX%XR.>XuXyX!.9X8X9X( I t.bXm O o X O . X . X X X X X O O O O O O O O O @ @ ",
". . X X . . X @ % , % , i 1 $.:.:.-.$.# ` u.u.W u e.OX9XcX8Xy.[ y.cXcXu..Xn oXXXU + o X X . . X X X X X X O O O O O O O O O @ @ ",
". . X X X   X @ % > % , a r @.:.:.-.$.= ) ) u.( u x oXXXcXcXt._ _ cXbXI.y.E.y.O.o.+ O X X X . X X X X X X O X O O O O O O O @ @ ",
". . X X X   X @ % > % 1 V i @.:.:.-.$.; | 0 [ t.m .X[ y.cXcX[ r.A.bX|.5X@XO. X5XQ.+ O X X X . X . X X X X O X O O O @ O @ O @ @ ",
". . X X .   X @ % > % 1 N N @.-.-.-.@.U Q.~.] ) u.Y } O.%XcXu.qXA.XX=X4X4X4X3X3X X+ O X X X X X X X X X X X O O O O @ O O O O O ",
". . X X .   X @ % > % , N N @.-.-.=.H R Q.Q.W.Q.Q. X X=X@XR.t.qX7XI.4X4X4X4X4X2X2X+ O X X X X X X X X X O O O O O O @ O @ @ @ O ",
". . O o .   X o % > % > a a #.@.-.=.Z R ..o.o.Q.] | o. X3X1Xe.A.6X{ 4X4X4X4X3XW.-X+ O X X X X X X X X X O O O O O O O O @ O O O ",
". . O o .   . o @ $ % , a p C @.=.@.b T ....Q.*XE ] o.2X3X<X[ 7Xr.R.3X4X4X4X-X^ -X7 O X O X X X X X X O O O O O O O O O O O O O ",
". . O X X   . o % $ @ , a i C #.@.H m / ..Q.;X2Xe X.o. X4X3X+Xu./.+X3X4X4X3X X^ -X9 + O X X X X O X X O O O O O O O O O @ @ O O ",
"  . O X .   X O % > % , p p C #.@.a ( ^ o.W.~. Xw Q.2X-X3X3X+X.XA.+X3X4X4X3XQ...;X0 + X O O X X O O O O O O O O O O O O @ @ O @ ",
". . O X .   X @ % , , > p p C #.@.r ) / | | ~.*Xw ^ W. X3X3X+X.Xu.+X3X3X3X3X+.~.;XR + O O O X X X O O O O O O O O O O O O O O O ",
". . o X X   X O % , , , p p C >.#.s _ ^ X...~.2Xw X.+. X3X3X+X.Xu.+X3X3X3X<Xo.-X;X| + O O X O X X O O O O O O O O O @ O O O O O ",
". . X X X   X @ % > , , p i C >.#.m ) ] ^ X.o.~.w | +. X<X<X+XOX/.XX<X3X3X<X+.;X;XQ.+ O O O O O O O O O O O O O O O O O O O O @ ",
". . X o .   X @ % > , > r r B C C ` ` ] ..o.+. Xe +.Q.*X1X<X+XOX/.XX<X3X<X<XW.;X;X*X+ O O O O O O O O O O O O O O O O O O O O O ",
"  . X X X   X o % , , $ r i B C V u.y.o.Q.~.*X XR X.| Q.-X;X+X/.u.|.;X<X<X;XQ.-X;X:X7 O X O X O O @ O O @ @ O O O O O O O O O O ",
".   X X .   o O % , , > r r N C G 9X.X~.~.~.Q.Q.| Q. X:X-X-X+X/./.R.-X;X-X-XW.-X-X:X0 O O O O O @ O O O O O O O O O O O O O O O "
};
