/* XPM */
static char *result[] = {
/* columns rows colors chars-per-pixel */
"64 64 220 2 ",
"   c #161C2E",
".  c #181E2E",
"X  c #1A212F",
"o  c #1A2434",
"O  c #192936",
"+  c #1B2C3C",
"@  c #172132",
"#  c #1C373B",
"$  c #252B36",
"%  c #322E38",
"&  c #24343B",
"*  c #2B3C3B",
"=  c #293839",
"-  c #373A38",
";  c #4A3E3F",
":  c #42393D",
">  c #2C423E",
",  c #2A483D",
"<  c #33423C",
"1  c #37483C",
"2  c #3B543C",
"3  c #45463E",
"4  c #4E523D",
"5  c #43543D",
"6  c #50523E",
"7  c #596B3E",
"8  c #54643E",
"9  c #1D3342",
"0  c #1D3A45",
"q  c #1E3D4A",
"w  c #1E2D41",
"e  c #213549",
"r  c #243A4D",
"t  c #283A43",
"y  c #243D51",
"u  c #493E40",
"i  c #1F454D",
"p  c #1F4547",
"a  c #1F4B52",
"s  c #214A4C",
"d  c #274546",
"f  c #354542",
"g  c #24594C",
"h  c #3A5843",
"j  c #264355",
"k  c #234D53",
"l  c #28445A",
"z  c #2A495E",
"x  c #274757",
"c  c #225155",
"v  c #2B5552",
"b  c #22565A",
"n  c #235A5C",
"m  c #2E5F59",
"M  c #315A52",
"N  c #2B654D",
"B  c #3D644E",
"V  c #266B58",
"C  c #2A785B",
"Z  c #36705E",
"A  c #2A4E61",
"S  c #295563",
"D  c #245D61",
"F  c #295C65",
"G  c #265560",
"H  c #256364",
"J  c #2B6364",
"K  c #2B6D65",
"L  c #286469",
"P  c #276C6C",
"I  c #28696C",
"U  c #266B65",
"Y  c #2B7365",
"T  c #27716F",
"R  c #28756D",
"E  c #2A7C6D",
"W  c #2D7D66",
"Q  c #534343",
"!  c #594B44",
"~  c #465746",
"^  c #565C44",
"/  c #4E4242",
"(  c #695849",
")  c #785B4E",
"_  c #7F5E50",
"`  c #634F48",
"'  c #496344",
"]  c #526E4A",
"[  c #586944",
"{  c #4A774C",
"}  c #58744B",
"|  c #4C7458",
" . c #646B43",
".. c #646E4B",
"X. c #687842",
"o. c #777847",
"O. c #6F7F51",
"+. c #997154",
"@. c #8E6B53",
"#. c #37885A",
"$. c #3B935E",
"%. c #2D8364",
"&. c #2D8B65",
"*. c #2B846C",
"=. c #2D8C6B",
"-. c #338869",
";. c #2F956A",
":. c #2F9067",
">. c #339367",
",. c #369B67",
"<. c #3A9D66",
"1. c #329669",
"2. c #339969",
"3. c #3C9465",
"4. c #3DA164",
"5. c #468A4D",
"6. c #438E53",
"7. c #499856",
"8. c #5F8355",
"9. c #6E894B",
"0. c #6A8247",
"q. c #758C45",
"w. c #768748",
"e. c #7B9346",
"r. c #7F9847",
"t. c #7A964A",
"y. c #668854",
"u. c #6C9656",
"i. c #769A58",
"p. c #7C8059",
"a. c #4DA45F",
"s. c #4DAB5E",
"d. c #50AF5D",
"f. c #54B15B",
"g. c #5AB659",
"h. c #7EAA5F",
"j. c #79A658",
"k. c #65BA5A",
"l. c #72BE5B",
"z. c #449C62",
"x. c #5B806A",
"c. c #6F976E",
"v. c #6F9B6D",
"b. c #7A9C6B",
"n. c #759A6B",
"m. c #638C72",
"M. c #679175",
"N. c #6B9670",
"B. c #759770",
"V. c #43A462",
"C. c #47A861",
"Z. c #49A960",
"A. c #4AA160",
"S. c #75A365",
"D. c #7AA762",
"F. c #79A863",
"G. c #73A069",
"H. c #88894C",
"J. c #918F4F",
"K. c #839D48",
"L. c #869749",
"P. c #93994E",
"I. c #889756",
"U. c #999952",
"Y. c #A29F53",
"T. c #87A149",
"R. c #8DA64B",
"E. c #8DA94B",
"W. c #93AE4C",
"Q. c #95A44E",
"!. c #95B24D",
"~. c #99B64D",
"^. c #9BB94E",
"/. c #85A955",
"(. c #8DAE56",
"). c #83A75E",
"_. c #83AC5C",
"`. c #89AD5A",
"'. c #87A354",
"]. c #9AAC55",
"[. c #90AF5C",
"{. c #8EB355",
"}. c #8AB058",
"|. c #83BA5E",
" X c #95B552",
".X c #9CB456",
"XX c #9CB15E",
"oX c #90B05A",
"OX c #A8A854",
"+X c #A4B654",
"@X c #AEB555",
"#X c #A5B951",
"$X c #ADB954",
"%X c #A6B35C",
"&X c #ACB55D",
"*X c #B4B956",
"=X c #B2B55D",
"-X c #BAB65A",
";X c #B7B958",
":X c #BFBA5B",
">X c #B2B357",
",X c #B4AF58",
"<X c #849E6C",
"1X c #81A561",
"2X c #83AB61",
"3X c #8AAC61",
"4X c #8EA369",
"5X c #96A766",
"6X c #90AE60",
"7X c #93A568",
"8X c #9BAC61",
"9X c #A1AC63",
"0X c #A9AF61",
"qX c #ABB060",
"wX c #86C55D",
"eX c #96CA5F",
"rX c #A7C55E",
"tX c #BCD763",
"yX c #B2D362",
"uX c #A9CF61",
/* pixels */
"^.$X<XM.n.1XM.F.F._.F.F.F.`.F.}.^.}.}.^.^.^.oX1X(.oX`..X*X<XM.O.c.m.F.F._.F.F.F.}.F.}.^.}.}.^.^.^.oX1X(.oX`.^.%Xb.M.1Xb.M.F.F.D.",
";X:X:X0XM.B.:Xb.XXF._.F.}.F.F. X^.^.^.^.^.`.b.7XM.b.B.;X:X:Xp.| b.:Xb.XXF._.F.`.F.F. X^.^.^.^.^.2Xb.7XM.b.B.;X:X:X0XM.b.:Xb.XXF.",
":X=X6X=X=X0X#X:X:X=X+X^.^.{.F.2X`.6XXX+X7X0X:X&X=X:X:X:X&X}.[ ^ ;X$X;X:X=X+X^.^.}.F.2X}.6XXX%X5X=X:X&X=X:X:X:X%X6X=X9X;X+X:X:X=X",
"F.F.F.F.F.}.^.^.^.+X$X^.^.{.$X$X$X$X$X^.^.#X.X}.F.3X_.F.h.n...w._.~.^.^.#X$X^.^.}.$X$X$X$X$X^.^.$X X{.F.3X2XF.F.D.F.2X}.^.^.^.#X",
"_.F.F.F.F.F.F._._.F.F.^.^.^.^.^.^.^.^.$X#X^.^.^.^.^.}._.F.' ].].' F._.h.F.F.^.^.^.^.^.^.^.#X$X+X X^.^.^.^.}._.F.F.F.F.F.F._._.F.",
"_.}.^._.F._.}. X{.=X*X#X^.^.^.^.#X*X:X*X;X*X#X~.{. X_._./...tXtXh j..X X=X;X#X^.^.^.^.#X$X;X*X;X*X#X X X{._._.{.^._.F._.}..X{.=X",
"^.^.^.^.^.^.;X:X:X&X&X*X$X#X^.^.^.^.^.^.^.$X*X^.^.^.^.~.K.'.tXtXj.X.:X:X&X&X;X$X^.^.^.^.^.#X^.^.$X$X^.^.^.^.^.^.^.^.^.^.;X:X:X%X",
"^.^.^.^.{._.h.}.F.F.F.6X6X6X[.F.F._.`.{.{. X X^.^.^.^.~.2 rXtXtXuXh {.F.F.F.6X`.6X6XF.h._.`. X}.{. X^.^.^.^.^.^.^.^.{.h.h.{.h.F.",
"^.^.^.^.^.^.^.^.^.^._._.`.h.F.F.F.F._.}.}.^.^.^.^.^.^.e.u.tXtXeXyXB !.^.^.h._.}.F.F.F.F.F._.`. X^.^.^.^.^.^.^.^.^.^.^.^.^.^.^. X",
"M.M. Xn.M.v.^.#X:X*X`.^.^.~.^.{.^.^.^.^.^.^.^.^.^.^.b.{ yXwXtXl.tX{ 0.;X;X_.^.^. X^.{.^.^.^.^.^.^.^.^.^.^.b.M.v.^.n.M.n.^.#X:X$X",
":X9Xb.7X:X=X8X;X:X:XrX#X^.^.#X*X*X:X:X^.^.D.n.1Xb.c.} u.eXeXeXl.l.|.2 ,X:X;X~.^.^.#X*X*X:X;X^.^.G.b.1Xb.v.5X:X8XB.5X:X=XXX=X:X:X",
":X:X:X:X:X:X:X:X:X:X:X:X^.#X$X$X$X$X XM.n.7X%XM.0X%X{ l.g.k.wXl.g.k.#. .:X:X:X^.$X$X$X$X$X XM.c.%X%XM.0X0X7X:X:X:X:X:X:X:X:X:X:X",
":XXX0X:X*X^.#X:X3X3X:X:X:X$X^.^.^.$Xn.0X0X>X:X:X:XH.5.g.g.g.wXk.V.g.f.N i.:X:X:X#X^.^.^.$XG.0X9X:X:X:X:X:X:X:X9X&X:X$X^.$X:X3XXX",
"2XF.F.^.#X^._.F.F.F.+X#X#X^.^.$X;X;X:X:X*X^.#X:X#X2 g.g.C.g.wXk.s.N 7.V.B +X#X#X^.^.$X*X;X:X:X$X^.+X:X#X}.`.2XF.2X^.^.~._.h.F._.",
"F.F.F.F._.F.F.}. Xh.h. X^.^.$X#X^.^.$X^.^.^.^.#X[ 6.g.V.f.g.wXg.g.4.g #.1.]  X^.^.$X$X^.^.$X^.^.^.^.#X`.F.F.F.F.F.F._.F.F.`. XF.",
"_.}.}._.F._.}.}.^.^.^.^.^.^.~._.~.^.^.^.^. X(.{ C d.$.N g.g.f.g.g.g.C o C ;.{ !.^. X_.~.^.^.^.^.~. X_.F._.^._.}.}.h.F.}.}.{.^.^.",
"^.^.^.^.^.^.^.^.^.^.^.h.F.}.F.F.}.^.^.^.^.4 N :.z.N @ 7.A.-.4.Z.2.s.V.P @ # d i.}.F.F.}.^.^.^.^.*X;X^.#X$X#X^.^.^.^.^.^.^.^.^.^.",
" X X}._.F._.^.}. X^.`.F.F.F.F.F.F.F.}.}.=XOX-     @ Y z.T z.V.V.;.;.<.*.d /.S.F.F.F.F.F.F.}.}.:X:X:X:X:X:XXX X{.}._.F.}.^.}. X^.",
"_._.F.F.F.F.F.F.F.v.v._._._.F.G.F.F. X^.#X*X;XP.O V 3.*.*.4.Z.2.;.;.2.2.n ~ 3X3X2XF.n.F.h.{.^.#X:X:X;X+X}.oX_.F.F.F.F.F.F.F.G.v.",
"h.F.F.F.F.F.F.M.N.M.M.M.M.S.b.<XM.3X#X:X:X:X:X^ a *.2.:.=.;.V.2.;.:.;.;.*.i | M.1Xb.1XM._.#X:X:X:X:X$X^.^.^._.F.F.F.F.F.G.M.N.M.",
"^. X}.F.F.F.M.<X:X:XB.qX:X9X:X:X7X7X;X^.^.$XU.d E 2.V.2.;.;.<.;.;.*.;.;.;.U 3 ;X7X:X:X7X7X*X^.^.=X:X$X$X^.^.^. X}.F.F.F.M.4X;XqX",
"^.^.^.%XXX8X7X:X:X:X=X:X:X:X:X:X:X:X*X;X^.7 v -.2.f.<.;.;.,.C.1.4.*.=.C.4.=.p ~ OX:X:X:X:X*X*X^.^.#X*X$X#X^.^.^.^.XX%X8X7X:X:X:X",
"^.^.^.#X^.#X$X:X$X^.:X$X^.*X$X$X:X-XOX .> L =.z.g.V.4.;.V.V.g.4.g.d.R Z.d.2.%.a c ~ P.:X:X:X:X#X*X*X#X^.^.^.^.^.^.$X^.$X$X:X#X#X",
"^.^.^.^.^.^.^.#X^.^.^.^.^.^.^.^.*XOX= i P I K f.g.#.W ;.d.Z.g.g.g.g.A.3.d.4.V.N i 9 q.*X*X#X*X*X*X*X#X X.X.X^.^.^.^.^.^.^.#X^.^.",
"h.F.}.^.$X:X$X^.^.^.~.}.^.^.^.^.^.~.T.7 = , 5.7.2 n :.2.f.g.g.g.V.f.g.Z.,.s.V.<.g q.~.^.^.^.^.^.^. XF.F.F.F._.F.{.^.*X:X#X^.^.^.",
"F.F.2XXX:X:X:X=XF.h._._._.^.^.{.!.^.~.^.r.' , O H *.2.4.g.f.V.g.A.-.f.g.,.1.<.1.R ^ }. X^.^.^.^.`.F._.}.}.F.F.F.3XXX:X:X:X=XF._.",
" X^.{.{.{.#X{.{.{.{.~.{._.^.{.F.F.`.F.}./.9.0 P *.2.4.g.C.1.2.Z.g.-.-.d.g.,.%.;.=.n u.F._.h.}.}.{.{.~.^.^.}. X X{..X X+X{. X{.{.",
"^.$X<XM.n.1XM.F.F.h.F.F.F._.F.}.^.}.}.^.E., T =.;.4.s.2.-.Z.V.2.C.V.1.=.4.;.C V ;.=.v K.`.}.^.^.^.{.1XoX(.`.^.%XG.M.1Xn.M.F.F.2X",
";X:X:X0XM.B.:Xb.XXF._.F.}.2XF. X^.^.^.!.1 H =.;.;.2.,.1.Z.g.g.2.;.C.4.;.;.;.;.g V E T Z t. X^.^.1Xb.7XM.b.B.;X:X:XqXN.G.:Xb.XXF.",
":X=X6X=X=X%X$X;X:X;X#X^.^.{.F.2X6X6XI.h Y ;.*.E ;.;.-.f.g.g.V.<.;.;.4.2.;.R *.&.O 0 H a & I.+X5X&X:X=X=X:X:X:X&X6X=X9X:X#X:X:XqX",
"F.F.F.F.F.`.^.^.^.$X#X^.^.{.$X$X$X[ v P T b p :.=.E Z.g.g.g.2.Z.;.;.;.:.;.%.i U V -  .X.].$X^.^.#X.X`.F.3X2XF.F.F.F.F.}.^.^.^.#X",
"_.F._.F.F.F.F.2XF.2X3X^.^.^.^.^.O V G b + i R E T 7.g.g.g.V.<.V.;.;.;.&.R ;.%.p c C [ e.^.#X*X$X^.^.^.^.^._._.F.3XF.F.F.F._.F.3X",
"`. X^.}.F._. X$X^.:X:X$X^.^.^.^.w.4 4 $ b R =.*.A.g.Z.2.4.;.2.;.;.;.;.*.T E ;.*.l 9 , X.;X:X$X:X:X#X X}.}.}.}. X^.}.F.}. X$X^.:X",
"^.^.^.^.^.^.*X:X:X&X%X;X$X#X^.^.^.^.q.d R ;.;.z.s.4.f.4.2.;.;.;.2.2.;.;.=.T =.;.Y z & X.^.#X^.^.$X$X^.^.^.^.^.^.^.^.^.^.=X:X:X%X",
"`.^.^.^.{._.F.{.h.F.F.[.6X6X`.F.h.y.m R ;.;.;.2.2.2.;.;.;.2.;.=.4.4.;.;.4.:.E ;.2.G G c } /.{. X{.^.^.^.^.^.^.^.^.^. XF.h.}._.F.",
"^.^.^.^.^.^.^.^.^.^.F._.{.F.8.> M H E =.*.*.*.;.2.=.*.;.;.;.;.*.=.C.;.2.V.;.;.;.%.C R R P v ] {.^.^.^.^.^.^.^.^.^.^.^.^.^.^.^.~.",
"M.M. XB.N.c.^.#X:X;X_.^.^.~.R.- 0 i b b T E ;.2.;.*.;.;.2.;.*.R *.f.C.f.4.Z.2.2.;.p a H T n * ^.^.^.^.^.^.b.M.c.^.n.M.n.^.#X:X$X",
":XXXb.7X:X=X8X;X:X:X=X^.^.^.#X*XP. .+ j E ;.,.s.,.2.2.,.C.;.;.R ;.C.g.g.d.g.4.:.&.*.a 0 -  .T. XG.b.).b.c.5X:X5XB.7X:X=X8X*X:X:X",
":X:X:X:X:X:X:X:X:X:X:X:X^.#X$X+X .r z Y ;.4.C.2.;.2.g.4.f.2.;.E ;.4.C.4.f.g.C.:.d V *.U v 9.m.N.0X%XM.0X%X5X:X:X:X:X:X:X:X:X:X:X",
"=X3XXX*X*X^.#X&X2X_.:X:X;XQ.0.f x F W ;.;.1.*.;.2.d.C.C.3.=.;.*.2.,.C.;.4.f.d.;.E y # [ H.I.=X&X;X;X:X:X*X-X=X[.XX*X$X^.^.&X2XXX",
"F.F.h.^.^.^.F.F.S.F.~.^.^.> D T R *.*.R n H I 2.f.d.2.V.=.F ;.;.;.;.,.=.*.4.Z.;.;.A j  .*X:X:X#X^.^.:X^._.F.F.F.2X^.^. XF.F.F.h.",
"F.F.F.F._.F.F.}. X_.h. X~.X.O i b b q 9 r A =.f.f.2.;.1.Y F =.V.;.;.;.;.T *.;.;.;.L A t E.$X~.^.^.^.#X}.F.F.F.F.F.F.`.F.F.`.{.h.",
"_.}.}.h.F.`.}.}.^.^.^.~.^.!.t.o O @ j z z W V.C.1.Y E 1.K I R V.,.W ;.;.E T R *.1.=.A l [ ^.^.^.^.{._.F._.^._.}.}.F.F.}.}.}.^.^.",
"^.^.^.^.^.^.^.^.^.^.^.j.2 f e j w j A F %.,.3.J F J 1.*.R R R 2.Z.K A Y =.T T T R E F A j [ W.~.*X*X^.#X$X#X^.^.^.^.^.^.^.^.^.^.",
"{. X}._.F._.^.}. X X}.S.~ r r + z z S K F z z z L -.E E *.T T *.<.=.I L E *.P L T G P A z b * H.OX:X:X:X:XXX X{.}.h.F.}.^.}. X^.",
"_._.F.F.F.F.F.F.S.v.v._.u.1 0 F I I z z z z z z S I *.=.T T T =.R =.E T T R T F T k G P S S I D v f H.#X}.{._._.F.F.F.F.F.F.F.v.",
"_.F.F.F.F.F.S.M.N.M.M.t x n I T R I z e S F J I T T E T I T T T *.R ;.R T T T P I T j 0 P P T H i t P.^.^. Xh.F.F.F.F.F.S.M.N.M.",
"^.^.{.F.F.G.M.5X:X:X<XJ.& c n F S j w w A F T R T T I T L I T T T R T T T F T T R E R i   @ 0 . [ >X$X*X#X^.^. X{.F.F.G.M.5X:X=X",
"^.^.^.*X$X:X0X:X:X:X:X:X:XJ.H.4 4 8 $ F z z z z S S S T F T L T T P I T T P S T *.=.:.*.U 0 4 0.K.~.$X^.#X^.^.^.^.;X*X:X0X:X:X:X",
"^.^.^.#X^.#X$X:X$X^.;X$X^.=X#XP.U.^ n F I S z z z y F P S L S T I F S T T T L a P =.;.=.*.*.K & J.;X^.^.^.^.^.^.^.#X^.$X$X:X#X#X",
"^.^.^.^.^.^.^.#X^.^.^.^.^.^.K.0 H H T L A S F L 0 l T T F A F L A A z P P T T b 9 U E R H n d J.@X*X$X.X.X%X^.^.^.^.^.^.^.^.^.^.",
"_.F.}.^.$X:X+X^.^.^.^.}.^.^.~.7 * s H H H H k @ w A A A r l I A e A r r S I P L a 9 + O   8 !.!.^. Xh.S.F.F._.F. X^.*X:X$X^.^.^.",
"F.F.2XXX:X:X:X=XF.h._._._.^.^.{.E.7 O   . 5 ] * y A A y w A F e w F S w e l F L L L D b t T.~.^.`.F.2X}.}.F.F.F.3XXX:X:X:X=XF._.",
" X^. X}.oX#X X}.{.{.~.{._.~.{.S.S._.h.}.5 B v H T F r @ a A y $ u 0 P S j 9 0 + a L b 0 [ F.}.}.{.{. X^.^.{. X X}. X X#X{.{.{.{.",
"^.$X4XN.G.D.M.F.F._.F.F.F._.F.}.^.`.`.^.X.y z I L q + b T I o % Q % a T P T H = = = O.9./.}.^.^.^.(.1X(.(.`.^.%X<XM.D.n.M.F.F.h.",
":X:X=XqXB.4X:X7X%X2X`._. X_.F.}.{. X^.^.).} t f t ^ ~ + i w Q u @.u $ 9 s p > /.j.F./.}.}.^.^.`._.7X9X<X7X4X;X:X:XqXB.7X:X7X%X2X",
":X&XF.&X:X%X^.:X:X:X*X^.^.}.F.2XXXXXXX0X0X:X:X%X%XP.- % ! Q +.) @.u 3 H.o. .K.~.}.F.2XXXXXXX0X=X:X:X&X&X:X:X:XXXF.&X=X=X^.:X:X:X",
"F.F.F.F.F.}.^.^.^.$X#X^.^. X$X$X$X$X$X^.^.#X.X/.y.- ; ! ( Q ) ; +.u ` ( ].+X!.^.}.$X$X$X$X$X^.^.$X X}.F.3X2XF.F.F.F.2X}.^.^.^.#X",
"2XF._.F.F.F.F.F.h._.3X^.^.^.^.^.^.^.#X;X$X^.E.e.9.w.: @.: ` 3 ) u ^ ~ ^ ' O.W.^.^.^.^.^.^.$X*X#X^.^.^.^.^.`.h.F._.F.F.F.F.h.h.3X",
"`. X^.{.F._. X#X^.:X:X#X^.^.^.^.#X;X:X$X;X:XR.q.y.w.I.( 4 ( ..O...@.Q.W.J.P.OX^.^.^.^.#X;X:X$X;X:X#X X}.}.}.}. X^.}.F.}. X$X^.:X",
"^.^.^.^. X^.=X:X:X&X%X*X$X#X^.^.^.^.^.^.^.$XU.K.q.e.R.K.R.W.R.R.W.Q.J.J.P.P.%X$X^.^.^.^.^.^.^.#X$X$X^.^.^.^.^.^.^.^.^.^.;X:X:X%X",
"^.^.^.^. X_._.{.F.F.F.6X6X6X6XF.h._.}.{.{.{.!.W.K.q.q.K.e.L.q.9.y.y.9.y.u.S.6X6X6X6XF.2X_.`.{. X X X^.^.^.^.^.^.^.^.{.F.h.}.h.F.",
"^.^.^.^.^.^.^.^.^.^.2X2X}.F.F.F.F.F._.}.}.^.^.^.W.K.K.K.e.W.H.e.T.W.K.R.^.h._.}.F.F.F.F.F._.}.}.^.^.^.^.^.^.^.^.^.^.~.~.^.^.^.~.",
"<XM.).c.<XD. X$X:X:X}.^.^.^.^. X^.$X#X^.^.^.^.^.^.W.b.b.m.j.c.B.n. X$X:X;X[. X^. X^. X^.#X$X^.^.^.^.^.^. Xb.<Xc._.v.4Xb. X#X:X*X"
};
