/* XPM */
static char *result[] = {
/* columns rows colors chars-per-pixel */
"64 64 216 2 ",
"   c #161C2E",
".  c #191F2F",
"X  c #171E31",
"o  c #1B2534",
"O  c #1A2A36",
"+  c #1B2C3B",
"@  c #182435",
"#  c #1C313D",
"$  c #1B202F",
"%  c #262C38",
"&  c #312E37",
"*  c #2C3535",
"=  c #25353D",
"-  c #29353A",
";  c #283B3A",
":  c #3B343A",
">  c #353537",
",  c #453A3E",
"<  c #2E463C",
"1  c #3B483A",
"2  c #44493B",
"3  c #48563B",
"4  c #5A5E3F",
"5  c #59643F",
"6  c #5C6D3F",
"7  c #4D613D",
"8  c #1E2D41",
"9  c #1D3342",
"0  c #1D3B45",
"q  c #223445",
"w  c #213B44",
"e  c #21354A",
"r  c #233A4E",
"t  c #253E52",
"y  c #1E4243",
"u  c #1F444D",
"i  c #1F4A51",
"p  c #234245",
"a  c #244A4E",
"s  c #294846",
"d  c #314C43",
"f  c #354C47",
"g  c #265548",
"h  c #3A5547",
"j  c #264255",
"k  c #224D53",
"l  c #28455A",
"z  c #264C5C",
"x  c #2A485E",
"c  c #264658",
"v  c #215156",
"b  c #22545B",
"n  c #2B535F",
"m  c #235B5C",
"M  c #335650",
"N  c #286B54",
"B  c #266656",
"V  c #2A775B",
"C  c #38774E",
"Z  c #2A4E60",
"A  c #295463",
"S  c #245D62",
"D  c #295D66",
"F  c #256364",
"G  c #2B6263",
"H  c #266B66",
"J  c #2D6D64",
"K  c #286469",
"L  c #266C6C",
"P  c #286A6B",
"I  c #276569",
"U  c #2A7464",
"Y  c #2C7A65",
"T  c #27716F",
"R  c #28746E",
"E  c #2A7B6D",
"W  c #277067",
"Q  c #5E4B47",
"!  c #564444",
"~  c #445A46",
"^  c #595943",
"/  c #634E48",
"(  c #6C554B",
")  c #685D49",
"_  c #755A4B",
"`  c #496647",
"'  c #576746",
"]  c #597348",
"[  c #587956",
"{  c #476C4E",
"}  c #676B45",
"|  c #627540",
" . c #637942",
".. c #6B7846",
"X. c #767A48",
"o. c #697A59",
"O. c #597D69",
"+. c #906D51",
"@. c #3F985D",
"#. c #378B5B",
"$. c #2D8567",
"%. c #2E8F67",
"&. c #2B846C",
"*. c #2D8D6B",
"=. c #358A69",
"-. c #2F956A",
";. c #3C9366",
":. c #369B67",
">. c #3A9D65",
",. c #319569",
"<. c #339969",
"1. c #309166",
"2. c #3DA164",
"3. c #44844C",
"4. c #4A9D57",
"5. c #5D864B",
"6. c #6A8346",
"7. c #708744",
"8. c #758D45",
"9. c #798B46",
"0. c #7B9346",
"q. c #7C984B",
"w. c #688955",
"e. c #6D955A",
"r. c #769B58",
"t. c #4DAC5E",
"y. c #4FA75E",
"u. c #52AE5D",
"i. c #53A755",
"p. c #55B25B",
"a. c #5AB659",
"s. c #7EAA5F",
"d. c #7BA55C",
"f. c #62B95A",
"g. c #6ABC5B",
"h. c #76BF5C",
"j. c #449B62",
"k. c #6B8962",
"l. c #6F976E",
"z. c #6F9B6D",
"x. c #749B6B",
"c. c #7A9C6B",
"v. c #769766",
"b. c #679175",
"n. c #6B9670",
"m. c #759770",
"M. c #43A462",
"N. c #47A861",
"B. c #49AA60",
"V. c #75A364",
"C. c #7BA662",
"Z. c #79A863",
"A. c #73A069",
"S. c #7DC25D",
"D. c #8A894D",
"F. c #849B4A",
"G. c #88954A",
"H. c #949E4F",
"J. c #879B52",
"K. c #999751",
"L. c #888F51",
"P. c #85A14B",
"I. c #8DA74B",
"U. c #91AD4C",
"Y. c #96A74E",
"T. c #95B24D",
"R. c #99B64D",
"E. c #9BB94E",
"W. c #86AA57",
"Q. c #8DAF57",
"!. c #83A65F",
"~. c #83AC5C",
"^. c #89AD5A",
"/. c #8DA455",
"(. c #9EA450",
"). c #95AD58",
"_. c #8EB355",
"`. c #8AB058",
"'. c #80B85A",
"]. c #95B552",
"[. c #9CB455",
"{. c #9CB15E",
"}. c #90B05A",
"|. c #A5A657",
" X c #A5B654",
".X c #A5B951",
"XX c #ADB954",
"oX c #A6B35C",
"OX c #ACB55D",
"+X c #A1B85A",
"@X c #AAB554",
"#X c #B2B656",
"$X c #B4B956",
"%X c #B2B55D",
"&X c #BBB65A",
"*X c #B7B958",
"=X c #BFBA5B",
"-X c #B0AC57",
";X c #849E6C",
":X c #81A561",
">X c #83AB61",
",X c #8AAC61",
"<X c #8EA369",
"1X c #96A766",
"2X c #90AE60",
"3X c #93A568",
"4X c #9BAC61",
"5X c #A1AC63",
"6X c #A9AF61",
"7X c #ABB060",
"8X c #87C55D",
"9X c #91C85F",
"0X c #AAD161",
"qX c #BDD763",
"wX c #B3D362",
"eX c #AECE60",
/* pixels */
"E.XX;Xb.x.:Xb.Z.Z.~.Z.Z.Z.`.Z.`.E.^.`.E.E.E.Q.:XQ.}.^.[.XX<Xb.C.x.b.Z.Z.~.Z.Z.Z.`.Z.`.E.`.`.E.E.E.Q.:XQ.}.^.E.oXc.b.:Xc.b.Z.Z.C.",
"*X=X=X6Xb.m.=Xc.4XZ.~.Z.`.Z.Z.].E.E.E.E.E.^.c.3Xb.c.m.*X=X=X6Xb.c.&Xc.{.Z.~.Z.^.Z.Z.].E.E.E.E.E.~.c.3Xb.c.m.*X=X=X6Xb.c.=Xc.{.Z.",
"=X%X2X%X%X6X.X=X=X%X XE.E._.Z.>X2X2X[.+X3X6X=XOX%X=X=X=X%X2X%X5X(...=X=X%X XE.E.`.Z.>X2X2X{.oX1X%X=XOX%X=X=X=XoX2X%X5X*XXX=X=XOX",
"Z.Z.Z.Z.Z.`.E.E.E..XXXE.E._.XXXXXXXXXXE.E..X[.`.Z.,X~.Z.Z.Z.Z.C.] 2 E.E.XX.XE.E.`.XXXXXXXXXXE.E..X{.Q.Z.,X>XZ.Z.Z.Z.>X`.E.E.E. X",
"~.Z.Z.Z.Z.Z.Z.~.~.Z.Z.E.E.E.E.E.E.E..XXX.XE.E.E.E.E.`.~.Z.Z.Z.Z.~ ' e.~.Z.Z.E.E.E.E.E.E.E..XXX.XE.E.E.E.E.`.~.Z.Z.Z.Z.Z.Z.~.~.Z.",
"~.`.E.~.Z.~.`.]._.%X*X.XE.E.E.E..X X*X$X*X*XE.R._.].~.~.`.E.~.r...+X3 _.%X*X.XE.E.E.E..XXX*X$X*X$X.X]._.].~.~._.E.~.Z.~.`.]._.*X",
"E.E.E.E.E.E.*X=X=XOXoX*XXX.XE.E.E.E..XE.E.XX$XE.E.E.E.E.E.E.E.| +XqX..=XOX6X$XXXE.E.E.E.E..XE.E.XX XE.E.E.E.E.E.E.E.E.E.*X=X=XoX",
"E.E.E.E._.~.s.`.Z.Z.Z.2X}.2X2XZ.s.~.`._.].}.].E.E.E.E.E.E.E.T.< eXqXJ.w.Z.Z.2X`.2X^.>Xs.~.~._.]._.E.E.E.E.E.E.E.E.E._.~.C._.C.Z.",
"E.E.E.E.E.E.E.E.E.E.s.~.`.Z.Z.Z.Z.Z.~.`.`.E.E.E.E.E.E.E.E.E.7.] qXqX+X7 E.s.~.`.Z.Z.Z.Z.Z.~._._.E.E.E.E.E.E.E.E.E.E.E.E.E.E.E.].",
"b.b.].x.b.l.E..X=X*X~.E.E.E.E._.E.E.E.E.E.E.R.R.E.E.x.b.n.].` wXqXqXqX5.G.~.R.E.].E._.E.E.E.E.E.E.E.E.E.E.A.b.m.E.c.b.x.E.E.=XXX",
"=X5Xc.3X=X%X{.*X=X=X*XE.E.E..X$X$X=X=XE.E.C.c.!.V.l.1X=X4Xk.{ wX8XwX9X0X] $XR.E..X.X$X$X=X*XE.R.x.c.>Xc.m.1X=X1Xm.3X=X%X4X*X=X=X",
"=X=X=X=X=X=X=X=X=X=X=X=XE..XXXXXXX@X].b.x.3XOXb.6XOX3X=X|.d 9Xa.f.8X8XwX7 K.=XE..XXXXXXXXX}.b.l.6XoXb.6X7X3X=X=X=X=X=X=X=X=X=X=X",
"=X{.6X=X*XE..X=X,X,X=X=X=XXXE.E.E.XXx.oX6X%X=X=X=X=X=X=X' #.a.a.8XS.S.S.h.5 =X=X.XE.E.E.XXc.7X5X=X=X=X=X=X=X=X{.OX=XXXE. X=X,X{.",
">XZ.Z.E..XE.~.Z.Z.Z..X.X.XE.E.XX$X=X=X=X*XE..X=X.X^.^.e.N i.a.M.a.S.a.a.a.{ Y.E.E.E.XXXX*X=X=XXXE..X=X.X`.^.>XZ.>XE.E.E.`.Z.Z.,X",
"Z.Z.Z.Z.~.Z.Z.`.].~.Z.].E.E.XX.XE.E.XXE.E.E.E.E.^.s.r.s 2.4.#.t.S.g.a.t.a.i.6 R.E.XXXXE.E.XXE.E.E.E.E.`.Z.Z.Z.Z.Z.Z.~.Z.Z.`.].C.",
"~.`.`.>XZ.~.`.`.E.E.E.E.E.E.E.~.].E.E.E.E.].].~.Z.d.h 1.:.< @.a.a.g.a.t.p.a.C 7.E.].~.E.E.E.E.E.].].~.Z.`.E.~.`._.Z.Z.`.`.`.E.E.",
"E.E.E.E.E.E.E.E.E.E.E.>XZ.`.Z.Z.`.E.E.E.E.XX*XE.9.g -.N o $.p.a.a.a.a.a.N B.N.N { 5.d.`.E.E.E.E.*X*XE..XXX.XE.E.E.E.E.E.E.E.E.E.",
"].].`.~.Z.~.E.`._.E._.Z.Z.Z.Z.Z.Z.Z.`.`.*X=X=X=X=X^ * O F t.t.:.t.;.j.a.d y M.>.*.y e.Z.Z.`.`.=X=X=X=X=X=X4X_._.`.~.Z.`.E.`.].E.",
"~.~.Z.Z.Z.Z.Z.Z.V.z.z.,X~.~.C.z.Z.Z._.E..X$X=X*X.X^.q.k =.;.&.-.2.B.*.=.4.u o ; h w.z.Z.s._.E..X=X=X=X.X_._.~.s.Z.Z.Z.Z.Z.Z.V.z.",
"s.Z.Z.Z.Z.Z.V.b.n.b.b.b.b.A.;X<Xb.~..X=X=X=X=XXXE.q.d R 1.-.*.-.M.<.-.-.:.*.t { d.x.<Xb.~..X=X=X=X=X XE.E.E.~.Z.Z.Z.Z.Z.A.b.n.b.",
"E.].`.Z.Z.Z.b.;X=X=Xm.7X=X5X=X=X3X3X$XE.E.XX=XXX[.d T *.>.-.-.-.>.-.-.-.-.-.v ..3X=X=X3X3X$XE.E.*X=X X$XE.E.E.].`.Z.Z.Z.b.<X*X%X",
"E.E.E.oX{.{.3X=X=X=X%X=X=X=X=X=X=X=X$X*X.XE..X|.f R *.2.N.-.-.-.-.-.-.-.-.-.&.s -X=X=X=X=X$X$XE.E..X$X.X.XE.E.E.E.oX{.5X3X=X=X%X",
"E.E.E. XE..XXX=X.XE.=XXXE.$X.XXX=X=X=X=X3 3 ; i &.<.M.p.<.-.-.2.>.-.-.R -.-.-.B ^ .X#X=X=X=X=X.X*X$XE.E.E.E.E.E.E..XE.XXXX=XXXE.",
"E.E.E.E.E.E.E..XE.E.E.E.E.E.E..X$X$X.X$X= F T W j.p.p.@.2.<.>.M.t.M.t.;.*.t.<.$.0 ~ F.(.$X.X$X$X$X$XXX[.{.[.E.E.E.E.E.E.E..XE.E.",
"s.Z.`.E.XX=X XE.E.E.].`.E.E.E.E.E.E.E.E.| # p < a.i.3.N -.M.a.p.a.a.a.a.R u.M.,.g m u 1 E.E.E.E.E.].C.Z.Z.Z.~.Z._.E.*X=X.XE.E.E.",
"Z.Z.>X{.=X=X=X*XZ.>X~.~.~.E.E._._.E.E.E.T.] ; 3.< # B -.-.p.a.a.a.p.a.a.u.M.B.2.1.0 0 ] E.E.E.E.`.Z.s.`.`.Z.Z.Z.,X{.=X=X=X*XZ.>X",
"].E.]._._..X_.]._._.].].~.E._.Z.Z.~.s.`.`._.q.$ i &.-.-.p.a.N.>.a.M.=.a.p.<.B.-.<.0 h V.~.s.`.`._._.].E.E.`.E.].]._.[. X_.].]._.",
"E. X<Xb.c.C.b.Z.Z.s.Z.Z.Z.~.Z.`.E.`.`.E.E.q.9 F *.-.2.p.M.*.>.-.M.N.*.;.a.M.-.-.-.W h U.`.`.E.E.E._.:XQ._.^.E.oXc.b.Z.x.b.C.Z.Z.",
"*X=X=X7Xb.m.=Xc.{.Z.`.Z.`.Z.Z.].E.E.E.E...s H -.-.-.>.:.-.j.a.>.<.a.:.E M.t.-.1.-.-.H ` R.E.E.E.:Xc.3Xb.c.m.*X=X=X6Xb.c.=Xx.{.Z.",
"=X%X,X*X%X7X.X=X=X%X XE.E.].Z.>X2X^./.' v W E &.*.-.*.;.B.a.a.M.-.2.t.-.-.-.-.N V *.-.H h J.+X1X%X=X%X%X=X=X=XOX,X*X5X=X.X=X=X%X",
"Z.Z.Z.Z.Z.`.E.E.E..X.XE.E._.XXXXXX3 a H R T k m -.E E u.a.a.p.-.-.-.-.:.-.-.-.-.g m E R P # E.E..X{.^.Z.,X>XZ.Z.Z.Z.Z._.E.E.E..X",
"Z.Z.~.Z.Z.Z.Z.Z.Z.,X,XE.E.E.E.E.E.| 2 + 0 @ i Y R E y.a.a.p.>.>.2.-.-.-.-.-.W -.Y   O 9 M 5 *X.XE.E.E.E.E.~.>XC.~.Z.Z.Z.Z.>XZ.,X",
"`.].E.`.Z.~.]. XE.=X=XXXE.E.E.E.@X#X&X..@ F *.-.E p.a.M.B.2.2.B.-.-.-.*.E -.V v I B 1 F.*X&XXX*X=XXXE.`.^.`.`.E.E.`.Z.`.]..XE.=X",
"E.E.E.E.E.E.*X=X=XOXoX*XXX.XE.E.E.E.R.F.0 R -.*.u.2.>.>.-.-.-.-.-.-.-.E T E -.-.o B V # q..XE..XXXXXE.E.E.E.E.E.E.E.E.E.%X=X=XoX",
"`.E.E.E.].~.C._.s.Z.Z.,X2X2X}.C.e.0.w.s R *.-.,.>.,.2.2.-.<.-.-.-.-.-.-.&.R *.-.D q # ] ~.^._._.`.T.E.E.E.E.E.E.E.E._.s.s._.~.Z.",
"E.E.E.E.E.E.E.E.E.E.s.~.`.s.Z.e.0 F H R *.-.*.*.-.-.-.-.-.-.-.*.-.2.-.-.-.-.E -.-.A 0 h e.~.`._.E.E.E.E.E.E.E.E.E.E.E.E.E.E.E.].",
"b.b.}.x.b.l.E.E.=X*X~.E.E.R.E.}.7 # i H T T E -.-.-.E -.-.-.-.E *.N.2.-.N.:.-.-.-.E F D d I.E.E.E.E.R.E.E.c.b.m.E.x.b.c.E..X=X X",
"=X4Xc.3X=X*X4X*X=X=X*XE.E.E..X#X#XD.X 9 S &.<.B.2.*.-.-.-.>.-.E R M.B.t.:.N.-.-.-.y B T R M | /.A.V.~.c.l.1X=X1Xm.3X=XOX4X*X=X=X",
"=X=X=X=X=X=X=X=X=X=X=X=XR..X@X XX.- l A &.,.B.2.-.-.:.N.u.2.-.&.&.M.a.a.p.a.2.<.-.V O a I H 9 { 7X6Xb.6XoX3X=X=X=X=X=X=X=X=X=X=X",
"%X,X{.*X$XE..XOX>X>X=X=X=X' < < j A J -.,.:.,.-.-.>.p.M.B.-.-.*.&.2.a.2.a.a.B.-.g *.H q s ~ X.6X*X*X=X=X*X*X%X}.{.$XXXE..XOX>X{.",
"Z.Z.~.E.E.E.Z.Z.Z.Z.].E.E.7.m T T E &.E H I L -.M.a.2.M.:.Y -.-.-.-.M.-.2.N.p.2.U 0 B F w X.=X XE.E.=XE.~.Z.Z.Z.s.E.E.].Z.Z.Z.C.",
"Z.Z.Z.Z.~.Z.Z.`.].s.s.].E.E.5 9 m v i + 0 x &.M.a.>.<.-.-.G -.<.-.-.<.<.*.<.a.2.&.Z e * 0. XE.E.E.E..X`.Z.Z.Z.Z.Z.Z.~.Z.Z.`.].s.",
"~.`._.Z.Z.~.`.`.E.E.E.E.E.R. .o O   8 x x J <.B.>.=.P *.U A &.2.-.-.-.-.T &.-.-.,.x x ~ T.E.E.E.]._.~.Z.~.E.~.`.`.s.Z.`.`.`.E.E.",
"E.E.E.E.E.E.E.E.E.E.E.r.+ r t t 9 t x G $.:.M.>.J n $.,.P R E 2.:.Y -.-.E T E -.,.G x w 0.E.E.E.$X$XE..XXX.XE.E.E.E.E.E.E.E.E.E.",
"].].`.~.Z.~.E.`.].E.^.Z.[ q 9 q x Z Z J U J G n G =.*.E R T R :.2.J D *.&.L T E &.P Z t ; W.`.*X=X=X=X=X=X{.]._.`.~.Z.`.E.`.].E.",
"~.~.Z.Z.Z.Z.Z.Z.V.l.l.] ` s z D I D x Z x x x x K R E *.R R E *.-.&.P P *.T T T P R D x x s 0.(.=X=X*X.X_._.~.>XZ.Z.Z.Z.Z.Z.V.z.",
"s.Z.Z.Z.Z.Z.Z.b.m.b.b.M m R T T T D Z t x Z D P T *.&.R T T E &.*.-.L T T T D I v z I A x L k - } ..XXE.E.].~.Z.Z.Z.Z.Z.A.b.n.b.",
"E.]._.Z.Z.A.b.3X=X=X;X|.2 k v j x r + l A L L R T T T T D T R &.R &.E T T T T D T q z L K L T T w 1 $X$X.XE.E._._.Z.Z.A.b.1X=X%X",
"E.E.E.$XXX=X7X=X=X=X=X*X&XK.D.D.2 + b Z Z x Z Z A Z T A T T T T T T T T K P T T E H # # w 0 . > 7.T.XXE..XE.E.E.E.*X$X=XoX=X=X=X",
"E.E.E..XE..XXX=X.XE.=XXXR.H...] w I D K A x Z l t K L D D K T K I L T T P z T &.E -.W @ > K.#X.X%X#X.XE.E.E.E.E.E..XE.XXXX=X.X.X",
"E.E.E.E.E.E.E.E.E.E..XE.E.P.k F R T F z A F k @ t T T K Z K T Z A D T T T b m T *.-.-.&.U a * (.#X$X.X[.{.[.E.E.E.E.E.E.E..XE.E.",
"~.Z._.E.$X=X XE.E.E.].`.E.R.q.2 k F F F z +   8 Z Z Z t x T A x Z x P I T T i b T E E T H p 6 R.E.].C.Z.Z.Z.s.Z.].E.*X=X.XE.E.E.",
"Z.Z.>X{.=X=X=X%XZ.~.~.~.~.E.T._.] 1   * 2 3 @ z Z Z j 8 A D r t A r r A P T D 8 0 u i 0 * 8.T.E.`.Z.~.^.`.Z.Z.Z.,X{.=X=X=X%XZ.~.",
"].E._._._. X].}._.`.E._.~.E._.V.d.~.s.] h a K T K e X t Z l 8 + P A 8 9 Z F K I S i 9 d d.d.W.`._._.].E.E._.R.]._.}.]..X]._._._.",
"E.XX<Xb.x.C.b.Z.Z.s.Z.Z.Z.~.Z.`.E.`.`.I.; j D P Z 8 b T D 8 , % A I A j O @ t K I b s T.W.`.E.R.E.Q.:XQ.Q.^.R.oXc.b.C.c.b.Z.Z.C.",
"*X=X=X7Xm.<X=X3XoX~.`.~._.~.s.`._._.E.T.r.] ~ d ~ o.~ z 0 & Q % q I T T S = - < h ` q._.}.E.E.^.>X3X5X;X3X<X=X=X=X%Xm.3X=X3XoX>X",
"=XOXZ.OX=XOXE.*X=X=X$XE.E._.Z.>X{.{.{.7X5X=X=X|.OX|.2 : & ! +., _ o + + 1 (.R.R.`.Z.>X{.{.{.oX%X=X=XoXOX=X=X=X{.Z.%X%X*XE.*X=X=X",
"Z.Z.Z.Z.Z._.E.E.E.XX.XE.E.].XXXXXXXXXXE.R..X].W.d.1 : Q , ( +./ +., & 7.(.[.E.E.`.XX XXXXX$XE.E..X{.`.Z.,X>XZ.Z.Z.Z.C.`.E.E.E. X",
"C.Z.~.Z.Z.Z.Z.s.s.>X,XE.E.E.E.E.E.E..X$XXXR.U.F. .} : +.& / ( : +., / ^ w.!.E.E.E.E.E.E.E..X%XXXE.E.E.E.E.~.C.s.~.Z.Z.Z.Z.~.>X,X",
"`.].E.`.Z.~.]..XE.=X=X.XE.E.E.E..X*X=XXX*X&XY.6.6.' ) ( : ! Q _ Q ^ 9.| D.K..XE.E.E.E..X*X=XXX*X=X.XE.`.`.`.`.R.E.`.Z.`.]..XE.=X",
"E.E.E.E.E.E.*X=X=XOXOX*XXX.XE.E.E.E..XE.E.@XG.0.9.I.H.^ X.' F.D.X.K.|.K.D.L.%XXXE.E.E.E.E.E.E..X$X.XE.E.E.E.E.E.E.E.E.E.*X=X=XOX",
"E.E.E.E._.~.s.`.Z.Z.Z.,X,X2X,X>X~.~.W._._._./.P.8.8.F.U.U.W.F./.r.w.7.w.e.e.2X}.2X2XZ.>X~.`._._._.E.E.E.E.E.E.E.E.E._.Z.Z.`.s.Z.",
"E.E.E.E.E.E.E.E.E.E.>X~.`.s.Z.Z.Z.Z.~.`.`.E.R.E.0.8.8.9.8.8.8.8.0.0.0.q.E.C.~.`.Z.Z.Z.Z.Z.~.`.].E.E.E.E.R.E.E.E.E.E.E.E.E.E.E.].",
";Xb.~.l.;X;X]..X=X=X`.E.E.].E.].E..X.XE.E.E.E.E.T.F.k.k.k.v.[ o.v.P.Y.&X*X}.].E.E.E.].E. X.XE.E.E.E.E.E.].c.;Xl.~.l.<Xc.]..X=X$X"
};
