/* XPM */
static char *result[] = {
/* columns rows colors chars-per-pixel */
"64 64 217 2 ",
"   c #161C2E",
".  c #171E31",
"X  c #1B2432",
"o  c #182837",
"O  c #1A2639",
"+  c #1B2C3B",
"@  c #172132",
"#  c #1D333C",
"$  c #19202F",
"%  c #252B36",
"&  c #2E3835",
"*  c #23333B",
"=  c #2C3C3B",
"-  c #263538",
";  c #373739",
":  c #302E37",
">  c #45393F",
",  c #384539",
"<  c #35493C",
"1  c #43463D",
"2  c #4A573C",
"3  c #586A3E",
"4  c #1C3542",
"5  c #1D3A45",
"6  c #1E3D49",
"7  c #1E2D41",
"8  c #243D43",
"9  c #22364B",
"0  c #223A4D",
"q  c #273945",
"w  c #263E53",
"e  c #1F444D",
"r  c #1E4546",
"t  c #1F4B52",
"y  c #21454D",
"u  c #224A4E",
"i  c #284645",
"p  c #354A43",
"a  c #22534A",
"s  c #2C5448",
"d  c #385744",
"f  c #254355",
"g  c #284459",
"h  c #2A495E",
"j  c #244A56",
"k  c #235155",
"l  c #23545A",
"z  c #235B5D",
"x  c #285758",
"c  c #24604F",
"v  c #366747",
"b  c #24615A",
"n  c #286954",
"m  c #2F7755",
"M  c #2A4E60",
"N  c #295463",
"B  c #245E62",
"V  c #295C65",
"C  c #246364",
"Z  c #266C66",
"A  c #2D6D64",
"S  c #286369",
"D  c #276D6C",
"F  c #296A6B",
"G  c #2A6365",
"H  c #2C7C66",
"J  c #27716F",
"K  c #28756D",
"L  c #2A7C6D",
"P  c #2C7465",
"I  c #494942",
"U  c #584B44",
"Y  c #435A44",
"T  c #495A45",
"R  c #505D43",
"E  c #65524A",
"W  c #695749",
"Q  c #72564C",
"!  c #4B6646",
"~  c #576843",
"^  c #4C7247",
"/  c #5F7342",
"(  c #5C784B",
")  c #4A7552",
"_  c #597A51",
"`  c #48645A",
"'  c #6B6C45",
"]  c #656845",
"[  c #637542",
"{  c #637A43",
"}  c #667746",
"|  c #737446",
" . c #627E52",
".. c #7A7956",
"X. c #7B6351",
"o. c #587B68",
"O. c #8C6D51",
"+. c #368558",
"@. c #2D8365",
"#. c #2E8E66",
"$. c #2B836C",
"%. c #2D8B6B",
"&. c #338164",
"*. c #398D67",
"=. c #338868",
"-. c #2F956A",
";. c #369B67",
":. c #3A9D66",
">. c #319669",
",. c #339969",
"<. c #389366",
"1. c #3DA164",
"2. c #469B5A",
"3. c #45844B",
"4. c #6C8A4C",
"5. c #688248",
"6. c #738A45",
"7. c #758849",
"8. c #7C9447",
"9. c #7E944A",
"0. c #668A55",
"q. c #779856",
"w. c #71955B",
"e. c #4DA55D",
"r. c #4DAB5E",
"t. c #50AF5D",
"y. c #52A554",
"u. c #54B25B",
"i. c #5AB559",
"p. c #7EAA5F",
"a. c #7CA355",
"s. c #67BA5A",
"d. c #73BB5B",
"f. c #529067",
"g. c #6F976E",
"h. c #6F9B6D",
"j. c #7C9669",
"k. c #7A9C6B",
"l. c #749B6B",
"z. c #679175",
"x. c #6B9670",
"c. c #759770",
"v. c #678D6E",
"b. c #43A462",
"n. c #47A861",
"m. c #49AA60",
"M. c #75A365",
"N. c #7BA662",
"B. c #79A863",
"V. c #73A069",
"C. c #7AC15C",
"Z. c #8B8A4D",
"A. c #829B48",
"S. c #859849",
"D. c #92934F",
"F. c #929D4D",
"G. c #878F52",
"H. c #8F9353",
"J. c #999C53",
"K. c #A29F53",
"L. c #A08356",
"P. c #8BA44B",
"I. c #8EA94B",
"U. c #87A149",
"Y. c #94A44D",
"T. c #92AD4C",
"R. c #99A74F",
"E. c #95B24D",
"W. c #99B64E",
"Q. c #9BB94E",
"!. c #85AA56",
"~. c #8DAF57",
"^. c #83A65D",
"/. c #83AD5C",
"(. c #89AD5A",
"). c #87A552",
"_. c #96AF57",
"`. c #8EB355",
"'. c #8AB058",
"]. c #95B552",
"[. c #9CB456",
"{. c #9CB15E",
"}. c #90B05A",
"|. c #A3A954",
" X c #A5B654",
".X c #ACB454",
"XX c #A5B951",
"oX c #ADB954",
"OX c #A6B35C",
"+X c #ACB45D",
"@X c #B1B755",
"#X c #B4B956",
"$X c #B2B55D",
"%X c #BAB55A",
"&X c #B7B958",
"*X c #BFBA5B",
"=X c #B0AC57",
"-X c #849E6C",
";X c #8B9C64",
":X c #81A561",
">X c #83AB61",
",X c #8AAC61",
"<X c #8EA369",
"1X c #96A766",
"2X c #90AE60",
"3X c #93A568",
"4X c #9BAC61",
"5X c #A1AC63",
"6X c #A9AF61",
"7X c #ABB060",
"8X c #83C45D",
"9X c #91C85F",
"0X c #ADC65E",
"qX c #9CCC60",
"wX c #A2CE60",
"eX c #ABD161",
"rX c #BDD763",
/* pixels */
"Q.oX-Xz.l.:Xz.N.B./.B.B.B./.B.'.Q.'.'.Q.Q.Q.}.:X~.}.(.[.oX-Xz. .l.z.B.B./.B.B.B.'.B.'.Q.'.'.Q.Q.Q.'.:X~.}.~.Q.OXk.z.:Xl.z.N.B.B.",
"&X*X*X6Xz.c.*Xk.{.B./.B.'.>XB.Q.Q.Q.Q.Q.Q.(.k.3Xz.k.c.&X*X*X6X* j.*Xc.{.B./.B.'.B.B.Q.Q.Q.Q.Q.Q.:Xk.3Xz.k.c.&X*X*X6Xz.k.*Xk.{.N.",
"*X$X2X$X$X6XXX*X*X$X XQ.Q.`.B.B.(.2X[.OX3X6X*X+X$X*X*X*X$X,XZ.& |.oX*X*X$X XQ.Q.'.B.>X2X,X{.OX1X$X*X+X$X*X*X*XOX2X$X5X*XXX&X*X$X",
"B.B.B.B.B.'.Q.Q.Q. X XQ.Q.].oXoXoXoXoXQ.Q.XX[.'.B.,X>XB.N.N.Y eX} ].Q.Q.oXXXQ.Q.'.oXoXoXoXoXQ.Q.oX[.'.B.,X>XB.B.N.N.B.'.Q.Q.Q.oX",
"/.B.B.B.B.B.B././.B.B.Q.Q.Q.Q.Q.Q.Q.XXoXXXQ.Q.Q.Q.Q.'./.B.w./ rX~ M././.B.B.Q.Q.Q.Q.Q.Q.Q.XXoXQ.Q.Q.Q.Q.Q.'./.B.B.B.B.B.B././.B.",
"/.'.Q./.B./.'.].`.$X&XXXQ.Q.Q.Q.Q.oX&X&X&X#XXXQ.`.]././.'.{ 0XrXq. .].].$X&XXXQ.Q.Q.Q.XXoX&X&X&X&XQ.].`.`././.`.Q./.B./.'.{.`.&X",
"Q.Q.Q.Q.Q.Q.&X*X*X+XOX&XoXXXQ.Q.Q.Q.XXQ.Q.oX@XQ.Q.Q.Q.Q.Q.2 rXrX0X< *X*X+X7X#XoXQ.Q.Q.Q.Q.XXQ.XXoXoXQ.Q.Q.Q.Q.Q.Q.Q.Q.Q.&X*X*XOX",
"Q.Q.Q.Q.`./.p.'.p.B.B.2X2X2X2XB.p./.'.`.`.`.].Q.Q.Q.Q.Q.8.5.rXrXrX^ 4.B.B.B.}.,X2X'.p.p./.'.`.`.`.Q.Q.Q.Q.Q.Q.Q.Q.Q.`.p.p.`.p.B.",
"Q.Q.Q.Q.Q.Q.Q.Q.Q.Q.B./.`.B.B.B.N.B./.'.'.Q.Q.Q.Q.Q.W.W.< wXeXrXeXd., Q.Q././.'.p.B.B.B.B./.'.`.Q.Q.Q.Q.Q.XXQ.Q.Q.Q.Q.Q.Q.Q.Q.Q.",
"z.z.].l.z.g.Q.XX*X#X/.Q.Q.Q.Q.`.Q.W.Q.Q.Q.Q.Q.Q.Q.Q.l.v._ rXC.eXC.wXd J.#X!.Q.Q.].W.`.Q.Q.Q.Q.Q.Q.Q.Q.Q.Q.V.z.x.Q.l.z.g.Q.XX*XoX",
"*X5Xk.3X*X$X{.&X*X*X&XQ.Q.Q.XX#X#X*X&XQ.Q.N.k.:Xk.g.1X] d.0XqXC.C.C.9X< *X*XW.Q.Q.XX#X#X*X*XQ.Q.k.k.>Xl.x.1X*X3Xl.3X*X$X4X&X*X*X",
"*X*X*X*X*X*X*X*X*X*X*X*XQ.XXoXoXoXoX].z.l.3X6Xz.OXOX:X^ qXs.s.C.8Xr.i.e.2 #X*XQ.oXoXoXoXoX}.z.g.6X+Xz.7X7X1X*X*X*X*X*X*X*X*X*X*X",
"*X{.7X*X#XQ.XX*X,X,X*X*X*XoXQ.Q.Q.oXl.+X6X+X*X*X*X*XZ.3.s.i.i.9Xd.1.i.u.n D.*X*XXXQ.Q.Q.oXl.7X5X*X*X*X*X*X*X*X{.7X*XoXQ. X*X,X{.",
">XB.B.Q.XXQ./.B.B.B.XX XXXQ.Q.oX&X&X*X*X&XQ.XX*XXX).d i.u.m.i.d.C.e.m y.r.v R.9XQ.Q.oX#X&X*X*XoXQ.Q.*XXX'.'.,XB.B.Q.Q.Q./.B.B.(.",
"B.B.B.B.B.p.B.'.`./.B.Q.Q.Q.oXXXQ.Q.oXQ.Q.Q.Q.XX'.d 2.i.b.m.u.d.i.i.b.r 1.;.< < U.oXXXQ.Q.oXQ.Q.Q.Q.XX'.B.B.B.B.B.B./.B.N.'.].B.",
"/.'.'.>XB./.'.`.Q.Q.Q.Q.Q.Q.Q./.].Q.Q.Q.Q.W.4.) n #.u.m v i.u.t.i.i.u.@.# n -.a 8.Q./.Q.Q.Q.Q.Q.W.`./.B./.Q./.`.`.>XB.'.`.'.Q.Q.",
"Q.Q.Q.Q.Q.Q.Q.Q.Q.Q.Q.B.B.`.B.B.'.Q.Q.Q.Q.oXD.# c m < + 2.m.*.b.n.,.n.:.B * Y 0.(.B.B.'.Q.Q.Q.Q.#X&XQ.XXoXXXQ.Q.Q.Q.Q.Q.Q.Q.Q.Q.",
"].].'./.B./.Q.'.].Q.'.B.B.B.B.B.B.B.'.(.&X*X*X*X' & o +.m.J %.u.;.,.-.n.$.8 w.N.B.B.B.B.B.'.'.&X*X*X*X*X*X{.].'.'.>XB.'.Q.'.].Q.",
"/./.B.B.B.B.B.B.B.h.l./.>X/.N.V.B.B.].Q.XX#X*X&X_.% C :.&.%.-.m.1.,.-.-.-.b ( /./.B.l.B.p.].Q.oX*X*X&X X'.`./.>XB.B.B.B.B.B.M.h.",
"p.B.B.B.B.B.M.z.x.z.z.z.z.M.-X-Xz.>XXX*X*X*X*XoX/ u L ,.,.$.-.>.,.-.,.-.,.$.u o.:Xk.-Xz./.Q.*X*X*X*XoXQ.Q.Q./.B.B.B.B.B.V.z.x.z.",
"Q.`.'.B.B.B.z.<X*X*Xc.7X*X5X*X*X3X3X#XQ.Q.oX*XoX, J -.1.,.-.-.>.,.-.-.-.>.-.b & ;X*X*X3X1X#XQ.Q.&X*XoXoXQ.Q.Q.`.'.B.B.B.z.<X*X7X",
"Q.Q.Q.OX{.4X<X*X*X*X$X*X*X*X*X*X*X*X#X#XXXQ.W.2 C -.:.n.-.-.,.b.-.,.*.$.:.1.#.k p K.*X*X*X#X@XQ.Q.XX&X XXXQ.Q.Q.Q.OX{.5X3X*X*X*X",
"Q.Q.Q.XXQ.XXoX*XXXQ.&XoXQ.#XXXoX*X*X*X*X@XF.= K ,.b.t.1.-.,.1.i.:.b.i.K r.r.>.>.e l u K.*X*X*XXX&X#XQ.Q.Q.Q.Q.Q.Q.XXQ.oXoX*XXXQ.",
"Q.Q.Q.Q.Q.Q.Q.XXQ.Q.XXQ.Q.Q.Q.XX#X#XY.' ! x D &.r.i.+.+.,.t.b.i.u.i.i.b.<.u.:.b.r 8 / @X&XXX#X@X#X#XXX[.[.[.Q.Q.Q.Q.Q.Q.Q.XXQ.Q.",
"/.B.'.Q.oX*XXXQ.Q.Q.Q.'.Q.Q.Q.Q.Q.Q.E., # t u y.y.s n ,.m.i.u.i.r.t.i.i.>.m.b.b.b { W.W.W.Q.Q.Q.Q.]./.B.B.B.B.B.].Q.#X*XXXQ.Q.Q.",
"B.B.>X{.*X*X*X$XB./././.>XQ.Q.`.`.Q.Q.I.3 - 3.v o P -.,.i.i.b.u.t.$.e.i.1.>.-.-.L i ).].Q.Q.Q.Q.(.B.B.'.'.B.B.B.,X{.*X*X*X$XB./.",
"Q.Q.`.`.`. X`.].`.].Q.`./.Q.`.B.B./.p.'.a.3 X 6 Z -.;.u.r.;.-.1.i.<.L u.u.;.-.,.>.Z s 0./.p.~.'.].`.].Q.Q.`.Q.Q.`.`.{.XX`.].].`.",
"Q. X<Xz.l.:Xz.B.B.B.B.B.B./.B.'.Q.'.'.Q.Q.A.k $.-.b.m.>.=.b.b.-.r.b.%.$.1.;.#.H %.%.$.x ) q.Q.Q.Q.~.:X~.`./.Q.OXk.z.>Xl.z.B.B.B.",
"$X*X*X7Xz.c.*Xk.{.B./.B.'.B.B.Q.Q.Q.Q.Q.[ u L -.-.,.>.>.m.i.u.>.,.r.1.-.-.-.-.c b Z L Z C 2 Q.Q.:Xk.3Xz.-Xc.&X*X*X7Xz.k.*Xk.{.N.",
"*X$X}.$X7X6XXX*X*X$XoXQ.Q.].B.B.,X(.9.p z $.$.L >.-.L t.i.i.r.>.,.,.,.-.-.H %.,.a @ # = R ~.OX1X7X*X$X$X*X*X*XOX2X$X5X&XXX*X*X+X",
"B.B.B.B.B.`.Q.Q.Q.XXXXQ.Q.`.oXoXR.p l Z J J C #.$.J =.i.i.s.:.:.1.-.-.$.#.#.r C K e & oXoXoXQ.Q. X[.'.B.,X>XB.B.N.N.p.'.Q.Q.Q. X",
"p.B./.B.B.B.B.B.B.,X,XQ.Q.Q.Q.Q.I.* k l e + z L J *.u.i.u.t.>.n.,.-.%.%.L %.@.a e b m - / XX#XXXQ.Q.Q.Q.Q./.>XB./.B.B.B.B./.B.,X",
"'.].Q.'.B./.].XXQ.*X*XXXQ.Q.Q.Q.XX|.Z.] 5 K %.$.<.i.m.1.;.-.1.;.-.-.-.$.K J -.-.H g O } @X*XoX&X*XoXW.'.(.'.'.].Q.`.B.'.].XXQ.*X",
"Q.Q.Q.Q.Q.Q.&X*X*X+X+X&XoXXXQ.Q.Q.W.E.~ z K -.<.t.1.n.m.-.-.-.-.-.-.-.-.$.$.$.-.-.z g 2 W.XXW.XXoXoXQ.Q.Q.Q.Q.Q.Q.Q.Q.Q.&X*X*XOX",
"'.Q.Q.Q.`./.p.'.p.B.B.2X,X}.(. .) Y u J $.-.-.>.>.;.,.-.-.-.-.-.,.1.-.-.-.-.$.-.-.P h 6 ( ~.`.`.'.W.Q.Q.Q.Q.Q.Q.Q.Q.`.p.B.`.B.B.",
"Q.Q.Q.Q.Q.Q.Q.Q.Q.Q.>X/.'.B.B.Y 4 C Z L $.$.$.$.-.-.$.-.-.-.%.%.%.1.1.-.,.1.-.-.-.n P J z d !.`.Q.Q.Q.Q.Q.Q.Q.W.Q.Q.Q.Q.Q.Q.Q.Q.",
"z.z.].g.z.g.Q.XX*X&X/.Q.Q.W.Q.).3 X   8 B K %.>.-.$.%.-.>.,.#.K $.1.u.1.1.t.1.-.-.n r D J S d 6.Q.Q.Q.Q.Q.k.z.c.Q.l.z.l.Q.XX*XoX",
"*X5Xk.3X*X$X4X&X*X*X&XQ.W.Q.oX@X#X*X' 0 F -.,.m.>.-.-.1.,.n.-.K %.1.i.i.u.u.r.-.a -.Z + # l i [ k.M./.k.g.1X*X1Xc.3X*X+X4X&X*X*X",
"*X*X*X*X*X*X*X*X*X*X*X*XW.XXoXoX X] w h %.;.m.;.-.-.b.m.r.1.-.-.$.-.r.1.r.u.u.1.H a @.K z = z.v.6X6Xz.6XOX3X*X*X*X*X*X*X*X*X*X*X",
"$X2X2X#X#XQ.XX+X>X>X*X*X%X[.8.Y = g z %.>.<.%.$.-.n.u.,.n.-.-.-.$.-.1.n.,.1.u.r.-.N 8 + y i +XOX#X&X*X&X#X*X$X}.{.#XoXQ.XX+X>X{.",
"B.B./.Q.Q.Q.B.B.B.B.Q.Q.Q.6.5 Z D K #.$.Z B V %.b.i.1.-.,.-.@.>.-.-.-.;.-.L ,.m.>.S h q D.%X*XoXQ.Q.*XQ.p.B.B.B./.Q.Q.].B.B.B.p.",
"B.B.B.B./.B.B.'.].p.p.`.Q.I., e C D Z 4 9 f P b.i.:.,.A -.P F -.;.-.#.,.-.J %.>.-.L M 9 3 oXW.Q.Q.Q.XX'.B.B.B.B.B.B./.B.B./.].p.",
"/.`.`.B.B./.'.'.Q.Q.Q.Q.Q.W.W.,     O g M P ,.m.:.#.G @.H N J >.b.=.C -.-.K J $.%.%.G g + 6.Q.Q.Q.`./.B./.Q./.'.'.p.B.'.'.'.Q.Q.",
"Q.Q.Q.Q.Q.Q.Q.Q.Q.Q.Q./.0.! 5 g 9 9 h V $.-.1.&.A h =.%.K J J %.1.%.x G %.L J J J J D M h * { 8.#X$XQ.XXoXXXQ.Q.Q.Q.Q.Q.Q.Q.Q.Q.",
"].].'./.B./.Q.'.`.Q.(.B.Y 9 0 O 9 M M G A x N M V $.L L $.J L %.-.-.L S F K J F J S D S h h k i p p ' *X*X{.].].'./.B.'.Q.'.].Q.",
"/./.B.B.B.B.B.B.B.g.h./.q.~ O M V F N M h h h M D K -.$.J J K %.$.-.%.J J J J V J l j S D V F K b i | oX}.`.>Xp.B.B.B.B.B.B.B.g.",
"p.B.B.B.B.B.B.z.g.z.z.` 8 l D J J J V w M N V J J K K J S J J L $.K $.J J F J J S J j O e t 5 o ' =X XQ.Q.Q.p.B.B.B.B.B.V.z.x.z.",
"Q.Q.`.B.B.V.z.3X*X*X-XH.8 l S V N w 9 0 V F J J J F J J V J J J K J J J J V J J J %.$.5 X ] 5.U.XX%X@X#XQ.Q.Q.].`.B.B.V.z.1X*X$X",
"Q.Q.Q.$XoX*X6X*X*X*X*X%XJ.| , * O @ 6 M M M h M N M F N D S J J D J J J J S e D %.%.%.#.H z # 1 Q.Q.oXQ.XXQ.Q.Q.Q.&X#X*X6X*X*X*X",
"Q.Q.Q.XXQ.XXoX*XoXQ.&XoXQ..XF.' = z V D N g h h g V F V S N J J M S S J J J u t J %.%.L J Z Y Y.%X&XXXQ.Q.Q.Q.Q.Q.XXQ.oXoX*XXXXX",
"Q.Q.Q.Q.Q.Q.Q.XXQ.Q.XXQ.W.8.4 C J D S h N V D l 7 N J J M M J N g M M J J J J B 6 C C C e = .XoX#X@XXX[.[.OXQ.Q.Q.Q.Q.Q.Q.Q.Q.Q.",
"/.B.'.Q.oX*XXXQ.Q.Q.W.'.Q.W.3 i u C C C V t 4 $ 0 M M M * M N w w N w f M S D S j o o o X E.Q.Q.Q.].p.B.B.B./.B.].Q.#X*XoXQ.Q.Q.",
"B.B.>X{.*X*X*X$XB././././.Q.W.!.3 &     ; ( = + M M M w . M g 9 9 F M O g N V S D J J e 3 W.Q.Q./.B./.(.'.B.B.B.,X{.*X*X*X$XB./.",
"Q.Q.`.`.`.oX`.`.`.'.Q.`./.W.`.B.B./.p./.( d t D J S M O f N w : % V F M 9 4 @ 0 N l e ! /.B.~.'.`.].].Q.Q.'.].].`.`.].XX`.`.`.`.",
"Q.oX-Xz.g.N.z.B.B.p.B.B.B./.p.~.Q.(.(.Q.I.< w V D j O t J J 5 % > e J J J C - - & _ 0.W.'.'.Q.Q.Q.`.:X~.~.(.W.OX-Xz.:Xl.z.B.B.p.",
"&X*X*X$Xc.<X*X3XOX/.'./.`./.B.(.`.`.Q.Q.).w.R q q , & : e 6 U q Q : O e e = q.`.p.B.!.`.`.Q.Q.'.:X3X5X-X3X3X&X*X*X$Xg.3X*X3XOX>X",
"*X+XB.+X*X+XQ.&X*X*X#XQ.Q.`.B.>X{.{.{.7X7X*X*XOXOX| ; R I U L.E O.> ; ] | |.W.W.'.B.>X{.{.{.6X7X*X*XOX+X*X*X*X{.B.7X$X&XQ.*X*X*X",
"B.B.B.B.B.`.Q.Q.Q.oXoXQ.Q.`.oXoXoXoXoXQ.Q.Q.].)._ I ; X.> E X.> O.> Q } Y.[.Q.W.'.oXoXoXoXoXQ.Q.XX{.'.B.,X>XB.B.B.B.B.'.Q.Q.Q.XX",
"B.B./.B.B.B.B.p.p./.,XQ.Q.Q.Q.Q.Q.Q.XX@XoXW.U.6.7.] U O.: E E U E U T I } w.W.Q.Q.Q.Q.Q.Q. X#XoXQ.Q.Q.Q.Q.(.p.B.>XB.B.B.B././.,X",
"'.].Q.'.B./.].XXQ.*X*XXXQ.Q.Q.Q.XX&X*XoX&X*XS.7. .9.G.I ' T 7...] 7.R.).D.K.XXQ.Q.Q.Q.oX&X*XoX&X*XXXQ.'.'.'.'.].Q.'.B.'.].XXQ.*X",
"Q.Q.Q.Q.Q.Q.&X*X*X+X+X&XoXXXQ.Q.Q.Q.XXQ.Q.XXF.A.7.8.F.S.Y.I.P.P.I.J.D.D.H.H.#XoXQ.Q.Q.Q.Q.XXQ.Q.@XoXQ.Q.Q.Q.Q.Q.Q.Q.Q.Q.&X*X*X+X",
"Q.Q.Q.Q.`./.p.'.B.B.B.,X'.2X2XN.p./.(.`.].`.T.E.8.6.6.8.8.8.6.4.4.0.4.0.M.M.2X(.2X,X>XB./.'.`.`.].Q.Q.Q.Q.Q.Q.Q.Q.Q.].p.B.'.p.B.",
"Q.Q.Q.Q.Q.Q.Q.Q.Q.Q.>X>X'.B.B.B.B.B./.'.(.W.Q.Q.T.A.A.A.A.I.8.8.I.P.U.I.Q.B./.'.B.B.B.B.B./.'.`.Q.Q.Q.Q.W.Q.Q.W.Q.Q.[.Q.Q.Q.Q.Q.",
"-Xz./.g.-X-X].XX*X*X'.Q.Q.Q.Q.].Q.XXoXQ.Q.Q.Q.Q.W.].k.j.v./.v.j.k.].oX*X*X2XQ.Q.Q.Q.].Q.XXXXQ.Q.Q.Q.Q.Q.].k.-Xx.(.g.-XN.}. X*XoX"
};
