/* XPM */
static char *result[] = {
/* columns rows colors chars-per-pixel */
"64 64 215 2 ",
"   c #161C2E",
".  c #161E30",
"X  c #192334",
"o  c #1B2B35",
"O  c #1B2C3B",
"+  c #172132",
"@  c #1A313C",
"#  c #232B36",
"$  c #332E38",
"%  c #2A3439",
"&  c #253C3B",
"*  c #2A3A3B",
"=  c #24343C",
"-  c #3A363A",
";  c #443B3D",
":  c #2C413E",
">  c #33453B",
",  c #3D463A",
"<  c #394839",
"1  c #3D583F",
"2  c #484B3C",
"3  c #44523B",
"4  c #4E5F3D",
"5  c #54663E",
"6  c #5E713F",
"7  c #1D3442",
"8  c #1D3C45",
"9  c #1F3F49",
"0  c #1E2D41",
"q  c #203245",
"w  c #223C44",
"e  c #23394D",
"r  c #22364A",
"t  c #253E52",
"y  c #4B3D40",
"u  c #1F444C",
"i  c #1E4441",
"p  c #20414B",
"a  c #21494F",
"s  c #274A46",
"d  c #354A43",
"f  c #27574B",
"g  c #3C5644",
"h  c #244453",
"j  c #214D53",
"k  c #29455A",
"l  c #2A495E",
"z  c #27495B",
"x  c #215255",
"c  c #22555A",
"v  c #225A5D",
"b  c #265A54",
"n  c #27624F",
"m  c #286A53",
"M  c #29795B",
"N  c #347454",
"B  c #2A4E61",
"V  c #295363",
"C  c #245D62",
"Z  c #295B65",
"A  c #246364",
"S  c #276E63",
"D  c #286469",
"F  c #276C6C",
"G  c #28696B",
"H  c #2D6863",
"J  c #2C7A65",
"K  c #27716F",
"L  c #28756D",
"P  c #2A7C6D",
"I  c #2D7265",
"U  c #404F41",
"Y  c #544443",
"T  c #5D4945",
"R  c #435945",
"E  c #555C44",
"W  c #445F57",
"Q  c #675249",
"!  c #7A5C4D",
"~  c #604C49",
"^  c #4E6644",
"/  c #4B6646",
"(  c #566846",
")  c #467647",
"_  c #5C7243",
"`  c #5B744D",
"'  c #5A7C52",
"]  c #567650",
"[  c #666A46",
"{  c #627440",
"}  c #657941",
"|  c #667B49",
" . c #7B7A49",
".. c #727248",
"X. c #766B50",
"o. c #557765",
"O. c #8A6752",
"+. c #957052",
"@. c #36865A",
"#. c #2E8467",
"$. c #2E8D66",
"%. c #2B846C",
"&. c #2D8B6B",
"*. c #338669",
"=. c #2F956A",
"-. c #369B67",
";. c #3A9E66",
":. c #309469",
">. c #339969",
",. c #3C9266",
"<. c #3DA164",
"1. c #408552",
"2. c #4C8F4F",
"3. c #6A854A",
"4. c #728445",
"5. c #748C45",
"6. c #7B884B",
"7. c #7B9346",
"8. c #7D994B",
"9. c #688956",
"0. c #6C9258",
"q. c #769955",
"w. c #6F924F",
"e. c #4DAC5F",
"r. c #4EA35C",
"t. c #51AE5C",
"y. c #5CAF57",
"u. c #54B25B",
"i. c #5AB659",
"p. c #7EAA5F",
"a. c #7BA35A",
"s. c #63B95A",
"d. c #6ABC5B",
"f. c #73BE5C",
"g. c #449C62",
"h. c #5E846D",
"j. c #768E65",
"k. c #6F976E",
"l. c #6F9B6D",
"z. c #6B9560",
"x. c #7A9C6B",
"c. c #749B6A",
"v. c #679175",
"b. c #6B9670",
"n. c #759770",
"m. c #668D6A",
"M. c #43A462",
"N. c #47A861",
"B. c #49AA60",
"V. c #75A364",
"C. c #7BA662",
"Z. c #79A863",
"A. c #73A069",
"S. c #7BC15C",
"D. c #87874C",
"F. c #839049",
"G. c #829C48",
"H. c #879A4A",
"J. c #869A57",
"K. c #999953",
"L. c #949050",
"P. c #A19E53",
"I. c #86A049",
"U. c #8AA44A",
"Y. c #8DA94B",
"T. c #91AD4B",
"R. c #96A44E",
"E. c #95B24D",
"W. c #98B64D",
"Q. c #9BB94E",
"!. c #83A352",
"~. c #86AB56",
"^. c #8DAF56",
"/. c #83A65E",
"(. c #83AC5C",
"). c #89AD5A",
"_. c #88A55D",
"`. c #97AA58",
"'. c #8EB355",
"]. c #8AB058",
"[. c #95B552",
"{. c #9CB556",
"}. c #9CB25D",
"|. c #90B05A",
" X c #A3AA52",
".X c #AAA956",
"XX c #A5B654",
"oX c #A5B951",
"OX c #ADB954",
"+X c #A6B35C",
"@X c #ADB55D",
"#X c #B4B956",
"$X c #B2B55D",
"%X c #B7B958",
"&X c #BFBA5B",
"*X c #B9B659",
"=X c #B0AC57",
"-X c #849E6C",
";X c #81A561",
":X c #83AB61",
">X c #8AAC61",
",X c #8FA566",
"<X c #96A766",
"1X c #90AE60",
"2X c #9BAC61",
"3X c #93A568",
"4X c #A2AC63",
"5X c #A9AF61",
"6X c #ABB060",
"7X c #8BC75E",
"8X c #98C35D",
"9X c #ABD161",
"0X c #BDD763",
"qX c #B5D462",
"wX c #B4CC60",
/* pixels */
"Q.OX-Xv.c.;Xv.Z.Z.(.Z.Z.Z.).Z.].Q.].].Q.Q.Q.'.;X'.^.).{.OX-Xv.;Xn.v.Z.Z.(.Z.Z.Z.].Z.].Q.].].Q.Q.Q.^.;X^.'.>XQ.+Xx.v.;Xc.v.Z.Z.C.",
"%X&X&X5Xv.n.&Xx.}.Z.).Z.].Z.Z.Q.Q.Q.Q.Q.Q.).x.3Xv.x.n.%X&XK.[ v.x.&Xx.}.Z.(.Z.).Z.Z.Q.Q.Q.Q.Q.Q.:Xx.3Xv.x.n.%X&X&X6Xv.x.&Xx.}.Z.",
"&X$X1X$X$X5XoX&X&X$XXXQ.Q.'.Z.Z.1X1X[.+X3X6X&X@X$X&X&X&X+X% 6.4X&XOX%X&X$XXXQ.Q.].Z.Z.1X1X{.}.<X$X&X6X$X&X&X&X+X1X$X4X&XoX&X&X$X",
"Z.Z.Z.Z.Z.].Q.Q.Q.XXXXQ.Q.'.OXOXOXOXOXQ.Q.oX}.].Z.).:XZ.` 6.` (.).Q.Q.Q.OXoXQ.Q.'.OXOXOXOXOXQ.Q.oX}.'.Z.>X:XZ.Z.Z.Z.Z.'.Q.Q.Q.XX",
"(.Z.Z.Z.Z.Z.Z.(.p.Z.Z.Q.Q.Q.Q.Q.Q.Q.Q.OXoXW.Q.Q.Q.Q.].0.4.0X' Z.Z.Z.(.p.Z.Z.Q.Q.Q.Q.Q.Q.Q.oXOXQ.Q.Q.Q.Q.Q.].(.Z.Z.Z.Z.Z.Z.(.(.Z.",
"(.].Q.(.Z.(.].[.'.$X%XoXQ.Q.Q.Q.oXOX&X#X%X#XoXW.[.|.a.^ wX0XR Z.(.(.{.[.$X%XoXQ.Q.Q.Q.oXOX%X#X%X#XoXW.'.'.(.(.'.Q.(.Z.).].}.'.#X",
"Q.Q.Q.Q.Q.Q.%X&X&X@X+X%XOXoXQ.Q.Q.Q.oXQ.Q.OXOXQ.Q.Q.5 ].0X0X3 Q.Q.#X&X&X@X@X%XOXQ.Q.Q.Q.Q.oXQ.oXOXOXQ.Q.Q.Q.Q.Q.Q.Q.Q.Q.#X&X&X+X",
"Q.Q.Q.Q.'.(.p.].p.Z.Z.1X1X1X1X:XZ.).(.'.'.[.W.Q.Q.G.) qX0X0X^ '.p.(.].C.Z.Z.1X].1X1X:XZ.(.].'.'.'.W.Q.Q.Q.Q.Q.Q.Q.Q.'.p.p.'.p.Z.",
"Q.Q.Q.Q.Q.Q.Q.Q.8XQ.p.(.].p.Z.Z.Z.Z.(.).].Q.Q.Q.Q.< 8X9X0X9XI.I.Q.Q.Q.Q.Q.Z.(.].Z.Z.Z.Z.Z.).).'.Q.Q.Q.Q.Q.Q.Q.Q.Q.Q.Q.Q.Q.Q.Q.[.",
"v.v.|.c.v.k.Q.oX&X#X~.Q.Q.W.Q.'.Q.Q.Q.Q.Q.Q.{.E.< 2.qXs.qX7XqXW c.Q.oX&X%X(.Q.Q.[.Q.[.Q.Q.Q.Q.Q.Q.Q.Q.Q.Q.A.v.l.Q.c.v.c.Q.Q.&X#X",
"&X4Xx.3X&X$X2X%X&X&X%XQ.Q.Q.oX#X#X&X%XQ.Q.C.x.( n s.s.S.S.7X9X^ 6X2X%X&X&X%XQ.Q.Q.oX$X#X&X&XQ.W.c.V.:Xx.n.<X&X2Xn.3X&X$X2X%X&X&X",
"&X&X&X&X&X&X&X&X&X&X&X&XQ.oXOXOXOXOX[.v.c.3X| M e.i.B.d.7Xi.s.w.L.&X&X&X&X&X&XQ.OXOXOXOXOX'.v.k.5X5Xv.5X5X3X&X&X&X&X&X&X&X&X&X&X",
"&X}.@X&X#XQ.oX&X>X>X&X&X&XOXQ.Q.Q.OXx.5X`._ M e.r.<.i.s.7Xi.i.y.5 oX%X>X>X&X&X&XoXQ.Q.Q.OXA.6X4X&X&X&X&X&X&X&X}.6X&XOXQ.oX&X>X}.",
":XZ.Z.Q.oXQ.(.p.Z.Z.oXoXoXQ.Q.OX%X%X&X..f $.$.m i e.i.S.s.i.e.i.1 (.p.p.Z.oXXXQ.Q.Q.OX#X&X&X&XOXQ.oX&XoX].>X:XZ.:XQ.Q.W.).Z.Z.:X",
"Z.Z.Z.Z.(.Z.Z.].[.Z.p.[.Q.Q.OXoXQ.Q.OXG.> @ o i >.i.i.i.i.i.;.i.1.3.].'.(.C.[.Q.Q.OXoXQ.Q.XXQ.Q.Q.Q.oX].Z.Z.Z.Z.Z.Z.(.Z.Z.'.[.Z.",
"(.].'.p.Z.(.].'.Q.Q.Q.Q.Q.Q.Q.(.Q.Q.Q.E.Q.G.< M e.M.e.u.i.i.N e.u.f q.Y.Y.Q.Q.Q.Q.W.).W.Q.Q.Q.Q.W.'.(.Z.(.Q.).].].p.Z.].].'.Q.Q.",
"Q.Q.Q.Q.Q.Q.Q.Q.Q.Q.Q.:XZ.].Z.Z.].Q.Q.Q.Q.R.g =.=.=.<.=.*.B.1.p @.<.n f 4.Q.(.p.].Z.Z.].Q.Q.Q.Q.%X%XQ.oXOXoXQ.Q.Q.Q.Q.Q.Q.Q.Q.Q.",
"[.[.].(.Z.(.Q.].[.Q.].Z.Z.Z.Z.Z.Z.Z.].).%X[ m =.=.=.=.N.%.K B.7   + f f 5.].Z.Z.Z.Z.Z.Z.Z.].].%X&X&X&X&X&X}.[.'.].p.Z.].Q.].[.Q.",
"(.(.Z.Z.Z.Z.Z.Z.V.l.c.(.(.(.C.A.Z.C.[.Q.H.s =.=.=.=.<.<.&.%.-.L @ 3.0.z.l.l.(.(.(.Z.A.Z.p.'.Q.OX&X&X%XXX'.'.(.p.Z.Z.Z.Z.Z.Z.V.l.",
"p.Z.Z.Z.Z.Z.V.v.b.v.v.v.v.A.x.-Xv.).oX$X1 =.=.=.=.=.=.=.&.:.:.&.A s o.m.v.v.v.v.;Xx.-Xv.(.oX&X&X&X&XOXQ.Q.W.(.Z.Z.Z.Z.Z.V.v.b.v.",
"Q.[.].Z.Z.Z.v.;X&X&Xn.6X&X4X&X&X3X3X%X} m =.=.=.:.:.>.=.%.:.N.=.%.8 u R E n.5X&X3X&X&X3X3X#XQ.Q.%X&XOXOXQ.Q.Q.'.].Z.Z.Z.v.-X&X6X",
"Q.Q.Q.}.}.2X3X&X&X&X$X&X&X&X&X&X&X&X6.x =.N.=.=.:.N.=.-.,.L t.M.=.@.8 u E $X&X&X&X&X&X&X&X#X#XQ.Q.oX#XOXoXQ.Q.Q.Q.+X}.4X3X&X&X&X",
"Q.Q.Q.OXQ.oX@X&XoXQ.%XOXQ.#XoXOX&X.Xf %.B.B.=.=.;.i.t.u.i.g.,.i.<.u.$.7 E.%XOXQ.%XoX#X&X&X&X&XoX%X#XQ.Q.Q.Q.Q.Q.Q.oXQ.OXOX&XoXoX",
"Q.Q.Q.Q.Q.Q.Q.oXQ.Q.oXQ.Q.Q.Q.oXR.2 L <.i.<.=.N.N.i.i.i.i.i.;.;.u.-.:.S : 6.Q.Q.Q.Q.oX#X#XoX%X#X#X#XoX}.[.+XQ.Q.Q.Q.Q.Q.Q.oXQ.Q.",
"(.Z.].Q.OX&XOXQ.Q.Q.W.].Q.Q.Y.4.f G #.i.u.@.>.e.i.i.i.t.g.i.u.;.-.=.=.=.%.u g 7.Y.Q.Q.Q.Q.Q.Q.Q.Q.[.C.Z.Z.Z.:XZ.'.Q.%X&XOXQ.Q.Q.",
"Z.Z.:X}.&X&X&X$XZ.(.(.p.Z.Q.5 A K z r.i.s %.=.u.i.-.e.i.-.P g.u.M.=.$.=.=.%.L x 3 Q.'.[.Q.Q.Q.Q.].Z.p.].].Z.Z.Z.>X}.&X&X&X$XZ.).",
"W.Q.'.'.'.XX'.[.'.'.Q.'.(.W.I.w 8 & ) & G =.M.i.-.=.=.e.u.=.%.=.-.=.b i c c u 1 7.[.Z.Z.(.Z.].].'.'.W.Q.Q.].W.W.'.'.[.XX'.'.'.'.",
"Q.OX-Xv.c.;Xv.Z.Z.p.Z.Z.Z.(.Z.8.5.3 + x %.;.u.*.%.e.<.>.e.t.>.=.=.=.=.M   o ' Z.].Z.].Q.].].Q.Q.Q.].;X'.|.(.Q.+Xx.v.:Xc.b.Z.Z.Z.",
"%X&X&X6Xv.n.&Xx.}.Z.(.Z.].C.Z.'.E.I.j %.:.N.M.&.e.u.e.=.=.>.>.=.=.#.S L m b N 3 Z.Z.W.Q.Q.Q.Q.Q.;Xx.3Xv.-Xn.%X&X&X6Xv.A.&Xx.}.Z.",
"&X$X1X%X6X5XoX%X&X$XXXQ.Q.[.Z.:X).` S =.=.=.=.N.i.i.e.=.>.=.=.%.%.=.M f 8 p 7 < ~.Z.C.1X1X[.+X<X$X&X$X$X&X&X&X+X1X$X5X%XOX%X&X6X",
"Z.Z.Z.Z.Z.'.Q.Q.8XoXOXQ.Q.'.OXOXXX: :.P =.=.L t.i.i.e.<.<.=.=.=.%.K &.=.=.Z l 7 > OXOXOXOXOXQ.Q.oX}.].Z.>X:XZ.Z.Z.Z.p.].Q.Q.Q.oX",
"Z.Z.(.Z.Z.Z.Z.:X(.(.).Q.Q.Q.Q.Q._ x F K =.&.L u.i.i.e.-.<.=.=.=.L P L %.=.=.H Z c s _ 4.E.oX#XOXQ.Q.Q.Q.Q.(.(.Z.:XZ.Z.Z.Z.:Xp.>X",
"].[.Q.].Z.(.[.oXQ.&X&XoXQ.Q.Q.4.8 F K C %.K B.i.B.t.<.>.>.=.=.=.=.&.=.%.=.=.M L K K D &  X&XOX%X&XXXQ.].].].].[.Q.].Z.].[.oXQ.&X",
"Q.Q.Q.Q.Q.Q.%X&X&X@X@X%XOXQ.4.8 K F x O %.*.u.e.>.=.=.=.=.=.N.=.=.<.-.=.=.=.M X a a d 7.Q.Q.Q.oXOXOXQ.Q.Q.Q.Q.Q.Q.Q.Q.Q.%X&X&X+X",
"].Q.Q.Q.'.(.C.'.Z.Z.Z.1X1X1X` a x o h J &.g.B.M.<.=.=.=.=.=.<.;.=.-.e.<.=.=.$.S v u : 0.(.].].].'.Q.Q.Q.Q.Q.Q.Q.Q.Q.'.p.C.].p.Z.",
"Q.Q.Q.Q.Q.Q.Q.Q.Q.Q.p.(.].p.a.] / O K &.=.-.=.>.&.=.=.=.=.P P B.B.i.B.i.<.=.n b f w ' V.Z.(.].[.Q.Q.Q.Q.Q.Q.Q.Q.Q.Q.Q.Q.Q.Q.Q.Q.",
"v.v.[.n.b.k.Q.oX&X%X(.Q.Q.Q.Q.^.5.a P =.&.&.=.&.%.=.=.=.=.K &.M.i.i.i.i.u.;.%.x O { [.Q.Q.Q.Q.Q.Q.Q.Q.Q.Q.x.v.n.Q.c.v.c.Q.oX&XOX",
"&X2Xx.3X&X$X2X%X&X&X%XQ.Q.Q.oXD.u L &.%.P =.=.&.=.=.>.<.=.%.%.=.e.N.<.<.u.u.=.G k 3 #X#X&X&XQ.E.x.A.:Xx.k.3X&X<Xn.3X&X$X2X%X&X&X",
"&X&X&X&X&X&X&X&X&X&X&X&XQ._ 8 A K P c A &.<.<.=.>.<.M.M.=.=.&.=.=.e.:.=.;.M.=.K l e F.OXOX^.v.k.6X6Xv.6X@X3X&X&X&X&X%X&X&X&X&X&X",
"$X].}.$X#XQ.oX@X:X:X&X&X%XR.< u @ O u P =.B.>.=.<.t.N.<.J =.=.=.=.>.=.%.=.=.=.#.l k # 4.#X<X@X@X#X%X&X%X#X*X$X|.}.$XOXQ.oX@X:X}.",
"Z.Z.:XQ.Q.W.Z.Z.Z.Z.W.Q.Q.Q.Y.D.3 e Z =.<.-.=.-.i.M.N.:.V :.=.=.=.=.=.K P &.=.=.K B k r g [ [ [ _ T.&XQ.p.Z.Z.Z.(.Q.Q.[.Z.Z.Z.Z.",
"Z.Z.Z.Z.(.p.Z.].[.(.Z.'.Q.Q.XX .t B #.=.%.K =.e.u.:.=.&.Z =.M.=.$.=.=.P K L %.%.K Z l l Z C D A u I.oX'.Z.Z.Z.Z.Z.Z.(.Z.Z.].[.p.",
").].].Z.Z.(.].].Q.Q.Q.Q.W.4.5 8 V *.&.A h J M.e.:.:.:.*.Z L <.;.I l #.=.L K K K K K D V Z F K i } '.:XZ.).Q.).].].p.Z.].].'.Q.Q.",
"Q.Q.Q.Q.Q.Q.Q.Q.Q.Q.Q.Z.a.& G K I A 7 r l :.;.:.I H :.P F K %.M.:.H D F L K Z K h h j c c 9 o Y.#X#XQ.oXOXQ.Q.Q.Q.Q.Q.Q.Q.Q.Q.Q.",
"'.'.].p.Z.(.Q.].[.Q.).Z.Z.` w C p X h l H <.M.H V :.%.P K K %.&.=.&.K K K K G Z F c 8 . = 3 _ .X%X&X&X&X&X}.'.'.'.Z.Z.).Q.].[.W.",
"(.).Z.Z.Z.Z.Z.Z.V.n.l.(.(.w.% X X r H #.&.J Z l P %.&.&.K K %.%.P &.%.K K K K K K $.%.J n b 7 F.%X&X&XXX'.'.:X(.Z.Z.Z.Z.Z.Z.Z.l.",
"(.Z.Z.Z.Z.Z.V.v.b.v.v.v.d X t 0 t B l l l l l l K L :.K G K K K %.K P K G V K K %.=.=.=.L A [ %X&X&XOXQ.Q.W.p.Z.Z.Z.Z.Z.V.v.b.v.",
"Q.Q.'.Z.Z.V.v.<X&X&X-X$X..t q q V V l l l l V G K P K K D K K K K K K K K G u A K P %.L A < Q.W.OX%X#X%XoXQ.Q.[.'.Z.Z.A.v.<X&X$X",
"Q.Q.Q.%XOX&X5X&X&X&X&X&X=X2 0 D K K V r V G K K K F G K Z D K K V D G K K K K c u c c u #  X&XQ.Q.Q.OXQ.oXQ.Q.Q.Q.%X#X&X+X&X&X&X",
"Q.Q.Q.oXQ.oXOX&XoXQ.*XH.R v K K G Z r 0 k B V Z Z V Z G G Z D K V V B V F F K K A a o 7 , &X&XOX%X%XoXQ.Q.Q.Q.Q.Q.OXQ.OXOX&XoXoX",
"Q.Q.Q.Q.Q.Q.Q.oXQ.Q.oX5.* 9 c v e % + u V V B B t B K K Z B D G t B B r B B Z Z D K K a D.XX#X#X$XOXoX{.}.{.Q.Q.Q.Q.Q.Q.Q.oXQ.Q.",
"(.Z.].Q.OX&XoXQ.Q.Q.{.~.Y.G.6 6 } } a G V B B B . B Z V t r Z V . B V B 0 7 9 O 8 7 * 6 E.W.Q.Q.Q.[.p.Z.Z.Z.p.Z.[.W.#X&XoXQ.Q.Q.",
"Z.Z.>X}.wX&X&X$XZ.(.(.p.a.W.E.3.^ a F G D G A O   e B B 0 + B t   q D G Z Z G = { 4.!.^.Q.Q.Q.Q.].Z.p.].].Z.Z.Z.>X}.&X&X&X$XZ.(.",
"Q.Q.'.'.|.OX'.[.'.'.Q.'.(.Q.'.d 8 x c c j 8 > 4 c V B t + B Z r r ; q G K K x ^ [.'.a.p.(.C.].].'.'.W.{.Q.].W.W.'.{.[.XX'.'.[.'.",
"Q.OX-Xv.c.;Xv.Z.Z.(.Z.Z.Z.(.Z.!.G.3.< * 6 U._ u F K c X V K c # $ T $ # 8 o s a.].Z.(.Q.].].Q.Q.Q.^.;X^.'.).{.+Xx.v.;Xc.v.Z.Z.p.",
"%X&X&X6Xn.-X&X3X+X:X].(.'.(.Z.~.~.^.Q.Q.(.| = z C x # ( w = $ Y $ Y - 6.q.q./.'.p.Z.].'.'.Q.Q.).).3X4X-X3X,X%X&X&X$Xb.<X&X3X+XC.",
"&X@XZ.@X&X@XQ.%X&X&X#XQ.Q.'.Z.:X}.}.}.5X5X*XK.[ [ D..X .y T - ! Q ! ; ; P.P.W.Q.].Z.(.}.}.}.6X$X&X&X+X6X&X&X&X}.Z.6X$X%XQ.&X&X&X",
"Z.Z.Z.Z.Z.].Q.Q.Q.oXoXQ.Q.'.OXOXOXOXXXQ.Q.oX`.~.V.J.w.% $ O.Y O.+.O.T ; 2 H.G.Q.].OXOXOXOXOXQ.Q.OX{.].Z.>X:XZ.Z.Z.Z.Z.].Q.Q.Q.oX",
"p.Z.(.Z.Z.Z.p.p.p.:X>XQ.Q.Q.Q.Q.Q.Q.oX#XOXQ.Q.Q.Y.7.^ ~ y +.- Q Q Y ! - Q E 7.W.Q.Q.Q.Q.Q.XX#XXXQ.Q.Q.Q.Q.).p.C.:XZ.Z.Z.Z.p.p.>X",
"].[.Q.].Z.(.'.OXQ.&X&XOXQ.Q.Q.Q.oX%X&XOX#X&XoXT.8.' 9.( ! y Y - ! T ! E  . .F.I.Q.Q.Q.OX%X&XOX%X&XoXW.].].].].Q.Q.].Z.].[.OXQ.&X",
"Q.Q.Q.Q.Q.Q.%X&X&X@X@X%XOXoXQ.Q.Q.Q.oXQ.Q.OXOXT.7.7.5.U.D.2  .} H.L.D.K.R.J.K.`.Q.Q.Q.Q.Q.oXQ.Q.OXOXQ.Q.Q.Q.Q.Q.Q.Q.Q.Q.#X&X&X+X",
"Q.Q.Q.Q.|.(.(.].Z.Z.Z.1X|.1X1XC.p.(.].'.'.'.Q.E.I.I.5.5.H.U.Y.8.0.0.G.9.' 9.J._.>X).:XC.(.].'.'.'.Q.Q.Q.Q.Q.Q.Q.Q.Q.[.C.p.'.p.Z.",
"Q.Q.Q.Q.{.Q.Q.Q.Q.Q.Z.(.].Z.Z.Z.Z.Z.(.].).Q.Q.Q.E.T.G.7.F.7.7.5.6.6.G.7.G.0.(.).p.p.Z.Z.Z.(.].'.Q.Q.Q.Q.Q.Q.Q.Q.Q.Q.Q.Q.Q.Q.Q.W.",
"-Xv.(.k.;Xx.[.oX&X&X|.Q.Q.W.Q.[.Q.oXOXQ.Q.Q.Q.Q.Q.[.c.j.h.9.m.j.9.8.oX.X=X).W.Q.Q.8X'.Q.OXoXQ.Q.Q.Q.Q.Q.|.x.-Xb.).k.-XA.[.oX&X#X"
};
