/* XPM */
static char *fbe55207bd1f47c4adcf99127bc61872mOU3neP66YZTtrm2[] = {
/* columns rows colors chars-per-pixel */
"64 64 198 2 ",
"   c #161C2E",
".  c #1D2431",
"X  c #20272F",
"o  c #232B31",
"O  c #2C2B34",
"+  c #252533",
"@  c #332E36",
"#  c #352F39",
"$  c #273235",
"%  c #2C3734",
"&  c #2C3739",
"*  c #323536",
"=  c #3C3538",
"-  c #363A3A",
";  c #40373C",
":  c #453C3C",
">  c #4B3E3D",
",  c #374336",
"<  c #3A4437",
"1  c #33413A",
"2  c #3B4239",
"3  c #3C4D3E",
"4  c #44433C",
"5  c #4E423E",
"6  c #454E3B",
"7  c #51433D",
"8  c #5B493F",
"9  c #4B563B",
"0  c #50523D",
"q  c #5A6C3E",
"w  c #4C3D41",
"e  c #354745",
"r  c #4E4041",
"t  c #544442",
"y  c #5A4645",
"u  c #564940",
"i  c #5C4942",
"p  c #475945",
"a  c #575843",
"s  c #405852",
"d  c #634D46",
"f  c #634C48",
"g  c #684F4A",
"h  c #655042",
"j  c #6C5545",
"k  c #695C44",
"l  c #635448",
"z  c #6A514A",
"x  c #6F5C48",
"c  c #735846",
"v  c #795C46",
"b  c #70554C",
"n  c #76594A",
"m  c #7A5B4D",
"M  c #7C5D50",
"N  c #496449",
"B  c #4A6447",
"V  c #516545",
"C  c #586745",
"Z  c #5A754B",
"A  c #4E6C5F",
"S  c #566D58",
"D  c #5B7C52",
"F  c #577458",
"G  c #656B45",
"H  c #7D644C",
"J  c #78694F",
"K  c #73624C",
"L  c #667A45",
"P  c #78794B",
"I  c #6C7A56",
"U  c #627C56",
"Y  c #815F51",
"T  c #83624C",
"R  c #8D694B",
"E  c #86684E",
"W  c #95704E",
"Q  c #866353",
"!  c #8B6753",
"~  c #8B6E52",
"^  c #946C54",
"/  c #986F52",
"(  c #847253",
")  c #8D7755",
"_  c #967652",
"`  c #9C7353",
"'  c #917C57",
"]  c #9B7D56",
"[  c #A17652",
"{  c #A57B54",
"}  c #AA7C55",
"|  c #A87D58",
" . c #69854A",
".. c #6A864B",
"X. c #728944",
"o. c #7C854E",
"O. c #788948",
"+. c #7B9346",
"@. c #789349",
"#. c #618656",
"$. c #6A8A55",
"%. c #668D59",
"&. c #668953",
"*. c #728250",
"=. c #7A8954",
"-. c #6D985D",
";. c #6D9358",
":. c #7E905F",
">. c #729D5F",
",. c #759756",
"<. c #7EAA5F",
"1. c #7BA258",
"2. c #6C8962",
"3. c #6F976E",
"4. c #6D986F",
"5. c #749B6B",
"6. c #7B9C6C",
"7. c #679175",
"8. c #6B9670",
"9. c #749770",
"0. c #75A367",
"q. c #7CA662",
"w. c #79A863",
"e. c #73A069",
"r. c #85884B",
"t. c #8A884D",
"y. c #918F4F",
"u. c #829B4A",
"i. c #87914A",
"p. c #91914E",
"a. c #808450",
"s. c #868D53",
"d. c #9D845B",
"f. c #8C9155",
"g. c #969450",
"h. c #9E9854",
"j. c #A2825A",
"k. c #AF895A",
"l. c #A9865A",
"z. c #B48355",
"x. c #B28C5D",
"c. c #BA8A59",
"v. c #B38558",
"b. c #BE905C",
"n. c #86A049",
"m. c #8BA44A",
"M. c #8EAD4F",
"N. c #91AD4B",
"B. c #93A34D",
"V. c #95B24D",
"C. c #99B44E",
"Z. c #9BB94E",
"A. c #8EAF57",
"S. c #83A65E",
"D. c #83AD5C",
"F. c #89AD5A",
"G. c #99A052",
"H. c #95AB58",
"J. c #8EB355",
"K. c #8AB058",
"L. c #94B453",
"P. c #9DB353",
"I. c #9CB15E",
"U. c #A3AD52",
"Y. c #A7A454",
"T. c #A6B654",
"R. c #A4B951",
"E. c #ADB954",
"W. c #A6B35D",
"Q. c #AEB55D",
"!. c #B5B957",
"~. c #B2B65D",
"^. c #B9B559",
"/. c #B7B95A",
"(. c #BFBA5B",
"). c #B3B656",
"_. c #849E6C",
"`. c #A98F60",
"'. c #B08C62",
"]. c #B69763",
"[. c #81A561",
"{. c #82AB61",
"}. c #89AC61",
"|. c #96A766",
" X c #90AE60",
".X c #9BAC61",
"XX c #93A568",
"oX c #A1AC63",
"OX c #A9AF61",
"+X c #ABB060",
"@X c #C1955E",
"#X c #C79C63",
"$X c #C7A267",
"%X c #C2A268",
"&X c #CCA266",
"*X c #D2AB6A",
"=X c #D8B26E",
"-X c #DAB570",
/* pixels */
"Z.E._.7.5.[.7.q.w.D.w.w.w.D.w.K.Z.K.K.Z.Z.Z.A.[.A.A.F.Z.E._.7.[.5.7.q.w.D.w.w.w.K.w.K.Z.K.K.Z.Z.Z.A.[.A.A.F.Z.W.6.7.[.5.7.q.w.<.",
"!.(.(.OX7.9.(.6.I.w.D.w.K.<.w.L.Z.Z.Z.Z.Z.F.6.XX7.6.9.!.(.(.OX7.6.(.6.I.w.D.w.K.w.w.L.Z.Z.Z.Z.Z.[.6.XX7.6.9.!.(.(.OX7.6.(.6.I.w.",
"(.~. X~.~.W.R.(.(.~.T.Z.Z.J.w.{. X XI.W.XX+X(.Q.~.(.(.(.~. X~.oX(.R.(.(.~.T.Z.Z.K.w.{. X XI.W.|.~.(.Q.~.(.(.(.W. X~.oX(.R.(.(.Q.",
"w.w.w.w.w.K.Z.Z.Z.R.R.Z.Z.J.E.E.E.E.E.Z.Z.R.P.K.w.}.{.w.w.w.w.<.K.Z.Z.Z.R.R.Z.Z.K.E.E.E.E.E.Z.Z.R.P.K.w.}.{.w.w.w.w.<.K.Z.Z.Z.R.",
"D.w.w.w.w.w.w.D.D.w.w.Z.Z.Z.Z.Z.Z.Z.R.E.R.Z.Z.Z.Z.Z.K.D.w.w.w.w.w.w.D.D.w.w.Z.Z.Z.Z.Z.Z.Z.R.E.R.Z.Z.Z.Z.Z.K.D.w.w.w.w.w.w.D.D.w.",
"D.K.Z.D.w.D.K.L.J.~./.R.Z.Z.Z.Z.R.E.(.!.(.!.R.L.J.J.D.D.K.Z.D.w.D.K.L.J.~./.R.Z.Z.Z.Z.R.E.(.!./.!.R.L.J.J.D.D.J.Z.D.w.D.K.L.J./.",
"Z.Z.Z.Z.Z.Z.!.(.(.Q.W.!.E.R.Z.Z.Z.Z.R.Z.Z.E.E.Z.Z.Z.Z.Z.Z.Z.Z.Z.Z.!.(.(.Q.W.!.E.Z.Z.Z.Z.Z.R.Z.R.E.E.Z.Z.Z.Z.Z.Z.Z.Z.Z.Z.!.(.(.W.",
"Z.Z.Z.Z.J.D.<.K.<.w.w. X X X X{.<.D.F.J.J.J.L.Z.Z.Z.Z.Z.Z.Z.Z.J.<.<.K.<.w.w. X X X X{.<.D.F.J.J.J.L.Z.Z.Z.Z.Z.Z.Z.Z.J.<.<.K.<.w.",
"Z.Z.Z.Z.Z.Z.Z.Z.Z.Z.<.D.K.<.w.w.w.w.D.K.K.Z.Z.Z.Z.Z.Z.Z.Z.Z.Z.Z.Z.Z.Z.Z.Z.<.D.K.w.w.w.w.w.D.K.J.Z.Z.Z.Z.Z.Z.Z.Z.Z.Z.Z.Z.Z.Z.Z.L.",
"7.7.L.5.7.3.Z.R.(.!.D.Z.Z.L.Z.J.Z.Z.Z.Z.Z.Z.Z.Z.Z.Z.6.7.7.L.5.7.5.Z.R.(.!.D.Z.Z.L.Z.J.Z.Z.Z.Z.Z.Z.Z.Z.Z.Z.6.7.3.Z.5.7.5.Z.R.(.E.",
"(.oX6.XX(.~..X/.(.(./.L.Z.Z.R.!.!.(.(.Z.Z.q.6.S.6.3.|.(.oX6.XX(.~..X/.(.(./.L.Z.R.R.!.!.(.(.Z.L.6.6.S.6.3.|.(.|.9.XX(.~..X/.(.(.",
"(.(.(.(.(.(.(.(.(.(.(.(.Z.R.E.E.E.E.L.7.5.XXOX7.OXOXXX(.(.(.(.(.(.(.(.(.(.(.(.Z.R.E.E.E.E.L.7.3.OXOX7.OXOXXX(.(.(.(.(.(.(.(.(.(.",
"(.I.W.(.!.Z.R.(.}.}.t.4 4 2 , , , 2 & s.f.h.k k k a 4 4 2 2 4 2 , < 4 1 1 4 4 4 < L +.+.i.e 2 2 4 4 2 4 2 Y.(.I.Q.(.E.Z.R.(.}.I.",
"{.w.q.Z.R.L.D.q.w.w.6 5 h R R R R R R R W z.z.z.z.} R R R R R R R _ _ _ _ _ R R R R R R R _ _ R R R R 8 O V {.w.<.Z.Z.L.D.q.w.D.",
"w.w.w.w.D.<.w.K.L.D.p `.O h R z.@X#X#X#XH h h h h h h h h h c ` ` '.'.( J J h h h h h h j J k.z.z.h h : j.N w.w.w.w.D.w.w.K.L.<.",
"D.K.K.<.w.D.K.K.Z.+.$ `.b.= M Q Q Q Q Q Q Q Q Q ^ ` ! Q Q Q Q Q Q Q Q Q Q Q Q Q Q Q Q Q Q Q Q Q Q M 5 *XJ , D.K.K.<.w.K.K.K.Z.Z.",
"Z.Z.Z.Z.Z.Z.Z.Z.Z.q   `.*X@ z Q Q Q Q Q m r r ; m z T ` ` Q Q Q Q Q Q Q Q Q Q Q Q Q Q Q Q / T z m y 5 =XJ   Z.Z.Z.Z.Z.Z.Z.Z.Z.Z.",
"L.L.K.D.w.D.Z.K.L.q @ $Xx   = w n Q Q Q Q Q Q m m Q Q Q Q Q Q Q Q Q Q Q Q Q Q Q Q Q Q Q Q Q b z f w O ].x.  L.J.K.D.w.K.Z.K.L.Z.",
"D.D.w.w.w.w.w.w.0.s : *X4   y f b b b b b b b b b b b b b b b b b b b b b b b b b b b b b b b b y = . `.*X  D.D.w.w.w.w.w.w.0.4.",
"D.w.w.w.w.w.0.7.8.e 4 *X:   r r r r r T [ z.z.z.R h h h h z.z.z.z.z.z.} E n h h h h h h r r r r r ;   j.-X  &.w.w.w.w.w.0.7.8.7.",
"Z.L.K.w.w.w.7._.^.0 4 $Xy # ! [ } } } z.z.z.z.z.z.z.z.z.z.z.z.z.z.z.z.z.z.z.z.z.z.z.z.z.} } } } ^ b @ _ -X  +.J.K.w.w.w.7._.(.~.",
"Z.Z.Z.W.I.oXXX(.Y.0 4 `.d r ` z.z.z.z.z.z.z.z.z.z.z.z.z.z.z.z.z.z.z.z.z.z.z.z.z.z.z.z.z.z.z.z.z.z.[ r l -X  X.V.Z.W.I.oXXX(.(.(.",
"Z.Z.Z.R.Z.R.E.(.m.% 4 `.z r } z.z.z.z.z.z.z.z.z.z.z.z.z.z.z.z.z.z.z.z.z.z.z.z.z.z.z.z.z.z.z.z.z.z.} r l -X  9 N.Z.R.Z.E.E.(.R.R.",
"Z.Z.Z.Z.Z.Z.Z.R.n.  x _ z z z.z.z.z.z.z.z.z.z.z.z.z.z.z.z.z.z.z.z.z.z.z.z.z.z.z.z.z.z.z.z.z.z.z.z.} t 5 #X= % N.Z.Z.Z.Z.Z.R.Z.Z.",
"D.w.K.Z.E.(.R.Z.u.  ] n M Q } z.z.z.z.z.z.z.z.z.z.z.z.z.z.z.z.z.z.z.z.z.z.z.z.z.z.z.z.z.z.z.z.z.z.[ z d ) j % -.L.Z.!.(.R.Z.Z.Z.",
"w.w.{.I.(.(.(.~.D   `.l b z b E m n n T ` } ] j.j.W R R R n m ^ ^ ^ } } } ` j.j.] } z.z.z.z.z.} / n > d J J $ #.}.I.(.(.(.~.w.D.",
"L.Z.J.J.J.R.J.J. .  `.l @ r r i r r i T [ [ h h h h h h h h c ` ` ` ` ` ` T h h h [ z.z.z.z.z.} Q g # r J J % @.J.J.L.R.J.J.J.J.",
"Z.E._.7.5.[.7.-.D   `.l @ Q z.z.z.z.z.z.z.z.z.z.z.z.z.z.z.z.z.z.z.z.z.z.z.z.z.z.z.z.z.z.z.z.z.z.z.} z r J J % s.6.7.[.5.7.q.w.<.",
"!.(.(.OX7.9.(.U p O ].l @ / z.z.z.z.z.z.z.z.z.z.z.z.z.z.z.z.z.z.z.z.z.z.z.z.z.z.z.z.z.z.z.z.z.z.z.z.b r J ) . P ^.OX7.6.(.6.I.w.",
"(.~. X~.~.W.R.p.0 j *Xl @ ` z.z.z.z.z.z.z.z.z.z.z.z.z.z.z.z.c.z.z.z.z.z.z.z.z.z.z.z.z.z.z.z.z.z.z.z.n r J &X  G S.~.oX(.R.(.(.Q.",
"w.w.w.w.w.K.N.X.6 J -Xl @ ` z.z.z.z.z.z.z.z.z.z.z.z.z.z.z.z.b.z.z.z.z.z.z.z.z.z.z.z.z.z.z.z.z.z.z.z.n r J -X  N >.w.<.K.Z.Z.Z.R.",
"<.w.D.w.w.w.>.D 3 J *Xi @ ` z.z.z.z.z.z.#X-X-X#X#X#X#Xb.z.z.z.z.z.z.z.z.z.b.#X#X*X-X*Xb.z.z.z.z.z.z.n ; n -X  N ;.w.w.w.w.D.<.}.",
"K.L.Z.K.w.D.L.i.o J $Xb O n E / [ z.z.z.c.b.b.b._ x x j h h h i i i i i i h x x x x x j h h h h h ` z w m -X  , X.K.w.K.L.R.Z.(.",
"Z.Z.Z.Z.Z.Z.).g.  x.`.i w ! z.z.z.z.z.z.z.z.z.z.z.z.z.} } ^ ^ n z z z m R } z.z.z.z.z.z.z.z.z.z.z.} m g r -Xj % X.Z.Z.Z.!.(.(.W.",
"K.Z.Z.Z.J.D.>. .  #X`.i z ` z.z.z.z.z.z.z.z.z.z.z.z.z.} ` ` ` c h h h h v z.z.z.z.z.z.z.z.z.z.z.z.z.Q M r -XR % X.Z.J.<.<.K.<.w.",
"Z.Z.Z.Z.Z.Z.N.X.  -X`.z Q z.z.z.z.z.z.z.z.z.z.z.z.z.z.z.z.z.z.z.z.z.z.[ ` } z.z.z.z.z.z.z.z.z.z.z.z.} Q r -X`.% X.Z.Z.Z.Z.Z.Z.L.",
"7.7.L.5.7.3.u.X.  -X`.d M z.z.z.z.z.z.z.z.z.z.z.z.z.z.z.z.z.z.z.z.z.z.} } } z.z.z.z.z.z.z.z.z.z.z.z.} m r -X`.$ X.2.7.5.Z.R.(.E.",
"(.oX6.XX(.~.=.r.  -X`.r z [ z.z.z.z.z.z.z.z.z.z.z.z.} R R z.z.z.z.z.z.z.z.z.z.z.z.z.z.z.z.z.z.z.z.z./ r r -X`.& S :.(.~..X/.(.(.",
"(.(.(.(.(.(.g.C   *Xl.r y ^ } z.z.z.z.z.z.z.z.z.z.z.h   J _ v z.z.z.z.z.z.z.z.z.z.z.z.z.z.z.z.z.z.` ! r r *X`.o P Y.(.(.(.(.(.(.",
"~. XI.!.!.V.O.* h #X| i @ = r g b y r r r i h h h h O =   `.' J `.*Xb.z.} T h h h i r r r r r r r r r ; z b.*X= C G.E.Z.R.Q.{.I.",
"w.w.<.Z.Z.M.#.$ K ].R z O b R ^ Q m n R R R R R R 8 @ ` b u d.' 4 l.c.z.z.` R R R R R R n n n T R E z : Q R =X: V n.Z.L.w.w.w.<.",
"w.w.w.w.D.<.-.% J *Xi b b } z.z.z.z.z.z.T = v [ [ @ c ` } z.v l J h z.z.z.z.z.z.z.z.z.z.z.z.z.z.z.z.[ i Q x -X4 N %.D.w.w.K.L.<.",
"D.K.K.<.w.S...% J -Xl Y Y z.z.z.z.z.z.R O l J = h O ` } z.} R l 4 R z.z.z.z.z.z.z.z.z.z.z.z.z.z.z.z.} Q Q J -X4 , D w.K.K.K.Z.Z.",
"Z.Z.Z.Z.Z.N.L o J -Xl M M z.z.z.z.z.z.= O h K `.4 = / z.` } _ J = z.z.z.z.z.z.z.z.z.z.z.z.z.z.z.z.z.} Q Q J -X4   X.Z.Z.Z.Z.Z.Z.",
"L.L.K.D.w.1.q   J *Xl M M [ z.z.} } `   v z.~ t `.i m } ` z.H : j } z.z.z.z.b.b.c.z.z.z.z.z.z.z.z.z./ m Q J *X4   ;.w.K.Z.K.L.Z.",
"D.D.w.w.w.>.N   %X@Xl z ; i h d i Q ; 7 } @Xx.[ H ) = / } k.) + i b ^ ^ ^ n j x x [ z.z.z.z.z.} ` ` d ; Y K b.'   %.w.w.w.w.0.4.",
"D.w.w.w.w.%.N   *XT t i z } z.} ` `   R z.&X| z.b.K = z.R J 4 h z.^ Q Q Q Q } z.z.z.z.z.z.z.z.z.z.z.` r b i c.l.  D w.w.0.7.8.7.",
"Z.L.J.w.w.F s 7 z.@ +   ; i h h h O = ^ } } / z.j.O T z.= J   7 i r r r r i z.z.[ h h h h h h h h h t +     v _   D >.e.7.|.(.~.",
"Z.Z.Z.!.E.t.G j 7 K `.`.`.`.`.`.(   c / } ` z.c.l = ! [ l O : R R j.`.`.`.`.*X*X$X`.`.`.`.`.`.`.`.`.`.`.`.`.= 8   r.G.(.OX(.(.(.",
"Z.Z.Z.R.Z.O.G   7 j E l.x x j.H : @ [ } [ { W ].  z ` 7 `.+ m / ` j.~ x x x x x H j.~ x x x x x x x x x x x 8 @   X.n.E.E.(.R.R.",
"Z.Z.Z.Z.Z.X.q   } z.z.z.z.z.z.[ O R z.z.z.[ O J @ m T   J r Q ^ z.z.z.z.z.z.z.z.z.z.z.z.z.z.z.z.z.z.z.z.z.z.z.T   +.N.Z.Z.R.Z.Z.",
"D.w.K.Z.E.t.C   ^ } z.z.z.z.z.h = z.z.z.z.h `.  z ^ h J   Q n i h h h h v z.z.h h R } z.z.z.z.z.z.z.z.z.z.} ` b   +.!.(.R.Z.Z.Z.",
"w.w.{.I.(.t.G   i ` ` [ z.} ` @ v z.z.} } u l + Q ` u J   Q ! } z.z.z.z.z.z.z.z.z.} } R : 8 z T } } z.} ` / R :   *.^.(.(.~.w.D.",
"L.Z.J.L.J.B.Z . b T { W } } > @ } z.[ [ v ( = i / ` ] l   r i 7 R = = T z.z.z.z.z.} } h j [ R R n R z.W R R n y $  .u.R.J.J.J.J.",
"Z.E._.7.5.$.A $     : * P h   h z.z.^ z.= J   Q } v.d.      . -   e $ O c ` z.z.z.v h     7 h h % 6 h * 3   o 2 - A ;.5.7.q.w.<.",
"(.(.(.~.9.2.h.:.o.U p Z  .3 = [ z.z.` R u 4 z ^ x.*X4 0 t.0 P S I t.I a Z  .,. .D D  . . .X.X.V U I a S I V r.t.t.a.9.XX(.XXW.{.",
"(.Q.w.Q.(.W.V.U.y.g.i.X.X.o c [ z.` } 7 x # M E j.].= P o.D o.a.r.X.r.t.g.U.V.X...#.$.=.*.*.s.f.y.t.o.G.Y.t.t.*.D f.~.!.Z.(.(.(.",
"w.w.w.w.w.K.C.N.V.R.P.+.6 O [ k.c.} z.J ( @ Q > %X' p D D D D &...N.N.N.C.R.V.V.K.E.E.T.U.U.C.Z.P.M.,.-.}.$.>.>.>.w.<.K.Z.Z.Z.R.",
"<.w.D.w.w.w.w.D.<.{.}.m.$ h z.#Xz.z.z.-X4 r Q   J O 1 B D ,.-.w.w.w.D.<.{.}.Z.Z.Z.Z.Z.Z.Z.R.!.R.Z.Z.Z.Z.Z.D.<.q.D.w.w.w.w.D.<.}.",
"K.L.Z.K.w.D.L.R.Z.(.(.q   z.J #Xz.v *XJ 2 o <  .V & V 1 @.Z.K.w.K.L.R.Z.(.(.R.Z.Z.Z.Z.R.!.(.E.(.(.R.L.K.K.K.K.L.Z.K.w.K.L.R.Z.(.",
"Z.Z.Z.Z.Z.Z.!.(.(.Q.I.- j h k.z.} @ -XO q L O.O.N.m.Z.m.m.Z.Z.Z.Z.!.(.(.Q.W.!.E.Z.Z.Z.Z.Z.R.Z.R.E.E.Z.Z.Z.Z.Z.Z.Z.Z.Z.Z.!.(.(.W.",
"Z.Z.Z.Z.J.D.<.K.<.w.%.. j 7 R ` v ( %X, L  .@.V.Z.Z.Z.Z.Z.Z.Z.J.<.<.K.<.w.w. X X X X{.<.D.F.J.J.J.L.Z.Z.Z.Z.Z.Z.Z.Z.J.<.<.K.<.w.",
"Z.Z.Z.Z.Z.Z.Z.Z.Z.Z.<.B   = i } u %XJ V ..m.Z.Z.Z.Z.Z.Z.Z.Z.Z.Z.Z.Z.Z.Z.Z.<.D.K.w.w.w.w.w.D.K.J.Z.Z.Z.Z.Z.Z.Z.Z.Z.Z.Z.Z.Z.Z.Z.L.",
"_.7.S.3._._.L.R.(.(.L o o X   = 4 -X% n.V.Z.Z.Z.Z.L.6._.7.S.3._.6.L.R.(.(.A.L.Z.L.Z.L.Z.R.R.Z.Z.Z.Z.Z.Z.L.6._.8.F.3._.6.L.R.(.!."
};
