/* XPM */
static char *_d50e4f30bac48b086cf7dc9d6afe6020YCvJ8va1bE9oR6V[] = {
/* columns rows colors chars-per-pixel */
"64 64 86 1 ",
"  c #7EAA5F",
". c #6F976E",
"X c #6F9B6D",
"o c #749B6B",
"O c #789E68",
"+ c #7C9E69",
"@ c #789B6D",
"# c #7D9B6E",
"$ c #679175",
"% c #6B9670",
"& c #6C9570",
"* c #709572",
"= c #759770",
"- c #74A267",
"; c #76A466",
": c #7EA263",
"> c #7BA762",
", c #79A863",
"< c #7CA960",
"1 c #73A069",
"2 c #9BB94E",
"3 c #9FB94F",
"4 c #8EAF57",
"5 c #83A75F",
"6 c #80AB5E",
"7 c #85AA5D",
"8 c #81AC5D",
"9 c #84AD5C",
"0 c #89AB5B",
"q c #88AF59",
"w c #8CAD5E",
"e c #90AF5C",
"r c #8BB157",
"t c #8FB355",
"y c #8AB058",
"u c #92B453",
"i c #97B750",
"p c #92B254",
"a c #97B357",
"s c #97B554",
"d c #9BB556",
"f c #9FB557",
"g c #90B05A",
"h c #9BB359",
"j c #9FB35A",
"k c #98B05F",
"l c #9CB15F",
"z c #A3B754",
"x c #A7B756",
"c c #A1B950",
"v c #A7B952",
"b c #ABB953",
"n c #ADB954",
"m c #A1B35B",
"M c #A4B25B",
"N c #A7B05F",
"B c #A7B45D",
"V c #ABB55B",
"C c #ADB55B",
"Z c #AAB35D",
"A c #ADB55D",
"S c #B3B956",
"D c #B6B957",
"F c #B0B35F",
"G c #B3B75C",
"H c #B5B55D",
"J c #B7B958",
"K c #BBB959",
"L c #BFBA5B",
"P c #809E6A",
"I c #849E6C",
"U c #81A561",
"Y c #87A760",
"T c #8FA763",
"R c #80AA62",
"E c #84AB61",
"W c #8AAC61",
"Q c #8EA369",
"! c #90A567",
"~ c #97A766",
"^ c #90AE60",
"/ c #9BAC61",
"( c #93A568",
") c #A1AC63",
"_ c #A9AF61",
"` c #ABB060",
/* pixels */
"2nI$oU$>,8,,,9,y2yy2224U4402nI$Uo$>,8,,,y,y2yy2224U4402M#$Uo$>, ",
"DLL_$=L@l,9,y ,i222220#($#=DLL_$#L@l,9,y,,i22222U#($#=DLL_$#L@l,",
"LG^GFNvKLGx22t,R^^hM(`LAGLLLG^G)KvKLGx22y,R^^hM~FLAGLLLB^G)KvKLA",
",,,,,y222vv22tnnnnn22cdy,WE,,,, y222vv22ynnnnn22vdy,WE,,,, y222v",
"8,,,,,,98,,2222222cnv22222y8,,,,,,98,,2222222cnc22222y8,,,,,,98,",
"9y29,6yatGJc2222cnKSKScitt99y29,9yatGJc2222cnKSJScitt99t29,9yatJ",
"222222DLLABDnc2222c22nn2222222222DLLABDn22222c2cnn2222222222DLLB",
"2222t9 r ,,^^^^R 9qttti22222222t  r ,,^^^^R 9qttti22222222t  r ,",
"2222222222 8y ,,,,9yy2222222222222222 8y,,,,,9yt222222222222222i",
"$$po$.2cLD922i2t2222222222O$$po$o2cLD922u2t2222222222O$.2o$o2cLn",
"L)@(LH/JLLJi23vSSLK22:O5O.~L)@(LF/JLLJi2cvSSLK2iOO5O.~L~=(LF/JLL",
"LLLLLLLLLLLL2cnnnnp$o(_$__(LLLLLLLLLLLL2vnnnnp$.__$__(LLLLLLLLLL",
"LlBLD2vLWWLLLn222nO__FLLLLLLlBLn2vLWWLLLv222nO_)LLLLLLLlALn2vLWl",
"E,<2ci9<,,zvc22nSKLLS3cLcywE,<23i9<,,zv322nSKLLn2cLcywE, 23i9<,7",
",,,,8 ,yu8 u22nv22n2222cy,,,,,,9,,yu8 u22nv22n2222cy,,,,,,9,,yu ",
"9yr ,9yr222222i9i2222it9,929yr ,yyr222222i9i2222it9,929ry ,yyr22",
"222222222228,y,,y2222nD2vnc222222222228 y,,y2222DD2vnc2222222222",
"uuy8,92yu2y,,,,,,,yyDLLLLLluuy8,y2yu2y,,,,,,,yyKLLLLLluty8,y2yu2",
"99,,,,,,;XX999>1, t2vSLKzgt99,,,,,,;XX999>1, t2vKLKzgt96,,,,,,;X",
"8,,,,,-$%$$$$O#I$7cLLLLn22i8,,,,,-$%$$$$U#I$7cLLLLn22i8,,,,,-$%$",
"2uy,,,$ILL=_L)LL((S22nLnn222uy,,,$ILL=_L(LL((S22DLnn222ty,,,$ILF",
"222mh)(LLLHLLLLLLLSSc2cSvv2222mj)(LLLHLLLLLLLSS32cSvv2222mj)(LLL",
"222v2vnLv2Kn2SvnLLLLnnDc222222v2nnLv2KncDvnLLLLvDDc222222v2nnLvc",
"2222222c22c2222cSSvSSSSvhhf2222222c22c2222cSSvSSSSvhhf2222222c22",
"8,y2nLv222iy2222222222u ,,,8,y2SLv222iy2222222222u ,,,8,u2SLv222",
",,ElLLLG,898822tu2222t, yy,,,ElLLLG,898y22tu2222y, yy,,,WlLLLG,9",
"i2tttvttttit9it,,9<yytti22ri2ttsvttttitq2t,,9<yrtti22riittsvtttt",
"2nI$oU$>,8,,,9,y2yy2224U4402nI$Uo$>,8,,,y,y2yy2224U4402M#$Uo$>, ",
"DLL_$=L@l,9,y ,i222220#($#=DLL_$#L@l,9,y,,i22222U#($#=DLL_$#L@l,",
"LG^GFNvKLGx22t,R^^hM(`LAGLLLG^G)KvKLGx22y,R^^hM~FLAGLLLB^G)KvKLA",
",,,,,y222vv22tnnnnn22cdy,WE,,,, y222vv22ynnnnn22vdy,WE,,,, y222v",
" ,9,,,,6 EW2222222vSn222229 ,9,,,,6 EW2222222vSv222229 <9,,,,6 W",
"yu2y,9uv2LLv2222vDLnDLviyyyyu2y,yuv2LLv2222vDLnKLviyyyyi2y,yuv2L",
"222222DLLABDnc2222c22nn2222222222DLLABDn22222c2cnn2222222222DLLB",
"y222t9 r ,,^^^^R 9qttti22222222t  r ,,^^^^R 9qttti22222222t  r ,",
"2222222222 8y ,,,,9yy2222222222222222 8y,,,,,9yt222222222222222i",
"$$po$.2cLD922i2t2222222222O$$po$o2cLD922u2t2222222222O$.2o$o2cLn",
"L)@(LH/JLLJi23vSSLK22:O5O.~L)@(LF/JLLJi2cvSSLK2iOO5O.~L~=(LF/JLL",
"LLLLLLLLLLLL2cnnnnp$o(_$__(LLLLLLLLLLLL2vnnnnp$.__$__(LLLLLLLLLL",
"G^kSS2cVEELLKv22vSTFFCKLKSKG^kSb2cVEELLJc22vSTF`SKLKSKG^lSb2cVEk",
",, 22i,,,,i2222KnDLLn22L28,,, 22u,,,,i2222KnDLLv22L28,,,822u,,, ",
",,,,8 ,yu8 u22nv22n2222cy,,,,,,9,,yu8 u22nv22n2222cy,,,,,,9,,yu ",
"9yr ,9yr222222i9i2222it9,929yr ,yyr222222i9i2222it9,929ry ,yyr22",
"222222222228,y,,y2222nD2vnc222222222228 y,,y2222DD2vnc2222222222",
"uuy8,92yu2y,,,,,,,yyDLLLLLluuy8,y2yu2y,,,,,,,yyKLLLLLluty8,y2yu2",
"99,,,,,,;XX999>1, t2vSLKzgt99,,,,,,;XX999>1, t2vKLKzgt96,,,,,,;X",
"8,,,,,-$%$$$$O#I$7cLLLLn22i8,,,,,-$%$$$$U#I$7cLLLLn22i8,,,,,-$%$",
"2it,,-$~LLIFL`LL))n22vKSSc22it,,1$~LLIFL)LL))n22nKSSc22ut,,1$~LH",
"222DnL_LLLLLLLLLLLKLv22n2v2222DSL_LLLLLLLLLLLKLc22n2v2222DSL_LLL",
"222v2vnLv2Kn2SvnLLLLnnDc222222v2nnLv2KncDvnLLLLvDDc222222v2nnLvc",
"2222222c22c2222cSSvSSSSvhhf2222222c22c2222cSSvSSSSvhhf2222222c22",
"8,y2nLv222iy2222222222u ,,,8,y2SLv222iy2222222222u ,,,8,u2SLv222",
",,ElLLLG,898822tu2222t, yy,,,ElLLLG,898y22tu2222y, yy,,,WlLLLG,9",
"i2tttvttttit9it,,9<yytti22ri2ttsvttttitq2t,,9<yrtti22riittsvtttt",
"2nI$oU$>,8,,,9,y2yy2224U4402nI$Uo$>,8,,,y,y2yy2224U4402M#$Uo$>, ",
"KLLF=IL!BEq9t9,rtt220Y()I(QKLLF*(L!BEq9t ,rtt220Y()I(QKLLF*(L!BR",
"LA,ALZ2KLLS22t,Elll__LLBALLLA,AFD2KLLS22y,Elll_FLLBALLLl,AFD2KLL",
",,,,,y222vv22tnnnnn22cdy,WE,,,, y222vv22ynnnnn22vdy,WE,,,, y222v",
" ,9,,,,6 EW2222222vSn222229 ,9,,,,6 EW2222222vSv222229 <9,,,,6 W",
"yu2y,9uv2LLv2222vDLnDLviyyyyu2y,yuv2LLv2222vDLnKLviyyyyi2y,yuv2L",
"222222DLLABDnc2222c22nn2222222222DLLABDn22222c2cnn2222222222DLLB",
"2222t9 r ,,^^^^R 9qttti22222222t  r ,,^^^^R 9qttti22222222t  r ,",
"2222222222 8y ,,,,9yy2222222222222222 8y,,,,,9yt222222222222222i",
"I$5.IPpvLKei2i2u2vv222222p+I$5.I+pvLKei2i2u2vv222222p+I&0.I+pvLS"
};
