/* XPM */
static char *f7bd228f6d2b4eecbc4954e0f2560d23pMfSNpwiP9lLnKDD[] = {
/* columns rows colors chars-per-pixel */
"64 64 220 2 ",
"   c #161C2E",
".  c #232334",
"X  c #2B2935",
"o  c #2E2C3C",
"O  c #282737",
"+  c #312D37",
"@  c #322E3B",
"#  c #3C2A37",
"$  c #273336",
"%  c #3C353B",
"&  c #373738",
"*  c #1F2231",
"=  c #44393D",
"-  c #483C3D",
";  c #55333E",
":  c #384438",
">  c #4F413C",
",  c #45443C",
"<  c #55453E",
"1  c #5C493F",
"2  c #4B5B3B",
"3  c #47563C",
"4  c #525B3D",
"5  c #586A3E",
"6  c #352B41",
"7  c #3C2E45",
"8  c #3B3740",
"9  c #3A3E42",
"0  c #2C3C41",
"q  c #443A43",
"w  c #4C3C41",
"e  c #463347",
"r  c #4F3650",
"t  c #573B53",
"y  c #733E47",
"u  c #3E5543",
"i  c #384C49",
"p  c #464445",
"a  c #4D4145",
"s  c #4B4B48",
"d  c #594744",
"f  c #5D464D",
"g  c #53494C",
"h  c #5C494E",
"j  c #564548",
"k  c #445743",
"l  c #535941",
"z  c #5F5252",
"x  c #624C44",
"c  c #6A5343",
"v  c #695449",
"b  c #755A45",
"n  c #765A49",
"m  c #614D50",
"M  c #684B57",
"N  c #645553",
"B  c #6D5556",
"V  c #685E54",
"C  c #6E5B59",
"Z  c #725455",
"A  c #735E5B",
"S  c #7C5D5C",
"D  c #7D5A53",
"F  c #76474F",
"G  c #566948",
"H  c #53704D",
"J  c #5D7548",
"K  c #5A7C52",
"L  c #50705B",
"P  c #4F674F",
"I  c #6C6B46",
"U  c #7A634B",
"Y  c #667944",
"T  c #7B635E",
"R  c #776A59",
"E  c #697956",
"W  c #707651",
"Q  c #744765",
"!  c #577A67",
"~  c #7B7062",
"^  c #894A58",
"/  c #954E5A",
"(  c #9C505C",
")  c #8C5F5E",
"_  c #A8545A",
"`  c #B65555",
"'  c #B85C59",
"]  c #8B684C",
"[  c #906B4E",
"{  c #866353",
"}  c #8B6558",
"|  c #926C53",
" . c #8C7856",
".. c #81725F",
"X. c #857153",
"o. c #997054",
"O. c #937958",
"+. c #9B734F",
"@. c #A27654",
"#. c #AB7D55",
"$. c #BB665E",
"%. c #8F4D60",
"&. c #844B63",
"*. c #955966",
"=. c #8A6763",
"-. c #856A63",
";. c #906D67",
":. c #8A7167",
">. c #8F7068",
",. c #947169",
"<. c #99766C",
"1. c #977A6D",
"2. c #9D7B6E",
"3. c #917F66",
"4. c #9D7F70",
"5. c #A17E70",
"6. c #AC7168",
"7. c #698449",
"8. c #688349",
"9. c #728844",
"0. c #79864C",
"q. c #7B9247",
"w. c #638655",
"e. c #738351",
"r. c #749858",
"t. c #7EAA5F",
"y. c #6F976E",
"u. c #6E996F",
"i. c #7B9C6C",
"p. c #749B6B",
"a. c #679175",
"s. c #6B9670",
"d. c #749770",
"f. c #6E8864",
"g. c #75A265",
"h. c #79A863",
"j. c #7AA563",
"k. c #8A884D",
"l. c #84884A",
"z. c #92944E",
"x. c #9E835C",
"c. c #899454",
"v. c #999A54",
"b. c #86924E",
"n. c #A8875D",
"m. c #B48355",
"M. c #87A34A",
"N. c #94A84D",
"B. c #9BB94E",
"V. c #8DAE56",
"C. c #83AD5C",
"Z. c #89AD5A",
"A. c #84A65C",
"S. c #94AA58",
"D. c #8EB355",
"F. c #8AB058",
"G. c #94B552",
"H. c #9CB15E",
"J. c #98B457",
"K. c #A4B951",
"L. c #ADB954",
"P. c #A6B35D",
"I. c #ADB55D",
"U. c #A4B654",
"Y. c #B5B957",
"T. c #B2B65D",
"R. c #B7B95A",
"E. c #BEBA5B",
"W. c #B1B156",
"Q. c #AAAA57",
"!. c #86866C",
"~. c #849E6C",
"^. c #98856B",
"/. c #B89464",
"(. c #BB9D65",
"). c #A98675",
"_. c #AD8B74",
"`. c #AF8C79",
"'. c #A58373",
"]. c #B5947B",
"[. c #BC9A7D",
"{. c #B49777",
"}. c #AE8F65",
"|. c #81A561",
" X c #82AB61",
".X c #89AC61",
"XX c #96A766",
"oX c #90AE60",
"OX c #93A568",
"+X c #9BAC61",
"@X c #A9AF61",
"#X c #A1AC63",
"$X c #A7A676",
"%X c #C39760",
"&X c #C3A37D",
"*X c #BFBC8B",
"=X c #BDB587",
"-X c #B9A882",
";X c #C29F80",
":X c #C4A181",
">X c #C8A582",
",X c #CDAB83",
"<X c #C5AB84",
"1X c #D0AE85",
"2X c #C9B68A",
"3X c #D6B386",
"4X c #DBB989",
"5X c #D7BF8B",
"6X c #CEBE90",
"7X c #D5CD96",
"8X c #E3C18C",
"9X c #E6CB93",
"0X c #E0C590",
"qX c #E9D196",
"wX c #EBD599",
"eX c #EEDC9D",
"rX c #E4D99E",
"tX c #F1E4A2",
"yX c #F2E8A4",
"uX c #F5EFA9",
/* pixels */
"B.L.~.a.p.|.a.j.h.C.h.h.h.C.h.F.B.F.F.B.B.B.V.|.V.V.Z.B.L.~.a.|.p.a.j.h.C.h.h.h.F.h.F.B.F.F.B.B.B.V.|.V.V.Z.B.P.i.a.|.p.a.j.h.t.",
"Y.E.E.@Xa.d.E.i.H.h.C.h.F.t.h.G.B.B.B.B.B.Z.i.OXa.i.d.Y.E.E.@Xa.i.E.i.H.h.C.h.F.h.h.G.B.B.B.B.B.|.i.OXa.i.d.Y.E.E.@Xa.i.E.i.H.h.",
"E.T.oXT.T.P.K.E.E.T.U.B.B.D.h. XoXoXJ.P.OX@XE.I.T.E.E.E.T.oXT.#XE.K.E.E.T.U.B.B.F.h. XoXoXJ.P.XXT.E.I.T.E.E.E.P.oXT.#XE.K.E.E.I.",
"h.h.h.h.h.F.B.B.B.K.K.B.B.D.L.L.L.L.L.B.B.K.J.F.h..X Xh.h.h.h.t.F.B.B.B.K.K.B.B.F.L.L.L.L.L.B.B.K.J.F.h..X Xh.h.h.h.t.F.B.B.B.K.",
"C.h.h.h.h.h.h.C.C.h.h.B.B.B.B.B.B.B.K.L.K.B.B.B.B.B.F.C.h.h.h.h.h.h.C.C.h.h.B.B.B.B.B.B.B.K.L.K.B.B.B.B.B.F.C.h.h.h.h.h.h.C.C.h.",
"C.F.B.C.h.C.F.J.D.T.R.K.B.B.B.B.K.L.E.Y.E.Y.K.G.D.D.C.C.F.B.C.h.C.F.J.D.T.R.K.B.B.B.B.K.L.E.Y.R.Y.K.G.D.D.C.C.D.B.C.h.C.F.J.D.R.",
"B.B.B.B.B.B.Y.E.E.I.P.Y.L.K.B.B.B.B.K.B.B.L.L.B.B.B.B.B.B.B.B.B.B.Y.E.E.I.P.Y.L.B.B.B.B.B.K.B.K.L.L.B.B.B.B.B.B.B.B.B.B.Y.E.E.P.",
"B.B.B.B.D.C.t.F.t.h.h.oXoXoXoX Xt.C.Z.D.D.D.G.B.B.B.B.B.B.B.B.D.t.t.F.t.h.h.oXoXoXoX Xt.C.Z.D.D.D.G.B.B.B.B.B.B.B.B.D.t.t.F.t.h.",
"B.B.B.B.B.B.B.B.B.B.t.C.F.t.h.h.h.h.C.F.F.B.B.B.B.2 : 5 M.5 2 2 2 2 5 q.5 k k F.h.h.h.h.h.C.F.D.B.B.B.B.B.B.B.B.B.B.B.B.B.B.B.G.",
"a.a.G.p.a.y.B.K.E.Y.C.B.B.G.B.D.B.B.B.B.B.B.B.B.B.: 3.{.& ..&X8X8X{.R p &X^.3 B.G.B.D.B.B.B.B.B.B.B.B.B.B.i.a.y.B.p.a.p.B.K.E.L.",
"E.#Xi.OXE.T.+XR.E.E.R.G.B.B.K.Y.Y.E.E.B.B.j.i.A.$ 3.&X8X8X8X8X8XwX9X8X8X8X{.V : K.K.Y.Y.E.E.B.G.i.i.A.i.y.XXE.XXd.OXE.T.+XR.E.E.",
"E.E.E.E.E.E.E.E.E.E.E.E.B.K.L.L.L.L.G.a.i 8 g i o {.8X8XR 8X9XyXuXyX8XwX8X8X^.8 2 g o Y L.G.a.y.@X@Xa.@X@XOXE.E.E.E.E.E.E.E.E.E.",
"E.H.P.E.Y.B.K.E..X.XE.E.E.L.B.B.B.L.i.@Xl 8 1.`.g 8X8XV !.-X2XuXuX9X8XqX9X8X8XA `.:.o Y L.i.@X#XE.E.E.E.E.E.E.H.I.E.L.B.K.E..XH.",
" Xh.h.B.K.G.C.h.h.h.U.K.K.B.B.L.Y.E.E.& N A `.`.=.8X8X&X<.'.uXuXuXuX9X8XeX8X8X<.2.`.A z : E.E.L.B.K.E.K.F.Z. Xh.t.B.B.G.C.h.h.C.",
"h.h.h.h.C.t.h.F.G.C.t.G.B.B.L.K.8.2 4 8 '.`.`.,.{.8X8X8X=.{.6XuXuXeXeX8X8X8X8X,X;.5.`.4.o 4 2 q.B.B.K.F.h.h.h.h.h.h.C.h.h.F.G.t.",
"C.F.F.t.h.C.F.F.B.B.B.B.B.B.G.C.2 8 1.`.`.`.<.,.[.8X8X8X8X8XeXuXuXwX8X8X8X8X8X_.5.`.`.`.`.:.o Y G.D.C.h.C.B.C.F.F.t.h.F.F.F.B.B.",
"B.B.B.B.B.B.B.B.B.B.B.C.h.F.h.w.8 1.`.`.`.`.`.'.2.8X8X9XtX8X9XuXuXqX<X3X8X8X8X_.`.`.;X`.`.`.:.o N.Y.B.K.L.K.B.B.B.B.B.B.B.B.B.B.",
"G.G.F.C.h.C.B.F.G.B.F.h.h.H k $ `.`.`.;X4X:X`.5.).8X8XwXqXwXqXuXuX6X2X,.3X8X8X_.5.`.,X8X[.`.`.`.: I W E.E.H.G.D.F.C.h.F.B.F.G.B.",
"C.C.h.h.h.h.h.h.g.u.u.C.& q a   `.`.[.8X8X3X`.<.[.8X8X8X8X9XuXuXuX2X=.[.3X8X8X&X=.`.4X8X8X`.`.`.  j q 3 V.D.C.C.h.h.h.h.h.h.g.u.",
"C.h.h.h.h.h.g.a.s.i @ q q =.=.  `.`.,X1X8X8X`.5.[.8X8X8X8XeXwXuXuXuXwX8X8X8X8X[.2.5.8X4X:X,X`.`.  =.=.@ q O H h.h.h.h.h.g.a.s.a.",
"B.G.F.h.h.h.a.~.E.I   } =.=.B a `.`.`.,X8X>X`.`.&X8X8X8X,X8XyXuXuXuXuX9X8X8X8X_.).`.4X8X[.[.].`.8 S =.=.S   9.D.F.h.h.h.a.~.E.T.",
"B.B.B.P.J.#XOXE.I j A =.=.B   1.`.`.`.8X3X>X2.2.3X8X8X&X{.wXuXuXuXtXtXeX8X8X[._.=.`.[.4X8X`.`.`.:.  S =.=.B a 5 B.P.H.#XOXE.E.E.",
"B.B.B.K.B.K.L.E.2   B =.=.q a T `.`.`.8X8X8X<._.8X8X8X=.[.7XtX9XyXtX9X9X8X8X8X:X`.`.1X[.4X`.`.`.C 8 h =.=.m   2 B.K.B.L.L.E.K.K.",
"B.B.B.B.B.B.B.K.8.q =.5.5.=.h -.`.`.`.8X8X3X`.;.8X8X8X8X<.2X9XuXuXuX8X8X8X8X8X3X`.`.8X>X`.;X>X`.g h =.<.5.=.@ q.B.B.B.B.B.K.B.B.",
"C.h.F.B.L.E.K.B.  B ,.).`.=.Z >.`.>X].3X>X>X`.,.8X8X8X8X[.<XuXuXuXuXeX{.{.8X8X8X`.`.8X8X>X`.[.`.T S =.'.2.;.m   G.B.Y.E.K.B.B.B.",
"h.h. XH.E.E.E.l @ =.,.,.`.=.Z >.].>X].[.4X1X'.=.8X8X8X8X8XyXuXuXuXuX2X2X;.8X8X8X`.`.8X8X,X,X[.`.T S =.`.`.,.=.O J H.E.E.E.T.h.C.",
"G.B.D.D.D.K.D.3 h =.5.`.2.=.m `.`.:X;X8X8X8X,.{.8X8X8X8X8X9XuXuXuXuX7X2.`.8X8X,X).`.;X8X1X`.:X`.`.M =.<.`.'.=.q J D.J.K.D.D.D.D.",
"B.L.~.a.p.|.! s T =.5.`.5.M S `.`.`.`.>X8X8X5.].0XwX8X8X{.rXrXuXuX7X]._.,X8X8X2X,.[.3X8X8X`.`.`.`.S B 5.).<.=.B p ! |.p.a.j.h.t.",
"Y.E.E.@Xa.d.  g N =.).`.<.f Z 2.`.`.`.8X8X8X[._.uXwX8X&X_.=.-XuXuXeXeX8X8X8X8XqX6X2.8X8X8X>X`.`.,.Z f 5.`.5.=.j q   a.i.E.i.H.h.",
"E.T.oXT.T.P.b.a A =.5.2.;.S -.`.`.`.`.>X>X].5.<.'.3XwX9X8X&XrXuXuXuX9X8XwX9X8X{.,.`.8X8X1X>X`.`.`.S S 5.`.<.=.T s v.#XE.K.E.E.I.",
"h.h.h.h.h.F.  h m =.,.).<.S f 2.[.,X].[.4X1X].'.4XeXeXwX8XeXeXtXuXuXwX8XqX9X8X&X<.,X8X8X8X:X`.`.,.f S =.2.<.=.m A   t.F.B.B.B.K.",
"t.h.C.h.h.h.u   =.,.).`.<.=.f `.`.`.].>X4X8X:X,.8XeXyXyXyXuXuXuXuXuXuXtXeXtXwX8Xq [.4X8X3X4X`.].`.f =.,.'.;.=.=.  H h.h.h.C.t..X",
"F.G.B.F.h.C.2   =.=.<._.<.m T `.`.`.`.,X8X8X[.=.yXuX*XuX*X!.*X*X7X$X!.$XuX7XuXtX  `.:X8X:X`.`.,X`.T S <.).<.;.=.  J h.F.G.K.B.E.",
"B.B.B.B.B.B.Y.  =.=.5.`.<.q A `.`.z {.4X8X9X^.s yXuX9 $X    R % @ R     *Xs uXtX9 1.8X8X8X[.N `.`.N N 5.`.<.).;.  B.B.B.Y.E.E.P.",
"F.B.B.B.D.C.w.  =.=.).'.=.q A `.o R R 5XyXuX9 7X!.%     O o   v x   o *       !.*X8 uXeX<X..N 8 `.g h =.2.5.=.=.  M.D.t.t.F.t.h.",
"B.B.B.B.B.B.2 @ =.=.5.`.=.O 1.`.A . ..eXuXuXV   = > ] X 6 t   { D   t 6 % +.% =   ~ uXuXtXR O A `.:.@ =.2.,.=.=.O Y B.B.B.B.B.G.",
"a.a.G.p.a.y.2 h =.=.5.:.a A 1.[.,XV V 2X=X!.  . { v > (.U O   } o.  . R }.- n { *   !.7X*XV V >X`.:.A a 1.5.=.=.q P a.p.B.K.E.L.",
"E.#Xi.OXE.T.& B =.=.,.B O N 1.4XeX8X8XwX    r 6 + { m.n X.}.  o.m.  (.O.{ #.n O 6 e     uX8X8X8X;X1.z @ T ;.=.=.B s E.T.+XR.E.E.",
"E.E.E.E.E.v A g =.=.=.=.q   ..8X8X8X& ..  O o o .   c m.x ,   m.m.  & c m.x   O o o .   !.s qX8X>Xz   q =.5.=.=.h A I E.E.E.E.E.",
"T.oXH.Y.Y.2   h =.=.=.<.2.  9X9X^.p p   1 b U n.n.@.. c b >   > -   n @.x X b }./. .n &   V 9 {.8X8X  2.<.,.=.=.q   4 B.K.I. XH.",
"h.h.t.B.B.q.  =.=.B -.`.`.  yX9XV X @ v { | @.m.m.#.#.#.m.%X%X%X%X%X%X%X%X%X%Xm.m.m.} { { % O N 8X8XR A `.C A =.=.  M.G.h.h.h.t.",
"h.h.h.h.C.$ j =.=.% g '.T {.{.p 3.  - a d b b b b b b b b b b b b b b b b b b b b b b d d a % . ..p ..  4.g p ;.=.a & h.h.F.G.t.",
"C.F.F.t.h.  a B <.A `.`.T g     e e e e 6   O d + o r 7 r 7 r . o r . r o r . % d +   7 e e e e   8 `.`.`.`.A `.B q   F.F.F.B.B.",
"B.B.B.B.B.3 @ B O :.`.:.g   . e Q Q Q Q Q   d o.= t ( *.( *.( e F $.Z ` w ( e c o.x   &.%.%.%.^ 6 O   g `.`.T @ :.@ Y B.B.B.B.B.",
"G.G.F.C.h.k   $ :.A :.g . w = e &._ ` ` _   o.m.< y ` ' $.} $.; D $.6.` F ` ; b m.#.  %.( _ %./ 6 w w O A T A :.& O H F.B.F.G.B.",
"C.C.h.h.h.h.h.u   . 8   % D % e / ( ( / %.  ] m.< ; ` ^ ` y ' # ; ` _ ` y ` # b m.#.  ` ` ` ( ` 7 w n d   o $   H h.h.h.h.h.g.u.",
"C.h.h.h.h.h.g.a.L 0   = = | - r ` ` ( %.%.  < m.< > U  . . . . . . . . . .U % b m.o.  ( ( %.&./ 6 d { v w   G K h.h.h.h.g.a.s.a.",
"B.G.D.h.h.g.a.XXz.I   { } m.< t ( _ ( ` `   < m.< + d b b b [ @.@.@.@.] x d O b m.n   _ ` ` ` %.r d #.{ {   Y 7.D.h.h.g.a.XXE.T.",
"B.B.B.Y.L.E.@XE.z.,   #.o.m.X M ^ ( ( %.`   % m.% + v ] #.m.b b b b m.m.m.| + % @.-   ( ( _ ` _ Q + m.#.|   2 M.B.Y.Y.E.@XE.E.E.",
"B.B.B.K.B.K.z.z.9.:   m.#.m.  Q ( ` ` %.%.F 7 7 7 6 o 7 7 7 7 6 7 7 7 7 7 6 7 7 7 7 ^ ` ` Q _ _ M   m.@.m.  2 9.B.K.B.L.L.E.K.K.",
"B.B.B.B.B.B.M.q.9.:   m.#.m.  o e ; ; e ; ; e 7 m D Z ) r r r 6 7 7 7 7 7 j Z D 7 7 ; ; ; e ; ; .   m.o.m.O 2 9.N.B.B.B.B.K.B.B.",
"C.h.F.B.L.E.K.M.9.: b m.@.m.  > n. . . . . .n.x. .n././././././././.x. . . . . ./.x. . . . . .n %   m.n @.> k K M.B.Y.E.K.B.B.B.",
"h.h. XH.E.E.E.c.K : b m.b m.X - o.#.m.m.m.m.] b [ #.m.m.@.@.@.b b b b b +.m.] b [ #.m.m.m.m.m.#.%   m.< m.< u K r.c.E.E.E.T.h.C.",
"G.B.D.D.D.K.D.9.7.: d ] c m.< d b b b b c b @.@.m.m.m.#.@.#.m.m.m.m.m.m.m.m.m.m.#.@.b n c c [ @.v + #.= m.< 2 9.7.9.J.K.D.D.D.D.",
"B.L.~.a.p.|.a.w.K G +   % x : + < b b b < < b [ @.] b b < < < : < 0 . c [ #.m.m.] b < < b b x I   + s O v & 5 0.f.a.|.p.a.j.h.t.",
"E.E.E.T.d.~.E.e.b.w.8.8.G H K G 7.2 Y 9.Y E E W E E E l.k.I W L E k.E l E 8.8.7.K K 8.7.7.9.Y Y P J W P E E l.k.v.T.d.OXE.OXP. X",
"E.I.h.I.E.I.B.Q.E.v.l.9.9.7.K E e.e.H.c.c.k.k.b.z.z.k.k.0.K 0.c.Q.q.W.W.k.l.9.9.8.w.r.0.e.e.v.Q.k.k.0.0.k.k.k.e.w.I.T.Y.B.E.E.E.",
"h.h.h.h.h.F.B.B.B.K.U.B.M.V.L.L.L.L.L.B.B.K.J.F.h..X Xh.r.g.h.t.F.B.B.B.K.K.B.B.r.N.L.L.L.L.B.B.N.M.r.g..X Xr.g.h.h.t.F.B.B.B.K.",
"t.h.C.h.h.h.h.C.t. X.XB.B.B.B.B.B.B.K.Y.L.B.B.B.B.B.C.t.h.C.h.h.h.h.C.t. X.XB.B.B.B.B.B.B.K.Y.K.B.B.B.B.B.C.t.h.C.h.h.h.h.C.t..X",
"F.G.B.F.h.C.G.K.B.E.E.K.B.B.B.B.K.Y.E.L.Y.E.K.G.F.F.F.F.G.B.F.h.F.G.K.B.E.E.K.B.B.B.B.K.Y.E.L.E.E.K.G.F.F.F.F.G.B.F.h.F.G.K.B.E.",
"B.B.B.B.B.B.Y.E.E.I.P.Y.L.K.B.B.B.B.K.B.B.L.L.B.B.B.B.B.B.B.B.B.B.Y.E.E.I.P.Y.L.B.B.B.B.B.K.B.K.L.L.B.B.B.B.B.B.B.B.B.B.Y.E.E.P.",
"B.B.B.B.D.C.t.F.t.h.h.oXoXoXoX Xt.C.Z.D.D.D.G.B.B.B.B.B.B.B.B.D.t.t.F.t.h.h.oXoXoXoX Xt.C.Z.D.D.G.G.B.B.B.B.B.B.B.B.D.t.t.F.t.h.",
"B.B.B.B.B.B.B.B.B.B.t.C.F.t.h.h.h.h.C.F.F.B.B.B.B.B.B.B.B.B.B.B.B.B.B.B.B.t.C.F.h.h.h.h.h.C.F.D.B.B.B.B.B.B.B.B.B.B.B.B.B.B.B.G.",
"~.a.A.y.~.~.G.K.E.E.V.G.B.G.B.G.B.K.K.B.B.B.B.B.B.G.i.~.a.A.y.~.i.G.K.E.E.V.G.B.G.B.G.B.K.K.B.B.B.B.B.B.G.i.~.s.Z.y.~.i.G.K.E.Y."
};
