/* XPM */
static char *_88d7e90fe5a490180caeae9b3c66d3cbpWkoeq2Wlg4mkou[] = {
/* columns rows colors chars-per-pixel */
"64 64 227 2 ",
"   c #161C2E",
".  c #1B1F33",
"X  c #1C2333",
"o  c #1C2D35",
"O  c #1C3835",
"+  c #232535",
"@  c #242A35",
"#  c #21243A",
"$  c #25293E",
"%  c #2D2E39",
"&  c #28273C",
"*  c #273234",
"=  c #2B3435",
"-  c #22323D",
";  c #2F3E3B",
":  c #2A3838",
">  c #35373A",
",  c #1F4237",
"<  c #334239",
"1  c #3C4339",
"2  c #384638",
"3  c #23543B",
"4  c #404439",
"5  c #494F3C",
"6  c #48563B",
"7  c #53563C",
"8  c #624F3F",
"9  c #586A3E",
"0  c #56693F",
"q  c #2C2C45",
"w  c #2E2A48",
"e  c #282642",
"r  c #273A43",
"t  c #32314A",
"y  c #3D3744",
"u  c #393451",
"i  c #3D3955",
"p  c #333C50",
"a  c #342F4B",
"s  c #433D5B",
"d  c #453E45",
"f  c #473862",
"g  c #4B3C65",
"h  c #533E6F",
"j  c #2B474A",
"k  c #3D5042",
"l  c #345656",
"z  c #305247",
"x  c #276740",
"c  c #2B7A44",
"v  c #3A735C",
"b  c #3C6661",
"n  c #464244",
"m  c #4A4547",
"M  c #564A4D",
"N  c #51474A",
"B  c #485948",
"V  c #575847",
"C  c #4E4A59",
"Z  c #685855",
"A  c #785847",
"S  c #4A6343",
"D  c #576544",
"F  c #5E7C4B",
"G  c #56764A",
"H  c #5A7B54",
"J  c #4D6B55",
"K  c #666A43",
"L  c #687B43",
"P  c #7B7D48",
"I  c #77665C",
"U  c #687356",
"Y  c #4B4064",
"T  c #51436B",
"R  c #5F457C",
"E  c #5A4676",
"W  c #425762",
"Q  c #417168",
"!  c #407965",
"~  c #516F6C",
"^  c #715175",
"/  c #845C7F",
"(  c #887363",
")  c #887065",
"_  c #926760",
"`  c #339B4C",
"'  c #308D48",
"]  c #3AA456",
"[  c #39B251",
"{  c #36A94F",
"}  c #3F8162",
"|  c #6A8449",
" . c #6A8449",
".. c #728844",
"X. c #798847",
"o. c #75884B",
"O. c #65904F",
"+. c #7B9246",
"@. c #7B9548",
"#. c #658754",
"$. c #728554",
"%. c #729C5E",
"&. c #779957",
"*. c #6D965C",
"=. c #48B854",
"-. c #5AB956",
";. c #7EAA5F",
":. c #77A458",
">. c #6EB056",
",. c #6F976E",
"<. c #6F996C",
"1. c #7A9C6B",
"2. c #749B6B",
"3. c #679175",
"4. c #6B9670",
"5. c #749770",
"6. c #698B6C",
"7. c #75A367",
"8. c #7BA762",
"9. c #79A863",
"0. c #73A069",
"q. c #528C5D",
"w. c #79C95D",
"e. c #67C45A",
"r. c #8B8539",
"t. c #C5B93F",
"y. c #83884A",
"u. c #8B894D",
"i. c #82864E",
"p. c #829B48",
"a. c #83924A",
"s. c #9C9951",
"d. c #959B4E",
"f. c #AB964E",
"g. c #8BA54B",
"h. c #9BB94E",
"j. c #9AB34E",
"k. c #8EAF57",
"l. c #83A75F",
"z. c #83AD5C",
"x. c #89AD5B",
"c. c #84A656",
"v. c #95AB5C",
"b. c #8EB355",
"n. c #8AB058",
"m. c #85BE5C",
"M. c #95B552",
"N. c #9CB555",
"B. c #9CB15E",
"V. c #90B05A",
"C. c #93AF4C",
"Z. c #A5A654",
"A. c #A5B754",
"S. c #A5B951",
"D. c #ADB954",
"F. c #A6B35D",
"G. c #ADB55D",
"H. c #ACB253",
"J. c #B5B957",
"K. c #B2B55D",
"L. c #B7B958",
"P. c #BFBA5B",
"I. c #B8B057",
"U. c #ADB752",
"Y. c #98836A",
"T. c #849E6C",
"R. c #A58F6E",
"E. c #B79A77",
"W. c #A78A71",
"Q. c #82A561",
"!. c #83AB61",
"~. c #8AAC61",
"^. c #8EA369",
"/. c #95A666",
"(. c #90AE60",
"). c #93A568",
"_. c #9BAC61",
"`. c #A1AC63",
"'. c #A9AF61",
"]. c #A8B161",
"[. c #BBA37B",
"{. c #C99A5B",
"}. c #D9945F",
"|. c #D4995D",
" X c #CBA85D",
".X c #E3AA58",
"XX c #E0A55A",
"oX c #E7B555",
"OX c #C0A77D",
"+X c #D39062",
"@X c #95D562",
"#X c #9CCA55",
"$X c #F1CC4E",
"%X c #EDC351",
"&X c #EED548",
"*X c #FFED44",
"=X c #FAE247",
"-X c #FFEF57",
";X c #EFE348",
":X c #F9E878",
">X c #D5C35E",
",X c #6A4E87",
"<X c #6B4D89",
"1X c #654A82",
"2X c #73518F",
"3X c #775395",
"4X c #7A5596",
"5X c #835B96",
"6X c #895E98",
"7X c #916298",
"8X c #9C6A99",
"9X c #89678B",
"0X c #A8719A",
"qX c #A27197",
"wX c #A26D9A",
"eX c #D5B583",
"rX c #E3CD99",
"tX c #E6D29E",
"yX c #FFF48A",
"uX c #FFF596",
"iX c #EBDBA6",
"pX c #EFE1AB",
"aX c #FFF6A2",
"sX c #FFFBD4",
"dX c white",
"fX c #FFFDE8",
"gX c #C5C6CB",
/* pixels */
"h.D.T.3.2.Q.3.8.9.z.9.9.9.z.9.n.h.n.n.h.h.h.k.Q.k.k.x.h.D.T.3.Q.2.3.8.9.z.9.9.9.n.9.n.h.n.n.h.h.h.k.Q.k.k.x.h.F.1.3.Q.2.3.8.9.;.",
"L.P.P.'.3.5.P.1.B.9.z.9.n.;.9.M.h.h.h.h.h.x.1.).3.1.5.L.P.P.'.3.1.P.1.B.9.z.9.n.9.9.M.h.h.h.h.h.Q.1.).3.1.5.L.P.P.'.3.1.P.1.B.9.",
"P.K.(.K.K.F.S.P.P.K.A.h.h.b.9.!.(.(.N.F.).'.P.G.K.P.P.P.K.(.K.`.P.S.P.P.K.A.h.h.n.9.!.(.(.N.F./.K.P.G.K.P.P.P.F.(.K.`.P.S.P.P.G.",
"9.9.9.9.9.n.h.h.h.S.S.h.h.b.D.D.D.D.D.h.h.S.N.n.9.~.!.9.9.9.9.;.n.h.h.h.S.S.h.h.n.D.D.D.D.D.h.h.S.N.n.9.~.!.9.9.9.9.;.n.h.h.h.S.",
"z.9.9.9.9.9.9.z.z.9.9.h.h.h.h.h.h.h.S.D.S.h.h.h.h.h.n.z.9.9.9.9.9.9.z.z.9.9.h.h.h.h.h.h.h.S.D.S.h.h.h.h.h.n.z.9.9.9.9.9.9.z.z.9.",
"z.n.h.z.9.z.n.N.b.K.L.S.h.h.h.h.S.D.P.J.P.J.S.M.b.b.z.z.n.h.z.9.z.n.N.b.K.L.S.h.h.h.h.S.D.P.J.L.J.S.M.b.b.z.z.b.h.z.9.z.n.N.b.L.",
"h.h.h.h.h.h.L.P.P.G.F.L.D.S.h.h.h.h.S.h.h.D.D.h.h.h.h.h.h.h.h.h.h.L.P.P.G.F.L.D.h.h.h.h.h.S.h.S.D.D.h.h.h.h.h.h.h.h.h.h.L.P.P.F.",
"h.h.h.h.b.z.;.n.;.9.9.(.(.(.(.!.;.z.x.b.b.b.M.h.h.h.h.h.h.h.h.b.;.;.n.;.9.9.(.(.(.(.!.;.z.x.b.b.b.M.h.h.h.h.h.h.h.h.b.;.;.n.;.9.",
"h.h.h.h.h.h.h.h.h.h.;.z.n.;.9.9.9.9.z.n.n.h.h.h.h.h.h.h.h.h.h.h.h.h.h.h.h.;.z.n.9.9.9.9.9.z.n.b.h.h.h.h.h.h.h.h.h.h.h.h.h.h.h.M.",
"3.3.M.2.3.,.h.S.P.L.z.h.h.N.H.{.}.oX*X*XD.S.h.h.h.h.1.3.3.M.2.3.2.h.S.P.L.z.h.h.M.h.b.h.h.h.h.h.h.h.h.h.h.1.3.,.h.2.3.2.h.S.P.D.",
"P.`.1.).P.K._.L.P.P.L.M.A.{.}.}.}.$X*X*X*X;XB.l.1.,./.P.`.1.).P.K._.L.P.P.L.M.h.S.S.J.J.P.P.h.M.1.1.l.1.,./.P./.5.).P.K._.L.P.P.",
"P.P.P.P.P.P.P.P.P.P.P.P.|.XX&X%X}.}..X.X.X.X$X`.'.'.).P.P.P.P.P.P.P.P.P.P.P.P.h.S.D.D.D.D.M.3.,.'.'.3.'.'.).P.P.P.P.P.P.P.P.P.P.",
"P.B.F.P.L.h.S.P.~.~.P. X*X*X*X*X=XoX}.}.}.}.}.}. XP.P.P.B.F.P.D.h.S.P.~.~.P.P.P.S.h.h.h.D.1.'.`.P.P.P.P.P.P.P.B.G.P.D.h.S.P.~.B.",
"!.9.8.h.S.M.z.8.9.9.A.%X*X-XyX*X*X$X%X.X}.}.}.}.|.v.x.!.9.8.h.h.M.#.;         1 h.h.D.J.P.P.P.D.h.S.P.S.n.x.!.9.;.h.h.M.z.8.9.z.",
"9.9.9.9.z.;.9.n.M.z.l.:X*XsXsX*X=X*X=XoX{.|.}.}.}./.9.9.9.9.9.&.; @ a h R R e L h.D.S.h.h.D.h.h.h.h.S.n.9.9.9.9.9.9.z.9.9.n.M.;.",
"z.n.n.;.9.z.n.n.h.h.s.dX:XdXyX=X.X%X8 u.h.N.{.}.}.v.h.z.n.n.&.@ & / 6X3X<Xf . L h.M.z.M.h.h.h.h.M.b.z.9.z.h.z.n.n.;.9.n.n.n.h.h.",
"h.h.h.h.h.h.h.h.h.h.9 dXdXdXaX&X}.A 6 h.h.D.L.}.}.I.S.h.h.h.2 a / 7X3X3Xg q X < n.9.9.n.h.h.h.h.L.L.h.S.D.S.h.h.h.h.h.h.h.h.h.h.",
"M.M.n.z.9.z.h.n.M.h.S gXsXdXsX=X{.m n.n.L.P. X X XP.B.M.M.S   0X3Xu   # a i t X ; 9.9.9.9.n.n.P.P.P.P.P.P.B.M.b.n.z.9.n.h.n.M.h.",
"z.z.9.9.9.9.9.9.7.<.J r.*XdXsX-Xf.: c.h.S.J.P.P.A.B.Z.v.G   ^ 6XE # # q w q u $   k 0.9.;.b.h.S.P.P.P.A.V.b.z.z.9.9.9.9.9.9.7.<.",
"z.9.9.9.9.9.7.3.4.3.3.1 &XuXdXyXt.  L P.P V 6 K p.{.}.{.; u 6X5X2X,X,X3X3X,Xs s q   *.3.z.+.7 S 5 s.D.h.h.M.z.9.9.9.9.9.7.3.4.3.",
"h.M.n.9.9.9.3.T.P.P.5.D 7 -XfXsX&X=   h.9 G ` , * f.}.}._ R 0X0X7XR f f <X,Xs s s   K ).$.  3 -.2 d.D.D.h.h.h.b.n.9.9.9.3.T.P.K.",
"h.h.h.F.N.`.).P.P.P.K.P.4 = >X:XrXOX% K +.  w.[ c o A }.}._ E #             $ t s u   4 , c =.:.* g.J.S.S.h.h.h.h.F.B.`.).P.P.P.",
"h.h.h.S.h.S.D.P.S.h.P.D.9 n rXiXpXpXI   D.* m.w.[ ' X _ +X}.t e w w w 1X3XE T Y s s   X [ [ m.2 7 L.S.h.h.h.h.h.h.S.h.D.D.P.S.S.",
"h.h.h.h.h.h.h.S.h.h.S.h.9 > ( tXpXtXeX  J.P * @X-.] l X ^ 9X,X2X5X3X3X3X3X3X3XT s t X b [ e.;.* d.J.S.N.N.N.h.h.h.h.h.h.h.S.h.h.",
"z.9.n.h.D.P.S.h.h.h.M.n.9   Y.iX[.E.rX  h.h.  O.w.] Q p 2X3X8XwX0X8X8X7X<XT Y s s i j Q [ @XS 2 h.M.;.9.9.9.z.9.M.h.J.P.S.h.h.h.",
"9.9.!.B.P.P.P.K.9.z.z.z.S n eX[.% I rX  h.b.#.2 -.] Q ~ 7X0X0X0X8X7X7X5XY s s s s s Q Q [ -.2 g.x.9.;.n.n.9.9.9.~.B.P.P.P.K.9.z.",
"M.h.b.b.b.S.b.b.b.b.M.b.S   n   % V   < n.b.b.  x ! Q 9X0X0X5X3X3X3X3X3X,Xs s s s s W Q } 3 < n.b.b.M.h.h.n.M.M.b.b.M.S.b.b.b.b.",
"h.D.T.3.2.Q.3.8.9.z.9.9.*.:   X % @   g.h.h.k.k X - C qX8X5XR R 3X3X2X1XY s u g T Y Y r -   L h.h.k.Q.k.k.x.h.F.1.3.Q.2.3.8.9.;.",
"L.P.P.'.3.5.P.1.B.9.z.9.n.:.: m Z M   h.h.x.1.D   g 3X5X4Xh     w 3XY s s q . e h 2Xs i $   +.h.Q.1.).3.1.5.L.P.P.'.3.1.P.1.B.9.",
"P.K.(.K.K.F.S.P.P.K.A.h.h.b.; M ) I   F.).'.P.  f 7X8X3Xf   , ,           X j X   R ,Xs s $ 1 /.K.P.G.K.P.P.P.F.(.K.`.P.S.P.P.G.",
"9.9.9.9.9.n.h.h.h.S.S.h.h.b.a.M ) I   h.h.S.N.  R 8X7X<X# - [ [ [ x x x c ] Q j   w 3XE s u 2 h.S.N.n.9.~.!.9.9.9.9.;.n.h.h.h.S.",
";.9.z.9.9.9.9.z.;.!.~.h.h.h.+.m I I   J.D.h.h.  h 7X5Xh o l } ' [ [ [ [ [ [ v j - X <X2Xs u 1 S.h.h.h.h.h.z.;.8.z.9.9.9.9.z.;.~.",
"n.M.h.n.9.z.M.S.h.P.P.S.h.h.+.@ M m   1 Z.P.S.9 @ E 3Xh o r Q r c w.=.[ [ [ z Q Q j # 3Xs q 1 P.P.S.M.n.n.n.n.M.h.n.9.n.M.S.h.P.",
"h.h.h.h.h.h.L.P.P.G.F.L.D.S.9       3 , 9 D.D.h.9 # <X<X# - Q l , w.e.[ [ ` j Q Q - w ,Xu   9 S.D.D.h.h.h.h.h.h.h.h.h.h.L.P.P.F.",
"n.h.h.h.b.z.;.n.;.9.9.(.(.$.  :.O.* 3 [   b.M.h.h.9 # <Xf   - Q   G @X=.[ x - b -   R u   F b.b.b.M.h.h.h.h.h.h.h.h.b.;.;.n.;.9.",
"h.h.h.h.h.h.h.h.h.h.;.z.n.#., w.@X:.  `   h.h.h.h.h.2 q s t X b j S @X-.{ O l l   g E t   z.n.b.h.h.h.h.h.h.h.h.h.h.h.h.h.h.h.M.",
"3.3.M.2.3.,.h.S.P.L.z.h.h.+., [ w.w.: o   +.h.h.h.p.t ,X,XE i $ l X >.e.c $ l $ u Y s s   h.h.h.h.h.h.h.h.1.3.,.h.2.3.2.h.S.P.D.",
"P.`.1.).P.K._.L.P.P.L.M.h.+., [ [ [ ,       B #.1.H w 3X3X,Xs u u q x [ , u t i s s s s   P.h.M.1.1.l.1.,./.P./.5.).P.K._.L.P.P.",
"P.P.P.P.P.P.P.P.P.P.P.P.h.S.1 ' [ ` o r B           w 3X3X3X3X,XT s   3 : s s s s s s q   @ ~ @   B 6.'.'.).P.P.P.P.P.P.P.P.P.P.",
"K.(.B.J.J.h.S.G.!.!.P.P.P.S.p.X       K K.G.P 4 >     g 3X3X3X3X3Xs t # q s s s s u $   +     3 ` O   Z.J.P.K.(.B.J.D.h.S.G.!.B.",
"9.9.;.h.h.M.9.9.9.9.M.h.h.h.h.1 X > @ K D.h.h.P.C.: @   e f R R 3Xs s s s s s u q y d I y   O { [ ` X 6 z.9.9.9.z.h.h.M.9.9.9.;.",
"9.9.9.9.z.;.9.n.M.z.;.M.h.h.D.1 % ) > 9 h.h.h.S.n.; Z Y.>       w # # # # # X > R.E.) > +   , [ [ [ ,   9.9.9.9.9.9.z.9.9.n.M.;.",
"z.n.n.;.9.z.n.n.h.h.h.h.h.h.M.S + N @ +.h.M.b.z.9.< @ ( W.E.eXY.M   R.eXI @ Z Y.I n     #   o ` [ [ ,   z.h.z.n.n.;.9.n.n.n.h.h.",
"h.h.h.h.h.h.h.h.h.h.h.z.9.n.9.9.F 9 g.h.h.D.L.h.S.1 $ X       M M   E.( Z   > . q q s s s   6 * 3 3   D D.S.h.h.h.h.h.h.h.h.h.h.",
"M.M.n.z.9.z.h.n.M.h.n.9.9.9.9.9.9.9.n.n.L.P.P.P.s.@ g g s i u     n Z I > > X # s s s s s q X K 4 4 4 Z.P.B.M.b.n.z.9.n.h.n.M.h.",
"z.z.9.9.9.9.9.9.7.<.<.z.z.z.8.0.9.;.b.h.S.J.P.P.a.w 3X3X3X2Xs   n E.    X Z % # s s t # # X   a.P.P.P.A.V.b.z.z.9.9.9.9.9.9.7.<.",
"z.9.9.9.9.9.7.3.4.3.3.3.3.1.1.T.3.z.S.P.P.P.P.D.9 R 3Xh f f q   Y.M   @ j d Z             9 K Z.P.P.D.h.h.M.z.9.9.9.9.9.7.3.4.3.",
"h.M.b.9.9.7.3./.P.P.T.K.P.'.P.P.`.`.D.h.h.S.P.J.1           *   R.eX= u.Z.: n @ = Z.P.1   1 h.h.D.P.J.J.S.h.h.M.b.9.9.0.3./.P.K.",
"h.h.h.L.D.P.'.P.P.P.P.P.P.P.P.P.P.P.P.P.S.h.h.D.p.X...7     P 5 % n 7 u.u.K > > D u.K = @ u.I.h.h.h.D.h.S.h.h.h.h.L.J.P.'.P.P.P.",
"h.h.h.S.h.S.D.P.S.h.P.D.h.J.S.D.P.P.P.P.D.D.L.j.p.....9   @ X...K K P X...y.X...y.X.7   @ u.u.a.Z.L.S.h.h.h.h.h.h.S.h.D.D.P.S.S.",
"h.h.h.h.h.h.h.S.h.h.S.h.h.h.h.S.J.J.S.J.J.J.J.a.o.o.L 2   6 ..........................>   X.y.y.u.H.S.N.N.N.h.h.h.h.h.h.h.S.h.h.",
"z.9.n.h.D.P.S.h.h.h.M.n.h.h.h.h.h.h.h.h.h.h.M.#.H H G 2 k D ..y.u.X.........| ..................X.k.;.9.9.9.z.9.M.h.J.P.S.h.h.h.",
"9.9.!.B.P.P.P.K.9.z.z.z.z.h.h.b.M.h.h.h.h.b.9.;.&.| H H H F $.u.u.u.i.H F #.F | .... . .......+.c.9.;.n.n.9.9.9.~.B.P.P.P.K.9.z.",
"M.h.b.b.b.S.b.b.b.b.M.b.z.M.b.9.9.z.8.n.n.b.b.M.h.C.c.@.+.o.|  .X. . . . ... .| .. .#.#.#.%.c.k.b.b.M.h.h.n.M.M.b.b.M.S.b.b.b.b.",
"h.D.T.3.2.Q.3.8.9.z.9.9.9.z.9.n.h.n.n.h.h.h.k.Q.k.b.x.h.D.T.3.&.6.6.%.%.:.%.%.%.c.%.n.h.n.n.h.h.h.k.Q.k.k.x.h.F.1.3.Q.2.3.8.9.;.",
"P.P.P.K.5.T.P.).F.!.x.z.b.z.9.n.b.b.h.h.x.Q.).`.T.).^.P.P.P.K.5.).P.^.F.!.x.z.b.;.9.n.b.b.h.h.x.Q.).`.T.).^.P.P.P.K.5.).P.).F.!.",
"P.G.9.G.P.G.h.P.P.P.J.h.h.b.9.!.B.B.B.'.'.P.P.F.G.P.P.P.G.9.G.K.L.h.P.P.P.J.h.h.n.9.!.B.B.B.'.K.P.P.F.G.P.P.P.B.9.G.K.L.h.P.P.P.",
"9.9.9.9.9.n.h.h.h.S.S.h.h.b.D.D.D.D.D.h.h.S.N.n.9.~.!.9.9.9.9.;.n.h.h.h.S.S.h.h.n.D.D.D.D.D.h.h.S.N.n.9.~.!.9.9.9.9.;.n.h.h.h.S.",
";.9.z.9.9.9.9.z.;.!.~.h.h.h.h.h.h.h.S.J.D.h.h.h.h.h.z.;.9.z.9.9.9.9.z.;.!.~.h.h.h.h.h.h.h.S.J.S.h.h.h.h.h.z.;.8.z.9.9.9.9.z.;.~.",
"n.M.h.n.9.z.M.S.h.P.P.S.h.h.h.h.S.L.P.D.L.P.S.M.n.n.n.n.M.h.n.9.n.M.S.h.P.P.S.h.h.h.h.S.L.P.D.P. XS.M.n.n.n.n.M.h.n.9.n.M.S.h.P.",
"h.h.h.h.h.h.L.P.P.G.F.L.D.S.h.h.h.h.S.h.h.D.D.h.h.h.h.h.h.h.h.h.h.L.P.P.G.F.L.D.h.h.h.h.h.S.h.S.D.D.h.h.h.h.h.h.h.h.h.h.L.P.P.F.",
"h.h.h.h.b.z.;.n.;.9.9.(.(.(.(.!.;.z.x.b.b.b.M.h.h.h.h.h.h.h.h.b.;.;.n.;.9.9.(.(.(.(.!.;.z.x.b.b.b.M.h.h.h.h.h.h.h.h.b.;.;.n.;.9.",
"h.h.h.h.h.h.h.h.h.h.;.z.n.;.9.9.9.9.z.n.n.h.h.h.h.h.h.h.h.h.h.h.h.h.h.h.h.;.z.n.9.9.9.9.9.z.n.b.h.h.h.h.h.h.h.h.h.h.h.h.h.h.h.M.",
"T.3.l.,.T.T.M.S.P.P.V.M.h.M.h.M.h.S.S.h.h.h.h.h.h.M.1.T.3.l.,.T.1.M.S.P.P.V.M.h.M.h.M.h.S.S.h.h.h.h.h.h.M.1.T.4.x.,.T.1.M.S.P.J."
};
