/* XPM */
static char *result[] = {
/* columns rows colors chars-per-pixel */
"64 64 220 2 ",
"   c #161C2E",
".  c #191E31",
"X  c #1C2334",
"o  c #1B2E32",
"O  c #1D3936",
"+  c #232535",
"@  c #242B35",
"#  c #212439",
"$  c #27283F",
"%  c #2C2C38",
"&  c #282B38",
"*  c #2B3435",
"=  c #2F3F3A",
"-  c #273638",
";  c #35333D",
":  c #393A39",
">  c #473A3A",
",  c #1F4237",
"<  c #374336",
"1  c #33423A",
"2  c #39473A",
"3  c #254B3A",
"4  c #404539",
"5  c #54573E",
"6  c #596A3E",
"7  c #2D2D45",
"8  c #2E2A48",
"9  c #282642",
"0  c #322E4C",
"q  c #273A43",
"w  c #393447",
"e  c #393551",
"r  c #3D3A55",
"t  c #433D5B",
"y  c #443659",
"u  c #433E43",
"i  c #473862",
"p  c #4D3B69",
"a  c #533E6D",
"s  c #2B464A",
"d  c #395241",
"f  c #355757",
"g  c #344C4D",
"h  c #276740",
"j  c #2B7844",
"k  c #396A56",
"l  c #3C6661",
"z  c #3F7D64",
"x  c #464244",
"c  c #4B4348",
"v  c #5F4940",
"b  c #584C4E",
"n  c #475947",
"m  c #5C584A",
"M  c #525056",
"N  c #685757",
"B  c #695956",
"V  c #745646",
"C  c #486246",
"Z  c #597649",
"A  c #5B7C52",
"S  c #567358",
"D  c #516C57",
"F  c #676B43",
"G  c #6A7E42",
"H  c #637745",
"J  c #787E47",
"K  c #77635C",
"L  c #7A695E",
"P  c #667B55",
"I  c #716B54",
"U  c #4B4063",
"Y  c #50436A",
"T  c #5F4764",
"R  c #574571",
"E  c #5F457C",
"W  c #5D4879",
"Q  c #5A4775",
"!  c #674C76",
"~  c #715172",
"^  c #417168",
"/  c #407965",
"(  c #54736E",
")  c #7D6760",
"_  c #845C7F",
"`  c #836D62",
"'  c #8C7565",
"]  c #9B7968",
"[  c #9C6F50",
"{  c #308D48",
"}  c #3D8047",
"|  c #38984C",
" . c #368653",
".. c #3AA257",
"X. c #39AA54",
"o. c #38B251",
"O. c #36A94F",
"+. c #3F8162",
"@. c #52884D",
"#. c #64814C",
"$. c #698449",
"%. c #6E8A4A",
"&. c #718844",
"*. c #77894B",
"=. c #7A9347",
"-. c #768351",
";. c #6E9458",
":. c #4CBA54",
">. c #7EAA5F",
",. c #79A558",
"<. c #7CB558",
"1. c #53886A",
"2. c #6F976E",
"3. c #6F9B6D",
"4. c #7A9C6B",
"5. c #749B6A",
"6. c #679175",
"7. c #6B9670",
"8. c #759770",
"9. c #7C866F",
"0. c #75A366",
"q. c #7CA762",
"w. c #79A863",
"e. c #73A069",
"r. c #79C85D",
"t. c #67C45A",
"y. c #84894A",
"u. c #8A884D",
"i. c #86964A",
"p. c #989655",
"a. c #858B54",
"s. c #AD8F5F",
"d. c #88A34A",
"f. c #94AC4D",
"g. c #9BB94E",
"h. c #96B34D",
"j. c #8EAF57",
"k. c #82A65E",
"l. c #83AD5C",
"z. c #89AD5A",
"x. c #84A355",
"c. c #93AE5A",
"v. c #8EB355",
"b. c #8AB058",
"n. c #95B552",
"m. c #9DB453",
"M. c #9CB15D",
"N. c #90B05A",
"B. c #A6AB53",
"V. c #A4B653",
"C. c #A5B951",
"Z. c #ADB954",
"A. c #A6B35D",
"S. c #ADB55D",
"D. c #AAB052",
"F. c #B5B957",
"G. c #B2B55D",
"H. c #B7B958",
"J. c #BFBA5B",
"K. c #B9A758",
"L. c #849E6C",
"P. c #819D64",
"I. c #958D69",
"U. c #A38A6A",
"Y. c #B4926E",
"T. c #81A561",
"R. c #83AB61",
"E. c #8AAC61",
"W. c #8EA369",
"Q. c #96A766",
"!. c #90AE60",
"~. c #93A568",
"^. c #9BAB62",
"/. c #A1AC63",
"(. c #A9AF61",
"). c #B4A96C",
"_. c #CA9D5B",
"`. c #D9945F",
"'. c #DA9C5D",
"]. c #CD8D5C",
"[. c #CBA85D",
"{. c #E3AA58",
"}. c #E0A65B",
"|. c #E6B356",
" X c #C79660",
".X c #CA8C61",
"XX c #C1A46F",
"oX c #89CC5F",
"OX c #89D160",
"+X c #95D562",
"@X c #F1CC4E",
"#X c #F4D24D",
"$X c #FFED44",
"%X c #FAE247",
"&X c #FFEF56",
"*X c #FFF275",
"=X c #FCED6F",
"-X c #6A4E87",
";X c #694D86",
":X c #775396",
">X c #7D5797",
",X c #6F5487",
"<X c #835B97",
"1X c #895E96",
"2X c #825E82",
"3X c #916398",
"4X c #9C6A99",
"5X c #A8719A",
"6X c #A46E9A",
"7X c #B6AA87",
"8X c #D6B684",
"9X c #DFC692",
"0X c #F7E98F",
"qX c #EBDAA6",
"wX c #EFE1AB",
"eX c #FFF6A6",
"rX c #FBF2B4",
"tX c #E5C886",
"yX c #FFFBD3",
"uX c white",
/* pixels */
"g.Z.L.6.3.T.6.w.w.l.w.w.w.l.w.b.g.b.b.g.g.g.j.T.j.N.E.g.Z.W.6.q.3.6.>.>.>.>.w.w.b.w.b.g.b.b.g.g.g.N.T.v.N.b.g.M.4.7.w.e.6.w.w.>.",
"H.J.J.(.6.8.J.4.M.w.l.w.b.>.w.g.g.g.g.g.g.z.4.~.6.4.8.H.J.J.(.6.0.[.4.g.>.>.w.b.w.w.n.g.g.g.g.g.T.4.Q.6.0.3.F.[.J.(.6.4.[.e.M.w.",
"[.G.!.G.G.(.C.J.J.G.S.g.g.v.w.q.E.N.m.A.~.(.J.S.G.J.[.J.G.N.G./.J.Z.[.[.G.V.g.g.b.w.R.E.!.M.A.Q.S.J.S.G.J.[.J.A.!.G./.J.C.J.J.S.",
"<.w.w.w.w.b.g.g.g.C.C.g.g.n.Z.Z.Z.Z.Z.g.g.C.m.b.w.E.<.w.w.w.w.q.b.oXoXg.C.C.g.g.b.Z.Z.Z.Z.Z.g.g.C.m.b.q.E.R.w.w.w.w.>.b.g.C.oXZ.",
">.w.w.w.w.w.w.l.l.w.w.g.g.g.g.g.g.g.C.Z.C.g.g.g.g.g.v.R.w.w.w.w.w.w.l.l.w.w.g.g.g.g.g.g.g.C.Z.g.g.g.g.g.g.b.>.w.w.w.w.w.>.l.l.w.",
"<.b.g.R.w.q.b.n.v.G.F.C.g.g.g.g.C.C.H.F.H.F.C.g.v.v.l.l.b.g.l.w.R.b.n.v.G.F.C.g.g.g.g.C.Z.H.H.H.G.C.n.v.v.l.b.v.g.l.w.l.b.n.v.H.",
"g.g.g.g.g.g.F.J.J.S.A.F.Z.C.g.g.g.g.C.g.g.Z.Z.g.g.g.g.g.g.g.g.g.g.F.J.J.S.A.F.Z.g.g.g.g.g.C.g.C.Z.Z.g.g.g.g.g.g.g.g.g.g.F.[.J.A.",
"g.g.g.g.v.b.q.v.q.w.w.!.!.!.!.w.>.l.b.N.v.v.n.g.g.g.g.g.g.g.g.v.l.q.v.>.w.w.!.!.!.j.q.>.l.b.n.N.v.g.g.g.g.g.g.g.g.g.v.w.<.v.q.w.",
"g.g.g.g.g.g.g.g.oXC.>.<.b.>.w.w.x.>.b.z.z.g.g.g.g.g.g.g.g.g.g.g.g.g.g.g.g.>.l.b.w.w.w.4.P.p.b.c.V.g.g.g.g.g.g.g.g.g.+Xg.g.g.g.h.",
"6.6.n.e.6.2.g.+X[.H.b.g.g.h.g.v.g.oXg.g.g.g.g.g.g.g.4.6.6.v.e.6.4.g.g.J.H.l.g.g.n.g.s.s.s.] m.D._.K.K.m.g.e.6.3.g.e.6.3.g.D.[.Z.",
"J./.0.Q.[.F.M.F.J.J.F.g.g.g.C.F.F.J.[.oXg.,.4.k.5.2.Q.J.A.5.M.J.G.^.H.J.J.H.g.g.B.s.s.]. X] p.h.].`.`. XW.Q.J.Q.8.!.J.S.M.F.H.J.",
"J.J.J.H.[.H.J.J.J.J.J.J.g.C.Z.Z.Z.C.h.6.5.Q.(.6.(.A.~.J.J.J.H.[.J.J.J.J.J.J.J.n.] ] ] U.s.p.9.2._.`.`.`.`.Q.J.J.[.J.J.J.J.J.J.J.",
"J.M.A.[.H.g.C.[.E.E.[.J.[.Z.g.g.g.Z.5.S.(.S.J.J.[.[.J.J.M.A.[.Z.g.C.H.E.E.H.[.G.] B.g.g.Z.0.C.A.[.{.$X'.`.[.J.M.S.[.Z.g.Z.J.l.M.",
"R.w.l.oXg.h.l.q.w.w.g.C.oXg.g.Z.F.J.[.H.F.g.C.J.oXf.b.l.w.q.oXC.g.R.>.>.w.V.C.m.h.C.Z.F.F.[.[.Z._.{.$X%X}.`.q.w.<.g.g.g.l.>.w.l.",
"w.w.>.w.>.>.>.b.v.l.<.h.g.g.Z.Z.g.g.Z.g.g.g.g.C.j.>.w.w.w.w.;.C C 3.b.n.l.q.n.g.g.F.D.g.oXZ.C.K.`.`.#X$X{.'.w.w.w.w.l.w.w.b.n.q.",
"l.b.b.>.>.l.b.f.C.oXg.g.g.g.h.j.n.g.g.g.g.h.v.l.q.j.oXl.b.%.2 &   %.b.g.g.g.g.g.g.h.b.h.D._._.`.`.|.|.%X}.V l.b.b.w.w.b.b.v.g.g.",
"g.g.g.g.g.g.g.g.g.g.g.R.w.b.w.w.z.g.g.g.g.C.F.oXC.Z.oXd.6   y _   =.g.g.g.g.l.q.z.w.w.c._.`.`.`.}.%X@X`.`.> g.g.g.g.g.g.g.g.g.g.",
"v.n.b.l.w.l.g.b.n.g.b.w.w.w.q.q.w.w.b.z.F.[.J.[.J.[.y.*   y <X5X  G b.n.g.b.w.w.q.w.q._.`.`.'.{.$X&X$X`.].: n.j.z.l.w.b.g.b.n.g.",
"l.l.w.w.w.w.w.w.0.3.3.l.l.l.q.5.w.>.v.g.C.F.J.H.C.;.    7 >X<X5Xw = e.0.3.3.j.E.l.q.s.`.{.@X#X$X*XrX@X`.[ X l.>.w.w.w.w.w.w.0.3.",
"l.w.w.w.w.w.0.6.7.6.6.6.6.0.4.D     H J.J.J.J.Z.=.  X 0 1X5X<X3X~ . D 7.6.6.1.( T.n `.|.$X$X&X&X0X=X}.`.> =.l.w.w.w.w.w.e.6.2.6.",
"g.v.b.w.w.w.6.W.J.[.3.A.J./.J.F C #.  G g.Z.y.< +   # t ;X5X3X>X5X~   [.F.d * 4 ~.H `.#X$X=XyXeX$X$X'.[ : f.g.v.z.w.>.,.6.L.J.S.",
"g.g.g.A.m.^.W.J.J.J.G.J.J.J.J.p., <.2   &.6   . r i   e r 2X4X:X4X2X  2 - 5 2 2 [.X {.$X*X*XyX$X#X}.`.> =.g.g.g.g.A.V.D.~.J.J.[.",
"g.g.g.C.g.Z.Z.J.C.g.H.Z.g.F.Z.Z.  @.<.  *   ; w E :Xa 0 7 U ,X:X1X~   o @.oXZ < H.5 {.&XrXyX0X$X'.].v 6 h.g.g.g.g.C.g.Z.C.[.C.oX",
"g.g.g.g.g.g.g.g.g.g.C.g.g.g.g.g.  | OX      t t t -X:X-Xi R Q :X:X7 3 { r.+XZ G C.V {.=XuXyX$X#X'.V . M.m.m.g.g.g.g.g.g.oXC.g.C.",
"l.w.b.g.Z.J.C.oXC.g.g.b.g.g.g.g.* { O   # 8   X e t U -X:X:XR ;Xg s o.t.+X<.. g.g.5 }.0XeXeX$X@Xv X ;.w.w.w.l.>.n.g.Z.J.C.oXC.g.",
"w.w.T.M.J.J.[.S.>.l.l.>.l.g.g.v.6 o   e Y :X;Xp   8 t U ;X:X:Xp l +.o.t.+Xd   z.g.  B qXwX0X0XtX  Z >.b.z.w.w.>.E.M.J.[.J.H.>.z.",
"n.n.v.v.n.C.v.v.v.v.g.v.l.g.N.w.C . r g t R -X:X:X-XW W Q ;X;XO ^ ..o.+XZ   %.b.h.  8XqXwXqXXXU.  %.h.g.g.b.g.g.v.j.n.V.v.v.v.v.",
"g.Z.W.6.3.T.6.w.>.>.w.>.w.l.w.b.F # t i t t U W :X:X:X:X:X:X;Xl ^ ..o.+X2   w.w.l.  8X9XwXwX7X%   %.k.j.j.z.oXM.4.6.T.5.6.>.q.>.",
"F.J.J.(.6.8.J.4.M.w.l.w.b.>.q.g.  X t t t t t t t Y :X:X:X:X;Xf z X.o.Z     1 b.q.  qXL c 8X9XU.  P W.6.e.8.J.[.[.(.6.4.J.4.M.w.",
"[.G.!.G.G.A.Z.J.J.S.Z.g.g.v.,.C   . # 9 # # X e r t Y R -X:Xe q l +.o.C X w X =.z.. Y.I.7 N Y.).  p.A.G.J.J.J.A.!.G./.H.C.H.J.S.",
"<.w.w.w.w.b.g.g.g.C.C.g.g.v.6 . , h h h h o   X 9 7 r U W :Xi   ^ / X.  p 5Xw 1 b.2   m x   % x . =.b.w.E.R.w.w.w.w.q.b.g.g.g.C.",
"w.w.<.w.w.w.w.w.>.R.E.g.g.H X j t.+X:.o.o.o.j O q     0 R :X:XR U ( 1.u ~ 5XT 1 g.g.  + % @ . . G g.g.g.g.R.<.>.l.w.w.w.w.l.T.E.",
"b.n.g.b.q.l.n.C.oXJ.[.C.H   @.OX+XOXo.o.o.o.o...^ q   . 0 :X:X:X:X>X4X5X5X5XR 2 g.g.  b B N @ 5 J.C.n.v.j.j.b.g.g.z.>.b.v.C.g.[.",
"g.g.g.g.g.g.H.J.[.Z.A.6   @.OX+Xt.o.o.o.o.o.o...^ ^ s s $ a :X:X>X3X3X3X3X6XT 2 g.g.  K ] N % 6 Z.Z.g.g.g.g.g.g.g.g.g.g.F.J.J.C.",
"b.g.g.g.v.l.q.v.l.>.Z O { o.:.:.{ j , , s { ..z ^ l f O o 8 :X:X:X:X:X>X1X6Xt < !.!.  K ] N d x.N.n.g.g.g.g.g.C.g.g.v.>.l.f.>.w.",
"g.g.g.g.g.g.g.g.g.g.  h o.O.h h X 1       X f ^ ^ f s X   8 :X:X:X:X:X>X1X~ . < w.q.  K ` N c v.g.g.g.g.g.g.g.oXg.g.g.g.g.g.oXn.",
"6.6.N.5.3.3.g.g.J.F.  j 3 . o : n.=.  g ^ q f ^ ^ ^ l     0 :X:X:X:X-X! 8 #   g.h.d.  B K b < g.g.g.g.g.g.5.6.3.g.5.6.e.g.V.J.Z.",
"J./.4.~.J.F.M.F.J.J.      6 &.Z.Z.p.  z ^ ^ ^ ^ ^ ^ l X + t Y -XW W p 7 0 t   g.C.2   : w ; < n.4.0.E.0.2.Q.J.Q.2.~.J.F.M.H.J.J.",
"J.J.J.J.[.J.[.J.J.J.J.J.g.C.Z.C.Z.i.  l ^ ^ ^ ^ z l   9 t W :X:X:X:X:X:X:XQ   g.i.j {   . 2 o 2 S.(.6.A.(.~.[.J.[.J.[.H.J.[.J.J.",
"G.E.M.F.F.g.oXS.R.l.J.J.J.C.g.g.V.B.- X l ^ ^ ^ l X X r R :X:X:X:X:X:X:X:X:X  H.< o.O 3 ,.+X2   F.H.[.F.F.H.Z.!.M.Z.D.g.+XA.E.c.",
"w.w.>.g.g.g.w.w.w.w.n.g.g.g.g.J.Z.F   7 q ^ ^ q $ e t t Y ;X:X:X:X:X:X  # i   g.< {   ,.+XOX|   g.g.J.g.l.w.w.w.<.+Xg.n.w.w.w.>.",
"w.w.w.w.>.>.w.b.n.<.q.n.g.g.F.C.d.* 7 t r f l e t t t t t t -X:X:X:X:Xi 9     : + o - r.r.:.{   g.g.C.b.w.w.w.w.q.,.l.q.w.z.n.>.",
"z.b.b.>.w.l.b.b.g.g.g.g.g.g.d.C 2 X r t t 0 e t t t t t t t W :X:X:X:X:X-Xi   .     , o.o.o.{   n.v.l.w.l.g.l.b.j.>.q.z.b.b.g.g.",
"g.g.g.g.g.g.g.g.g.g.g.>.w.x.- o o + e t e e e t t t t t t t t E E E E e       = 5 o O O.o.o., 6 F.F.g.C.Z.C.g.g.g.g.g.g.g.g.g.g.",
"v.n.b.l.w.l.g.b.v.g.v.w.w.- o ..h   . # .     X # # # # # X   . .     m U.K m = >.C   O , , < B.[.J.J.J.J.M.n.v.b.>.w.b.g.b.v.g.",
"l.l.w.w.w.w.w.w.0.3.3.l.l.  { o.o.d N K c ] ]   u c u b N ` 8XY.Y.8XU.' B b x = <.C X X     =.g.H.J.J.C.j.v.l.T.w.w.w.w.w.w.w.3.",
"l.w.w.w.w.w.0.6.6.6.6.6.6.  { o.o., % @ ; K `   K ` K L % 7 x : w x w @       q q.n 7 b w   p.[.J.J.C.oXg.g.l.w.w.w.w.w.e.6.2.6.",
"g.n.v.w.w.0.6.Q.J.J.W.G.J.  h o...O       w %         + 7 7 7 7 7 7 7 7 r t e * p.F ; ' w   =.g.C.[.F.H.g.g.g.n.v.w.w.e.6.Q.J.G.",
"g.g.g.F.Z.J.(.J.J.J.J.J.J.*.@ , - X   c b   x B % X e r t t t t U Y Y W -X-X-X$ : B.: ; X 5 G.C.+Xg.Z.g.C.g.g.g.g.H.H.J.(.J.[.J.",
"g.g.g.C.g.C.Z.J.C.g.J.Z.g.F.G F 2   x N N   c N c . t t t t t t W :X:X>X:Xa i e   Z.f.F F J.J.C.F.F.C.g.g.n.g.g.C.C.g.C.Z.J.Z.oX",
"g.g.g.g.g.g.g.C.g.g.C.g.g.g.g.C.&.> ] x       b ' b .   $ e e e $           1 < : g.C.F.H.C.H.F.F.H.C.g.m.m.g.oXg.g.g.g.g.C.g.g.",
"l.w.b.g.Z.J.C.g.g.g.n.b.g.g.g.g.g.2 w       1   ; + @ d       .   <     * *.z.g.g.g.g.g.g.g.g.g.g.n.,.x.q.>.z.w.n.g.F.J.C.g.g.g.",
"w.w.R.M.[.J.J.G.w.l.l.q.l.g.g.n.=.d.<   @ Z A A 5 2 n A A A -.u.u.u.5   * #.%.,.d.g.n.n.g.g.g.g.z.>.>.b.b.w.w.w.z.M.J.[.[.Z.>.<.",
"n.g.v.N.v.C.v.n.v.v.g.n.l.n.x.#.A #.1   * $.$.&.&.%.$.&.&.$.G $.*.&.$.  . Z #.#.&.&.0.w.l.w.b.b.v.v.n.g.g.v.n.n.N.h.oXC.n.v.v.v.",
"g.Z.W.6.e.q.6.w.w.l.q.w.w.k.@.#.&.Z 2   * &.#.P $.$.P &.*.P D P S D A *   1 C A #.A $.h.b.b.g.g.g.j.T.j.j.z.g.V.4.6.T.5.6.w.w.>.",
"J.J.H.S.3.W.J.W.A.R.b.l.b.q.#.#.%.6 = * 2 P P J S P P u.u.u.-.S P u.P m * * n $.A @.$.x.n.g.g.z.k.Q./.L.~.W.H.[.[.G.7.~.J.~.A.R.",
"[.S.w.S.J.A.g.F.J.J.F.g.g.v.;.#.J -.-.-.J u.u.-.*.y.u.u.*.A -.y.y.&.u.u.u.y.&.&.#.@.4.M.M.M.A.G.J.J.A.S.J.J.J.M.w.S.G.F.g.J.J.J.",
"w.w.w.w.w.b.g.g.g.C.C.C.g.h.Z.Z.i.i.*.&.*.*.&.#.A #.P A A A A A #.&.&.$.*.*.&.=.%.F.Z.Z.Z.Z.g.g.C.m.b.w.E.T.w.q.w.w.q.b.g.g.g.C.",
"<.w.l.w.w.w.<.>.q.l.E.oXg.g.g.g.g.g.m.D.B.f.&.&.&.&.#.A A P A A A A #.,.,.>.g.g.g.g.g.g.g.C.F.C.g.g.g.g.g.l.>.>.<.w.w.w.>.b.q.E.",
"b.v.g.b.w.l.n.C.g.[.J.C.g.g.g.g.C.F.J.Z.G.J.C.g.z.j.b.z.n.g.z.q.b.n.C.g.J.[.C.g.g.g.g.C.H.[.C.J.[.C.g.b.b.b.z.n.g.b.w.b.n.C.oX[.",
"oXg.g.g.g.g.F.[.J.S.S.F.Z.g.g.g.g.g.C.g.g.Z.Z.g.g.g.g.g.g.g.g.g.g.F.J.[.S.A.H.C.g.g.g.g.g.g.g.C.C.Z.g.g.g.g.g.g.g.g.g.g.F.J.J.A.",
"C.g.g.g.v.z.>.z.q.w.w.!.!.!.!.w.T.l.b.v.v.n.n.g.g.g.g.g.g.g.g.n.w.<.v.q.w.w.!.N.!.E.R.q.l.z.v.v.oXg.g.g.g.g.g.g.g.g.v.>.>.b.>.w.",
"g.g.g.g.C.g.g.oXoXC.q.l.v.q.q.w.q.w.l.b.b.g.g.g.g.g.g.g.g.g.g.g.oXC.g.g.g.q.l.b.w.w.w.q.w.l.z.n.g.g.g.g.g.g.g.g.g.g.g.g.g.g.g.g.",
"L.6.x.5.P.x.f.C.J.[.N.n.g.g.g.v.g.C.C.g.g.g.g.g.g.n.4.L.6.k.2.L.4.h.C.J.J.j.g.g.g.g.n.g.C.C.g.g.g.g.g.g.n.4.L.2.z.2.L.4.n.C.J.Z."
};
