/* XPM */
static char *_aa62cfc6bd34bccd3b9cae4db9f8e356gg7lL8ekrVTjwKq[] = {
/* columns rows colors chars-per-pixel */
"64 64 226 2 ",
"   c #161C2E",
".  c #191E31",
"X  c #1C2334",
"o  c #1B2E32",
"O  c #1D3936",
"+  c #1C232F",
"@  c #222534",
"#  c #242A34",
"$  c #212439",
"%  c #27283F",
"&  c #2C2C38",
"*  c #28273C",
"=  c #273134",
"-  c #2B3434",
";  c #28383A",
":  c #35333D",
">  c #353A38",
",  c #473A3A",
"<  c #1F4237",
"1  c #374336",
"2  c #394437",
"3  c #35423A",
"4  c #39493B",
"5  c #254B3A",
"6  c #404539",
"7  c #4E573C",
"8  c #586A3E",
"9  c #52643D",
"0  c #2D2D45",
"q  c #2E2A48",
"w  c #282642",
"e  c #322E4C",
"r  c #263A44",
"t  c #393447",
"y  c #393551",
"u  c #3D3A55",
"i  c #433D5B",
"p  c #443659",
"a  c #433E43",
"s  c #473862",
"d  c #4D3B69",
"f  c #533E6D",
"g  c #2B464A",
"h  c #355757",
"j  c #364C49",
"k  c #276740",
"l  c #2B7844",
"z  c #396A56",
"x  c #3C6661",
"c  c #3F7D64",
"v  c #464144",
"b  c #494548",
"n  c #5A4B49",
"m  c #475943",
"M  c #5E554E",
"N  c #574B56",
"B  c #685757",
"V  c #695956",
"C  c #745646",
"Z  c #496345",
"A  c #566743",
"S  c #5B7A4A",
"D  c #5B7C52",
"F  c #567358",
"G  c #516D5B",
"H  c #686A44",
"J  c #667A43",
"K  c #7A7E48",
"L  c #77635C",
"P  c #7A695E",
"I  c #637E51",
"U  c #687856",
"Y  c #716B54",
"T  c #4B4063",
"R  c #50436A",
"E  c #5F4764",
"W  c #574571",
"Q  c #5F457C",
"!  c #5D4879",
"~  c #5A4775",
"^  c #674C76",
"/  c #715172",
"(  c #417168",
")  c #407965",
"_  c #547568",
"`  c #7D6760",
"'  c #845C7F",
"]  c #836D62",
"[  c #8C7565",
"{  c #977B6B",
"}  c #9E7665",
"|  c #9C6F50",
" . c #308D48",
".. c #3D8047",
"X. c #38984C",
"o. c #368653",
"O. c #3AA257",
"+. c #39AA54",
"@. c #38B251",
"#. c #36A94F",
"$. c #3F8162",
"%. c #4F8A4B",
"&. c #65814B",
"*. c #6A8449",
"=. c #6F8A4B",
"-. c #718844",
";. c #7A884B",
":. c #7B9346",
">. c #618655",
",. c #698651",
"<. c #768351",
"1. c #6D965B",
"2. c #749B59",
"3. c #4CBA54",
"4. c #7EAA5F",
"5. c #79A458",
"6. c #7CB558",
"7. c #6F976E",
"8. c #6F9B6D",
"9. c #7A9C6B",
"0. c #749B6B",
"q. c #679175",
"w. c #6B9670",
"e. c #749770",
"r. c #6F8F6C",
"t. c #75A367",
"y. c #7BA762",
"u. c #79A863",
"i. c #73A069",
"p. c #498E67",
"a. c #79C85D",
"s. c #67C45A",
"d. c #8A884D",
"f. c #83884B",
"g. c #808450",
"h. c #8D974F",
"j. c #AD975C",
"k. c #89A44A",
"l. c #93AC4C",
"z. c #9BB94E",
"x. c #96B34D",
"c. c #8EAF57",
"v. c #83A65E",
"b. c #83AD5C",
"n. c #89AD5B",
"m. c #88A257",
"M. c #95AC58",
"N. c #8EB355",
"B. c #8AB058",
"V. c #95B552",
"C. c #9CB455",
"Z. c #9CB15D",
"A. c #90B05A",
"S. c #A7A956",
"D. c #B7A45A",
"F. c #A4B653",
"G. c #A5B951",
"H. c #ADB954",
"J. c #A6B35D",
"K. c #ADB55D",
"L. c #AAB052",
"P. c #B4B956",
"I. c #B2B55D",
"U. c #B7B958",
"Y. c #BFBA5B",
"T. c #BDB65C",
"R. c #849E6C",
"E. c #889D60",
"W. c #8E836A",
"Q. c #A48A69",
"!. c #B49170",
"~. c #82A561",
"^. c #83AB61",
"/. c #8AAC61",
"(. c #8EA369",
"). c #95A766",
"_. c #90AE60",
"`. c #93A568",
"'. c #9BAB61",
"]. c #A1AC63",
"[. c #A9AF61",
"{. c #ABB060",
"}. c #BDA278",
"|. c #C99C5B",
" X c #D9945F",
".X c #D99B5D",
"XX c #CD8D5C",
"oX c #C5AC5B",
"OX c #E3AA58",
"+X c #E0A65B",
"@X c #E6B356",
"#X c #CA8C61",
"$X c #C0A77D",
"%X c #89CC5F",
"&X c #89D160",
"*X c #95D562",
"=X c #F1CC4E",
"-X c #F4D24D",
";X c #FFED44",
":X c #FAE247",
">X c #FFEF56",
",X c #FFF275",
"<X c #FCED6F",
"1X c #6A4E87",
"2X c #694D86",
"3X c #775396",
"4X c #7D5797",
"5X c #6F5487",
"6X c #835B97",
"7X c #895E96",
"8X c #825E82",
"9X c #916398",
"0X c #9C6A99",
"qX c #A8719A",
"wX c #A46E9A",
"eX c #B6AA87",
"rX c #D6B684",
"tX c #DFC692",
"yX c #F7E98F",
"uX c #EBDAA6",
"iX c #EFE1AB",
"pX c #FFF6A6",
"aX c #FBF2B4",
"sX c #E5C886",
"dX c #FFFBD3",
"fX c white",
/* pixels */
"z.H.R.q.0.~.q.y.u.b.u.u.u.b.u.B.z.B.B.z.z.z.c.~.c.c.n.z.H.R.q.~.0.q.y.u.b.u.u.u.B.u.B.z.B.B.z.z.z.c.~.c.c.n.z.J.9.q.~.0.q.y.u.4.",
"U.Y.Y.[.q.e.Y.9.Z.u.b.u.B.4.u.V.z.z.z.z.z.n.9.`.q.9.e.U.Y.Y.[.q.9.Y.9.Z.u.b.u.B.u.u.V.z.z.z.z.z.~.9.`.q.9.e.U.Y.Y.[.q.9.Y.9.Z.u.",
"Y.I._.I.I.J.G.Y.Y.I.F.z.z.N.u.^._._.C.J.`.{.Y.K.I.Y.Y.Y.I._.I.].Y.G.Y.Y.I.F.z.z.B.u.^._._.C.J.).I.Y.K.I.Y.Y.Y.J._.I.].Y.G.Y.Y.K.",
"u.u.u.u.u.B.z.z.z.G.G.z.z.N.H.H.H.H.H.z.z.G.C.B.u./.^.u.u.u.u.4.B.z.z.z.G.G.z.z.B.H.H.H.H.H.z.z.G.C.B.u./.^.u.u.u.u.4.B.z.z.z.G.",
"b.u.u.u.u.u.u.b.b.u.u.z.z.z.z.z.z.z.G.H.G.z.z.z.z.z.B.b.u.u.u.u.u.u.b.b.u.u.z.z.z.z.z.z.z.G.H.G.z.z.z.z.z.B.b.u.u.u.u.u.u.b.b.u.",
"b.B.z.b.u.b.B.C.N.I.U.G.z.z.z.z.G.H.Y.P.Y.P.G.V.N.N.b.b.B.z.b.u.b.B.C.N.I.U.G.z.z.z.z.G.H.Y.P.U.P.G.V.N.N.b.b.N.z.b.u.b.B.C.N.U.",
"z.z.z.z.z.z.U.Y.Y.K.J.U.H.G.z.z.z.z.G.z.z.H.H.z.z.z.z.z.z.z.z.z.z.U.Y.Y.K.J.U.H.z.z.z.z.z.G.z.G.H.H.z.z.z.z.z.z.z.z.z.z.U.Y.Y.J.",
"z.z.z.z.N.b.4.B.4.u.u._._._._.^.4.b.n.N.N.N.V.z.z.z.z.z.z.z.z.N.4.4.B.4.u.u._._._._.^.4.b.n.N.N.N.V.z.z.z.z.z.z.z.z.N.4.4.B.4.u.",
"z.z.z.z.z.z.z.z.z.z.4.b.B.4.u.~.~.y.m.m.m.z.z.z.z.z.z.z.z.z.z.z.z.z.z.z.z.4.b.B.u.u.u.u.u.b.B.N.z.z.z.z.z.z.z.z.z.z.z.z.z.z.z.V.",
"q.q.V.0.q.7.z.G.Y.U.b.z.z.D.D.|.L.C.} !.j.j.z.z.z.z.9.q.q.V.0.q.0.z.G.Y.U.b.z.z.V.z.N.z.z.z.z.z.z.z.z.z.z.9.q.7.z.0.q.0.z.G.Y.H.",
"Y.].9.`.Y.I.'.U.Y.Y.U.L.|. X X.XU.D.} #X#X!.Q.E.9.7.).Y.].9.`.Y.I.'.U.Y.Y.U.V.z.G.G.P.P.Y.Y.z.V.9.9.v.9.7.).Y.).e.`.Y.I.'.U.Y.Y.",
"Y.Y.Y.Y.Y.Y.Y.Y.Y.Y.oX.X X X XoXH.j.h.W.W.} } { [.[.`.Y.Y.Y.Y.Y.Y.Y.Y.Y.Y.Y.Y.z.G.H.H.H.H.V.q.7.[.[.q.[.[.`.Y.Y.Y.Y.Y.Y.Y.Y.Y.Y.",
"Y.Z.J.Y.U.z.G.Y././.oX X.X;XOXD.z.H.9.[.[.I.D.Q.D.Y.oXY.Z.J.Y.H.z.G.Y././.Y.Y.Y.G.z.z.z.H.9.[.].Y.Y.Y.Y.Y.Y.Y.Z.K.Y.H.z.G.Y./.Z.",
"^.u.y.z.G.V.b.y.u.u. X+X:X;XOX.XU.Y.Y.Y.P.z.G.T.F.B.n.^.u.y.z.z.V.b.y.u.u.F.G.z.z.z.H.P.Y.Y.Y.H.z.G.Y.G.B.n.^.u.4.z.z.V.b.y.u.b.",
"u.u.u.u.b.4.u.B.V.b. XOX;X-X X XD.F.H.z.z.z.z.G.B.u.u.u.u.u.1.Z Z 1.B.V.b.4.V.z.z.H.G.z.z.H.z.z.z.z.G.B.u.u.u.u.u.u.b.u.u.B.V.4.",
"b.B.B.4.u.b.B.B.z.z.C +X-X@X@X X X|.|.F.z.V.N.b.u.b.z.b.B.B.>.  * 4 =.z.z.z.z.z.z.V.b.V.z.z.z.z.V.N.b.u.b.z.b.B.B.4.u.B.B.B.z.z.",
"z.z.z.z.z.z.z.z.z.z.,  X X=X:XOX X X X|.F.H.U.z.G.H.G.z.z.z.:.  ' p   8 k.z.b.4.B.u.u.B.z.z.z.z.U.U.z.G.H.G.z.z.z.z.z.z.z.z.z.z.",
"V.V.B.b.u.b.z.B.V.z.: XX X;X>X;XOX.X X X.XoXY.Y.Y.Y.Z.V.V.B.S   qX6Xp   - =.u.u.u.u.u.u.u.B.B.Y.Y.Y.Y.Y.Y.Z.V.N.B.b.u.B.z.B.V.z.",
"b.b.u.u.u.u.u.u.t.8.  |  X=XaX,X;X=X=XOX X|.Y.Y.F.A.N.b.b.u.> t qX6X3Xq     ,.b.b.y.i.u.4.N.z.G.Y.Y.Y.F.A.N.b.b.u.u.u.u.u.u.t.8.",
"b.u.u.u.u.u.t.q.w.q._ ,  XOX<XyX>X>X;X;X@X XH H.k.k.V.b.u.Z X / 9X6XqX7Xe .   _ ~.9.R.q.b.J     H Y.H.z.z.V.b.u.u.u.u.u.t.q.w.q.",
"z.V.B.u.u.u.q.R.oXoXr.> | .X:X;XpXdX<X;X-X XH H.2 = 9 z.V.  / qX4X9XqX^ i $   @ > K Y.`.U   &.Z H Y.H.H.z.z.z.N.B.u.u.u.q.R.Y.I.",
"z.z.z.J.C.].`.Y.oXoXI.h.,  X.X-X;XdX,X,X;XOX  P.2 4 Z = 1   8X0X3X0X8Xi y   s p X   H K   4 6.< :.G.P.G.G.z.z.z.z.J.Z.].`.Y.Y.Y.",
"z.z.z.G.z.G.H.Y.G.z.Y.F.8 n XX.X;X,XdXaX>XOXn G.1 S %X%.o   / 7X3X5XT 0 e f 3X^ y 0   -   6.%.  U.U.G.z.z.z.z.z.z.G.z.H.H.Y.G.G.",
"z.z.z.z.z.z.z.G.z.z.G.z.z.  C  X-X;XdXfX,XOXC G.J S *Xa. .5 q 3X3X! W s 1X3X1Xi i i       &XX.  P.P.G.C.C.C.z.z.z.z.z.z.z.G.z.z.",
"b.u.B.z.H.Y.G.z.z.z.V.B.z.k.X n =X;XpXpX,X+Xn 4.u.  6.*Xs.@.g i 2X~ 3X3X1XT i y X   q * X O  .= z.V.4.u.u.u.b.u.V.z.P.Y.G.z.z.z.",
"u.u.^.Z.Y.Y.Y.I.u.b.b.b.b.z.J   sXyXyXiXuXY   4.n.  4 *Xs.@.$.x f 3X3X2Xi i e   d Q 3XR u   o 8 B.u.4.B.B.u.u.u./.Z.Y.Y.Y.I.u.b.",
"V.z.N.N.N.G.N.N.N.N.V.N.b.V.=.  Q.$XuXiXuXrX  V.z.:.  S *X@.O.( ; Q 2X! ! ! 1X3X3X1XW i i u X A N.N.V.z.z.B.V.V.N.N.V.G.N.N.N.N.",
"z.H.R.q.0.~.q.y.u.b.u.u.u.b.>.  & eXiXiXtXrX  ~.c.c.  4 *X@.O.( x 1X3X3X3X3X3X3X~ T i i i i $ 8 z.c.~.c.c.n.z.J.9.q.~.0.q.y.u.4.",
"U.Y.Y.[.q.e.Y.9.Z.u.b.u.B.4.>.  Q.tXrXv P uX  `.q.>     S @.O.( h 2X3X3X3X3XR i i i i i i i $   ~.9.`.q.9.e.U.Y.Y.[.q.9.Y.9.Z.u.",
"Y.I._.I.I.J.G.Y.Y.I.F.z.z.N.>.  }.!.M & { !.  K.h.  t X Z @.$.( r y 3X1XW R i i y $ $ $ $ $ .   H I.K.I.Y.Y.Y.J._.I.].Y.G.Y.Y.K.",
"u.u.u.u.u.B.z.z.z.G.G.z.z.N.h.  v &   v M   1 B.> t qXd   +.) (   s 3X! T i 0 %     o k k k k <   A B.u./.^.u.u.u.u.4.B.z.z.z.G.",
"4.u.b.u.u.u.u.b.4.^./.z.z.z.z.J     # & #   z.z.2 E qX5Xt p._ h f 3X3XW e     ; O l @.@.@.3.*Xa.l X J z.z.b.4.y.b.u.u.u.u.b.4./.",
"B.V.z.B.u.b.V.G.z.Y.Y.G.z.z.z.z.7 # B B n   G.V.3 E qXqXqX0X6X3X3X3X3Xe .   r ( O.@.@.@.@.@.%X*X&X..  S B.B.B.V.z.B.u.B.V.G.z.Y.",
"z.z.z.z.z.z.U.Y.Y.K.J.U.H.G.z.z.8 & B { L   H.z.1 E wX9X9X9X9X6X3X3Xf ; g g ( ( O.@.@.@.@.@.3.s.*X*X%.  8 z.z.z.z.z.z.z.U.Y.Y.J.",
"B.z.z.z.N.b.4.B.4.u.u._._._._.^.2.j B { L   V.z.1 i wX7X4X3X3X3X3X3Xq X ; h x ( c O. .5 < < l  .3.3.@. .< J z.z.z.z.N.4.4.B.4.u.",
"z.z.z.z.z.z.z.z.z.z.4.b.B.4.u.u.u.b B [ L   z.z.1   ^ 9X6X3X3X3X3X3Xq   X g h ( ( h         3   k k X.@.k   z.z.z.z.z.z.z.z.z.V.",
"q.q.V.0.q.7.z.G.Y.U.b.z.z.V.z.N.z.1 n P V   k.z.z.  $ w Q 1X3X3X3X3Xe     h ( ( ( h g ( h   :.z.1 X   5 l   q.7.z.0.q.0.z.G.Y.H.",
"Y.].9.`.Y.I.'.U.Y.Y.U.V.z.z.G.P.P.6 : t :   > v.9.  i e 0 T ! ! 1XW i $ X x ( ( ( ( ( ( (   :.V.9.F Z       Y.).e.`.Y.I.'.U.Y.Y.",
"Y.Y.Y.Y.Y.Y.Y.Y.Y.Y.Y.Y.z.G.H.H.7 X 4      .l _ [.  ~ 3X3X3X3X3X3X3X~ i %   x ( ( ( ( ( x   _ 7.[.[.q.[.[.`.Y.Y.Y.Y.Y.Y.Y.Y.Y.Y.",
"I._.Z.P.P.z.G.K.^.^.Y.Y.Y.G.z.z.  4 *X5.> O @.6 Y.  3X3X3X3X3X3X3X3X3XW i X X ( ( ( ( x X - S.{.P.Y.Y.Y.P.Y.I._.Z.P.H.z.G.K.^.Z.",
"u.u.4.z.z.V.u.u.u.u.V.z.z.z.z.Y.  X.&X*X5.   .6 z.  s $   3X3X3X3X3X2XR i i y % r ( ( r 0   H G.z.z.Y.z.b.u.u.u.b.z.z.V.u.u.u.4.",
"u.u.u.u.b.4.u.B.V.b.4.V.z.z.H.G.   .3.a.a.; o X 3     w s 3X3X3X3X1Xi i i i i i y x h u i 0 - k.z.z.G.B.u.u.u.u.u.u.b.u.u.B.V.4.",
"b.B.B.4.u.b.B.B.z.z.z.z.z.z.V.b.   .@.@.@.<         s 1X3X3X3X3X3X! i i i i i i i y e i i u X 1 8 m.b.u.b.z.b.B.B.4.u.B.B.B.z.z.",
"z.z.z.z.z.z.z.z.z.z.z.b.u.B.u.u.A < @.@.#.O = 9 2       y Q ^ ^ Q i i i i i i i i y y y i y X o o > l.G.H.G.z.z.z.z.z.z.z.z.z.z.",
"V.V.B.b.u.b.z.B.V.z.B.u.u.u.u.u.1.3 < < O   H Y.6 M L Q.M           X $ $ $ $ $ $     . $     k X.O > Y.Y.Z.V.N.B.b.u.B.z.B.V.z.",
"b.b.u.u.u.u.u.u.t.8.8.b.b.b.y.i.u.>.    @ @ H Y.2 v n Y ] Q.rX!.!.rX] B n a b v   { { v L B j @.@. .  F.A.N.b.b.u.u.u.u.u.u.t.8.",
"b.u.u.u.u.u.t.q.w.q.q.q.q.9.9.R.q.,.  : n & H H.1       # : v t t v : & P L ] L   ] ` : # & < @.@. .  z.z.V.b.u.u.u.u.u.t.q.w.q.",
"z.V.N.u.u.t.q.).Y.Y.R.I.Y.{.Y.Y.].<.  t [ : H M.= y i u 0 0 0 0 0 0 0 0 X         & :       ; O.@.k   P.G.z.z.V.N.u.u.i.q.).Y.I.",
"z.z.z.U.H.Y.[.Y.Y.Y.Y.Y.Y.Y.Y.Y.Y.I.7 @ : > k.> w 1X1X1X! R R T i i i i y y $ & V v   M b   X ; < # K z.G.z.z.z.z.U.P.Y.[.Y.Y.Y.",
"z.z.z.G.z.G.H.Y.G.z.Y.H.z.P.G.H.Y.Y.Y.H H l.U.  y s f 3X3X3X3X! i i i i i i   b B b   M B v   2 H K G.z.z.z.z.z.z.G.z.H.H.Y.G.G.",
"z.z.z.z.z.z.z.G.z.z.G.z.z.z.z.G.P.P.G.P.P.P.P.2 1 1           % y y y %     n [ M       v { a K P.P.G.C.C.C.z.z.z.z.z.z.z.G.z.z.",
"b.u.B.z.H.Y.G.z.z.z.V.B.z.z.z.z.z.z.z.z.z.z.V.4.u.u.>.;     2           7 = # &   2       : 6 z.z.V.4.u.u.u.b.u.V.z.P.Y.G.z.z.z.",
"u.u.^.Z.Y.Y.Y.I.u.b.b.b.b.z.z.N.V.z.z.z.z.N.u.1.2.=.D =   m <.d.d.d.g.D D m 4 m -.-.J #   > k.k.B.u.4.B.B.u.u.u./.Z.Y.Y.Y.I.u.b.",
"V.z.N.N.N.G.N.N.N.N.V.N.b.V.N.u.u.b.y.B.B.c.=.-.-.-.A +   *.*.*.;.*.*.*.*.-.*.&.-.*.D -   4 &.&.=.m.V.z.z.B.V.V.N.N.V.G.N.N.N.N.",
"z.H.R.q.0.~.q.y.u.b.u.u.u.b.u.B.z.B.B.z.x.-.&.D &.A 1   - U G D F G D D D D D D &.D &.-   4 J -.-.=.5.c.c.n.z.J.9.q.~.0.q.y.u.4.",
"Y.Y.Y.I.e.R.Y.`.J.^.n.b.N.b.u.B.N.N.z.z.m.I U K U m - - A d.g.G U d.U <.I &.&.*.D D &.4 = - J I I U '.R.`.(.Y.Y.Y.I.e.`.Y.`.J.^.",
"Y.K.u.K.Y.K.z.Y.Y.Y.P.z.z.N.u.^.Z.Z.Z.[.[.S.d.<.;.d.d.d.;.D ;.g.f.-.f.d.d.f.-.-.&.D I <.<.<.<.g.d.S.J.K.Y.Y.Y.Z.u.K.I.U.z.Y.Y.Y.",
"u.u.u.u.u.B.z.z.z.G.G.z.z.N.H.H.H.H.H.z.z.G.C.=.>.,.I D D D D D &.-.-.-.;.;.-.-.&.;.;.;.;.f.:.:.G.C.B.u./.^.u.u.u.u.4.B.z.z.z.G.",
"4.u.b.u.u.u.u.b.4.^./.z.z.z.z.z.z.z.G.P.H.z.z.z.z.x.5.2.2.&.D D D D D D I I -.-.-.-.l.l.l.C.P.G.z.z.z.z.z.b.4.y.b.u.u.u.u.b.4./.",
"B.V.z.B.u.b.V.G.z.Y.Y.G.z.z.z.z.G.U.Y.H.U.Y.G.V.B.B.B.B.V.z.B.u.B.V.G.z.Y.Y.G.z.z.z.z.G.U.Y.H.Y.Y.G.V.B.B.B.B.V.z.B.u.B.V.G.z.Y.",
"z.z.z.z.z.z.U.Y.Y.K.J.U.H.G.z.z.z.z.G.z.z.H.H.z.z.z.z.z.z.z.z.z.z.U.Y.Y.K.J.U.H.z.z.z.z.z.G.z.G.H.H.z.z.z.z.z.z.z.z.z.z.U.Y.Y.J.",
"z.z.z.z.N.b.4.B.4.u.u._._._._.^.4.b.n.N.N.N.V.z.z.z.z.z.z.z.z.N.4.4.B.4.u.u._._._._.^.4.b.n.N.N.N.V.z.z.z.z.z.z.z.z.N.4.4.B.4.u.",
"z.z.z.z.z.z.z.z.z.z.4.b.B.4.u.u.u.u.b.B.B.z.z.z.z.z.z.z.z.z.z.z.z.z.z.z.z.4.b.B.u.u.u.u.u.b.B.N.z.z.z.z.z.z.z.z.z.z.z.z.z.z.z.V.",
"R.q.v.7.R.R.V.G.Y.Y.A.V.z.V.z.V.z.G.G.z.z.z.z.z.z.V.9.R.q.v.7.R.9.V.G.Y.Y.A.V.z.V.z.V.z.G.G.z.z.z.z.z.z.V.9.R.w.n.7.R.9.V.G.Y.P."
};
