/* XPM */
static char *result[] = {
/* columns rows colors chars-per-pixel */
"64 64 218 2 ",
"   c #161C2E",
".  c #191E31",
"X  c #1C2233",
"o  c #1A2F32",
"O  c #1C3835",
"+  c #242C34",
"@  c #22243A",
"#  c #26293D",
"$  c #2C2D39",
"%  c #242537",
"&  c #273133",
"*  c #2B3233",
"=  c #21323D",
"-  c #2E3E3B",
";  c #2F3835",
":  c #34373A",
">  c #1F4237",
",  c #33413A",
"<  c #394438",
"1  c #23543B",
"2  c #24473B",
"3  c #404739",
"4  c #49583B",
"5  c #545739",
"6  c #596B3E",
"7  c #5B663C",
"8  c #68663A",
"9  c #2D2D45",
"0  c #2C2946",
"q  c #32314A",
"w  c #3D3942",
"e  c #393551",
"r  c #3D3955",
"t  c #30334A",
"y  c #433D5B",
"u  c #4A3A58",
"i  c #433F4A",
"p  c #473862",
"a  c #4D3B63",
"s  c #533E6F",
"d  c #3B5142",
"f  c #314C4D",
"g  c #276740",
"h  c #2F614D",
"j  c #35714C",
"k  c #3C6661",
"l  c #4A4248",
"z  c #474343",
"x  c #54494C",
"c  c #5A544D",
"v  c #5F5251",
"b  c #4D4954",
"n  c #6B5A58",
"m  c #785847",
"M  c #4A6346",
"N  c #586643",
"B  c #58794C",
"V  c #5B7C52",
"C  c #696B44",
"Z  c #6A7E42",
"A  c #677745",
"S  c #7F7F4A",
"D  c #767E47",
"F  c #77685A",
"G  c #627D58",
"H  c #716245",
"J  c #4B4064",
"K  c #50436A",
"L  c #5F4764",
"P  c #574471",
"I  c #5F457B",
"U  c #5D4879",
"Y  c #5A4576",
"T  c #614A7B",
"R  c #745477",
"E  c #417168",
"W  c #407766",
"Q  c #81725E",
"!  c #845C7F",
"~  c #977B6B",
"^  c #887264",
"/  c #A87653",
"(  c #349D4C",
")  c #348C50",
"_  c #3AA755",
"`  c #38B251",
"'  c #36A94F",
"]  c #3F8162",
"[  c #4E8F4C",
"{  c #6D8545",
"}  c #66814B",
"|  c #6A8449",
" . c #6E8C4D",
".. c #728844",
"X. c #75884A",
"o. c #7B9246",
"O. c #78944B",
"+. c #668B56",
"@. c #6D955A",
"#. c #769B5A",
"$. c #6D8951",
"%. c #4AAC54",
"&. c #4CBA54",
"*. c #5BBF57",
"=. c #7EAA5F",
"-. c #6EB657",
";. c #6F976E",
":. c #6F9B6D",
">. c #7A9C6B",
",. c #749A6B",
"<. c #679175",
"1. c #6B9670",
"2. c #749770",
"3. c #61886F",
"4. c #75A367",
"5. c #7BA762",
"6. c #79A863",
"7. c #73A069",
"8. c #7ECC5E",
"9. c #67C45A",
"0. c #A89F3C",
"q. c #8B8539",
"w. c #C5B93F",
"e. c #828849",
"r. c #8A884D",
"t. c #85864D",
"y. c #86954A",
"u. c #959250",
"i. c #9F9C52",
"p. c #8C9956",
"a. c #AE9E55",
"s. c #8BA64B",
"d. c #92AE4C",
"f. c #9BB94E",
"g. c #96B14D",
"h. c #8EAF57",
"j. c #83A75F",
"k. c #83AD5C",
"l. c #89AD5A",
"z. c #85A354",
"x. c #98AA5A",
"c. c #8EB355",
"v. c #8AB058",
"b. c #85BE5C",
"n. c #95B552",
"m. c #9CB15E",
"M. c #9AB457",
"N. c #A6A956",
"B. c #B3A958",
"V. c #A5B754",
"C. c #A5B951",
"Z. c #ADB954",
"A. c #A6B35D",
"S. c #ADB55D",
"D. c #AAB052",
"F. c #B4B956",
"G. c #B2B55D",
"H. c #B7B958",
"J. c #BFBA5B",
"K. c #B5B457",
"L. c #AFBB4F",
"P. c #849E6C",
"I. c #97866B",
"U. c #A99E61",
"Y. c #B59C60",
"T. c #AB9374",
"R. c #82A561",
"E. c #82AB61",
"W. c #8AAC61",
"Q. c #8EA369",
"!. c #94A565",
"~. c #90AE60",
"^. c #93A568",
"/. c #9BAC61",
"(. c #A1AC63",
"). c #A9AF61",
"_. c #ABB060",
"`. c #BDA061",
"'. c #C99B5D",
"]. c #D9945F",
"[. c #D79B5D",
"{. c #C18559",
"}. c #C1A359",
"|. c #CBA65C",
" X c #CBB558",
".X c #E3AA58",
"XX c #E8B754",
"oX c #CD9660",
"OX c #95D562",
"+X c #B2C04D",
"@X c #F6D74B",
"#X c #F6DC4A",
"$X c #ECC152",
"%X c #F0D651",
"&X c #FBE347",
"*X c #FFED44",
"=X c #F9E65A",
"-X c #DFCF45",
";X c #6A4E87",
":X c #694D86",
">X c #71508F",
",X c #775396",
"<X c #7C5697",
"1X c #825B97",
"2X c #895E98",
"3X c #8A5F86",
"4X c #936498",
"5X c #9C6A99",
"6X c #9F6C93",
"7X c #96668D",
"8X c #A46E9A",
"9X c #A8719A",
"0X c #B2A582",
"qX c #D5B583",
"wX c #C8AF83",
"eX c #DCC08D",
"rX c #E9D6A1",
"tX c #EFE1AB",
/* pixels */
"f.Z.P.<.7.R.<.6.6.E.6.6.6.k.6.c.f.h.v.f.f.f.h.R.h.h.l.f.Z.Q.<.E.:.<.6.6.E.6.6.6.v.6.v.f.v.v.f.f.f.v.R.c.c.l.f.m.>.<.R.,.<.6.6.E.",
"H.J.J.).<.,.J.>.m.6.k.6.v.5.6.n.f.f.f.f.f.l.>.!.<.>.2.H.J.J.(.<.>. X7.m.6.k.6.v.6.6.f.f.f.f.f.f.E.>.^.<.>.2.H. X X).<.>.J.2.m.6.",
" XG.~.G._._.C.J.J.G.Z.f.f.c.6.E.W.~.M.A.^.).J.S.G.J. XJ.G.~.H.(.J.C.J.J.G.V.f.f.v.6.5.~.~.M.A.!.G.J._.G.J.J.J.A.W.G.(.J.C.J. X_.",
"6.6.6.6.6.v.f.f.f.V.C.f.f.c.Z.Z.Z.Z.Z.f.f.C.M.v.6.W.E.4.6.6.6.5.k.f.f.f.C.Z.f.f.v.Z.Z.Z.Z.Z.f.f.Z.f.v.6.W.E.6.6.6.6.=.b.f.f.f.C.",
"=.6.6.6.6.6.6.k.=.6.6.f.f.f.f.f.f.f.C.Z.C.f.f.f.f.f.v.k.6.6.6.6.6.6.k.E.6.6.f.f.f.f.f.f.f.C.Z.C.f.f.f.f.f.v.k.6.6.6.6.6.6.E.=.6.",
"k.v.f.k.6.=.v.n.c.G.F.C.f.f.f.f.f.Z.H.F.H.F.C.f.c.c.k.k.v.f.k.6.k.v.M.c.G.J.f.f.f.f.f.C.Z.F.F.F.G.C.n.c.c.v.k.c.f.k.6.E.v.n.n.F.",
"f.f.f.f.f.f.F.J.J.S.A.F.Z.C.f.f.f.f.C.f.f.Z.Z.f.f.f.f.f.f.f.f.f.f.F.J.J.S._.H.Z.f.f.f.f.f.f.f.C.Z.Z.f.f.f.f.f.f.f.f.f.f.F.J.J.A.",
"f.f.f.f.c.k.=.c.=.6.6.~.~.~.~.E.=.k.l.c.c.n.n.f.f.f.f.f.f.f.f.c.=.=.c.=.6.6.~.h.~.~.E.5.k.v.c.c.c.n.f.f.f.f.f.f.f.f.n.=.=.v.=.6.",
"f.f.f.f.f.f.f.f.f.f.E.k.v.6.6.6.6.6.k.v.v.f.f.f.f.f.f.f.f.f.f.f.f.f.f.f.f.5.k.v.6.6.6.6.6.k.v.c.f.f.f.f.f.f.f.f.f.f.f.f.f.f.f.M.",
"<.<.n.:.<.:.f.C.J.F.k.f.f.f.f.c.f.f.f.f.f.f.f.f.f.f.7.<.<.n.:.<.7.f.C.J.F.k.f.f.n.f.c.f.f.f.f.f.f.f.f.f.f.4.<.:.f.7.<.7.f.f.J.Z.",
"J.(.>.^.J.G.m.J.J.J.H.f.f.f.C.F.G.J.J.f.f.5.>.R.4.2.^. X(.,.Q.J.G./.F.J.J.F.f.f.C.C.F.F.J.J.f.n.4.>.R.>.1.^.J.^.2.^.J._.m.F.J.J.",
"J.J.J.J.J.J.J.J.J.J.J.J.f.C.Z.Z.Z.Z.c.<.,.!.A.<.).).^.J.J.J.J. XJ.J.J.J.J.J.J.f.C.Z.Z.Z.Z.c.<.:.).A.<.)._.^. XJ.J.J.J. XJ.J.J.J.",
"J.m._.J.F.f.C.J.W.W.J.J.J.Z.f.f.f.Z.4.).)._.J.J.J. XJ.J.A.A.J.Z.f.C.J.W.W.J.J.J.C.f.f.f.Z.4.).(. X|.@X*X*X'.|.)._. XZ.f.Z.J.W.m.",
"E.6.6.f.f.f.k.5.6.6.C.C.C.f.f.Z.F.J.J.J.F.C.f. XC.k.W.=.6.6.f.f.n.k.6.6.6.V.Z.f.f.f.Z.F.H. X XZ.V.'.].].].].].].B.f.f.f.E.6.6.k.",
"6.6.6.6.k.=.6.v.n.E.=.c.f.f.Z.C.f.f.Z.f.f.f.f.Z - - , 2 M @.5.k.6.6.v.n.E.5.n.f.f.Z.C.f.f.Z.f.+X+XB.}.'.].Y.!.!.Y.^.k.6.6.v.n.5.",
"k.v.c.5.6.k.v.v.f.f.f.f.f.f.f.k.f.f.f.f.f.n.n.M 0 Y U :Xq + - V c.v.v.f.f.f.f.f.f.f.k.}.|.'. X&X*X#X$X.X].oXN.N.v.6.6.v.v.c.f.f.",
"f.f.f.f.f.f.f.f.f.f.f.E.6.v.6.6.v.f.f.f.f.Z.F.6   p ,X,X1XL   * s.f.f.f.f.f.=.=.N.U.Y.].].]..X$X$X&X*X*X.X].].].}.f.f.f.f.f.f.f.",
"n.n.v.=.6.k.f.v.n.f.v.6.6.6.6.6.6.6.v.l.H.J.J.      U ,X,X1X7Xu + s.v.n.f.v.6.6.U.U.U.(.U.Y.B.|.[.].[.XX.X$X&XXX].'.6.v.f.v.n.f.",
"k.k.6.6.6.6.6.6.4.:.:.k.k.k.6.4.6.6.n.f.V.F.C X @   0 ,X,X,X1X8Xu   @.4.:.:.=.k.k.5.,.6.=.c.f.C.H. X[.].].].@X*XXX].R.6.6.6.7.:.",
"k.6.6.6.6.6.4.<.1.<.<.<.<.4.>.P.<.W.C.J.J.i.* q y e @ s >X,X,X4X3XX f :.<.<.<.<.R.>.P.<.k.C.J.J.J. XK.}.].].@X*X*XXXoX6.7.<.1.<.",
"f.c.v.6.6.6.<.Q.J.J.,.(. X/.J.H.^.^.F.f.f.<   y y y r r K :X,X,X4XR   u.J.,.). X^.J. XQ.!.F.f.f.G.J.Z.}.[.].$X*X*X@X].!.<.Q.J._.",
"f.f.f.A.M.(.Q.J.J.J.G. XH.u.o 1   u.F.F.o.    @ y y P U ,X,X,X,X1X9X! < J.F.J.J.u.C C S J.F.F.f.f.f.F.V./ ].$X*X*X*X.X`.^.J.J.J.",
"f.f.f.V.f.Z.Z.J.C.f.J.Z.f.y.O ' *.& 5 K.D @ q . # y :X,X,X,X,X<X5X9X9X% s.F.D.4 + ) ) 3 J.J.J.C.H.H.f.f.m ].#X*X*X*X$X}.F.J.V.f.",
"f.f.f.f.f.f.f.f.f.f.C.f.f.n.- j ' *.< < % e y y e y T ,X<X4X5X5X8X5X8Xa , 8 , > ( -.- S F.C.F.F.F.F.Z.Z m [.#X*X*X*X&X].D.C.f.f.",
"=.6.v.f.Z.J.V.f.f.f.f.v.f.f.| O W %.OX+.. e y y J r J ;X,X<X1X1X1X,X,Xp     h ' *.[ ; d.f.f.f.f.f.c. .+ {.&X*X*X*X*X*X].K.f.f.f.",
"6.6.E.m.J.J. XS.6.k.k.=.k.f.s.; k _ 8.b.& # y y r J J r y ,X,X,X1X4X,Xe   f ) ` b.< A n.f.f.f.f.v.6.M 5 *X*X*X*X*X*X*X$Xi.K.6.l.",
"n.f.n.c.c.Z.c.c.c.c.f.v.k.n.c.M 9 k ` 8.b.b y y :XU J K ,X,X,X,X,X2XR 9 f W _ *.B , 6.6.k.6.v.c.c.c.5 w.*X*X*X*X*X*X*X.XC c.c.c.",
"f.V.Q.<.,.E.<.6.6.=.6.6.6.k.6.O.& k ( &.h b y y U ,X;X,X,X,X,X,X,X,XT y k ] ` 9.= B v.f.v.v.f.f.f.O.5 *X*X*X*X*X*X*X*X].c 6.6.=.",
"F.J.J._.<.2.J.7.m.6.k.6.v.=.6.n.6 o W ) # y y y J J Y ,X,X,X,X,X,X,Xa f = k &.[ d 6.n.f.f.f.f.f.=.G 5 &X*X*X*X*X*X*X*X].H >.m.6.",
"J.G.~.H._.).C.J.J.H.V.f.f.c.6.6.$.      e y y y J r y y K T :X,X,XK u J 0 t > X  .6.6.h.l.M.A.!.S.N.8 *X*X*X*X*X*X*X#XH < J.J.S.",
"6.6.6.6.6.v.f.f.f.C.Z.f.f.c.Z.Z.N % e u y y y y r K T U Y U U T >X,X,X,XR L 9    .Z.Z.Z.Z.Z.f.f.Z.z.7 *X*X*X*X*X*X*X X  o.f.f.C.",
"5.6.k.6.6.6.6.k.=.E.W.f.f.f.f.s.& r J f y y y J f s ,X,X,X,X,X,X,X,X,X<X9X9XR # 6 f.f.f.f.Z.F.Z.d.3 3  X#X*X*X*X*X*X8 & +.k.6.l.",
"v.n.f.v.6.k.n.Z.f.J.J.C.f.f.f.y.& q y y y y y >XU K U ,X,X1X1X1X<X,X4X5X4X5X5Xu 6 f.f.Z.H.J.Z.J.X.v qXrXrX=X=X%X*Xq.o #.n.C.f.J.",
"f.f.f.f.f.f.F.J.J.S.A.J.Z.f.f.f.6 @ y y y y y :X,X,X,X,X,X4X9X8X2X,X4X1X,X1X!   O.f.f.f.f.C.f.o.* T.eXtXtXtX`.C 0.. o.f.J.J.J.A.",
"v.f.f.f.c.k.5.v.=.6.6.v.~.~.v.5.=.  @ r y y y y :X,X,XU ,X,X,X,X,X,X,X,X,XI @ , v.~.5.=.k.v.c.M $ I.t T.tXeXT.+ s.f.c.=.=.c.=.6.",
"f.f.f.f.f.f.f.f.f.f.=.=.v.@.+.+.4.B   X y y y y y J U y P >X,X,X,X>X;X;Xy X , v.6.6.6.6.6.k.v.4 X Q d F rXv Q   O.f.f.f.f.f.f.n.",
"<.<.c.7.<.:.f.C.J.H.k.f.6 o o > , s.4   # e e y y y y y y a K K K y y e X   Z f.n.f.c.f.f.f.s.% $ X   F qX    f d.7.<.:.f.C.J.Z.",
"J.(.>.^.J.G.(.F.J.J.F.o.  o ( ( g C 3 # 9 9 9 y y y y y y y y y r 9 9   .   O.f.C.C.F.F. XJ.7 i n w   z T.  * P.2.Q. XG.x.H.J.J.",
"J.J.J.J.J.J.J.J.J. XJ.3 > ( ` ` `     @ y y y y y 9       9 q y u y T p s i N.f.C.Z.Z.Z.C.d.  ~ ^ x         C  XJ.J.H.J.J.J.J.J.",
"G.~.m.G.F.f.f.S.=.E.J.  g ` ` ' g   i . q y y y y y y y y y y y P ,X,X,XT : B.F.C.f.o.; o   $ ~ ^ i   * Z.K.G.h.m.F.Z.f.C.S.E.m.",
"6.6.=.f.f.f.6.6.6.6.f.& 1 ' ` ) +   w n w % e r y y y y y y y Y I I 0 0 @ $ Z f.f.6 X j )   : n v * X.s.k.6.6.6.E.f.f.c.6.6.6.=.",
"6.6.6.6.k.=.6.v.n.=.=.N   1 (         * x x   X @ # y y y q @ #       ~ Q I.: f.f.  = ' %.M   $ . Z C.v.6.6.6.6.6.6.v.6.6.v.n.=.",
"k.v.v.=.6.k.v.v.f.f.f.f.6 4   M 6 9 q 9 % w ~ n l x X .     F Q T.wXqXT.n $ 6 f., . k ] &.OXB   , n.k.6.k.f.k.v.v.5.6.v.v.v.f.f.",
"f.f.f.f.f.f.f.f.f.f.f.k.6.v.6.+.  y y J r 9   $ l x n ~ n ~ qXT.i       X X M 6.  f W ] ` &.OX  < H.f.C.Z.C.f.f.f.f.f.f.f.f.f.f.",
"n.n.v.=.6.k.f.v.c.f.v.6.6.=.6.d @ r y y y y e 9 @ @ # : $ : z z X @ e e p q - 6.d X k k ` ` %.  Q H. XJ.J.m.n.n.v.k.6.v.f.v.n.f.",
"k.k.6.6.6.6.6.6.7.:.:.k.=.=.6.t . . q y y y y y y y r e e e e r y y y y >XI X B &   = k ` ` g 4 L. XJ.f.c.v.E.5.6.6.6.6.6.6.4.:.",
"=.6.6.6.6.6.4.<.1.<.<.<.<.4.2.Q.<.k.  . 9 9 y y y y y y r y J r Y ,X,X,X,Xs @ . : x . o g 2 3 J.J.J.Z.f.f.f.=.6.6.6.6.6.4.<.1.<.",
"f.f.c.6.6.4.<.!.J. XP.S.J.S.J. X(.N     + +   @ 9 9 q y y y 9 9 u p p 0   @ i.C x v . + B r.f.f.Z.J.Z.F.C.f.f.n.c.6.6.7.<.!.J.G.",
"f.f.f.F.Z.J._.J.J.J.J.J.J.J.H.B.B.8 +   3 6 ; ; ; ; X % % % X ; X     C e.i.J.N.+ X o r.J.J.J.C.f.f.Z.f.Z.f.f.f.f.H.F.J.).J.J.J.",
"f.f.f.C.f.C.Z.J.Z.f.J.Z.f.N.e.o.r.r.C + X A r.....8 6 6 6 N A ..7 X   < ..r.y.f.u.y.u.J.J.J.J.C.F.F.C.f.f.f.f.f.f.V.f.Z.Z.J.Z.f.",
"f.f.f.f.f.f.f.C.f.f.f.f.d.....X.e.e.4 o 7 e.e.X.$.| X...X.....{ ..4     5 ....o.f.f.C.F.Z.C.F.F.F.F.C.M.M.f.f.f.f.f.f.f.f.f.f.f.",
"k.6.v.f.Z.J.C.f.f.f.f.b.d.o.....{ ..........{ V V V V } V A ..t.r.o.4 4 4 ..} o.f.f.f.f.f.f.f.f.f.n.5.6.6.6.=.6.n.f.G.J.Z.f.f.f.",
"6.6.E.m.J. X X_.6.=.k.k.k.d.o.} } ........| V V } } V V V G $.r.r.r.t.V } } @.v.f.f.c.n.f.f.f.f.v.6.6.c.l.6.6.6.W.m.J. XJ.G.6.v.",
"f.f.c.v.c.C.c.c.c.c.f.c.k.f.v.#.#.$.+. .} | { ......} { ..{ Z X.y. .O.O.z.d.v.v.f.c.6.6.k.5.v.c.c.c.f.f.f.v.n.n.c.v.n.V.c.c.c.c.",
"f.Z.Q.<.7.6.<.6.6.k.6.6.6.k.6.v.f.l.l.f.d.d.z.,.z.z.#.d.g.,.3.#.:.<.6.6.=.6.6.6.v.6.v.f.v.v.f.f.f.v.R.v.c.l.f.A.>.<.E.,.<.6.6.=.",
"H.J.J._.2.P.J.^.A.E.v.k.c.k.6.v.n.c.f.f.l.k.^.m.P.!.^.J. XJ.G.1.^.J.^.A.E.v.k.c.=.6.v.c.c.f.f.v.W.^.(.P.^.Q.H. XJ.G.:.^.J.^.A.5.",
"J.S.6.S.J.S.f.H.J.J.F.f.f.c.6.E.m.m.m.).).J. XA.S. XJ.J.S.6.S.G.H.f.J.J. XF.f.f.v.6.E.m.m.m.)._.J.J.A.S.J.J. Xm.6._.G.F.f.J.J.J.",
"6.6.6.6.6.c.f.f.f.C.C.f.f.c.Z.Z.Z.Z.Z.f.f.C.M.v.6.W.E.6.6.6.6.6.v.f.f.f.C.C.f.f.v.Z.Z.Z.Z.Z.f.f.C.M.v.6.W.5.6.6.6.6.6.v.f.f.f.C.",
"=.6.k.6.6.6.6.=.=.k.~.f.f.f.f.f.f.f.C.F.Z.f.f.f.f.f.k.=.6.k.5.6.6.5.=.6.E.W.f.f.f.f.f.f.f.Z.F.C.f.f.f.f.f.k.E.6.k.6.6.6.6.E.5.~.",
"v.n.f.v.6.k.c.C.f.J.J.C.f.f.f.f.C.H.J.Z.H.J.C.n.v.v.v.l.n.f.l.6.v.n.C.f.J.J.C.f.f.f.f.Z.F.J.Z.J.J.Z.f.v.v.v.l.n.f.c.6.v.n.C.f.J.",
"f.f.f.f.f.f.J. XJ.S._.F.Z.C.f.f.f.f.C.f.f.Z.S.f.f.f.f.f.f.f.f.f.f.J.J.J.S.A.F.Z.f.f.f.f.f.C.f.f.Z.Z.f.f.f.f.f.f.f.f.f.f.F.J.J.A.",
"f.f.f.f.c.E.6.v.=.6.6.~.~.~.~.E.E.k.l.c.n.c.f.f.f.f.f.f.f.f.f.n.=.6.b.=.6.6.~.~.~.~.6.5.k.v.c.c.c.f.f.f.f.f.f.f.f.f.c.E.5.c.=.6.",
"f.f.f.f.f.f.f.f.f.f.5.k.v.5.6.6.6.6.k.v.l.f.f.f.f.f.f.f.f.f.f.f.f.f.f.f.f.5.k.v.6.6.6.6.6.k.v.c.f.f.f.f.f.f.f.f.f.f.f.f.f.f.f.f.",
"Q.<.E.:.P.5.n.Z.J.H.v.f.f.n.f.n.f.C.C.f.f.f.f.f.f.M.4.4.<.R.;.R.>.c.C. XJ.c.n.f.f.f.n.f.C.C.f.f.f.f.f.f.n.>.P.1.l.:.P.7.n.C.J.F."
};
