/* XPM */
static char *_00a455ba25c4fb6f1554d3d742123506uTmuFWCxhHLJKXg[] = {
/* columns rows colors chars-per-pixel */
"64 64 237 2 ",
"   c #9BB94E",
".  c #ADB954",
"X  c #849E6C",
"o  c #679175",
"O  c #749B6B",
"+  c #81A561",
"@  c #7BA762",
"#  c #79A863",
"$  c #81AC5D",
"%  c #84AD5C",
"&  c #8AB058",
"*  c #8EAF57",
"=  c #89AB5B",
"-  c #A4B25B",
";  c #7D9B6E",
":  c #7EAA5F",
">  c #B6B957",
",  c #BFBA5B",
"<  c #A9AF61",
"1  c #759770",
"2  c #789B6D",
"3  c #9CB15F",
"4  c #95B651",
"5  c #93A568",
"6  c #B3B75C",
"7  c #90AE60",
"8  c #B0B35F",
"9  c #A7B05F",
"0  c #A7B952",
"q  c #BBB959",
"w  c #A7B756",
"e  c #8FB355",
"r  c #80AA62",
"t  c #9BB359",
"y  c #ABB060",
"u  c #AFB65C",
"i  c #A1AC63",
"p  c #B9B958",
"a  c #97A766",
"s  c #A7B45D",
"d  c #A4B951",
"f  c #A1B950",
"g  c #9BB556",
"h  c #8AAC61",
"j  c #84AB61",
"k  c #80AB5E",
"l  c #97B357",
"z  c #B7B85B",
"x  c #B3B956",
"c  c #97B750",
"v  c #B7B958",
"b  c #ADB55D",
"n  c #8BB157",
"m  c #88AF59",
"M  c #92B254",
"N  c #6F976E",
"B  c #789E68",
"V  c #92B453",
"C  c #7A9A6F",
"Z  c #B5B55D",
"A  c #9BAC61",
"S  c #9FB94F",
"D  c #7EA263",
"F  c #83A75F",
"G  c #95B452",
"H  c #7CA960",
"J  c #A3B754",
"K  c #AFB955",
"L  c #8CAD5E",
"P  c #84AB5F",
"I  c #76A466",
"U  c #6D986F",
"Y  c #6F9B6D",
"T  c #73A069",
"R  c #A1B655",
"E  c #90B05A",
"W  c #74A267",
"Q  c #6B9670",
"!  c #85AA5D",
"~  c #A1B35B",
"^  c #A3AE61",
"/  c #9FB35A",
"(  c #A3B950",
")  c #9FB557",
"_  c #97B554",
"`  c #91924E",
"'  c #5F6B40",
"]  c #696B44",
"[  c #6B6B45",
"{  c #656A45",
"}  c #5F6A42",
"|  c #596B3E",
" . c #486249",
".. c #161C2E",
"X. c #4C2939",
"o. c #854349",
"O. c #87504D",
"+. c #823645",
"@. c #88924B",
"#. c #88AC61",
"$. c #32403A",
"%. c #B84350",
"&. c #E05062",
"*. c #D15069",
"=. c #D45D6D",
"-. c #F9856C",
";. c #EF515C",
":. c #374336",
">. c #546841",
",. c #C2506F",
"<. c #B45076",
"1. c #D66A71",
"2. c #8E924D",
"3. c #BB5054",
"4. c #8C4364",
"5. c #73364B",
"6. c #7A9246",
"7. c #4E363D",
"8. c #F8856F",
"9. c #505462",
"0. c white",
"q. c #BAB3AB",
"w. c #F67868",
"e. c #4F6644",
"r. c #9D5061",
"t. c #FCA07A",
"y. c #F78672",
"u. c #F46B64",
"i. c #807B77",
"p. c #B19C90",
"a. c #B69877",
"s. c #FFBC88",
"d. c #FDAE81",
"f. c #F15E60",
"g. c #4D6545",
"h. c #AA4357",
"j. c #756858",
"k. c #454243",
"l. c #4D6247",
"z. c #D87878",
"x. c #C55D73",
"c. c #3B413B",
"v. c #FBA17D",
"b. c #D9867F",
"n. c #98B05F",
"m. c #ABB55B",
"M. c #8FA763",
"N. c #888F50",
"B. c #F36B67",
"V. c #ABB953",
"C. c #F5786B",
"Z. c #76635B",
"A. c #A4A154",
"S. c #E88678",
"D. c #F99376",
"F. c #A24E54",
"G. c #AD7067",
"H. c #977B6B",
"J. c #564B4C",
"K. c #303735",
"L. c #86A049",
"P. c #576A3F",
"I. c #E56A6A",
"U. c #653652",
"Y. c #8C5858",
"T. c #C36663",
"R. c #AD947B",
"E. c #BCA381",
"W. c #D5B583",
"Q. c #36333D",
"!. c #445239",
"~. c #565E3E",
"^. c #C57367",
"/. c #C5A67D",
"(. c #C3AE8B",
"). c #827E6C",
"_. c #B8AF8B",
"`. c #EFE1AB",
"'. c #E2CB97",
"]. c #A58E6D",
"[. c #2D3734",
"{. c #718844",
"}. c #91AD4B",
"|. c #50533E",
" X c #273437",
".X c #5A7C52",
"XX c #6F8D4E",
"oX c #676D43",
"OX c #958067",
"+X c #D2BC91",
"@X c #7C7362",
"#X c #364A42",
"$X c #5D7D50",
"%X c #86A752",
"&X c #979550",
"*X c #6D6E45",
"=X c #AB9977",
"-X c #496449",
";X c #577855",
":X c #405953",
">X c #334645",
",X c #324447",
"<X c #5F7A51",
"1X c #5D735A",
"2X c #617559",
"3X c #547564",
"4X c #75A267",
"5X c #9CAD4F",
"6X c #86884B",
"7X c #4C523C",
"8X c #2C3734",
"9X c #40503B",
"0X c #648B60",
"qX c #5A7F6A",
"wX c #798659",
"eX c #8A884D",
"rX c #808450",
"tX c #757F52",
"yX c #93B552",
"uX c #7E8848",
"iX c #778846",
"pX c #90944D",
"aX c #A7AD53",
"sX c #B2AE57",
"dX c #96AD4D",
"fX c #7C9446",
"gX c #90A567",
"hX c #87A760",
"jX c #8EA369",
"kX c #709572",
"lX c #87A563",
"zX c #AAB35D",
"xX c #809E6A",
"cX c #90AF5C",
"vX c #7C9E69",
"bX c #7E9E6A",
"nX c #6C9570",
/* pixels */
"  . X o O + o @ # $ # # # % # &   & &       * + * * =   . X o + O o @ # $ # # # & # &   & &       * + * * =   - ; o + O o @ # : ",
"> , , < o 1 , 2 3 # % # & : # 4           = ; 5 o ; 1 > , , < o ; , 2 3 # % # & # # 4           + ; 5 o ; 1 > , , < o ; , 2 3 # ",
", 6 7 6 8 9 0 q , 6 w     e # r 7 7 t - 5 y , u 6 , , , 6 7 6 i p 0 q , 6 w     & # r 7 7 t - a 8 , u 6 , , , s 7 6 i p 0 q , u ",
"# # # # # &       d 0     e . . . . .     f g & # h j # # # # : &       d 0     & . . . . .     d g & # h j # # # # : &       0 ",
"$ # # # # # # % $ # #               f . d           & $ # # # # # # % $ # #               f . f           & $ # # # # # # % $ # ",
"% &   % # k & l e 6 z f         f . q x p x f c e e % % &   % # % & l e 6 z f         f . q x v x f c e e % % e   % # % & l e z ",
"            > , , b s > . f         f     . .                     > , , b s > .           f   f . .                     > , , s ",
"        e % : n : # # 7 7 7 7 r : % m e e e 4                 e : : n : # # 7 7 7 7 r : % m e e e 4                 e : : n : # ",
"                    : $ & : # # # # % & &                                 : $ & # # # # # % & e                               4 ",
"o o M O o N   f , > %     4   e                     B o o M O o O   f , > %     V   e                     B o N   O o O   f , . ",
", i C 5 , Z A v , , z 4   S 0 x x , q     D B F B N a , i C 5 , 8 A v , , z 4   f 0 x x , q   G B B F B N a , a 1 5 , 8 A v , , ",
", , , , , , , , , , , ,   f . . . . M o O 5 < o < < 5 , , , , , , , , , , , ,   d . . . . M o N < < o < < 5 , , , , , , , , , , ",
", 3 s , >   d , h h , , , .       . B < < 8 , , , , , , 3 s , .   d , h h , , , d       . B < i , , , , , , , 3 b , .   d , h 3 ",
"j # H   f c % H # # J 0 f     K x p , , x S f , f & L j # H   S 4 % H # # J 0 S     K x p , , K   f , f & L j # :   S 4 % H # P ",
"# # # # $ : # & V $ : V     . 0     .         f & # # # # # # % # # & V $ : V     . 0     .         f & # # # # # # % # # & V : ",
"% & n : # % & n             4 % 4         c e % # %   % & n : # & & n             4 % 4         4 e % # %   % n & : # & & n     ",
"                      $ # & # # &         . >   d . f                       $ : & # # &         > >   d . f                     ",
"V V & $ # %   & V   & # # # # # # # & & > , , , , , 3 V V & $ # &   & V   & # # # # # # # & & p , , , , , 3 V e & $ # &   & V   ",
"% % # # # # # # I U Y % % % @ T # : e   0 x , q R E e % % # # # # # # I U Y % % % @ T # : e   0 p , q R E e % k # # # # # # I U ",
"$ # # # # # W o Q o o o o B ; X o ! f , , , , .     4 $ # # # # # W o Q o o o o + ; X o ! f , , , , .     4 $ # # # # # W o Q o ",
"  V & # # # o X , , 1 < , i , , 5 5 x     . , . .       V & # # # o X , , 1 < , 5 , , 5 5 x     > , . .       e & # # # o X , 8 ",
"      ~ t ^ 5 , , , Z , , , , , , , x x f   f x 0 0         ~ / i 5 , , , Z , , , , , , , x x S   f x 0 0         ~ / i 5 , , , ",
"      d   0 . , d   p .   x d . , , , , . . > f             d   . . , d   p . f > d . , , , , 0 > > f             d   . . , d f ",
"              (     (         ( x x 0 x x x x 0 t t )               (     (         ( x x 0 x x x x 0 t t )               (     ",
"$ # &   . , d       4 &                     V : # # # $ # &   x , d       4 &                     V : # # # $ # V   x , d       ",
"# # j 3 , , , 6 # $ % $ $     e V         e # : & & # # # j 3 , , , 6 # $ % $ &     e V         & # : & & # # # h 3 , , , 6 # % ",
"4   e e e 0 e e e e c e % c e # # % H & & e e c     n 4   e e _ 0 e e e e c e m   e # # % H & n e e c     n 4 c e e _ 0 e e e e ",
"  . X o O + o @ # $ # # # % # &   & &       * + * * =   . X o + O o @ # $ # # # & # &   & &       * + * * =   - ; o + O o @ # : ",
"> , , < o 1 , 2 3 # % # & : # 4           = ; 5 o ; 1 > , , < o ; , 2 3 # % # & # # 4           + ; 5 o ; 1 > , , < o ; , 2 3 # ",
", 6 7 6 8 9 0 q , 6 w     e # r 7 7 t - 5 y , u 6 , , , 6 7 6 i ` ' ] [ { } |   & # r 7 7 t - a 8 , u 6 , , , s 7 6 i p 0 q , u ",
"# # # # # &       d 0     e . . . . .     f g & # h j # # #  .......X.o.O.+.X.....@.. . . .     d g & # h j # # # # : &       0 ",
": # % # # # # k : j #.              0 x .           % : # $...+.%.&.*.=.-.;.;.;.+...:.    0 x 0           % : H % # # # # k : #.",
"& V   & # % V 0   , , d         d > , . > , d 4 & & & & >...%.&.,.<.<.<.1.*.<.&.;.%.....2., . p , d 4 & & & & 4   & # & V 0   , ",
"            > , , b s > . f         f     . .           ..3.;.*.,.,.<.4.5.+.,.*.;.;.-.X.:.f   f . .                     > , , s ",
"&       e % : n : # # 7 7 7 7 r : % m e e e 4         6.7.8.;.;.;.;.%.9.0.q.X.;.;.8.w.%...e.e e e 4                 e : : n : # ",
"                    : $ & : # # # # % & &           6.:.r.t.y.;.u.y.o.i.p.a...s.d.8.f.;.+.g.& e                               4 ",
"o o M O o N   f , > %     4   e                   | ..h.<.=.s.w.u.y.3...j.k.X.u.*.&.<.*.+.|               B o N   O o O   f , . ",
", i C 5 , Z A v , , z 4   S 0 x x , q     D B l...X.;.;.,.z.s.x.<.;.;.%.+.O.f.*.<.<.<.<.+...  G B B F B N a , a 1 5 , 8 A v , , ",
", , , , , , , , , , , ,   f . . . . M o O 5 c...%.;.;.;.;.v.b.<.*.;.;.;.;.u.-.&.<.<.<.,.+...o N < < o < < 5 , , , , , , , , , , ",
"6 7 n.x x   f m.j j , , p 0     0 x M.8 8 N...o.u.;.;.;.B.s.x.&.;.&.,.<.&.;.-.u.,.<.*.+.....8 y x p , p x q 6 7 3 x V.  f m.j n.",
"# # :     4 # # # # 4         p . > , , . | X.f.d.v.C.-.u.;.;.;.<.<.x.x.*.;.C.C.;.;.+...Z...A.0     ,   $ # # # $     V # # # : ",
"# # # # $ : # & V $ : V     . 0     .     | +.&.*.S.C.f.;.u.f.*.<.<.-.1.*.;.D.y.F.G.H.H.J.K.L.      f & # # # # # # % # # & V : ",
"% & n : # % & n             4 % 4         P...&.<.<.,.;.;.w.I.4.U.....J.Y.T.O.7.R.E.W.H.Q.!.L.  4 e % # %   % n & : # & & n     ",
"                      $ # & # # &         ~...+.h.,.<.*.;.^.Q.Q.J.Z.H./.a.(.)._.`.'.].Q.[.{.}.  > >   d . f                     ",
"V V & $ # %   & V   & # # # # # # # & & > |...Q...+.F.G.E.a.W.H.H.H.H.W.W.'.`.`.`.)... X.XXX& p , , , , , 3 V e & $ # &   & V   ",
"% % # # # # # # I U Y % % % @ T # : e   0 oX..Z.Z.J.OX+X`.W.j.k.......j.j.@X)..... X#X.X$X%X  0 p , q R E e % k # # # # # # I U ",
"$ # # # # # W o Q o o o o B ; X o ! f , , &X*X..Q.J.W.=X)... X-X.X;X:X>X,X,X,X:X<X1X2X3X! f , , , , .     4 $ # # # # # W o Q o ",
"  4 e # # 4Xo a , , X 8 , y , , i i K     5X6XoX7X......8X9X.X.X0XqXwXeXeX2XrXeXtX&XA.i i K     . p x x f     yXe # # T o a , Z ",
"      > . , < , , , , , , , , , , , p , d   }.uX{.iX{.{.{.{.pXaX, < , , sXA.A.A.A., , , , p , f     .   d         > x , < , , , ",
"      d   0 . , d   p .   x d . , , , , . . > dXL.{.{.{.fX}.d   . . , d   p . f > d . , , , , 0 > > f             d   . . , d f ",
"              (     (         ( x x 0 x x x x 0 t t )               (     (         ( x x 0 x x x x 0 t t )               (     ",
"$ # &   . , d       4 &                     V : # # # $ # &   x , d       4 &                     V : # # # $ # V   x , d       ",
"# # j 3 , , , 6 # $ % $ $     e V         e # : & & # # # j 3 , , , 6 # $ % $ &     e V         & # : & & # # # h 3 , , , 6 # % ",
"4   e e e 0 e e e e c e % c e # # % H & & e e c     n 4   e e _ 0 e e e e c e m   e # # % H & n e e c     n 4 c e e _ 0 e e e e ",
"  . X o O + o @ # $ # # # % # &   & &       * + * * =   . X o + O o @ # $ # # # & # &   & &       * + * * =   - ; o + O o @ # : ",
"p , , 8 1 X , gXs j m % e % # n e e     = hX5 i X 5 jXp , , 8 kX5 , gXs j m % e : # n e e     = lX5 i X 5 jXp , , 8 kX5 , gXs r ",
", b # b , zX  p , , x     e # j 3 3 3 < < , , s b , , , b # b 8 >   p , , x     & # j 3 3 3 < 8 , , s b , , , 3 # b 8 >   p , , ",
"# # # # # &       d 0     e . . . . .     f g & # h j # # # # : &       d 0     & . . . . .     d g & # h j # # # # : &       0 ",
": # % # # # # k : j #.              0 x .           % : # % # # # # k : j #.              0 x 0           % : H % # # # # k : #.",
"& V   & # % V 0   , , d         d > , . > , d 4 & & & & V   & # & V 0   , , d         d > , . p , d 4 & & & & 4   & # & V 0   , ",
"            > , , b s > . f         f     . .                     > , , b s > .           f   f . .                     > , , s ",
"        e % : n : # # 7 7 7 7 r : % m e e e 4                 e : : n : # # 7 7 7 7 r : % m e e e 4                 e : : n : # ",
"                    : $ & : # # # # % & &                                 : $ & # # # # # % & e                               4 ",
"X o F N X xXM 0 , p cX4   c   yX  0 0             M vXX o F N X bXM 0 , p cX4   4   yX  0 0             M vXX nX= N X bXM 0 , x "
};
