/* XPM */
static char *c8707cd8069e49b9dc5a8179f99301fbhFLAHvx1GkRkuDnP[] = {
/* columns rows colors chars-per-pixel */
"64 64 224 2 ",
"   c #161C2E",
".  c #1B1E31",
"X  c #1E2431",
"o  c #1F2833",
"O  c #1C232F",
"+  c #222234",
"@  c #252B35",
"#  c #2B2439",
"$  c #2E2E39",
"%  c #2A2535",
"&  c #35293D",
"*  c #3E2A38",
"=  c #342736",
"-  c #2C3535",
";  c #2B3536",
":  c #35343D",
">  c #3A393E",
",  c #353A37",
"<  c #41333D",
"1  c #53323D",
"2  c #374336",
"3  c #344139",
"4  c #3B4438",
"5  c #414639",
"6  c #4A573B",
"7  c #495A3D",
"8  c #50523D",
"9  c #596A3E",
"0  c #53643D",
"q  c #3E3B40",
"w  c #402D45",
"e  c #4B314A",
"r  c #4B3142",
"t  c #5B3846",
"y  c #543550",
"u  c #5C3854",
"i  c #663942",
"p  c #673B4A",
"a  c #693D5B",
"s  c #663C57",
"d  c #713E4F",
"f  c #3D4444",
"g  c #3B5142",
"h  c #464243",
"j  c #4C4E4D",
"k  c #4E4649",
"l  c #574C4D",
"z  c #564645",
"x  c #475943",
"c  c #5C564E",
"v  c #4E5158",
"b  c #5F5452",
"n  c #424755",
"m  c #6E504E",
"M  c #794259",
"N  c #665954",
"B  c #77484B",
"V  c #4B6549",
"C  c #5A6744",
"Z  c #5E7B4A",
"A  c #5B7C52",
"S  c #577358",
"D  c #506D5C",
"F  c #666945",
"G  c #677B43",
"H  c #766959",
"J  c #77645C",
"K  c #667A57",
"L  c #6C7252",
"P  c #505562",
"I  c #537463",
"U  c #7F6960",
"Y  c #8C474B",
"T  c #914958",
"R  c #994C57",
"E  c #965A56",
"W  c #874E56",
"Q  c #A24E53",
"!  c #AB5255",
"~  c #A95A57",
"^  c #B65555",
"/  c #B95D59",
"(  c #81725E",
")  c #99695E",
"_  c #BB625C",
"`  c #AA655D",
"'  c #866F63",
"]  c #8D7C63",
"[  c #8A7969",
"{  c #977B6B",
"}  c #9B7F6D",
"|  c #BE6C61",
" . c #AA7063",
".. c #BE7566",
"X. c #AB6B60",
"o. c #C27A69",
"O. c #C27966",
"+. c #65824B",
"@. c #6B8549",
"#. c #728844",
"$. c #738E4A",
"%. c #7C864B",
"&. c #7A9246",
"*. c #78974E",
"=. c #618555",
"-. c #678B58",
";. c #6C9258",
":. c #779A56",
">. c #778852",
",. c #7EAA5F",
"<. c #7BA258",
"1. c #6F976E",
"2. c #6E996E",
"3. c #7B9C6C",
"4. c #749B6A",
"5. c #679175",
"6. c #6B9670",
"7. c #749771",
"8. c #75A366",
"9. c #7BA662",
"0. c #79A863",
"q. c #73A069",
"w. c #5E8254",
"e. c #8A884D",
"r. c #84884B",
"t. c #859249",
"y. c #879B4A",
"u. c #838951",
"i. c #959250",
"p. c #8B9651",
"a. c #89A44B",
"s. c #93AA4C",
"d. c #9BB94E",
"f. c #8EAF57",
"g. c #83AD5C",
"h. c #89AC5B",
"j. c #84A55D",
"k. c #96A956",
"l. c #8EB355",
"z. c #8AB058",
"x. c #94B552",
"c. c #9CB556",
"v. c #9CB25D",
"b. c #90B05A",
"n. c #A7AB53",
"m. c #A4B655",
"M. c #A4B951",
"N. c #ADB954",
"B. c #A6B35C",
"V. c #ADB55D",
"C. c #AAB85B",
"Z. c #B4B956",
"A. c #B2B55D",
"S. c #B7B959",
"D. c #BFBA5B",
"F. c #82816D",
"G. c #97846C",
"H. c #849E6C",
"J. c #889963",
"K. c #9B9575",
"L. c #A58F6E",
"P. c #A78A71",
"I. c #AE9375",
"U. c #B79A77",
"Y. c #82A561",
"T. c #83AB61",
"R. c #89AC61",
"E. c #8EA369",
"W. c #96A766",
"Q. c #90AE60",
"!. c #93A568",
"~. c #9BAC61",
"^. c #98B160",
"/. c #A1AC63",
"(. c #A9AF61",
"). c #ACB061",
"_. c #BCA47A",
"`. c #BEB27B",
"'. c #C5836E",
"]. c #CA9876",
"[. c #CA8F76",
"{. c #C5A77D",
"}. c #C9AA7E",
"|. c #CFB17E",
" X c #8B8E97",
".X c #B9B08C",
"XX c #B7B48D",
"oX c #B3A687",
"OX c #9F96A2",
"+X c #BDB7A8",
"@X c #AA9AA7",
"#X c #CDAE80",
"$X c #D5B583",
"%X c #D8BC89",
"&X c #D7B787",
"*X c #CEB78C",
"=X c #CDBEA7",
"-X c #DBC18D",
";X c #DEC692",
":X c #D9C69B",
">X c #CAC496",
",X c #E1CA96",
"<X c #E1CE98",
"1X c #E5D29D",
"2X c #D2C8B0",
"3X c #E1C9A2",
"4X c #E9D6A1",
"5X c #EBDBA5",
"6X c #E7D8A7",
"7X c #EDDEB6",
"8X c #EFE2AB",
"9X c #EAE0A7",
"0X c #F1E5B7",
"qX c #EEE6B4",
"wX c #CECECE",
"eX c #EADAC1",
"rX c #F3EAC0",
"tX c #F4EBCB",
"yX c #F7F0D4",
"uX c #F4EACF",
"iX c #F5EDE0",
"pX c #FAF7EA",
"aX c white",
"sX c #FCF9F3",
/* pixels */
"d.N.H.5.4.Y.5.9.0.g.0.0.0.g.0.z.d.z.z.d.d.d.f.Y.f.f.h.d.N.H.5.Y.4.5.9.0.g.0.0.0.z.0.z.d.z.z.d.d.d.f.Y.f.f.h.d.B.3.5.Y.4.5.9.0.,.",
"Z.D.D.(.5.7.D.3.v.0.g.0.z.,.0.x.d.d.d.d.d.h.3.!.5.3.7.Z.D.D.(.5.3.D.3.v.0.g.0.z.0.0.x.d.d.d.d.d.Y.3.!.5.3.7.Z.D.D.(.5.3.D.3.v.0.",
"D.A.Q.A.A.B.M.D.D.A.m.d.d.l.0.T.Q.Q.c.B.!.).D.V.A.D.D.D.A.Q.A./.D.M.D.D.A.m.d.d.z.0.T.Q.Q.c.B.W.A.D.V.A.D.D.D.B.Q.A./.D.M.D.D.V.",
"0.0.0.0.0.z.d.d.d.M.M.d.d.l.N.N.N.N.N.d.d.M.c.z.0.R.T.0.0.0.0.,.z.d.d.d.M.s.&.- % * = 6 p.N.d.d.M.c.z.0.R.T.0.0.0.0.,.z.d.d.d.M.",
"g.0.0.0.0.0.0.g.g.0.0.d.d.d.d.d.d.d.M.N.M.d.d.d.d.d.z.g.0.0.0.0.0.0.g.g.x @     % ^ 1   X 4 N.M.d.d.d.d.d.z.g.0.0.0.0.0.0.g.g.0.",
"g.z.d.g.0.g.z.c.l.A.S.M.d.d.d.d.M.N.D.Z.D.Z.M.x.l.l.g.g.z.d.g.0.g.:.C   z m '.'.'.o.Q i     4 S.Z.M.x.l.l.g.g.l.d.g.0.g.z.c.l.S.",
"d.d.d.d.d.d.Z.D.D.V.B.Z.N.M.d.d.d.d.M.d.d.N.N.d.d.d.d.d.d.d.d.d.a.4 B ..'...^ ..'._ _ / ^ r + , n.N.d.d.d.d.d.d.d.d.d.d.Z.D.D.B.",
"d.d.d.d.l.g.,.z.,.0.0.Q.Q.Q.Q.T.,.g.h.l.l.l.x.d.d.d.d.d.d.d.d.l.@ W '.'.'.'.o.o.'.'.o./ ^ ! +   - x.d.d.d.d.d.d.d.d.l.,.,.z.,.0.",
"d.d.d.d.d.d.d.d.d.d.,.g.z.,.0.0.0.0.g.z.z.d.d.d.d.d.d.d.d.d.a.2 Y | '.'.| _ '.'.'.'.o.^ ^ ^ ^     &.d.d.d.d.d.d.d.d.d.d.d.d.d.x.",
"5.5.x.4.5.1.d.M.D.Z.g.d.d.x.d.l.d.d.d.d.d.d.d.d.d.d.3.5.5.x.D    .'.'.X.| o.'...) ) E Q ^ ^ T e + 9 d.d.d.3.5.1.d.4.5.4.d.M.D.N.",
"D./.3.!.D.A.~.S.D.D.S.x.d.d.M.Z.Z.D.D.d.d.9.3.j.3.1.W.D./.3.z Y '.o.B ` '.'. .&       % t ^ R s + x j.3.1.W.D.W.7.!.D.A.~.S.D.D.",
"D.D.D.D.D.D.D.D.D.D.D.D.d.M.N.N.N.N.x.5.4.!.(.5.(.(.!.D.D.i.> E '.m < '.'.)       w w w r Q ^ Q # C 5.(.(.!.D.D.D.D.D.D.D.D.D.D.",
"D.v.B.D.Z.d.M.D.R.R.D.D.D.N.d.d.d.N.3.(.(.A.D.D.D.D.D.D.v.C * _ W * ` o.W %   . w a a a W ! Q d + F D.D.D.D.D.v.V.D.N.d.M.D.R.v.",
"T.0.9.d.M.x.g.9.0.0.m.M.M.d.d.N.Z.D.D.D.Z.d.M.D.M.z.h.T.0.V = T m < o._ *     # a a a a R ^ M y   &.D.M.z.h.T.0.,.d.d.x.g.9.0.g.",
"0.0.0.0.g.,.0.z.x.g.,.x.d.d.N.M.d.d.N.d.d.d.d.M.z.0.0.0.0.V e W ! p ! s +   2 X & u a a a a y   - d.M.z.0.0.0.0.0.0.g.0.0.z.x.,.",
"g.z.z.,.0.g.z.z.d.d.d.d.d.d.x.g.x.d.d.d.d.x.l.g.0.g.d.g.z.:.; w Y & d i   6 d.#.@ . # # # #   6 s.l.g.0.g.d.g.z.z.,.0.z.z.z.d.d.",
"d.d.d.d.d.d.d.d.d.d.d.g.0.z.0.0.z.d.d.d.d.N.Z.d.M.N.M.d.d.d.9   ^ t p i   2 g.,.@.g       6 9 d.Z.Z.d.M.N.M.d.d.d.d.d.d.d.d.d.d.",
"x.x.z.g.0.g.d.^.c.d.z.0.0.0.0.0.0.0.z.z.Z.D.D.D.D.D.v.x.a.6     t *   p .   $   g -.0.0.0.z.z.D.D.D.D.D.D.v.x.l.z.g.0.z.d.z.x.d.",
"g.g.0.0.0.0.0.`.|.2.2.g.g.g.9.q.0.,.l.d.M.Z.D.D.m.b.l.;.@   ( L.+ .   e e   [ J h X -.0.,.l.d.M.D.D.D.m.b.l.g.g.0.0.0.0.0.0.8.2.",
"g.0.0.0.0.0.8.`.$X#X7.5.5.3.3.H.5.g.M.D.D.D.D.N.d.d.$.@   +XsXaX X X XOX@XOX2XeXoX  @ I g.M.D.D.D.D.N.d.d.x.g.0.0.0.0.0.8.5.6.5.",
"d.x.z.0.0.0.5.c 2X:X}.).D./.D.D.!.!.Z.d.d.N.D.N.N.d.6 + h j _.-XiXiXiXpXpXpX$X>   : X   !.Z.d.d.Z.D.N.N.d.d.d.l.z.0.0.0.5.H.D.A.",
"d.d.d.B.c./.!.5  XsX:X|.D.D.D.D.D.D.Z.Z.M.d.M.Z.M.M.  ] $X8X8X8X4X4X4X8X8X8X6XoX] { :   F Z.Z.d.d.M.Z.M.M.d.d.d.d.B.v./.!.D.D.D.",
"d.d.d.M.d.M.N.5 F.aXsX3X@ k.M.N.D.D.D.D.N.N.Z.M.d.G h {.,XuXsXaXaXsXyXyX0X8X5X%XU.{ l   5 D.D.M.Z.Z.M.d.d.d.d.d.d.M.d.N.N.D.M.M.",
"d.d.d.d.d.d.d.4 F.yXaXsXf L.d.M.Z.Z.M.Z.Z.Z.Z.M.k.- G.1X8XwXwXpXyXrXrXrX8X8X4X$X#X{ U @ + y.Z.Z.Z.Z.M.c.c.c.d.d.d.d.d.d.d.M.d.d.",
"g.0.z.d.N.D.M.2 F.qXsXaX>X_.C.d.d.d.d.d.d.d.x.,.=.  ,X8X4XH v yX8X8X8X8X8X8X4X$X$X{ { l   &.d.d.d.x.,.0.0.0.g.0.x.d.Z.D.M.d.d.d.",
"0.0.T.v.D.D.D.4 F.;X3XaXrX3XF l.x.d.d.d.d.l.0.,.3   rXrX$X  v yXrX8X8X8X5X-X$X$X$XI.' :   6 d.d.z.0.,.z.z.0.0.0.R.v.D.D.D.A.0.g.",
"x.d.l.l.l.M.l.6 H %X;XeXrXpX  -.0.g.9.z.z.l.l.x.5 h 0X3X]   P aXsX0X5X4X;X%X$X$X$X{.[ J     z.l.l.l.x.d.d.z.x.x.l.l.x.M.l.l.l.l.",
"d.N.H.5.4.Y.5.=.  G.-X$XqXsXj 3 d.z.z.d.d.d.f.Y.x =X7X%XH   v yXyX0X4X$X$X$X$X$X$X{.{ {     d.d.d.f.Y.f.f.h.d.B.3.5.Y.4.5.9.0.,.",
"Z.D.D.(.5.7.D.3.C > }.$X-X8XK.  &.d.d.d.d.h.3.V   .X,XL.    P aXtX8X8X$X$X$X$X$X$X$XP.{     9 d.Y.3.J.;   ; n.D.D.(.5.3.D.3.v.0.",
"D.A.Q.A.A.B.M.D.n.  ] $X&X1X8Xf ; Q.c.B.!.).D.F   f k >     @  X+X.X.XL.L.L.I.$X{.U.' J     C W.A.n., > c   i.B.Q.A./.D.M.D.D.V.",
"0.0.0.0.0.z.d.d.d.6 h $X$X$X8XXX  t.N.d.d.M.c.3                           h ] #XU.{ l       9 d.G 2 H _.h   =.0.0.0.,.z.d.d.d.M.",
",.0.g.0.0.0.0.g.9.;.X H $X$XH 8Xj 6 M.Z.N.d.d.  j 0Xh +             : j *X5X$X$X$X{ { l     k.G   ] }.>     =.9.g.0.0.0.0.g.,.R.",
"z.x.d.z.0.g.x.M.d.D.5 $ $X$X  8X>X  D.N.Z.D.M.  K.0X$Xh     n +X.X.X:X8X,X%X$X$X$XU.' @     -   ( $X>   1 = @.x.d.z.0.z.x.M.d.D.",
"d.d.d.d.d.d.Z.D.D.V.u.  ] $XH I.8Xj 4 d.d.N.N.  .XtX6XL.    wXaXrX8X8X$X$X$X#XG.{ { l       h ] $Xh i Q ^ * &.d.d.d.d.d.Z.D.D.B.",
"z.d.d.d.l.g.,.z.,.0.4.x > }.] l 1XK.X *.l.*.$.  oX0XiX*Xc   2XrX8X8X1X$X$X$X$XP.{ N X   h J { { N Y ^ ^ ^ * &.d.d.d.l.,.,.z.,.0.",
"d.d.d.d.d.d.d.d.d.d.,.:.  L.$X: b <X  @.3 X     N 5X8X1XH   wXtX8X5X%X$X$X$XI.> :   ( L.$X$X#X].~ ^ ^ ^ ^ * &.d.d.d.d.d.d.d.d.x.",
"5.5.x.4.5.1.d.M.D.Z.g.d.6   $XL.  L.L.  *  .'.  : :X8X5X6X X2X8X8X4X$X$X$X$X  j 8X9XG.F.    H $X| ^ ^ ^ ^ * I 1.d.4.5.4.d.M.D.N.",
"D./.3.!.D.A.~.S.D.D.S.x.y.X ] _.$ c }.> i E t p + [ 4X5XtXpXyX8X8X4X$X_.L.H   h -Xj $ h L.L.$X$X| | _ ^ ^ * i.W.7.!.D.A.~.S.D.D.",
"D.D.D.D.D.D.D.D.D.D.D.D.d.4 h I.N   $X] * % 1 o.<   L.,X8XyXtX8X8X4XL.h       h -X  H $X$X$X<X<X'.| ^ ^ ^ * i.D.D.D.D.D.D.D.D.D.",
"A.Q.v.Z.Z.d.M.V.T.T.D.D.D.G   N { : $ H   i o.o.r u # [ 8X8X5X,X[ :           h -X  L.$X$X;X4X6X[._ ^ ^ ^ * p.Q.v.Z.M.d.M.V.T.v.",
"0.0.,.d.d.x.0.0.0.0.x.d.G X + $ J h   = i ! / p & u e $ j .XN h       # & y   h $XX I.$X&X,X;X;X'./ ^ ^ _ < =.0.g.d.d.x.0.0.0.,.",
"0.0.0.0.g.,.0.z.x.g.,.$.% i y       w M ^ Q i   y W M w           & w a M T   h $X: {.$X-X8X<X&X| ^ ^ O.].h =.0.0.0.g.0.0.z.x.,.",
"g.z.z.,.0.g.z.z.d.d.d.9 = p & . # a M Y 1 X :   # a ^ M e   . # a a M R ^ T   h $Xk {.$X$X$X$X{._ o.$X$X$Xh -.z.z.,.0.z.z.z.d.d.",
"d.d.d.d.d.d.d.d.d.d.d.:.      . u a # . h U { h . u R R a y u a a T ! ^ ^ T   h $X{ {.$X$X$X$X|.%X8X$X$X$Xh &.d.d.d.d.d.d.d.d.d.",
"x.x.z.g.0.g.d.z.x.d.z.0.=.  y u w     c $X#XG.l     p ! Q a a M ^ ^ ^ ^ ! T   h $X' U.$X$X[.| o.8X<X;X$XL.$ $.l.z.g.0.z.d.z.x.d.",
"g.g.0.0.0.0.0.0.8.2.2.g.g.3         I.$X$X$XP.l       e R ^ ^ ^ ^ ^ ^ ^ ! W   h $Xb L.]./ / '.].8X4X$X$XH X ;.g.0.0.0.0.0.0.8.2.",
"g.0.0.0.0.0.8.5.6.5.5.5.5.-.K K ;   $X$X$X}.} @       + t ^ ^ ^ ^ ^ ^ M a a   h U.  E ^ o./ '.o.-X$X$X$X$ 2 g.0.0.0.0.0.8.5.6.5.",
"d.x.l.0.0.8.5.W.D.D.H.A.D.).D.D./.  $ H N l @   - s.2     # w w w w w w w w   q P.  Y ^ ^ _ _ [.$X$X$X]   &.d.x.l.0.0.q.5.W.D.A.",
"d.d.d.Z.N.D.(.D.D.D.D.D.D.D.D.D.D.F ,       + y + t.a.G 2                     $ ' $ Y ^ ^ ^ ^ $X$X$X] + 9 s.d.d.d.Z.Z.D.(.D.D.D.",
"d.d.d.M.d.M.N.D.M.d.D.N.d.Z.M.N.D.D.A.i.t., y e . &.d.d.d.      6 t.i.t.,       @ [ B ^ ^ ^ O.$X$X]   G d.d.d.d.d.M.d.N.N.D.M.M.",
"d.d.d.d.d.d.d.M.d.d.M.d.d.d.d.M.Z.Z.M.Z.Z.F     @ a.k.a.a.7       9 #.#.;     2 ; @ h * ^ ^ '.$X]   G c.c.c.d.d.d.d.d.d.d.M.d.d.",
"g.0.z.d.N.D.M.d.d.d.x.z.d.d.d.d.d.d.d.d.d.s.$.=.A =.w.Z A Z ,     C #.7 O   @ @.G @ @ @ 1 ! '.] + C ,.0.0.0.g.0.x.d.Z.D.M.d.d.d.",
"0.0.T.v.D.D.D.A.0.g.g.g.g.d.d.l.x.d.d.d.d.l.0.-.+.+.A A A V 4     8 u.g     o x #.G @ l h 1 E   6 0.,.z.z.0.0.0.R.v.D.D.D.A.0.g.",
"x.d.l.l.l.M.l.l.l.l.x.l.g.x.l.0.0.g.9.z.z.l.$.#.#.#.+.#.#.- - ; ; 4 @.7 - ; - - 7 @.V o b     x l.l.x.d.d.z.x.x.l.l.x.M.l.l.l.l.",
"d.N.H.5.4.Y.5.9.0.g.0.0.0.g.0.z.d.z.z.d.d.d.$.A +.+.K #.%.K D A S D A A Z A A A +.A +.G @   9 d.d.f.Y.f.f.h.d.B.3.5.Y.4.5.9.0.,.",
"D.D.D.A.7.H.D.!.B.T.h.g.l.g.0.z.l.l.d.d.h.R.J.L K K K r.e.e.u.D K e.K %.K +.+.@.A A +.@.Z 0 d.h.R.!./.H.!.E.D.D.D.A.7.!.D.!.B.T.",
"D.V.0.V.D.V.d.D.D.D.Z.d.d.l.0.T.v.v.v.(.(.D.D.k.u.e.e.e.%.A %.u.r.#.r.e.e.r.#.#.+.A K >.p.v.(.A.D.D.B.V.D.D.D.v.0.V.A.Z.d.D.D.D.",
"0.0.0.0.0.z.d.d.d.M.M.d.d.l.N.N.N.N.N.d.d.M.c.z.0.j.;.A A A A A +.#.#.#.#.%.#.#.+.t.n.m.N.N.d.d.M.c.z.0.R.T.0.0.0.0.,.z.d.d.d.M.",
",.0.g.0.0.0.0.g.,.T.R.d.d.d.d.d.d.d.M.Z.N.d.d.d.d.d.g.,.0.<.;.;.;.;.;.;.:.:.a.d.d.d.d.d.d.M.Z.M.d.d.d.d.d.g.,.9.g.0.0.0.0.g.,.R.",
"z.x.d.z.0.g.x.M.d.D.D.M.d.d.d.d.M.Z.D.N.Z.D.M.x.z.z.z.z.x.d.z.0.z.x.M.d.D.D.M.d.d.d.d.M.Z.D.N.D.D.M.x.z.z.z.z.x.d.z.0.z.x.M.d.D.",
"d.d.d.d.d.d.Z.D.D.V.B.Z.N.M.d.d.d.d.M.d.d.N.N.d.d.d.d.d.d.d.d.d.d.Z.D.D.V.B.Z.N.d.d.d.d.d.M.d.M.N.N.d.d.d.d.d.d.d.d.d.d.Z.D.D.B.",
"d.d.d.d.l.g.,.z.,.0.0.Q.Q.Q.Q.T.,.g.h.l.l.l.x.d.d.d.d.d.d.d.d.l.,.,.z.,.0.0.Q.Q.Q.Q.T.,.g.h.l.l.l.x.d.d.d.d.d.d.d.d.l.,.,.z.,.0.",
"d.d.d.d.d.d.d.d.d.d.,.g.z.,.0.0.0.0.g.z.z.d.d.d.d.d.d.d.d.d.d.d.d.d.d.d.d.,.g.z.0.0.0.0.0.g.z.l.d.d.d.d.d.d.d.d.d.d.d.d.d.d.d.x.",
"H.5.j.1.H.H.x.M.D.D.b.x.d.x.d.x.d.M.M.d.d.d.d.d.d.x.3.H.5.j.1.H.3.x.M.D.D.b.x.d.x.d.x.d.M.M.d.d.d.d.d.d.x.3.H.6.h.1.H.3.x.M.D.Z."
};
