/* XPM */
static char *e01414ea751c4e55bcbd2eb0cc02fcccKxYNnYLHCnkJdJH7[] = {
/* columns rows colors chars-per-pixel */
"64 64 218 2 ",
"   c #161C2E",
".  c #1B1E31",
"X  c #1D2431",
"o  c #222334",
"O  c #242A35",
"+  c #2B2439",
"@  c #2E2E39",
"#  c #2A2535",
"$  c #35293D",
"%  c #3E2A38",
"&  c #342736",
"*  c #2C3534",
"=  c #2C3636",
"-  c #35343D",
";  c #3A393E",
":  c #353A38",
">  c #41333D",
",  c #53323D",
"<  c #384338",
"1  c #42473B",
"2  c #48573A",
"3  c #47583D",
"4  c #53593D",
"5  c #596B3E",
"6  c #53643D",
"7  c #313A40",
"8  c #402D45",
"9  c #4B314A",
"0  c #4B3142",
"q  c #5B3846",
"w  c #543550",
"e  c #5C3854",
"r  c #663942",
"t  c #673B4A",
"y  c #693D5B",
"u  c #663C57",
"i  c #713E4F",
"p  c #3C4545",
"a  c #3B5142",
"s  c #464243",
"d  c #4C4E4D",
"f  c #4E4649",
"g  c #574C4D",
"h  c #574744",
"j  c #445844",
"k  c #5D574D",
"l  c #4E5158",
"z  c #5F5452",
"x  c #424755",
"c  c #6E504E",
"v  c #794259",
"b  c #665954",
"n  c #77484B",
"m  c #556643",
"M  c #5A784C",
"N  c #5B7C52",
"B  c #577554",
"V  c #4F6752",
"C  c #676B43",
"Z  c #667B44",
"A  c #7A7F48",
"S  c #766959",
"D  c #77645C",
"F  c #667B56",
"G  c #6A6D5A",
"H  c #505562",
"J  c #7F6960",
"K  c #537463",
"L  c #8C474B",
"P  c #994C57",
"I  c #914958",
"U  c #965A56",
"Y  c #874E56",
"T  c #A24E53",
"R  c #AB5255",
"E  c #A95A57",
"W  c #B65555",
"Q  c #B95D59",
"!  c #81725E",
"~  c #99695E",
"^  c #BB625C",
"/  c #AA655D",
"(  c #866F63",
")  c #8D7C63",
"_  c #8A7969",
"`  c #977B6B",
"'  c #9B7F6D",
"]  c #BE6C61",
"[  c #AA7063",
"{  c #BE7566",
"}  c #AB6B60",
"|  c #C27A69",
" . c #C27966",
".. c #64814C",
"X. c #698349",
"o. c #6F8A4A",
"O. c #728944",
"+. c #7B884D",
"@. c #7A9246",
"#. c #78974E",
"$. c #608556",
"%. c #698956",
"&. c #6B935A",
"*. c #779A55",
"=. c #718953",
"-. c #7EAA5F",
";. c #79A25A",
":. c #5D8163",
">. c #6F976E",
",. c #6E996E",
"<. c #7B9C6C",
"1. c #749B6A",
"2. c #679175",
"3. c #6B9670",
"4. c #749770",
"5. c #75A367",
"6. c #7BA762",
"7. c #79A863",
"8. c #73A069",
"9. c #8A884D",
"0. c #85884A",
"q. c #87964A",
"w. c #828851",
"e. c #959250",
"r. c #9F9C53",
"t. c #909751",
"y. c #88A44A",
"u. c #94AC4C",
"i. c #9BB94E",
"p. c #97B54D",
"a. c #8EAF57",
"s. c #83AD5C",
"d. c #89AD5B",
"f. c #83A75F",
"g. c #95A85A",
"h. c #8EB355",
"j. c #8AB058",
"k. c #94B552",
"l. c #9CB15E",
"z. c #98B458",
"x. c #A4B755",
"c. c #A4B951",
"v. c #ADB954",
"b. c #A6B35D",
"n. c #ADB55D",
"m. c #B4B956",
"M. c #B2B55D",
"N. c #B7B959",
"B. c #BEBA5B",
"V. c #AAA655",
"C. c #82816D",
"Z. c #97846C",
"A. c #849E6C",
"S. c #9C9576",
"D. c #A58F6E",
"F. c #A78A71",
"G. c #AE9375",
"H. c #B79A77",
"J. c #81A561",
"K. c #82AB61",
"L. c #89AC61",
"P. c #8EA369",
"I. c #95A766",
"U. c #90AE60",
"Y. c #93A568",
"T. c #9BAC61",
"R. c #98B160",
"E. c #A1AC63",
"W. c #A9AF61",
"Q. c #BCA279",
"!. c #B8B172",
"~. c #C5836E",
"^. c #CA9876",
"/. c #CA8F76",
"(. c #C5A77D",
"). c #CAA97D",
"_. c #CBB57D",
"`. c #D1A97E",
"'. c #8B8E97",
"]. c #B9B08C",
"[. c #B7B48D",
"{. c #B3A687",
"}. c #9F96A2",
"|. c #BDB7A8",
" X c #AA9AA7",
".X c #CDAE80",
"XX c #D5B583",
"oX c #D8BC89",
"OX c #D7B787",
"+X c #D0B98F",
"@X c #CDBEA7",
"#X c #DBC18D",
"$X c #DEC692",
"%X c #D9C69B",
"&X c #CAC496",
"*X c #E1CA96",
"=X c #E1CE98",
"-X c #E5D29D",
";X c #D2C8B0",
":X c #E1C9A2",
">X c #E9D6A1",
",X c #EBDBA5",
"<X c #E7D8A7",
"1X c #EDDEB6",
"2X c #EFE2AB",
"3X c #EAE0A7",
"4X c #F1E5B7",
"5X c #EEE6B4",
"6X c #CECECE",
"7X c #EADAC1",
"8X c #F3EAC0",
"9X c #F4EBCB",
"0X c #F7F0D4",
"qX c #F4EACF",
"wX c #F5EDE0",
"eX c #FAF7EA",
"rX c white",
"tX c #FCF9F3",
/* pixels */
"i.v.A.2.1.J.2.6.7.s.7.7.7.s.7.j.i.j.j.i.i.i.a.J.a.a.d.i.v.A.2.J.1.2.6.7.s.7.7.7.j.7.j.i.j.j.i.i.i.a.J.a.a.d.i.b.<.2.J.1.2.6.7.-.",
"m.B.B.W.2.4.B.<.l.7.s.7.j.-.7.k.i.i.i.i.i.d.<.Y.2.<.4.m.B.B.W.2.<.B.<.l.7.s.7.j.7.7.k.i.i.i.i.i.J.<.Y.2.<.4.m.B.B.W.2.<.B.<.l.7.",
"B.M.U.M.M.b.c.B.B.M.x.i.i.h.7.K.U.U.z.b.Y.W.B.n.M.B.B.B.M.U.M.E.B.c.B.B.M.x.i.i.j.7.K.U.U.z.b.I.M.B.n.M.B.B.B.b.U.M.E.B.c.B.B.n.",
"7.7.7.7.7.j.i.i.i.c.c.i.i.h.v.v.v.v.v.q.2 & % # = =.*.7.7.7.7.-.j.i.i.i.c.c.i.i.j.v.v.v.v.v.i.i.c.z.j.7.L.K.7.7.7.7.-.j.i.i.i.c.",
"s.7.7.7.7.7.7.s.s.7.7.i.i.i.i.i.i.i.< X   , W #     O j 7.7.7.7.7.7.s.s.7.7.i.i.i.i.i.i.i.c.v.c.i.i.i.i.i.j.s.7.7.7.7.7.7.s.s.7.",
"s.j.i.s.7.s.j.z.h.M.N.c.i.i.i.i.c.<     r T | ~.~.~.c h   5 *.7.s.j.z.h.M.N.c.i.i.i.i.c.v.B.m.N.m.c.k.h.h.s.s.h.i.s.7.s.j.z.h.N.",
"i.i.i.i.i.i.m.B.B.n.b.m.v.c.i.u.= o 0 W Q ^ ^ ~.{ W { ~.{ n < y.i.m.B.B.n.b.m.v.i.i.i.i.i.c.i.c.v.v.i.i.i.i.i.i.i.i.i.i.m.B.B.b.",
"i.i.i.i.h.s.-.j.-.7.7.U.U.U.U.=   o R W Q | ~.~.| | ~.~.~.~.Y O -.-.j.-.7.7.U.U.U.U.K.-.s.d.h.h.h.k.i.i.i.i.i.i.i.i.h.-.-.j.-.7.",
"i.i.i.i.i.i.i.i.i.i.-.s.j.-.$.    W W W W | ~.~.~.~.^ ] ~.~.] L < y.i.i.i.-.s.j.7.7.7.7.7.s.j.h.i.i.i.i.i.i.i.i.i.i.i.i.i.i.i.k.",
"2.2.k.1.2.>.i.c.B.m.s.i.i.k.5 o 9 I W W T U ~ ~ { ~.| ] } ~.~.[   Z c.B.m.s.i.i.k.i.h.i.i.i.i.i.i.i.i.i.i.<.2.>.i.1.2.1.i.c.B.v.",
"B.E.<.Y.B.M.T.N.B.B.N.k.i.i.m o u P W , #       $ [ ~.~./ n | ~.L h N.B.B.N.k.i.c.c.m.m.B.B.i.k.<.<.f.<.>.I.B.I.4.Y.B.M.T.N.B.B.",
"B.B.B.B.B.B.B.B.B.B.B.B.i.c.C + T W T 0 8 8 8       ~ ~.~.> c ~.U ; e.B.B.B.B.i.c.v.v.v.v.k.2.>.W.W.2.W.W.Y.B.B.B.B.B.B.B.B.B.B.",
"B.l.b.B.m.i.c.B.L.L.B.B.B.v.5 o i T R Y y y y 8 .   # Y | / % Y ^ % C L.L.B.B.B.c.i.i.i.v.<.W.E.B.B.B.B.B.B.B.l.n.B.v.i.c.B.L.l.",
"K.7.6.i.c.k.s.6.7.7.x.c.c.i.@.  w v W P y y y y +     % ^ | > c I & j 7.7.x.c.i.i.i.v.m.B.B.B.v.i.c.B.c.j.d.K.7.-.i.i.k.s.6.7.s.",
"7.7.7.7.s.-.7.j.k.s.-.k.i.i.v.:   w y y y y e $ X :   o u R t R Y 9 m k.s.-.k.i.i.v.c.i.i.v.i.i.i.i.c.j.7.7.7.7.7.7.s.7.7.j.k.-.",
"s.j.j.-.7.s.j.j.i.i.i.i.i.i.k.;.3   + + + + . O N s.2   r i $ L 8 : *.i.i.i.i.i.i.k.s.k.i.i.i.i.k.h.s.7.s.i.s.j.j.-.7.j.j.j.i.i.",
"i.i.i.i.i.i.i.i.i.i.i.s.7.j.7.7.j.5 2       4 @.c.v.<   r t q W   5 i.i.i.i.s.-.j.7.7.j.i.i.i.i.m.m.i.c.v.c.i.i.i.i.i.i.i.i.i.i.",
"k.k.j.s.7.s.i.j.k.i.j.7.7.7.7.7.7.7.j.j.m.B.r.4   @   . t   % q     3 y.i.j.7.7.7.7.7.7.7.j.j.B.B.B.B.B.B.l.k.z.R.s.7.j.i.j.k.i.",
"s.s.7.7.7.7.7.7.5.,.,.s.s.s.6.8.7.-.h.i.c.t.o s D _   9 9   . o D.!   O :.,.s.s.s.6.8.7.-.h.i.c.B.B.B.x.a.h.s._.!.7.7.7.7.7.5.,.",
"s.7.7.7.7.7.5.2.3.2.2.2.2.<.<.A.2.s.c.B.e.*   {.7X;X}. X}.'.'.'.rXtX|.  O K 2.2.J.<.A.2.s.c.B.B.B.B.v.i.i.z._.XX!.7.7.7.5.2.3.2.",
"i.k.j.7.7.7.2.A.B.B.4.W.B.E.B.B.Y.Y.m.i.  X -   ; XXeXeXeXwXwXwX#XQ.d s o p W.B.Y.B.B.Y.Y.m.i.i.m.B.v.v.x._.%X;Xk 7.7.7.2.A.B.M.",
"i.i.i.b.z.E.Y.B.B.B.M.B.B.B.B.B.B.B.m.m   - ` ) {.<X2X2X2X>X>X>X2X2X2XXX)   B.B.B.B.B.B.B.m.m.i.i.c.m.c._.%XtX'.< b.l.E.Y.B.B.B.",
"i.i.i.c.i.c.v.B.c.i.B.v.i.m.c.v.B.B.B.1   g ` H.oX,X2X4X0X0XtXrXrXtXqX*X(.s A c.m.c.v.B.B.B.B.c.m.m.y.O :XtXrXC.< c.i.v.v.B.c.c.",
"i.i.i.i.i.i.i.c.i.i.c.i.i.i.i.c.m.m.q.o O J ` .XXX>X2X2X8X8X8X0XeX6X6X2X-XZ.= u.i.i.c.m.m.c.m.m.m.m.D.p tXrX0XC.< i.i.i.i.c.i.i.",
"s.7.j.i.v.B.c.i.i.i.k.j.i.i.i.i.i.i.@.  g ` ` XXXX>X2X2X2X2X2X2X0Xl S >X2X*X  @.i.i.i.i.i.i.i.i.i.b.Q.&XrXtX5XC.< i.m.B.c.i.i.i.",
"7.7.K.l.B.B.B.M.7.s.s.s.s.i.i.h.k.i.2   - ( G.XXXXXX#X,X2X2X2X8X0Xl   XX7X8X  < i.i.h.k.i.i.i.i.j.b :X8XrX:X$XC.< l.B.B.B.M.7.s.",
"k.i.h.h.h.c.h.h.h.h.k.h.s.k.h.7.7.s.    D _ (.XXXXXXoX$X>X,X4XtXrXH   ) :X4Xs < i.h.7.7.s.6.j.j.#.  eX8X7X$XoXG 3 h.k.c.h.h.h.h.",
"i.v.A.2.1.J.2.6.7.s.7.7.7.s.7.j.i.j.    ` ` (.XXXXXXXXXXXX>X4X0X0Xl   S oX1X@Xj j.7.j.i.j.j.i.i.< d tX5XXX#XZ.  F 2.J.1.2.6.7.-.",
"m.B.B.W.2.4.B.<.l.1.=   = ;.7.k.i.5     ` F.XXXXXXXXXXXXXX2X2X9XrXH     D.*X].  j 7.k.i.i.i.i.@.  S.2X#XXX).; C B.W.2.<.B.<.l.7.",
"B.M.U.M.M.b.c.B.B.t.  k ; = &.K.U.m     D ( H.(.XXG.D.D.D.].].|.'.O     ; f p   m 7.K.U.U.z.b.= p 2X-XOXXX)   g.U.M.E.B.c.B.B.n.",
"7.7.7.7.7.j.i.i.i.q.  s Q.S < A v.C       g ` H..X) s                           < v.v.v.v.v.@.  [.2XXXXXXXs a 7.7.7.-.j.i.i.i.c.",
"-.7.s.7.7.7.7.s.-.%.    ; ).)   Z y.    g ` ` XXXXXX,X+Xd -             o s 4Xd   i.i.i.i.c.4 d 2XG XXXXS X %.6.s.7.7.7.7.s.-.L.",
"j.k.i.j.7.s.k.c.i.e.& ,   ; XX!   *     O J H.XXXXXXoX*X2X%X].].|.x     s XX4XS.  i.i.c.m.B.  &X2X  XXXX@ < j.k.i.j.7.j.k.c.i.B.",
"i.i.i.i.i.i.m.B.B.9.% W T r s XX) s       g ` ` Z..XXXXXXX2X2X8XrX6X    D.<X9X].  i.i.i.i.< d 2XG.S XX)   @.i.i.i.i.i.i.m.B.B.b.",
"j.i.i.i.h.s.-.j.-.$.% W W W L b ` ` S s   X b ` F.XXXXXXXX-X2X2X8X;X  k +XwX4X{.  =.&.-.&.X S.-Xg ) ).; 2 u.i.i.i.i.h.-.-.j.-.7.",
"i.i.i.i.i.i.i.i.i.@.% W W W W E ^..XXXXXD.!   - ; G.XXXXXXoX,X2X9X6X  S -X2X,Xb     X : $.  =Xz - XXD.  y.i.i.i.i.i.i.i.i.i.i.k.",
"2.2.k.1.2.>.i.c.B.t.% W W W W ] XXS     C.Z.3X2Xd   XXXXXXXX>X2X2X;X'.<X,X2X%X-   ~.[ %   D.D.  D.XX  2 i.<.2.>.i.1.2.1.i.c.B.v.",
"B.E.<.Y.B.M.T.N.B.e.% W W ^ ] ] XXXXD.D.s @ d #Xs   S D.Q.XX>X2X2XqXeX9X,X>X_ o t q U r ; ).k @ Q.) X $.>.I.B.I.4.Y.B.M.T.N.B.B.",
"B.B.B.B.B.B.B.B.B.e.% W W W ] ~.=X=XXXXXXXS   #Xs       s D.>X2X2X9X0X2X*XD.  > | , # % ) XX  b G.s 7 W.W.Y.B.B.B.B.B.B.B.B.B.B.",
"M.U.l.m.m.i.c.n.K.%.% W W W ^ /.,X>X$XXXXXD.  #Xs           - _ *X,X2X2X_ + e 0 | | r   S @ - ` b   A B.m.B.M.U.l.m.v.i.c.n.K.l.",
"7.7.-.i.i.k.7.7.7.$.> ^ W W Q ~.$X$X*XOXXXG.X XXs   w $ +       s G ].d + 9 e $ t Q R r &   s D @ o o Z s.7.7.7.s.i.i.k.7.7.7.-.",
"7.7.7.7.s.-.7.j.k.%.s ^. .W W ] OX=X2X#XXX(.- XXs   I v y 8 $           8 v Y w   r T W v 8       w r # $.7.7.7.7.7.s.7.7.j.k.-.",
"s.j.j.-.7.s.j.j.i.@.s XXXXXX| ^ `.XXXXXXXX(.f XXs   I W P v y y + .   9 v W y +   - X , L v y + . $ t & m i.s.j.j.-.7.j.j.j.i.i.",
"i.i.i.i.i.i.i.i.i.@.s XXXXXX2XoX`.XXXXXXXX(.` XXs   I W W R I y y e w y P P e . s ` J s . + y e .       u.c.i.i.i.i.i.i.i.i.i.i.",
"k.k.j.s.7.s.i.j.k.@.@ D.XX$X=X2X| ] /.XXXXH.( XXs   I R W W W W v y y T R t     g Z..XXXk     8 e w   e.B.l.k.h.j.s.7.j.i.j.k.i.",
"s.s.7.7.7.7.7.7.5.:.X S XXXX>X2X^.~.Q Q ^.D.z XXs   Y R W W W W W W W P 9       g F.XXXXXXG.        < x.a.h.s.s.7.7.7.7.7.7.5.,.",
"s.7.7.7.7.7.5.2.3.2.7 @ XXXXXX#X| ~.Q | W U   H.s   y y v W W W W W W q o       O ' ).XXXXXX  : e.e.t.i.i.k.s.7.7.7.7.7.5.2.3.2.",
"i.k.h.7.7.5.2.I.B.B.F   ) XXXXXX/.^ ^ W W L   F.7   8 8 8 8 8 8 8 8 +     : g.*   O g b S @   i.v.B.m.m.c.i.i.k.h.7.7.8.2.I.B.M.",
"i.i.i.m.v.B.W.B.B.B.M.C o ) XXXXXXW W W W L @ ( @                     1 A V.e.o w o       : C c.i.i.v.i.c.i.i.i.i.m.m.B.W.B.B.B.",
"i.i.i.c.i.c.v.B.c.i.B.v.Z   ) XXXX .W W W n _ O       = @.@.q.2       c.i.B.q.. 9 w : e.e.M.B.c.m.m.c.i.i.i.i.i.i.c.i.v.v.B.c.c.",
"i.i.i.i.i.i.i.c.i.i.c.i.i.Z   ) XX~.W W % s O * <     * O.O.5       4 y.y.u.y.O     5 m.m.c.m.m.m.m.c.z.z.z.i.i.i.i.i.i.i.c.i.i.",
"s.7.j.i.v.B.c.i.i.i.k.j.i.i.5 o ) ~.R , O O O M B O   X j ..5     : Z O.O.O.o.O.O.@.p.i.i.i.i.i.i.k.-.7.7.7.s.7.k.i.m.B.c.i.i.i.",
"7.7.K.l.B.B.B.M.7.s.s.s.s.i.i.3   U , s g O B N j O     a F 1     1 C N N ..N ..@.i.h.k.i.i.i.i.j.7.-.j.j.7.7.7.L.l.B.B.B.M.7.s.",
"k.i.h.h.h.c.h.h.h.h.k.h.s.k.h.7.j     z O m X.4 * * = * 4 X.< * * = = X.X.O.X...O.o.7.7.s.6.j.j.h.h.k.i.i.j.k.k.h.h.k.c.h.h.h.h.",
"i.v.A.2.1.J.2.6.7.s.7.7.7.s.7.j.i.m   O Z O.X.N X.X.F O.+.F K N B K N N N N N N ..$.j.i.j.j.i.i.i.a.J.a.a.d.i.b.<.2.J.1.2.6.7.-.",
"B.B.B.M.4.A.B.Y.b.K.d.s.h.s.7.j.h.h.6 Z F F F A F F F 0.9.9.w.K F 9.F +.F ....X.N &.j.h.h.i.i.d.J.Y.E.A.Y.P.B.B.B.M.4.Y.B.Y.b.K.",
"B.n.7.n.B.n.i.B.B.B.m.i.i.h.7.K.l.l.l.t.w.9.9.+.+.9.9.9.+.N +.w.0.O.0.9.9.0.O.@.*.7.K.l.l.l.W.M.B.B.b.n.B.B.B.l.7.n.M.m.i.B.B.B.",
"7.7.7.7.7.j.i.i.i.c.c.i.i.h.v.v.v.v.v.i.p.u.+...N F F N N N N N ..O.O.O.O.q.u.p.j.v.v.v.v.v.i.i.c.z.j.7.L.K.7.7.7.7.-.j.i.i.i.c.",
"-.7.s.7.7.7.7.s.-.K.L.i.i.i.i.i.i.i.c.m.v.i.i.i.i.y.*.&.&.*.&.&.&.&.;.-.K.L.i.i.i.i.i.i.i.c.m.c.i.i.i.i.i.s.-.6.s.7.7.7.7.s.-.L.",
"j.k.i.j.7.s.k.c.i.B.B.c.i.i.i.i.c.m.B.v.m.B.c.k.j.j.j.j.k.i.j.7.j.k.c.i.B.B.c.i.i.i.i.c.m.B.v.B.B.c.k.j.j.j.j.k.i.j.7.j.k.c.i.B.",
"i.i.i.i.i.i.m.B.B.n.b.m.v.c.i.i.i.i.c.i.i.v.v.i.i.i.i.i.i.i.i.i.i.m.B.B.n.b.m.v.i.i.i.i.i.c.i.c.v.v.i.i.i.i.i.i.i.i.i.i.m.B.B.b.",
"i.i.i.i.h.s.-.j.-.7.7.U.U.U.U.K.-.s.d.h.h.h.k.i.i.i.i.i.i.i.i.h.-.-.j.-.7.7.U.U.U.U.K.-.s.d.h.h.h.k.i.i.i.i.i.i.i.i.h.-.-.j.-.7.",
"i.i.i.i.i.i.i.i.i.i.-.s.j.-.7.7.7.7.s.j.j.i.i.i.i.i.i.i.i.i.i.i.i.i.i.i.i.-.s.j.7.7.7.7.7.s.j.h.i.i.i.i.i.i.i.i.i.i.i.i.i.i.i.k.",
"A.2.f.>.A.A.k.c.B.B.a.k.i.k.i.k.i.c.c.i.i.i.i.i.i.k.<.A.2.f.>.A.<.k.c.B.B.a.k.i.k.i.k.i.c.c.i.i.i.i.i.i.k.<.A.3.d.>.A.<.k.c.B.m."
};
