/* XPM */
static char *result[] = {
/* columns rows colors chars-per-pixel */
"64 64 231 2 ",
"   c #161C2E",
".  c #191E2F",
"X  c #1B1E31",
"o  c #1A202F",
"O  c #1D2231",
"+  c #242434",
"@  c #242B34",
"#  c #2A2A36",
"$  c #2B2539",
"%  c #2B2D3A",
"&  c #272536",
"*  c #372A3B",
"=  c #2E3D3B",
"-  c #2C3537",
";  c #363B36",
":  c #34333B",
">  c #38393C",
",  c #462E3E",
"<  c #482E3D",
"1  c #43333B",
"2  c #47363C",
"3  c #5C353F",
"4  c #394637",
"5  c #374339",
"6  c #444C3B",
"7  c #44473C",
"8  c #49563B",
"9  c #515A3D",
"0  c #58683E",
"q  c #5E723F",
"w  c #3A2B41",
"e  c #3E3B41",
"r  c #363D46",
"t  c #2D3B41",
"y  c #442E46",
"u  c #493646",
"i  c #553A44",
"p  c #583851",
"a  c #683B46",
"s  c #703E45",
"d  c #673C56",
"f  c #3A4949",
"g  c #454143",
"h  c #494847",
"j  c #564849",
"k  c #4A5846",
"l  c #565749",
"z  c #494B52",
"x  c #5B5852",
"c  c #435D55",
"v  c #664549",
"b  c #7A464A",
"n  c #68534D",
"m  c #7A4457",
"M  c #675B54",
"N  c #734F52",
"B  c #5D6B40",
"V  c #576747",
"C  c #5B764A",
"Z  c #5B7C52",
"A  c #5A785A",
"S  c #4D6551",
"D  c #666B45",
"F  c #677944",
"G  c #757847",
"H  c #69665A",
"J  c #76685A",
"K  c #677B57",
"L  c #5A5C63",
"P  c #5A7266",
"I  c #646566",
"U  c #787874",
"Y  c #7B7363",
"T  c #6D5364",
"R  c #88494C",
"E  c #894755",
"W  c #994C56",
"Q  c #8A5755",
"!  c #914A4D",
"~  c #A44F53",
"^  c #AC5255",
"/  c #A85956",
"(  c #B55555",
")  c #B85A58",
"_  c #83735E",
"`  c #94645B",
"'  c #B9635C",
"]  c #A7625B",
"[  c #826D62",
"{  c #887763",
"}  c #957C67",
"|  c #807E74",
" . c #AB6C60",
".. c #BD6D62",
"X. c #B97566",
"o. c #AC7A66",
"O. c #C27B6A",
"+. c #C07566",
"@. c #6C8243",
"#. c #66824C",
"$. c #6A844A",
"%. c #6E8B4C",
"&. c #738A45",
"*. c #758849",
"=. c #7C9347",
"-. c #7B974C",
";. c #628553",
":. c #668A56",
">. c #749B59",
",. c #748B54",
"<. c #7EAA5F",
"1. c #7BA55B",
"2. c #688D67",
"3. c #6F976E",
"4. c #6F9B6D",
"5. c #7B9C6C",
"6. c #749A69",
"7. c #679175",
"8. c #6B9670",
"9. c #749770",
"0. c #648C72",
"q. c #75A365",
"w. c #7BA662",
"e. c #79A863",
"r. c #73A069",
"t. c #5F8360",
"y. c #85864B",
"u. c #88944B",
"i. c #9B9951",
"p. c #8A9658",
"a. c #A19E53",
"s. c #8AA54A",
"d. c #8DA84B",
"f. c #96AA4E",
"g. c #95B34D",
"h. c #9BB94E",
"j. c #9CB64E",
"k. c #8EAF57",
"l. c #83AC5C",
"z. c #89AD5A",
"x. c #83A65B",
"c. c #97A959",
"v. c #8EB355",
"b. c #8AB058",
"n. c #95B552",
"m. c #9CB25D",
"M. c #9AB457",
"N. c #A8A956",
"B. c #B2AE58",
"V. c #A4B654",
"C. c #A5B951",
"Z. c #ADB954",
"A. c #A6B35D",
"S. c #ADB55D",
"D. c #AAB656",
"F. c #B4B956",
"G. c #B2B55D",
"H. c #B7B959",
"J. c #BFBA5B",
"K. c #BBB65A",
"L. c #9C836B",
"P. c #978569",
"I. c #849E6C",
"U. c #889962",
"Y. c #948F74",
"T. c #A48D6D",
"R. c #A78B6F",
"E. c #A58A70",
"W. c #AC9371",
"Q. c #A89D7C",
"!. c #B79B77",
"~. c #B8856C",
"^. c #81A561",
"/. c #82AB62",
"(. c #8AAC61",
"). c #8EA369",
"_. c #95A666",
"`. c #90AE60",
"'. c #93A568",
"]. c #9BAC61",
"[. c #9CAA70",
"{. c #A1AC63",
"}. c #A9AF61",
"|. c #A6AC69",
" X c #BCA179",
".X c #B0B269",
"XX c #C5836E",
"oX c #CC9977",
"OX c #CB9175",
"+X c #C6A87D",
"@X c #D1AA7E",
"#X c #D2B67E",
"$X c #C0BA5D",
"%X c #767980",
"&X c #999583",
"*X c #959697",
"=X c #B7AC86",
"-X c #B2AA92",
";X c #BEBDB2",
":X c #A69F81",
">X c #C8AD82",
",X c #CCB284",
"<X c #D4B483",
"1X c #D7B986",
"2X c #D7BC8A",
"3X c #C9BD96",
"4X c #D7BE91",
"5X c #D4A884",
"6X c #C3BCA8",
"7X c #DDC28E",
"8X c #DEC693",
"9X c #D9CA98",
"0X c #E3CD9A",
"qX c #E1CA96",
"wX c #E6D29D",
"eX c #CDC5A7",
"rX c #D5CCB1",
"tX c #E2CFA6",
"yX c #E9D8A4",
"uX c #E5D9B8",
"iX c #EFE1AB",
"pX c #EEE2B4",
"aX c #F1E4B5",
"sX c #D3D0CC",
"dX c #E5DAC8",
"fX c #ECE3C5",
"gX c #F5ECC9",
"hX c #F6EED6",
"jX c #EFE9D5",
"kX c #FDFBF7",
"lX c #F4F0E6",
/* pixels */
"h.Z.I.7.6.^.7.e.e.l.e.e.e.l.e.v.h.b.b.h.h.h.k.^.k.k.z.n.Z.I.7.^.6.7.q.e.l.e.e.e.b.e.b.h.b.b.h.h.h.k.^.k.k.z.h.A.5.7.^.6.7.w.e.w.",
"H.J.J.}.7.9.J.5.m.e.l.e.b.w.e.h.h.j.h.h.h.z.5.'.7.I.9.H.$X$X}.7.5.$X5.m.e.l.e.b.e.e.h.h.h.h.h.h.^.5.'.7.5.9.H.$X$X}.7.5.$X5.m.e.",
"$XG.k.G.G.}.C.H.J.G.D.h.h.v.e.e.k.`.M.A.'.}.J.S.G.$X$XJ.G.k.G.].J.C.J.J.G.D.h.h.b.e./.(.(.m.A._.G.$XG.G.J.J.J.A.`.G.{.H.Z.H.$XS.",
"e.e.e.e.e.b.h.h.h.V.C.h.h.v.Z.F.Z.Z.Z.h.h.C.M.b.e.(./.w.e.e.e.<.b.h.h.h.C.C.h.h.b.Z.Z.Z.Z.Z.h.h.C.M.b.e.(.l.e.e.e.e./.b.h.h.h.Z.",
"/.e.e.e.e.e.e.l.l.e.e.h.h.h.h.h.h.h.C.Z.C.h.h.j.d.@.4 5 = 5 = = f :.l.l.e.w.h.h.h.h.h.h.h.C.Z.C.h.h.h.h.h.l.l.e.e.e.e.e.e.l.<.e.",
"l.b.h.l.e.l.b.M.v.G.H.h.h.h.h.h.C.C.H.F.K.F.j.=.; @ > 2 v b R a 2 ; 9 -.G.H.C.h.h.h.h.C.Z.H.F.H.F.C.h.v.n.l.l.v.h.l.e.l.b.M.v.H.",
"h.h.h.h.h.h.H.J.$XS.S.H.Z.h.h.h.h.h.C.h.h.V.D @ + N  . .' ( ^ ^ ~ v 2 D N.A.H.Z.h.h.h.h.h.C.h.h.D.D.h.h.h.h.h.h.h.h.h.h.H.J.J.A.",
"h.h.h.h.v.l.<.v.w.e.e.`.`.`.`./.<.l.b.v.v.&.@ # ! / +.+.O.+...) ( ~ a : S q.`.b.`.k./.<.l.l.v.v.v.h.h.h.h.h.h.h.h.h.n.<.<.b.<.e.",
"h.h.h.h.h.h.h.h.h.h.w.l.b.<.e.e.e.e.l.b.1.q 7 N X.O.O...O.O.X.X./ ~ ! < 5 K l.b.e.e.e.e.w.l.b.n.h.h.h.h.h.h.h.h.h.h.h.h.h.h.h.h.",
"7.7.n.6.7.4.h.C.J.H.b.h.h.h.h.v.h.h.h.h.d.0 N o.XXXX+...O.XXXX` v b W a > k h.h.n.h.v.h.h.h.h.h.h.h.h.h.h.5.7.4.h.r.7.4.h.C.J.D.",
"J.].5.'.J.G.m.H.J.J.H.h.h.C.C.F.F.J.J.j.d.k n XXXXXX+.+.O.XXX.v $ i W b w 6 j.h.C.C.F.Z.$XK.h.n.5.q.x.5.4._.J._.9._.J.G.].H.J.J.",
"$X$XJ.J.$X$XJ.J.J.J.J.J.h.h.Z.Z.Z.D.n.7.2.l , ' XXXX]  .XXXXo.i $ s W s y 6 J.h.C.Z.Z.Z.Z.n.7.3.}.}.7.}.}._.J.$XJ.J.J.J.J.J.J.J.",
"J.m.A.$XH.h.C.$X(.(.$XJ.$XZ.h.h.h.Z.6.S.i.D & Q XXXXQ ` ~.XX .i y E W d y h J.J.C.h.h.h.Z.r.A.{.J.J.J.J.$XJ.J.m.S.J.Z.h.C.J.`.m.",
"/.e.w.h.h.h.l.w.e.e.C.C.h.h.h.Z.H.J.J.J.D.&.% v O.XXj Q X.XX .u p m d p * 8 C.h.h.h.D.F.J.J.J.Z.h.C.J.C.b.b./.e.<.h.C.n.l.w.e.l.",
"e.e.e.e.l.<.e.b.v.l.e.n.h.h.Z.Z.h.h.C.h.j.f.9 2 ..X.v Q X.XX/ i y d d y : C v.h.h.Z.C.h.h.Z.h.h.h.h.h.b.e.e.e.e.e.e.l.e.e.b.n.w.",
"l.b.b./.e.l.b.b.h.h.h.h.h.h.h.l.n.h.h.h.h.n.*.# Q X.Q b X.X.! * * y y $ 6 d.j.j.h.j.l.h.h.h.h.h.n.n.l.e.l.h.l.b.b.<.e.b.b.v.h.h.",
"h.h.h.h.h.h.h.h.h.h.h.<.e.b.e.e.b.h.h.h.h.Z.a.5 $ Q ] j ` o.v + o O - 4 @.h.l.<.b.e.e.b.h.h.h.h.H.H.h.C.Z.C.h.h.h.h.h.h.h.h.h.h.",
"n.n.b.l.e.l.h.b.M.h.b.e.e.e.w.w.e.e.b.b.H.G.G ; + u Q m v m i * @ 4 q -.h.b.w.e.e.e.e.e.e.b.b.J.J.J.J.J.J.m.v.v.b./.e.b.h.b.n.h.",
"l.l.e.e.e.e.e.e.q.4.4.l.l.l.w.r.e./.v.h.V.u.  & x J T N j T [ J 5 @ S 6.4.4.l.z.l.e.r.e.<.v.h.C.H.J.J.V.k.n.l.l.e.e.e.e.e.e.q.4.",
"<.e.e.e.e.e.q.7.8.7.7.7.7.q.5.I.7.l.C.H.i.; + J >XuXdX-X&X-XtX3XH - t S 0.7.7.7.^.5.I.7.l.C.J.J.J.J.Z.h.h.n.l.q.e.e.e.e.r.7.8.7.",
"h.n.b.e.e.e.7.I.J.J.9.}.J.{.J.J.'._.H.u.8 + j O O -XdXkXkXkXkXsXY.M e : _ 6.D.J.'.J.J.'._.F.h.h.H.J.Z.Z.h.h.h.v.b.e.e.e.7.).H.S.",
"h.h.h.A.M.{.'.J.J.J.H.$XJ.J.J.J.J.J.F.u.+ n !.#XJ Y U =X9X0XtX4X>XE.n + 8 G.J.J.J.J.J.J.J.F.F.h.h.C.F.C.C.h.h.h.h.m.A.m.'.J.J.J.",
"h.h.h.V.h.C.Z.J.C.h.H.Z.h.H.D.Z.J.J.G.G : } <X<X@X0XdX-XU rXiX8X<X!.} h 4 N.Z.h.H.C.F.J.J.J.J.C.H.H.C.h.h.h.h.h.h.C.h.Z.Z.J.V.C.",
"h.h.h.h.h.h.h.C.h.h.C.h.h.h.h.h.F.F.u.6 u E.!.<XwXgXkX%XL sXhXyX2X<X!.M > 0 h.h.h.h.C.F.F.C.H.F.F.F.C.M.M.V.h.h.h.C.G..XA.C.h.h.",
"<.e.b.h.Z.$XC.h.h.h.n.b.h.h.h.h.h.h.&.- J oX,X<XyXpXaXI z 3XpXyXqX2X>X} j 6 b.h.h.h.h.h.h.h.h.h.h.n.w.e.e.e.l.w.S..X#X#XG.h.h.h.",
"e.e./.m.J.J.$XG.e.l.l.l.l.h.h.n.n.d.V > E.<X<X8XyXiXfXI h ;XpXyX0X7X1X!.M : :.b.h.h.v.n.h.h.h.h.b.e.l.b.b.1.5.[.9XtX6X!.J.G.e.l.",
"n.h.v.v.n.V.v.b.v.v.h.v.l.n.v.e.e.;.- > } !.<XwXpXhXsXh @ *XfXaXyXqX<X+X{ > k b.h.v.e.e.l.e.b.b.v.v.n.h.h.p.U.6XjXsXU D v.n.v.v.",
"h.D.).7.4.^.0.C S #.q.e.e.l.e.v.h.F # x T.+X X3XeXsX*X%   L ;XeX3X>X+X!.J % 5 e.b.e.b.h.b.b.h.h.h.b.^.k.|.=X;XlXlX;Xr A 7.w.e.<.",
"H.J.J.}.7.9.i.= k h #.6.b.<.e.n.h.F # J !.oXx x L I r O   t z x x H E.!.J - = z.e.e.g.h.h.h.h.h.^.I.U.P :XuXjXlXuX&X= 6.J.5.m.e.",
"J.F.`.H.S.A.u.+ j D D @.s.v.e./.`.F & J !.+XY z @           X @ z Y E.W.[ e ; h.b.e./.`.(.M.A._.G.N.G H -XfXuXtX,XI D G.C.H.$XS.",
"e.e.e.e.e.b.=.@ : J _ M 0 $.f.C.Z.*.& M !.<X4X=XU I = .   $ z U -X3X>XW.[ e 5 h.b.Z.Z.F.Z.Z.j.j.c.F S &XtXtX7X=XP.c >.b.h.h.h.C.",
"w.e.l.e.e.e.;.% < i _ _ l 6 q u.n.F O h L.>X9XiXdXrXI +   r -XuXaXtX<X!._ e 5 h.h.h.h.h.h.C.F.f.F V Q.9X9X1X XP.l Z e.e.e.<./.(.",
"b.n.h.b.q.z.&.1 ! b b } _ M h 9 G D @ e } ,X0XyXaXgX&Xt O I sXgXaX0X1X+XL.h 6 h.h.h.d.j.H.J.c.G x Y.=X9X1X X_ k @.k.e.z.g.C.h.J.",
"h.h.h.h.h.h.u.1 ~ ( ~ Q } L._ M j 8 f h { <X7XwXuXaX6Xr @ Y.uXaXyXqX1X+X{ 7 G Z.g.=.F @.f.s.B k Y.Q.Y.!. X_ 9 F g.j.h.h.F.J.J.A.",
"b.h.h.h.n./.#.1 ~ ( ) ' ~.R.P.} P.Y H x h !.2XyXiXiXjXU L eXaXiXyX2X+XT.x = ,.x.K ; v ; F k l Y.:XP.T. X[ k @.g.h.h.n.<.<.b.w.e.",
"h.h.h.h.h.h.=.1 ~ ( ' ' oX!._ x j H =XQ.+ M <XwXiXaXlXeX;XjXgXiXqX@X{ u - k x.$.2 * o.3 @ e Q.=XY P. XY 8 @.g.j.h.h.h.h.h.h.h.h.",
"7.7.n.4.2.6.=.1 ~ ( ' +.@X1X<XoX_ 5 j T.  # L.9XiXaXlXkXhXaXiXyX7XP.g . 6 -.s.B N s v 3 % } Y.x J !.P.k 0 6.7.9.h.6.7.6.h.C.J.Z.",
"J.{.5.'.K.K.,.< ~ ( ) XX0XyXqX<X1X} x Q.  X @ L.yXyXiXiXiXiXiX9XT.u . ; y.H.s.D ..'     P.L.: e T.P.g S 2._.$X_.9.'.$XG.m.H.J.J.",
"J.$XJ.J.J.J.i.< ( ( ) +.<X0XqX1X1X_ j T.O y w . h Y.yXiXyXpX:Xf O $ $ : y.$XN.l s ^ * 7 J + n E._ 7 c N.A.'.J.$X$X$XJ.J.J.$XJ.J.",
"G.(.].F.F.j.=.7 ~...) ' oX7XyX0X1XT.Y T.X y d p O . f =X9XL w + y u w t F B.y.4 + ! ( , O n } M > G K.K.F.K.G.k.m.F.C.h.C.A./.m.",
"e.e.<.h.h.h.;.h  X#XoXXXOX<X1X1X#X!.} T.+ a E d d y $ $ % O w p E E u : Z &.O g Y 2 ! m $ y u @ - &.J.h.l.e.e.e.l.h.h.n.e.e.e.<.",
"e.e.e.e.l.w.;.h +X1XwXwX5XoX@X<X<X!.E.T.+ s ^ ~ E d p $ O y d E ^ E i V >.V % J E.} & p p w # y * q f.b.e.e.e.e.e.e.l.e.e.b.n.<.",
"l.v.b.<.e.<.%.@ P.<X8XyX5XXXO.XX@XW._ T.X a ( ( ^ ^ E d p d E ^ ^ E u q s.8 w L.+X+Xn & p y & * 2 7 ;.e.l.h.l.v.b.w.e.b.b.b.h.h.",
"h.h.h.h.h.h.g.5 J +X1X8X@XO.+.+.O.` l E.+ a ^ ( ( ( ^ ~ W ^ ^ ^ m u - q -.5 @ J ,X<X!.O + p y $ * D d.C.Z.C.h.h.h.h.h.h.h.h.h.h.",
"n.n.b.<.e.l.h.C h W.#X1XoX+.' ) ) b g { X y E W W ~ W W W W E v * & 4 $.0 @ w w H P.} O   + $ # B a.K.J.J.m.n.v.b./.e.b.h.b.n.h.",
"l.l.e.e.e.e.e.>.k x W.#X@X+.) ) ) R u M X $ * y , < y < u , y % X = Z t.f + w   & > e t S C 8 0 a.K.K.D.v.v.l.w.e.e.e.e.e.e.q.4.",
"<.e.e.e.e.e.q.7.t.f V W.@XXX' ( W v j > #     $ 4 4 4 5 = 5 @ o O k 0.2.c f f f V S S S l.C.i.B.K.J.Z.h.h.n.<.e.e.e.e.e.q.7.8.7.",
"h.h.v.e.e.r.7._.K.i.g J !.OX' ~ s 2 7 4 6 . X 6 *.@.@.F F #.k @ o f U.H.B.K p.N.{.J.$XN.{.Z.h.h.Z.H.F.F.C.h.h.n.v.e.e.r.7._.J.G.",
"h.h.h.H.Z.$X}.J.J.J.y.l _ o.] b 2 % 6 G q @ o 4 =.=.&.=.=.=.G ; X 8 N.J.J.J.J.J.J.J.J.J.J.J.$Xh.h.h.Z.h.D.h.h.h.h.H.F.J.}.J.J.J.",
"h.h.h.C.h.C.Z.J.C.h.K.*.9 n v i 7 7 G _ 0 ; o O &.&.@.&.&.@.0 @ X 8 i.j.h.J.Z.h.H.C.Z.J.J.J.J.C.H.H.C.h.h.h.h.h.h.Z.h.Z.Z.J.C.C.",
"h.h.h.h.h.h.h.C.h.h.C.g.@.6 @ - 9 D &.G 8 1 ; - $.&.&.&.@.q 4 + + 5 F -.g.h.h.h.h.h.C.F.F.C.F.F.F.F.C.j.M.M.h.h.h.h.h.h.h.C.h.h.",
"l.e.b.h.Z.J.C.h.h.h.g.b.h.=.8 6 q &.&.@.q q q V Z Z Z C Z C 8 7 ; ; 0 =.d.h.b.h.h.h.h.h.h.h.h.h.j.n.<.w.e.e.l.e.n.h.Z.J.C.h.h.h.",
"e.e./.m.$XJ.$XG.<.<.l.<.l.h.s.@.%.&.&.@.&.$.Z Z #.#.Z Z Z ;.*.y.G G y.:.1.l.<.b.h.h.v.n.h.h.h.h.b.e.l.b.b.e.e.e.(.m.J.J.J.G.e.l.",
"h.h.v.v.v.V.b.n.v.v.h.v.l.h.v.1.:.$.;.#.#.$.$.*.&.&.#.@.&.#.#.%.y.&.-.b.v.h.v.b.h.v.e.e.(.w.b.b.v.v.n.h.h.b.g.n.v.v.n.Z.v.v.v.n.",
"h.Z.).7.6./.7.e.e.<.e.e.<.l.e.b.j.x.1.u.=.=.$.Z $.G #.&.*.K P ,.2.0.w.e.<.e.e.e.b.e.b.h.b.b.h.h.h.b.^.k.k.z.h.A.5.7.w.6.7.e.e.w.",
"H.J.H.S.9.I.$X'.A.l.b.<.v.<.e.b.v.v.h.h.z.>.U.c.6.U.U.B.B.K.G.8.'.J.).A.(.b.l.v.<.e.b.v.v.h.h.b.x.'.{.I.'.).J.J.$XG.9._.J.).A./.",
"$XS.e.S.$XA.h.H.J.J.H.h.h.v.e./.m.m.m.}.}.J.J.S.S.J.J.J.S.e.S.S.H.h.K.J.J.H.h.h.b.e.(.m.m.m.}.S.J.J.A.S.J.J.J.m.e.S.G.H.h.J.J.J.",
"e.e.e.e.e.b.h.h.h.Z.C.h.h.v.Z.Z.Z.Z.Z.h.h.C.M.b.e.(./.e.e.e.e./.b.h.h.h.C.C.h.h.b.Z.Z.Z.Z.Z.h.h.C.M.b.e.(.(.w.w.e.e.w.b.h.h.h.C.",
"/.e.l.e.e.e.e.l.<.l.(.h.h.h.h.h.h.h.C.F.Z.h.h.h.h.h.l.<.e.l.w.e.<.e.<.<.(.z.h.h.h.h.h.h.h.C.F.Z.h.h.h.h.h.l.w.w.l.e.e.e.e.l.w.`.",
"b.n.h.b.w.l.n.C.h.J.J.C.h.h.h.h.C.H.J.Z.H.J.C.n.b.b.b.b.M.h.b.q.b.v.C.h.J.J.C.h.h.h.h.C.H.J.Z.H.$XC.h.b.b.b.b.n.h.b.e.b.v.C.h.J.",
"h.h.h.h.h.h.H.$XJ.S.S.H.Z.C.h.h.h.h.C.h.h.Z.D.h.h.h.h.h.h.h.h.h.h.H.J.J.S.A.H.Z.h.h.h.h.h.h.h.C.Z.Z.h.h.h.h.h.h.h.h.h.h.H.J.J.A.",
"h.h.h.h.n./.w.v.w.e.e.`.`.`.v.w.<.l.b.v.v.v.n.h.h.h.h.h.h.h.h.v.<.<.b./.e.e.`.`.`.`./.w.l.b.v.v.v.h.h.h.h.h.h.h.h.h.v.w.<.v.w.e.",
"h.h.h.h.h.h.h.h.h.h.e.l.b.w.e.e.e.e.l.b.b.h.h.h.h.h.h.h.h.h.h.h.h.h.h.h.h./.l.b.e.e.e.e.e.l.b.v.h.h.h.h.h.h.h.h.h.h.h.h.h.h.h.h.",
"I.7.x.4.r.).n.C.$XH.v.h.h.M.h.n.h.C.Z.h.h.h.h.h.h.n.6.).7.x.4.I.5.n.C.$XH.b.h.h.h.h.v.h.C.Z.h.h.h.h.h.h.n.5.I.8.z.3.).r.n.C.J.F."
};
