/* XPM */
static char *_2fd5fcaf1a44e3a864197951c5e7988Vv4U8u6IBrjYADzD[] = {
/* columns rows colors chars-per-pixel */
"64 64 208 2 ",
"   c #161C2E",
".  c #171F32",
"X  c #172535",
"o  c #1B2032",
"O  c #1A2C3C",
"+  c #1C2935",
"@  c #1A333D",
"#  c #1C3A3D",
"$  c #262C36",
"%  c #332E38",
"&  c #24353B",
"*  c #2C3B3A",
"=  c #2A3539",
"-  c #363839",
";  c #463A3E",
":  c #3D4E3D",
">  c #35463C",
",  c #3D503C",
"<  c #43513A",
"1  c #48503B",
"2  c #514C3E",
"3  c #4E613F",
"4  c #52623D",
"5  c #5A653F",
"6  c #1E2F43",
"7  c #1B3943",
"8  c #1D3846",
"9  c #203246",
"0  c #233A4E",
"q  c #243A45",
"w  c #253E53",
"e  c #4D3E40",
"r  c #1E4242",
"t  c #1D434C",
"y  c #1F4B47",
"u  c #1F4650",
"i  c #1F4C52",
"p  c #2B4947",
"a  c #244649",
"s  c #374B40",
"d  c #3A4741",
"f  c #265C4E",
"g  c #3C5344",
"h  c #375B48",
"j  c #244254",
"k  c #274358",
"l  c #2A485E",
"z  c #254B59",
"x  c #215155",
"c  c #22535A",
"v  c #2A515F",
"b  c #225A58",
"n  c #376547",
"m  c #266D56",
"M  c #246254",
"N  c #2D7556",
"B  c #3B7145",
"V  c #294E60",
"C  c #295262",
"Z  c #245E61",
"A  c #295C65",
"S  c #265560",
"D  c #256666",
"F  c #266B67",
"G  c #2B6B65",
"H  c #27676B",
"J  c #286369",
"K  c #276C6D",
"L  c #2B6263",
"P  c #27716F",
"I  c #29746C",
"U  c #297B6D",
"Y  c #2A7464",
"T  c #554542",
"R  c #465C42",
"E  c #485A41",
"W  c #5D5E41",
"Q  c #654E49",
"!  c #665746",
"~  c #785B4C",
"^  c #496548",
"/  c #566E45",
"(  c #576846",
")  c #5D7344",
"_  c #517848",
"`  c #4F6A55",
"'  c #597B52",
"]  c #546D52",
"[  c #656944",
"{  c #647A43",
"}  c #647F4B",
"|  c #667342",
" . c #737247",
".. c #6B7451",
"X. c #557765",
"o. c #667F60",
"O. c #846251",
"+. c #946D52",
"@. c #398759",
"#. c #2C8366",
"$. c #2C8864",
"%. c #2B836C",
"&. c #2D8B6B",
"*. c #338B64",
"=. c #348768",
"-. c #2F956A",
";. c #389D66",
":. c #329369",
">. c #339968",
",. c #349367",
"<. c #3DA064",
"1. c #489A56",
"2. c #418A51",
"3. c #6F8543",
"4. c #69854C",
"5. c #768546",
"6. c #77864A",
"7. c #7D9647",
"8. c #74924C",
"9. c #668955",
"0. c #669657",
"q. c #749859",
"w. c #758E55",
"e. c #4CAB5E",
"r. c #4AA45F",
"t. c #50AE5C",
"y. c #54A955",
"u. c #55B25A",
"i. c #5AB659",
"p. c #7EAA5F",
"a. c #7AA156",
"s. c #70BD5B",
"d. c #65B95A",
"f. c #499F60",
"g. c #6F976E",
"h. c #6E996E",
"j. c #749B6B",
"k. c #7A9C6B",
"l. c #7B9467",
"z. c #679175",
"x. c #6B9670",
"c. c #759770",
"v. c #43A561",
"b. c #48A860",
"n. c #47A860",
"m. c #75A367",
"M. c #7BA762",
"N. c #79A863",
"B. c #73A069",
"V. c #7BC15C",
"C. c #86854B",
"Z. c #85884B",
"A. c #899B4B",
"S. c #93974E",
"D. c #969F4F",
"F. c #859A58",
"G. c #979852",
"H. c #858951",
"J. c #A19D53",
"K. c #8DA94B",
"L. c #95A94D",
"P. c #9BAC4F",
"I. c #9BB94E",
"U. c #8EAF57",
"Y. c #83A75F",
"T. c #83AD5C",
"R. c #89AD5B",
"E. c #89A252",
"W. c #95AA5A",
"Q. c #8EB355",
"!. c #8AB058",
"~. c #94B552",
"^. c #9CB556",
"/. c #90B05A",
"(. c #9CB25D",
"). c #94BA5A",
"_. c #A6A953",
"`. c #A8A555",
"'. c #B3AE58",
"]. c #A4B755",
"[. c #A4B951",
"{. c #ADB954",
"}. c #A6B35C",
"|. c #ADB55D",
" X c #B4B956",
".X c #B2B55D",
"XX c #B7B85A",
"oX c #BEBA5B",
"OX c #BAB55A",
"+X c #849E6C",
"@X c #869762",
"#X c #82A561",
"$X c #83AB61",
"%X c #89AC61",
"&X c #8EA369",
"*X c #96A766",
"=X c #90AE60",
"-X c #9BAC61",
";X c #93A568",
":X c #A1AC63",
">X c #A9AF61",
",X c #ABB060",
"<X c #86C45D",
"1X c #91C85E",
"2X c #9CCC5F",
"3X c #A7CF60",
"4X c #BDD763",
"5X c #B3D462",
/* pixels */
"I.{.+Xz.j.#Xz.M.N.T.N.N.N.T.N.!.I.!.!.I.I.I.U.#XU.U.R.I.{.+Xz.#Xj.z.M.N.T.N.N.N.!.N.!.I.!.!.I.I.I.U.#XU.U.R.I.}.k.z.#Xj.z.M.N.p.",
" XoXoX>Xz.c.oXk.(.N.T.N.!.p.N.~.I.I.I.I.I.R.k.;Xz.k.c. XoXoX>Xz.o.oXk.(.N.T.N.!.N.N.~.I.I.I.I.I.#Xk.;Xz.k.c. XoXoX>Xz.k.oXk.(.N.",
"oX.X=X.X.X}.[.oXoX.X].I.I.Q.N.$X=X=X^.}.;X,XoX|..XoXoXoX.X=X.X:X( [.oXoX.X].I.I.!.N.$X=X=X^.}.*X.XoX|..XoXoXoX}.=X.X:XoX[.oXoX|.",
"N.N.N.N.N.!.I.I.I.[.[.I.I.Q.{.{.{.{.{.I.I.[.^.!.N.%X$XN.N.N.N.p.$ 3.I.I.[.{.I.I.!.{.{.{.{.{.I.I.[.^.!.N.%X$XN.N.N.N.p.!.I.I.I.[.",
"T.N.N.N.N.N.N.T.T.N.N.I.I.I.I.I.I.I.[.{.[.I.I.I.I.I.!.T.N.N.N.9.F./ T.T.N.N.I.I.I.I.I.I.I.[.{.[.I.I.I.I.I.!.T.N.N.N.N.N.N.T.T.N.",
"T.!.I.T.N.T.!.^.Q..XXX[.I.I.I.I.[.{.oX XoX X[.~.Q.Q.T.T.!.I.T.: 4X[ E.Q..XXX[.I.I.I.I.[.{.oX XXX X[.~.Q.Q.T.T.Q.I.T.N.T.!.^.Q.XX",
"I.I.I.I.I.I. XoXoX|.}. X{.[.I.I.I.I.[.I.I.{.{.I.I.I.I.I.I.I.K.6.4X).[ oX|.}. X{.I.I.I.I.I.[.I.[.{.{.I.I.I.I.I.I.I.I.I.I. XoXoX}.",
"I.I.I.I.Q.T.p.!.p.N.N.=X=X=X=X$Xp.T.R.Q.Q.Q.~.I.I.I.I.I.I.I.5 ].4X5Xh a.N.N.=X=X=X=X$Xp.T.R.Q.Q.Q.~.I.I.I.I.I.I.I.I.Q.p.p.!.p.N.",
"I.I.I.I.I.I.I.I.I.I.p.T.!.p.N.N.N.N.T.!.!.I.I.I.I.I.I.I.I.K._ 4X4X4Xa.{ I.p.T.!.N.N.N.N.N.T.!.Q.I.I.I.I.I.I.I.I.I.I.I.I.I.I.I.~.",
"z.z.~.j.z.g.I.[.oX XT.I.I.~.I.Q.I.I.I.I.I.I.I.I.I.I.k.z.z.) !.1X4X<X3X,  XT.I.I.~.I.Q.I.I.I.I.I.I.I.I.I.I.k.z.g.I.j.z.j.I.[.oX{.",
"oX:Xk.;XoX.X-XXXoXoXXX~.I.I.[. X XoXoXI.I.M.k.Y.k.g.*XoX:X> 5X<X3XV.1X0.C.XX~.I.[.[. X XoXoXI.~.k.k.Y.k.g.*XoX*Xc.;XoX.X-XXXoXoX",
"oXoXoXoXoXoXoXoXoXoXoXoXI.[.{.{.{.{.~.z.j.;X>Xz.>X>X;XoXC.0.2Xs.d.1Xt.i.h `.oXI.[.{.{.{.{.~.z.g.>X>Xz.>X>X;XoXoXoXoXoXoXoXoXoXoX",
"oX(.}.oX XI.[.oX%X%XoXoXoX{.I.I.I.{.k.>X>X.XoXoXoXoXoXoX: d.i.i.<Xs.<.i.v.: oXoX[.I.I.I.{.k.>X:XoXoXoXoXoXoXoX(.|.oX{.I.[.oX%X(.",
"$XN.M.I.[.~.T.M.N.N.].[.[.I.I.{. XoXoXoX XI.[.oX[.!.R.q.B i.u.t.i.1Xt.2.u.N 5.I.I.I.{. XoXoXoX{.I.[.oX[.!.R.$XN.p.I.I.~.T.M.N.T.",
"N.N.N.N.T.p.N.!.~.T.p.~.I.I.{.[.I.I.{.I.I.I.I.[.!.N.N.h u.u.<.i.s.i.i.@.N v.m < 7.{.[.I.I.{.I.I.I.I.[.!.N.N.N.N.N.N.T.N.N.!.~.p.",
"T.!.!.p.N.T.!.!.I.I.I.I.I.I.~.T.~.I.I.I.I.~.Q.T.9.n N 1.@.y y.i.e.i.e.u.M r m M { ~.T.~.I.I.I.I.~.Q.T.N.T.I.T.!.!.p.N.!.!.!.I.I.",
"I.I.I.I.I.I.I.I.I.I.I.T.N.!.N.N.!.I.I.I.I.{. XI.[.5 # # X @.f.=.;.n.-.<.,.c R q.!.N.N.!.I.I.I.I. X XI.[.{.[.I.I.I.I.I.I.I.I.I.I.",
"~.~.!.T.N.T.I.!.~.I.!.N.N.N.N.N.N.N.!.!. XoXoXoXoXoX(.* G t.I &.e.;.-.-.;.Y s N.N.N.N.N.N.!.!.oXoXoXoXoXoX(.~.Q.!.T.N.!.I.!.~.I.",
"T.T.N.N.N.N.N.N.m.h.h.T.T.T.M.B.N.p.Q.I.[. XoXoX]./.8.8 %.-.&.%.>.n.-.-.-.-.i 9.T.M.B.N.p.Q.I.[.oXoXoX]./.Q.T.T.N.N.N.N.N.N.m.h.",
"T.N.N.N.N.N.m.z.x.z.z.z.z.k.k.+Xz.T.[.oXoXoXoX{.I.I.- I -.<.-.-.-.-.-.-.-.-.U & q.k.+Xz.T.[.oXoXoXoX{.I.I.~.T.N.N.N.N.N.m.z.x.z.",
"I.~.!.N.N.N.z.+XoXoXc.>XoX:XoXoX;X;X XI.I.{.oX{.{.3.i &.n.;.-.-.>.-.-.%.-.;.-.b & `.oX;X;X XI.I. XoX{.{.I.I.I.Q.!.N.N.N.z.+XoX.X",
"I.I.I.}.^.:X;XoXoXoX.XoXoXoXoXoXoXoX X X[.I.[. X5 x &.<.e.>.-.-.u.;.>.f.%.i.>.-.t t ] `.oX X XI.I.[. X[.[.I.I.I.I.}.(.:X;XoXoXoX",
"I.I.I.[.I.[.{.oX[.I.oX{.I. X[.{.oXoXoXoX{.5. .p D #.r.u.@.*.<.v.i.u.i.i.=.t.<.n.m 7 g '.oXoXoX[. X X[.I.I.I.I.I.I.[.I.{.{.oX[.[.",
"I.I.I.I.I.I.I.[.I.I.[.I.I.I.I.[. X X[. X X[ @ t a 1.1.f $.>.i.u.i.u.r.i.e.;.e.v.#.* [. X X[. X X X X[.^.^.^.I.I.I.I.I.I.I.[.I.I.",
"T.N.!.I.{.oX[.I.I.I.~.!.I.I.I.I.I.I.I.I.I.I.~.+ n * 7 %.-.e.i.<.n.i.:.f.i.>.-.-.-.Z | I.I.I.I.I.I.~.p.N.N.N.T.N.~.I. XoX[.I.I.I.",
"N.N.$X(.oXoXoX.XN.T.T.T.T.I.I.Q.~.I.I.I.I.Q.N.q.- c U >.u.v.&.-.-.u.<.U e.t.-.-.-.&.c / I.I.I.I.!.N.p.!.!.N.N.N.%X(.oXoXoX.XN.T.",
"~.I.Q.Q.Q.[.Q.Q.Q.Q.~.Q.T.~.Q.N.N.T.M.!.!.Q.Q.) c &.-.v.>.%.t.i.>.;.u.:.&.-.-.m #.%.&.D h 9.!.!.Q.Q.~.I.I.!.~.~.Q.Q.~.[.Q.Q.Q.Q.",
"I.{.+Xz.j.#Xz.M.N.T.N.N.N.T.N.!.I.!.!.I.I.7.g b &.&.-.-.:.t.i.i.>.-.>.<.-.&.-.-.r 7 c t q a.I.I.I.U.#XU.U.R.I.}.k.z.#Xj.z.M.N.p.",
" XoXoX>Xz.c.oXk.(.N.T.N.!.p.N.~.I.I.I.A.4 t P U I %.-.U ,.i.i.u.-.<.-.-.&.-.x %.%.7   3.I.I.I.I.#Xk.;Xz.k.c. XoXoX>Xz.k.oXk.(.N.",
"oX.X=X.X.X}.[.oXoX.X].I.I.Q.N.$X=X=X^.( Z P D i t %.I =.i.i.i.<.<.;.-.&.&.&.$.r t F f ^ w.^.}.*X.XoX|..XoXoXoX}.=X.X:XoX[.oXoX|.",
"N.N.N.N.N.!.I.I.I.[.[.I.I.Q.{.{.{.{.{.L.4 <   i U %.U u.t.;.v.-.v.-.-.-.U P %.-.-.0 7 1 {.{.I.I.[.^.!.N.%X$XN.N.N.N.p.!.I.I.I.[.",
"p.N.T.N.N.N.N.T.p.$X%XI.I.I.I.I.I.I.[. X{.} t U -.*.e.b.b.>.-.-.>.-.-.-.&.%.I &.-.G k 4 I.[. X[.I.I.I.I.I.T.p.M.T.N.N.N.N.T.p.%X",
"!.~.I.!.N.T.~.[.I.oXoX[.I.I.I.I.[. X .` t D %.-.-.-.-.-.-.-.-.-.-.-.<.-.-.-.-.&.-.$.v j C.oX{.oXoX[.~.!.!.!.!.~.I.!.N.!.~.[.I.oX",
"I.I.I.I.I.I. XoXoX|.}. X{.[.I.I.I.I.5 7 c Y U U %.%.-.&.%.-.-.-.%.%.<.;.-.n.-.-.-.m Y K c E I.[.{.{.I.I.I.I.I.I.I.I.I.I. XoXoX}.",
"!.I.I.I.Q.T.p.!.p.N.N.=X=X=X=X$Xp.T.R.4.:   j U -.-.-.%.-.-.>.;.U I ;.e.i.n.u.-.-.-.r i P D a 8.Q.~.I.I.I.I.I.I.I.I.Q.p.p.!.p.N.",
"I.I.I.I.I.I.I.I.I.I.p.T.!.p.N.N.N.N.T.!./ 0 A -.>.t.>.-.<.<.e.-.&.%.-.u.u.i.i.<.m m U i X p / Q.I.I.I.I.I.I.I.I.I.I.I.I.I.I.I.~.",
"z.z.~.j.z.g.I.[.oX XT.I.I.~.I.Q.I.I.7.< w v &.;.n.&.-.;.u.<.v.-.-.U -.e.-.e.t.u.-.x f b D 4 I.I.I.I.I.I.I.k.z.g.I.j.z.j.I.[.oX{.",
"oX:Xk.;XoX.X-XXXoXoXXX~.I.I.[. XS.g u v Y -.&.%.I %.>.u.;.;.-.&.-.&.-.>.v.&.>.u.-.G l & [ G.I.~.k.k.Y.k.g.*XoX*Xc.;XoX.X-XXXoXoX",
"oXoXoXoXoXoXoXoXoXoXoXoXI.[.{.{.A.X D P U F i j v :.u.n.&.$.-.L -.>.-.-.-.U U <.-.&.l 9 P.~.z.g.>X>Xz.>X>X;XoXoXoXoXoXoXoXoXoXoX",
".X=X(. X XI.[.|.$X$XoXoXoX[.I.I.[._.= O 7 9 j A :.b.v.$.G -.A K &.v.-.Y -.%.I %.&.&.G k : F..X,X XoXoXoX XoX.X=X(. X{.I.[.|.$X(.",
"N.N.p.I.I.~.N.N.N.N.~.I.I.I.I.S.5 6 k 9 k v Y -.;.*.G A -.U I P %.<.-.C Y -.P P P P P V k = C.L.I.I.oXI.T.N.N.N.T.I.I.~.N.N.N.p.",
"N.N.N.N.T.p.N.!.~.T.p.~.I.I.{.5.* 6 X j C A L v l l A %.U %.P U &.-.-.U H I P H P Z P H l A c 7 7 X [.!.N.N.N.N.N.N.T.N.N.!.~.p.",
"T.!.!.p.N.T.!.!.I.I.I.I.I.I.~.q.3 6 C H J l l l l C K %.&.P P P &.U &.%.P P P K A D 0 A K J P Z t 3 T.N.T.I.T.!.!.p.N.!.!.!.I.I.",
"I.I.I.I.I.I.I.I.I.I.I.T.N.!.' O Z P P K J j C A H P P U P K H P I &.P U P K H P H I F . 7 7 X 4 _. XI.[.{.[.I.I.I.I.I.I.I.I.I.I.",
"~.~.!.T.N.T.I.!.~.I.!.N.N.N.N.s 7 j l j O 8 l A J K P J P C P P P P P P P K v P U U -.b & : } _.oXoXoXoXoX(.~.Q.!.T.N.!.I.!.~.I.",
"T.T.N.N.N.N.N.N.m.h.h.T.T.T.M.B.q./ :   u A C l l l l A A A A P P J H P P P z c I -.&.&.&.D & L.oXoXoX]./.Q.T.T.N.N.N.N.N.N.m.h.",
"T.N.N.N.N.N.m.z.x.z.z.z.z.k.k.+XX.h 7 D J C l l C C 9 H H P l K P l C A P P P i c P U I D p `.oXoXoX{.I.I.~.T.N.N.N.N.N.m.z.x.z.",
"I.~.Q.N.N.m.z.*XoXoX+X.XoX,XoXoXW.d t D P H H D i & 9 V A v w A C 0 V j A A P K j O @ O = D.I.I.{.oX X X[.I.I.~.Q.N.N.B.z.*XoX.X",
"I.I.I. X{.oX>XoXoXoXoXoXoXoXoXoXoXoX_.W     $ | < O l l l 6 0 l 0 6 J k O l A J H P P t G.oXoX[.I.I.{.I.[.I.I.I.I. X XoX>XoXoXoX",
"I.I.I.[.I.[.{.oX[.I.oX{.I. X[.{.oXoXoXoX{.{.S.g t D P A 0 o J l $ % S H w 8 O O v c i [ oXoXoX[. X X[.I.I.I.I.I.I.[.I.{.{.oX[.[.",
"I.I.I.I.I.I.I.[.I.I.[.I.I.I.I.[. X X[. X X X XE 0 S D t X D P x   T O P P P p < < | 5. X X[. X X X X[.^.^.^.I.I.I.I.I.I.I.[.I.I.",
"T.N.!.I.{.oX[.I.I.I.~.!.I.I.I.I.I.I.I.I.I.I.~.p.' s > > o = 7 ; T O.- X 7 X } I.I.I.I.I.I.I.I.I.I.~.p.N.N.N.T.N.~.I. XoX[.I.I.I.",
"N.N.$X(.oXoXoX.XN.T.T.T.T.I.I.Q.~.I.I.I.I.Q.N.p.!.4.' * % O.; +.~ +.- - R 4.T.!.I.I.Q.~.I.I.I.I.!.N.p.!.!.N.N.N.%X(.oXoXoX.XN.T.",
"~.I.Q.Q.Q.[.Q.Q.Q.Q.~.Q.T.~.Q.N.N.T.M.!.!.Q.Q.~.K.7.) T 2 ~ ; Q ; O.e Q ( 6.U.R.I.Q.N.N.T.M.!.!.Q.Q.~.I.I.!.~.~.Q.Q.~.[.Q.Q.Q.Q.",
"I.{.+Xz.j.#Xz.M.N.T.N.N.N.T.N.!.I.!.!.I.I.I.U.#X4.4.} 2 O.% Q - ~ T T ^ ^ ' 0.N.!.N.!.I.!.!.I.I.I.U.#XU.U.R.I.}.k.z.#Xj.z.M.N.p.",
"oXoXoX.Xc.+XoX;X}.$XR.T.Q.T.N.!.Q.Q.I.I.R.%X;X:Xl.@X..Z. .! [ ` .. ...6.9.a.T.Q.p.N.!.Q.Q.I.I.R.%X;X:X+X;X&XoXoXoX.Xc.;XoX;X}.$X",
"oX|.N.|.oX|.I.oXoXoX XI.I.Q.N.$X(.(.(.>X>XoXoX}.|.oX'.J.G.' |.H.Z.K.`.`.OX XI.I.!.N.$X(.(.(.>X.XoXoX}.|.oXoXoX(.N.|..X XI.oXoXoX",
"N.N.N.N.N.!.I.I.I.[.[.I.I.Q.{.{.{.{.{.I.I.[.^.!.N.%X$XN.N.N.N.p.!.I.I.I.[.[.I.I.!.{.{.{.{.{.I.I.[.^.!.N.%X$XN.N.N.N.p.!.I.I.I.[.",
"p.N.T.N.N.N.N.T.p.$X%XI.I.I.I.I.I.I.[. X{.I.I.I.I.I.T.p.N.T.N.N.N.M.T.p.$X%XI.I.I.I.I.I.I.[. X[.I.I.I.I.I.T.p.M.T.N.N.N.N.T.p.%X",
"!.~.I.!.N.T.~.[.I.oXoX[.I.I.I.I.[. XoX{. XoX[.~.!.!.!.!.~.I.!.N.!.~.[.I.oXoX[.I.I.I.I.[. XoX{.oXoX[.~.!.!.!.!.~.I.!.N.!.~.[.I.oX",
"I.I.I.I.I.I. XoXoX|.}. X{.[.I.I.I.I.[.I.I.{.{.I.I.I.I.I.I.I.I.I.I. XoXoX|.}. X{.I.I.I.I.I.[.I.[.{.{.I.I.I.I.I.I.I.I.I.I. XoXoX}.",
"I.I.I.I.Q.T.p.!.p.N.N.=X=X=X=X$Xp.T.R.Q.Q.Q.~.I.I.I.I.I.I.I.I.Q.p.p.!.p.N.N.=X=X=X=X$Xp.T.R.Q.Q.Q.~.I.I.I.I.I.I.I.I.Q.p.p.!.p.N.",
"I.I.I.I.I.I.I.I.I.I.p.T.!.p.N.N.N.N.T.!.!.I.I.I.I.I.I.I.I.I.I.I.I.I.I.I.I.p.T.!.N.N.N.N.N.T.!.Q.I.I.I.I.I.I.I.I.I.I.I.I.I.I.I.~.",
"+Xz.Y.g.+X+X~.[.oXoX/.~.I.~.I.~.I.[.[.I.I.I.I.I.I.~.k.+Xz.Y.g.+Xk.~.P.oXoX/.~.I.~.I.~.I.[.[.I.I.I.I.I.I.~.k.+Xx.R.g.+Xk.~.[.oX X"
};
