/* XPM */
static char *_c767622cacb48dbb2acdafe97227081O28RWsYcI3rOA6DJ[] = {
/* columns rows colors chars-per-pixel */
"64 64 164 2 ",
"   c #161C2E",
".  c #222432",
"X  c #282732",
"o  c #232B31",
"O  c #2F2C36",
"+  c #2B3334",
"@  c #28363E",
"#  c #2E3C39",
"$  c #393337",
"%  c #343F35",
"&  c #3B343A",
"*  c #323C3A",
"=  c #383E39",
"-  c #40373B",
";  c #423E3D",
":  c #4B3E3B",
">  c #344035",
",  c #3C4038",
"<  c #3E4E3B",
"1  c #4A4C3C",
"2  c #5C4A3F",
"3  c #455039",
"4  c #4D513D",
"5  c #49583A",
"6  c #53643D",
"7  c #5B643F",
"8  c #5D703F",
"9  c #404A41",
"0  c #544343",
"q  c #564E43",
"w  c #495E41",
"e  c #515541",
"r  c #614B47",
"t  c #6D5445",
"y  c #6D534B",
"u  c #7B5C4E",
"i  c #4F6947",
"p  c #5E6341",
"a  c #5D7D4F",
"s  c #4F6352",
"d  c #5D7D51",
"f  c #5B7159",
"g  c #636443",
"h  c #76604A",
"j  c #7F6148",
"k  c #627241",
"l  c #677C42",
"z  c #61754D",
"x  c #667E4B",
"c  c #6D7344",
"v  c #7D7D4A",
"b  c #717F51",
"n  c #916C4C",
"m  c #95724F",
"M  c #866353",
"N  c #8B6753",
"B  c #8C6D55",
"V  c #946D54",
"C  c #837153",
"Z  c #9A7153",
"A  c #A07554",
"S  c #A57854",
"D  c #AC7D55",
"F  c #A27E5D",
"G  c #5D8154",
"H  c #6E8444",
"J  c #64814C",
"K  c #6F814B",
"L  c #6E8C4E",
"P  c #758545",
"I  c #7B8547",
"U  c #738845",
"Y  c #75804C",
"T  c #7F9847",
"R  c #7C9749",
"E  c #618656",
"W  c #6D8150",
"Q  c #648B58",
"!  c #6F9658",
"~  c #6F995D",
"^  c #7E9054",
"/  c #729E5F",
"(  c #7EAA5F",
")  c #6F976E",
"_  c #6E996E",
"`  c #749B6B",
"'  c #7A9C6B",
"]  c #679175",
"[  c #6B9670",
"{  c #749770",
"}  c #75A367",
"|  c #7BA762",
" . c #79A863",
".. c #73A069",
"X. c #87854C",
"o. c #828849",
"O. c #8B8B4D",
"+. c #859649",
"@. c #849E48",
"#. c #8B964C",
"$. c #97984F",
"%. c #99825A",
"&. c #819F52",
"*. c #999751",
"=. c #9C9952",
"-. c #A28258",
";. c #B48355",
":. c #B2875B",
">. c #B78B5B",
",. c #BB8D5A",
"<. c #A29F53",
"1. c #85A44F",
"2. c #88A349",
"3. c #8DA84B",
"4. c #97AE4E",
"5. c #9CAB4F",
"6. c #96B34D",
"7. c #9CB34F",
"8. c #9BB94E",
"9. c #86A852",
"0. c #8EAF57",
"q. c #83A75F",
"w. c #83AD5C",
"e. c #89AD5B",
"r. c #90AF5C",
"t. c #8EB355",
"y. c #8AB058",
"u. c #94B552",
"i. c #9DB556",
"p. c #90B05A",
"a. c #9CB25D",
"s. c #ACA956",
"d. c #B3AF58",
"f. c #A3B755",
"g. c #A4B951",
"h. c #ADB954",
"j. c #A6B35D",
"k. c #ADB55D",
"l. c #B4B956",
"z. c #B2B55D",
"x. c #B7B95A",
"c. c #BEBA5B",
"v. c #849E6C",
"b. c #B68F60",
"n. c #BE9A66",
"m. c #82A561",
"M. c #8FA763",
"N. c #83AB61",
"B. c #89AC61",
"V. c #8EA369",
"C. c #95A766",
"Z. c #90AE60",
"A. c #9BAC61",
"S. c #93A568",
"D. c #A1AC63",
"F. c #A9AF61",
"G. c #ABB060",
"H. c #C1945E",
"J. c #C59961",
"K. c #C99F64",
"L. c #CDA467",
"P. c #C4A469",
"I. c #D6AF6D",
"U. c #DAB570",
/* pixels */
"8.h.v.] ` m.] |  .w. . . .w. .y.8.y.y.8.8.8.0.m.0.0.e.8.h.v.] m.` ] |  .w. . . .y. .y.8.y.y.8.8.8.0.m.0.0.e.8.j.' ] m.` ] |  .( ",
"l.c.c.F.] { c.' a. .w. .y.(  .u.8.8.8.8.8.e.' S.] ' { l.c.c.F.] ' c.' a. .w. .y. . .u.8.8.8.8.8.m.' S.] ' { l.c.c.F.] ' c.' a. .",
"c.z.Z.z.z.j.g.c.c.z.f.8.8.t. .N.Z.Z.i.j.S.G.c.k.z.c.c.c.z.Z.z.D.c.g.c.c.z.f.8.8.y. .N.Z.Z.i.j.C.z.c.k.z.c.c.c.j.Z.z.D.c.g.c.c.k.",
" . . . . .y.8.8.8.g.g.8.8.t.h.h.h.h.h.8.8.g.i.y. .B.N. . . . .( y.8.8.8.g.g.8.8.y.h.h.h.h.h.8.8.g.i.y. .B.N. . . . .( y.8.8.8.g.",
"w. . . . . . .w.w. . .8.8.8.8.8.8.8.g.h.g.8.8.8.8.8.y.w. . . . . . .w.w. . .8.8.8.8.8.8.8.g.h.g.8.8.8.8.8.y.w. . . . . . .w.w. .",
"w.y.8.w. .w.y.u.t.z.x.g.8.8.8.8.g.h.c.l.c.l.g.u.t.t.w.w.y.8.w. .w.y.u.t.z.x.g.8.8.8.8.g.h.c.l.x.l.g.u.t.t.w.w.t.8.w. .w.y.u.t.x.",
"8.8.8.8.8.8.l.c.c.k.j.l.h.g.8.8.8.8.g.8.8.h.h.8.8.8.8.8.8.8.8.8.8.l.c.c.k.j.l.h.8.8.8.8.8.g.8.g.h.h.8.8.8.8.8.8.8.8.8.8.l.c.c.j.",
"8.8.8.8.t.w.( y.(  . .Z.Z.Z.Z.N.( w.e.t.t.t.u.8.8.8.8.8.8.8.8.t.( ( y.(  . .Z.Z.Z.Z.N.( w.e.t.t.t.u.8.8.8.8.8.8.8.8.t.( ( y.(  .",
"8.8.8.8.8.8.8.8.8.8.( w.y.(  . . . .w.y.y.8.8.8.8.8.8.8.8.8.8.8.8.8.8.8.8.( w.y. . . . . .w.y.t.8.8.8.8.8.8.8.8.8.8.8.8.8.8.8.u.",
"] ] u.` ] ) 8.g.c.l.w.8.8.u.8.t.8.8.8.8.8.8.8.8.8.8.' ] ] u.` ] ` 8.g.c.l.w.8.8.u.8.t.8.8.8.8.8.8.8.8.8.8.' ] ) 8.` ] ` 8.g.c.h.",
"c.D.' S.c.z.A.x.c.c.x.u.8.8.g.l.l.c.c.8.8.| ' q.' ) C.c.D.' S.c.z.A.x.c.c.x.u.8.g.g.l.l.c.c.8.u.' ' q.' ) C.c.C.{ S.c.z.A.x.c.c.",
"c.c.c.c.c.c.c.c.c.c.c.c.8.g.h.h.h.h.u.] ` S.F.] F.F.S.c.c.c.c.c.c.c.c.c.c.c.c.8.g.h.h.h.h.u.] ) F.F.] F.F.S.c.c.c.c.c.c.c.c.c.c.",
"c.a.j.c.l.8.g.c.B.B.c.c.c.h.8.8.8.h.' F.F.z.c.c.c.c.c.c.a.j.c.h.8.g.c.B.B.c.c.c.g.8.8.8.h.' F.D.c.c.c.c.c.c.c.a.k.c.h.8.g.c.B.a.",
"N. .| 8.g.u.w.|  . .f.g.g.8.8.h.l.c.c.c.l.8.g.c.g.y.e.N. .| 8.8.u.w.|  . .f.g.8.8.8.h.l.c.c.c.h.8.g.c.g.y.e.N. .( 8.8.u.w.|  .w.",
" . . . .w.(  .y.u.w.( u.8.8.h.g.8.8.h.8.8.8.8.g.y. . . . . . .w. . .y.u.w.( u.8.8.h.g.8.8.h.8.8.8.8.g.y. . . . . . .w. . .y.u.( ",
"w.y.y.(  .w.y.y.8.8.8.8.8.8.u.w.u.8.8.8.8.u.t.w. .w.8.w.y.y.(  .y.y.y.8.8.8.8.8.8.u.w.u.8.8.8.8.u.t.w. .w.8.w.y.y.(  .y.y.y.8.8.",
"8.8.8.8.8.8.8.8.8.8.8.w. .y. . .y.8.8.8.8.h.l.8.g.h.g.8.8.8.8.8.8.8.8.8.8.8.w.( y. . .y.8.8.8.8.l.l.8.g.h.g.8.8.8.8.8.8.8.8.8.8.",
"u.u.y.w. .w.8.y.u.8.y. . . . . . . .y.y.l.c.c.c.c.c.a.u.u.y.w. .y.8.y.u.8.y. . . . . . . .y.y.c.c.c.c.c.c.a.u.t.y.w. .y.8.y.u.8.",
"w.w. . . . . . .} _ _ w.w.w.| .. .( t.8.g.l.c.c.f.p.t.w.w. . . . . . .} _ _ w.w.w.| .. .( t.8.g.c.c.c.f.p.t.w.w. . . . . . .} _ ",
"w. . . . . .} ] [ ] ] ] ] ' ' v.] w.g.c.c.c.c.h.8.8.u.w. . . . . .} ] [ ] ] ] ] m.' v.] w.g.c.c.c.c.h.8.8.u.w. . . . . .} ] [ ] ",
"8.u.y. . . .] v.c.c.{ F.c.D.c.c.S.S.l.8.8.h.c.h.h.8.8.8.u.y. . . .] v.c.c.{ F.c.S.c.c.S.S.l.8.8.l.c.h.h.8.8.8.t.y. . . .] v.c.z.",
"8.8.8.j.i.D.S.c.c.c.z.c.c.c.c.c.c.c.l.l.g.8.g.l.g.g.8.8.8.8.j.a.D.S.c.c.c.z.c.c.c.c.4 4 4 c l.8.8.g.l.g.g.8.8.8.8.j.a.D.S.c.c.c.",
"8.8.8.g.8.g.h.c.g.8.c.h.8.l.g.h.c.c.c.c.h.h.l.g.8.8.8.8.8.8.g.8.h.h.c.g.8.c.#.P p   . & & O   +.l.l.g.8.8.8.8.8.8.g.8.h.h.c.g.g.",
"8.8.8.8.8.8.8.g.8.8.g.8.8.8.8.g.l.l.g.l.l.l.l.g.i.i.i.8.8.8.8.8.8.8.g.8.k 3 o   O r y Z S Z $ 4 l.l.g.i.i.i.8.8.8.8.8.8.8.g.8.8.",
"w. .y.8.h.c.g.8.8.8.u.y.8.8.8.8.8.8.8.8.8.8.u.(  . . .w. .y.8.l.s.P       & y M N V ;.D j       H u.(  . . .w. .u.8.l.c.g.8.8.8.",
" . .N.a.c.c.c.z. .w.w.w.w.8.8.t.u.8.8.8.8.t. .( y.y. . . .N.^ X.g   . & & M V V A ;.S V & : :   w ~ ( y.y. . . .B.a.c.c.c.z. .w.",
"u.8.t.t.t.g.t.t.t.t.u.t.w.u.t. . .w.| y.y.t.t.u.8.8.y.u.k < o   O r y M Z S D ;.D V M M S ;.;.2   J u.8.8.y.u.u.t.t.u.g.t.t.t.t.",
"8.h.v.] ` m.] |  .w. . . .w. .y.8.y.y.8.8.8.0.m.&.x       & y M V V ;.;.;.S S ;.;.;.;.;.;.;.;.j   x m.0.0.e.8.j.' ] m.` ] |  .( ",
"l.c.c.F.] { c.' a. .w. .y.(  .u.8.8.8.8.8.e.s 9 @   O r r M Z S ;.J.J.t u M Z ;.;.;.;.;.;.D V t   f S.] ' { l.c.c.F.] ' c.' a. .",
"c.z.Z.z.z.j.g.c.c.z.f.8.8.t. .N.Z.Z.K Y *   O & 0 M N V V >.H.U.%.%.  $ n ;.;.H.H.m . & M M M   = *.k.z.c.c.c.j.Z.z.D.c.g.c.c.k.",
" . . . . .y.8.8.8.g.g.8.8.t.h.h.I I       & y M N V A ;.;.>.n.n.- : : n ;.;.,.P.%.; 0 M M M y   P i.y. .B.N. . . . .( y.8.8.8.g.",
"(  .w. . . . .w.( N.B.8.8.8.8.k           M M Z D ;.;.;.;.D S S D ;.;.;.;.n q B r r M M & & . + @.8.8.8.8.w.( | w. . . . .w.( B.",
"y.u.8.y. .w.u.g.8.c.c.g.8.8.H   C U.U.I.h : ;.;.;.;.H.H.H.;.;.;.;.;.S S S M M M u r       , k O.d.g.u.y.y.y.y.u.8.y. .y.u.g.8.c.",
"8.8.8.8.8.8.l.c.c.k.j.l.h.+.% 2 K.K.H.J.L.-.;.;.,.L.U.U.K.;.;.;.D V M M M M 0 & O   + 6 6 U @.4.h.h.8.8.8.8.8.8.8.8.8.8.l.c.c.j.",
"y.8.8.8.t.w.( y.(  . .Z.Z.x   j U.U.U.L.L.U.H.L.U.F M V ;.;.V M M M M M &       * W d d J e.t.t.t.u.8.8.8.8.8.8.8.8.t.( ( y.(  .",
"8.8.8.8.8.8.8.8.8.8.( w.y.a   %.L.J.L.b.M U.q   . & ;.D S M M M u r       # i J d E Q /  .w.y.t.8.8.8.8.8.8.8.8.8.8.8.8.8.8.8.u.",
"] ] u.` ] ) 8.g.c.l.w.8.8.H   %.L.;.;.S M U.q : y M V V M y & & O   + g p J U 3.1.6.t.8.8.8.8.8.8.8.8.8.8.' ] ) 8.` ] ` 8.g.c.h.",
"c.D.' S.c.z.A.x.c.c.x.u.8.8.P   U.K.H.V :.I.h X M M r r O   + , e b O.=.=.x.u.8.g.g.l.l.c.c.8.u.' ' q.' ) C.c.C.{ S.c.z.A.x.c.c.",
"c.c.c.c.c.c.c.c.c.c.c.c.8.g.I   C U.U.L.I.,.t X & &     1 g v O.O.<.d.c.c.c.c.8.g.h.h.h.h.u.] ) F.F.] F.F.S.c.c.c.c.c.c.c.c.c.c.",
"z.Z.a.l.l.8.g.k.N.N.c.c.c.g.3.% O q U.U.U.: X       g p z W o.5.3.7.k.N.N.c.c.x.g.8.8.g.l.M.z.G.l.c.c.c.l.c.z.Z.a.l.h.8.g.k.N.a.",
" . .( 8.8.u. . . . .u.8.8.8.8.$.+         o > , 5 a G Q Q ! 8.8.u. . . . .u.8.8.8.8.c.h.l.c.c.g.8.8.c.8.w. . . .w.8.8.u. . . .( ",
" . . . .w.(  .y.u.w.( u.8.8.h.5.l 6 7 6 6 8 U U L ~ /  . . . .w. . .y.u.w.( u.8.8.h.g.8.8.h.8.8.8.8.g.y. . . . . . .w. . .y.u.( ",
"w.y.y.(  .w.y.y.8.8.8.8.8.8.u.w.u.2.T T T R 9.w. .w.8.w.y.y.(  .y.y.y.8.8.8.8.8.8.u.w.u.8.8.8.8.u.t.w. .w.8.w.y.y.(  .y.y.y.8.8.",
"8.8.8.8.8.8.8.8.8.8.8.w. .y. . .y.8.8.8.8.h.l.8.g.h.g.8.8.8.8.8.8.8.8.8.8.8.w.( y. . .y.8.8.8.8.l.l.8.g.h.g.8.8.8.8.8.8.8.8.8.8.",
"u.u.y.w. .w.8.y.u.8.y. . . . . . . .y.y.l.c.c.c.c.c.a.u.u.y.w. .y.8.y.u.8.y. . . . . . . .y.y.c.c.c.c.c.c.a.u.t.y.w. .y.8.y.u.8.",
"w.w. . . . . . .} _ _ w.w.w.| .. .( t.8.g.l.c.c.f.p.t.w.w. . . . . . .} _ _ w.w.w.| .. .( t.8.g.c.c.c.f.p.t.w.w. . . . . . .} _ ",
"w. . . . . .} ] [ ] ] ] ] ' ' v.] w.g.c.c.c.c.h.8.8.u.w. . . . . .} ] [ ] ] ] ] m.' v.] w.g.c.c.c.c.h.8.8.u.w. . . . . .} ] [ ] ",
"8.u.t. . .} ] C.c.c.v.z.c.G.c.c.D.D.h.8.8.g.c.l.l.g.8.8.u.t. . ...] C.c.c.v.z.c.D.c.c.D.D.h.8.8.h.c.l.l.g.8.8.u.t. . ...] C.c.z.",
"8.8.8.l.h.c.F.c.c.c.c.c.c.c.c.c.c.c.c.c.g.8.8.h.8.g.8.8.8.8.l.l.c.F.c.c.c.c.c.c.c.c.c.c.c.c.c.g.8.8.h.8.g.8.8.8.8.l.l.c.F.c.c.c.",
"8.8.8.g.8.g.h.c.g.8.c.h.8.l.g.h.c.c.c.c.h.h.l.g.8.8.8.8.8.8.g.8.h.h.c.g.8.c.h.g.l.g.h.c.c.c.c.g.l.l.g.8.8.8.8.8.8.g.8.h.h.c.g.g.",
"8.8.8.8.8.8.8.g.8.8.g.8.8.8.8.g.l.l.g.l.l.l.l.g.i.i.i.8.8.8.8.8.8.8.g.8.8.g.8.8.8.8.g.l.l.g.l.l.l.l.g.i.i.i.8.8.8.8.8.8.8.g.8.8.",
"w. .y.8.h.c.g.8.8.8.u.y.8.8.8.8.8.8.8.8.8.8.u.(  . . .w. .y.8.l.c.g.8.8.8.u.y.8.8.8.8.8.8.8.8.8.8.u.(  . . .w. .u.8.l.c.g.8.8.8.",
" . .N.a.c.c.c.z. .w.w.w.w.8.8.t.u.8.8.8.8.t. .( y.y. . . .N.a.c.c.c.z. .w.w.w.y.8.8.t.u.8.8.8.8.y. .( y.y. . . .B.a.c.c.c.z. .w.",
"u.8.t.t.t.g.t.t.t.t.u.t.w.u.t. . .w.| y.y.t.t.u.8.8.y.u.8.t.t.u.g.t.t.t.t.u.t.e.8.t. . .w.| y.y.t.t.u.8.8.y.u.u.t.t.u.g.t.t.t.t.",
"8.h.v.] ` m.] |  .w. . . .w. .y.8.y.y.8.8.8.0.m.0.0.e.8.h.v.] m.` ] |  .w. . . .y. .y.8.y.y.8.8.8.0.m.0.0.e.8.j.' ] m.` ] |  .( ",
"c.c.c.z.{ v.c.S.j.N.e.w.t.w. .y.t.t.8.8.e.N.S.D.v.S.V.c.c.c.z.{ S.c.S.j.N.e.w.t.(  .y.t.t.8.8.e.N.S.D.v.S.V.c.c.c.z.{ S.c.S.j.N.",
"c.k. .k.c.k.8.c.c.c.l.8.8.t. .N.a.a.a.F.F.c.c.j.k.c.c.c.k. .k.z.l.8.c.c.c.l.8.8.y. .N.a.a.a.F.z.c.c.j.k.c.c.c.a. .k.z.l.8.c.c.c.",
" . . . . .y.8.8.8.g.g.8.8.t.h.h.h.h.h.8.8.g.i.y. .B.N. . . . .( y.8.8.8.g.g.8.8.y.h.h.h.h.h.8.8.g.i.y. .B.N. . . . .( y.8.8.8.g.",
"(  .w. . . . .w.( N.B.8.8.8.8.8.8.8.g.l.h.8.8.8.8.8.w.(  .w. . . . .w.( N.B.8.8.8.8.8.8.8.g.l.g.8.8.8.8.8.w.( | w. . . . .w.( B.",
"y.u.8.y. .w.u.g.8.c.c.g.8.8.8.8.g.l.c.h.l.c.g.u.y.y.y.y.u.8.y. .y.u.g.8.c.c.g.8.8.8.8.g.l.c.h.c.c.g.u.y.y.y.y.u.8.y. .y.u.g.8.c.",
"8.8.8.8.8.8.l.c.c.k.j.l.h.g.8.8.8.8.g.8.8.h.h.8.8.8.8.8.8.8.8.8.8.l.c.c.k.j.l.h.8.8.8.8.8.g.8.g.h.h.8.8.8.8.8.8.8.8.8.8.l.c.c.j.",
"8.8.8.8.t.w.( y.(  . .Z.Z.Z.Z.N.( w.e.t.t.t.u.8.8.8.8.8.8.8.8.t.( ( y.(  . .Z.Z.Z.Z.N.( w.e.t.t.t.u.8.8.8.8.8.8.8.8.t.( ( y.(  .",
"8.8.8.8.8.8.8.8.8.8.( w.y.(  . . . .w.y.y.8.8.8.8.8.8.8.8.8.8.8.8.8.8.8.8.( w.y. . . . . .w.y.t.8.8.8.8.8.8.8.8.8.8.8.8.8.8.8.u.",
"v.] q.) v.v.u.g.c.c.r.u.8.u.8.u.8.g.g.8.8.8.8.8.8.u.' v.] q.) v.' u.g.c.c.r.u.8.u.8.u.8.g.g.8.8.8.8.8.8.u.' v.[ e.) v.' u.g.c.l."
};
